<svg width="75" height="75" viewBox="0 0 75 75" fill="none" xmlns="http://www.w3.org/2000/svg">
<g clip-path="url(#clip0_40_112)">
<path d="M73.1738 23.1525C78.6653 38.1165 71.2988 56.9092 57.4275 65.604C43.6987 74.205 8.0385 77.148 0.947999 52.485C-8.57325 19.359 56.3798 -22.6193 73.1738 23.1525Z" fill="#E1EFF9"/>
<path d="M38.1435 56.385C41.958 56.4289 45.6994 55.338 48.8925 53.2509C52.0857 51.1639 54.5865 48.1748 56.0773 44.6635C57.568 41.1521 57.9815 37.2769 57.2652 33.53C56.5488 29.7832 54.735 26.3338 52.0541 23.62C49.3732 20.9062 45.9461 19.0505 42.2083 18.2885C38.4704 17.5266 34.5905 17.8928 31.0612 19.3407C27.5319 20.7885 24.5126 23.2527 22.3868 26.4202C20.261 29.5877 19.1246 33.3155 19.122 37.1302C19.1066 39.6435 19.5864 42.1352 20.534 44.4631C21.4816 46.7909 22.8784 48.9093 24.6447 50.6973C26.4111 52.4853 28.5123 53.9079 30.8284 54.8838C33.1446 55.8596 35.6302 56.3698 38.1435 56.385Z" fill="white"/>
<path d="M48.7215 44.2852C48.466 44.285 48.2211 44.1834 48.0405 44.0027C47.8599 43.822 47.7585 43.577 47.7585 43.3215V40.6095H40.2112C40.0842 40.6103 39.9582 40.5859 39.8406 40.5379C39.723 40.4898 39.616 40.4189 39.5259 40.3293C39.4357 40.2398 39.3642 40.1333 39.3154 40.0159C39.2666 39.8986 39.2415 39.7728 39.2415 39.6457V38.0932C39.243 37.9005 39.303 37.7122 39.414 37.5532L45.6105 28.4175C45.6987 28.287 45.8176 28.1802 45.9567 28.1063C46.0959 28.0324 46.251 27.9938 46.4085 27.9937H48.7215C48.8481 27.9936 48.9734 28.0185 49.0904 28.0669C49.2074 28.1153 49.3137 28.1863 49.4032 28.2758C49.4927 28.3653 49.5637 28.4716 49.6121 28.5886C49.6605 28.7055 49.6853 28.8309 49.6852 28.9575V38.6827H51.6427C51.8982 38.6827 52.1433 38.7842 52.3239 38.9649C52.5046 39.1456 52.6061 39.3906 52.6061 39.6461C52.6061 39.9016 52.5046 40.1467 52.3239 40.3273C52.1433 40.508 51.8982 40.6095 51.6427 40.6095H49.6852V43.3215C49.6853 43.4481 49.6605 43.5735 49.6121 43.6904C49.5637 43.8074 49.4927 43.9137 49.4032 44.0032C49.3137 44.0927 49.2074 44.1637 49.0904 44.2121C48.9734 44.2605 48.8481 44.2853 48.7215 44.2852ZM41.175 38.6827H47.7592V29.9265H46.9245L41.175 38.394V38.6827ZM37.1985 44.2852H28.326C28.1994 44.2853 28.074 44.2605 27.957 44.2121C27.8401 44.1637 27.7338 44.0927 27.6443 44.0032C27.5548 43.9137 27.4838 43.8074 27.4354 43.6904C27.387 43.5735 27.3621 43.4481 27.3622 43.3215V42.174C27.3622 40.947 28.59 40.1617 30.3382 39.0637C32.5102 37.689 35.2102 35.9955 35.2102 33.474C35.2102 31.9762 34.4865 30.1537 32.4427 29.9452C30.8842 29.7615 29.289 30.78 28.4482 32.4802C28.3326 32.713 28.1292 32.8902 27.8828 32.973C27.6365 33.0558 27.3673 33.0373 27.1346 32.9216C26.9019 32.806 26.7246 32.6026 26.6419 32.3562C26.5591 32.1099 26.5776 31.8407 26.6932 31.608C27.8902 29.154 30.2767 27.7245 32.6272 28.0065C35.3085 28.2765 37.119 30.4612 37.119 33.4552C37.119 37.02 33.7807 39.1372 31.344 40.6777C30.5854 41.0963 29.886 41.6141 29.2642 42.2175V42.3397H37.1985C37.4541 42.3397 37.6992 42.4413 37.8799 42.622C38.0607 42.8028 38.1622 43.0479 38.1622 43.3035C38.1622 43.5591 38.0607 43.8042 37.8799 43.985C37.6992 44.1657 37.4541 44.2672 37.1985 44.2672V44.2852Z" fill="#F5BBBB"/>
<path d="M47.5313 44.88C47.4043 44.8807 47.2785 44.8563 47.161 44.8082C47.0435 44.7602 46.9367 44.6894 46.8467 44.5999C46.7566 44.5104 46.6851 44.404 46.6363 44.2868C46.5875 44.1696 46.5624 44.044 46.5623 43.917V41.205H39.021C38.8939 41.2058 38.768 41.1815 38.6504 41.1334C38.5327 41.0853 38.4258 41.0144 38.3357 40.9249C38.2455 40.8353 38.174 40.7288 38.1252 40.6115C38.0764 40.4941 38.0513 40.3683 38.0513 40.2413V38.6888C38.0528 38.496 38.1128 38.3078 38.2238 38.1488L44.4203 29.0123C44.5086 28.8819 44.6275 28.7752 44.7666 28.7014C44.9057 28.6277 45.0608 28.5892 45.2183 28.5893H47.5313C47.6578 28.5892 47.7831 28.614 47.9 28.6624C48.0169 28.7107 48.1232 28.7816 48.2127 28.8711C48.3022 28.9605 48.3732 29.0667 48.4216 29.1836C48.4701 29.3005 48.495 29.4257 48.495 29.5523V39.2783H50.4645C50.72 39.2783 50.9651 39.3798 51.1457 39.5604C51.3264 39.7411 51.4279 39.9861 51.4279 40.2416C51.4279 40.4971 51.3264 40.7422 51.1457 40.9229C50.9651 41.1035 50.72 41.205 50.4645 41.205H48.495V43.917C48.495 44.0435 48.4701 44.1688 48.4216 44.2857C48.3732 44.4026 48.3022 44.5088 48.2127 44.5982C48.1232 44.6877 48.0169 44.7586 47.9 44.8069C47.7831 44.8553 47.6578 44.8801 47.5313 44.88ZM39.984 39.2775H46.5615V30.5228H45.7335L39.984 38.9723V39.279V39.2775ZM36.0075 44.88H27.099C26.972 44.8809 26.8461 44.8567 26.7285 44.8086C26.611 44.7606 26.504 44.6898 26.414 44.6003C26.3239 44.5108 26.2524 44.4043 26.2037 44.2871C26.155 44.1698 26.1299 44.044 26.13 43.917V42.7695C26.13 41.5425 27.357 40.7573 29.112 39.6645C31.284 38.2845 33.984 36.597 33.984 34.0688C33.984 32.4983 33.2595 30.7493 31.2165 30.5408C29.658 30.3563 28.0628 31.3755 27.222 33.075C27.15 33.2642 27.0201 33.4258 26.851 33.5369C26.6818 33.648 26.4819 33.7029 26.2797 33.6938C26.0775 33.6848 25.8834 33.6122 25.7248 33.4864C25.5662 33.3607 25.4514 33.1881 25.3965 32.9933C25.3596 32.8643 25.3501 32.729 25.3686 32.5961C25.3871 32.4632 25.4331 32.3356 25.5038 32.2215C26.7315 29.7675 29.0813 28.3313 31.4378 28.614C34.119 28.884 35.9288 31.068 35.9288 34.0628C35.9288 37.6275 32.5913 39.7448 30.1553 41.2905C29.3955 41.7055 28.6956 42.2217 28.0748 42.825V42.9473H36.009C36.2646 42.9473 36.5098 43.0488 36.6905 43.2295C36.8712 43.4103 36.9728 43.6554 36.9728 43.911C36.9728 44.1666 36.8712 44.4118 36.6905 44.5925C36.5098 44.7732 36.2646 44.8748 36.009 44.8748V44.88H36.0075Z" fill="#A74602"/>
<path d="M11.6302 37.5787C17.4345 37.4985 17.9865 43.0207 17.9865 48.537C17.9865 54.612 15.207 56.2132 11.6302 56.238C8.05275 56.2627 10.9425 37.6095 10.9425 37.6095M64.215 37.5787C58.41 37.4985 57.864 43.0207 57.864 48.537C57.864 54.612 60.6375 56.2132 64.215 56.238C67.7925 56.2627 64.908 37.6095 64.908 37.6095" fill="#434FF1"/>
<path d="M64.5277 43.0455H62.871V36.2475C62.8462 22.1775 51.642 10.7467 37.9282 10.7467C24.2145 10.7467 12.9855 22.1782 12.9855 36.2475V43.0462H11.3595V36.2475C11.3595 21.264 23.2755 9.07123 37.9282 9.07123C52.581 9.07123 64.5277 21.2632 64.5277 36.2475V43.0455ZM41.739 66.1657C40.5525 66.1657 39.3682 66.0855 38.1922 65.9265L38.4135 64.2885C43.6874 64.9569 49.0386 63.9681 53.7253 61.4591C58.4121 58.9502 62.2023 55.0454 64.5705 50.286L67.6387 44.187L69.1177 44.9355L66.0502 51.0345C63.7905 55.5557 60.3228 59.3628 56.0316 62.0336C51.7404 64.7044 46.7934 66.1347 41.739 66.1657Z" fill="#1924B1"/>
<path d="M64.1595 56.238C68.8657 56.238 72.75 52.0657 72.75 46.887C72.75 41.7082 68.8905 37.5787 64.1595 37.5787C59.4292 37.5787 59.4472 56.238 64.1595 56.238ZM11.6302 56.238C6.91723 56.238 3.03973 52.0657 3.03973 46.887C3.03973 41.7082 6.89923 37.5787 11.6302 37.5787C16.3605 37.5787 16.3792 56.238 11.6302 56.238Z" fill="#1924B1"/>
<path d="M24.6075 50.1937L20.748 60.1282L35.0625 53.3175L25.3065 50.1937" fill="white"/>
<path d="M67.884 55.176C65.7467 49.8603 65.7467 43.9242 67.884 38.6085L68.9093 39.0202C66.9281 44.073 66.9281 49.6875 68.9093 54.7402L67.884 55.176ZM7.72126 55.1767L6.72076 54.7162C8.70745 49.6645 8.70745 44.0479 6.72076 38.9962L7.74601 38.5845C9.88518 43.91 9.87631 49.8576 7.72126 55.1767Z" fill="#434FF1"/>
<path d="M46.1197 67.5652L37.7385 68.424C37.2591 68.4738 36.7746 68.4221 36.3166 68.2722C35.8586 68.1224 35.4372 67.8777 35.08 67.5541C34.7229 67.2305 34.4378 66.8353 34.2436 66.3943C34.0493 65.9532 33.9501 65.4762 33.9525 64.9942C33.9552 64.5121 34.0598 64.0359 34.2593 63.5969C34.4588 63.1579 34.7488 62.766 35.1102 62.4469C35.4716 62.1277 35.8964 61.8885 36.3567 61.7448C36.817 61.6011 37.3024 61.5563 37.7812 61.6132L46.1197 62.607V67.5652Z" fill="#1924B1"/>
</g>
<defs>
<clipPath id="clip0_40_112">
<rect width="75" height="75" fill="white"/>
</clipPath>
</defs>
</svg>
