<svg width="75" height="75" viewBox="0 0 75 75" fill="none" xmlns="http://www.w3.org/2000/svg">
<g clip-path="url(#clip0_40_49)">
<path d="M71.7 13.05C68.7 6.90001 62.1 -1.19999 34.575 0.150007C7.125 1.42501 2.09999 14.475 1.04999 36.45C-5.24335e-06 58.35 -5.17501 75.375 22.2 75C49.65 74.625 74.25 78.75 74.925 49.725C75.375 29.7 73.275 16.35 71.7 12.975V13.05Z" fill="#D9EAF5"/>
<path d="M65.175 65.325H14.625V13.875C14.625 11.625 16.35 9.90002 18.525 9.90002H61.275C63.45 9.90002 65.175 11.7 65.175 13.875V65.325Z" fill="white"/>
<path d="M65.175 20.25V13.875C65.175 11.625 63.45 9.90002 61.2 9.90002H18.525C16.35 9.90002 14.625 11.7 14.625 13.875V20.25H65.25H65.175Z" fill="#434FF1"/>
<path d="M23.7 17.25C24.2837 17.2305 24.8369 16.9849 25.2427 16.565C25.6486 16.1452 25.8753 15.584 25.875 15C25.875 14.4033 25.638 13.831 25.216 13.409C24.794 12.9871 24.2217 12.75 23.625 12.75C23.0414 12.7695 22.4882 13.0151 22.0823 13.435C21.6764 13.8548 21.4497 14.416 21.45 15C21.45 15.5967 21.6871 16.169 22.109 16.591C22.531 17.0129 23.1033 17.25 23.7 17.25ZM56.25 17.25C56.8204 17.2119 57.3549 16.9581 57.7449 16.5402C58.1349 16.1223 58.3513 15.5716 58.35 15C58.3503 14.416 58.1236 13.8548 57.7177 13.435C57.3119 13.0151 56.7587 12.7695 56.175 12.75C55.5914 12.7695 55.0382 13.0151 54.6323 13.435C54.2264 13.8548 53.9997 14.416 54 15C54 15.5967 54.2371 16.169 54.659 16.591C55.081 17.0129 55.6533 17.25 56.25 17.25Z" fill="#D9EAF5"/>
<path d="M24.975 31.125H22.275C21.75 31.125 21.375 30.75 21.375 30.225V27.525C21.375 27 21.75 26.625 22.275 26.625H24.975C25.5 26.625 25.875 27 25.875 27.525V30.225C25.875 30.75 25.5 31.125 24.975 31.125ZM33.15 31.125H30.525C30 31.125 29.625 30.75 29.625 30.225V27.525C29.625 27 30 26.625 30.525 26.625H33.15C33.675 26.625 34.05 27 34.05 27.525V30.225C34.05 30.75 33.675 31.125 33.15 31.125ZM41.325 31.125H38.7C38.175 31.125 37.8 30.75 37.8 30.225V27.525C37.8 27 38.175 26.625 38.7 26.625H41.325C41.85 26.625 42.3 27 42.3 27.525V30.225C42.3 30.75 41.85 31.125 41.325 31.125ZM49.5 31.125H46.95C46.425 31.125 46.05 30.75 46.05 30.225V27.525C46.05 27 46.425 26.625 46.95 26.625H49.5C50.025 26.625 50.4 27 50.4 27.525V30.225C50.4 30.75 49.95 31.125 49.5 31.125ZM57.75 31.125H55.125C54.6 31.125 54.225 30.75 54.225 30.225V27.525C54.225 27 54.6 26.625 55.125 26.625H57.75C58.275 26.625 58.65 27 58.65 27.525V30.225C58.65 30.75 58.2 31.125 57.75 31.125Z" fill="#DBECF7"/>
<path d="M24.975 39.75H22.275C21.75 39.75 21.375 39.3 21.375 38.775V36.15C21.375 35.625 21.75 35.175 22.275 35.175H24.975C25.5 35.175 25.875 35.625 25.875 36.15V38.775C25.875 39.225 25.5 39.675 24.975 39.675V39.75ZM33.15 39.75H30.525C30 39.75 29.625 39.3 29.625 38.775V36.15C29.625 35.625 30 35.175 30.525 35.175H33.15C33.675 35.175 34.05 35.625 34.05 36.15V38.775C34.05 39.225 33.675 39.675 33.15 39.675V39.75ZM41.325 39.75H38.7C38.175 39.75 37.8 39.3 37.8 38.775V36.15C37.8 35.625 38.175 35.175 38.7 35.175H41.325C41.85 35.175 42.3 35.625 42.3 36.15V38.775C42.3 39.225 41.85 39.675 41.325 39.675V39.75ZM49.5 39.75H46.95C46.425 39.75 46.05 39.3 46.05 38.775V36.15C46.05 35.625 46.425 35.175 46.95 35.175H49.5C50.025 35.175 50.4 35.625 50.4 36.15V38.775C50.4 39.225 49.95 39.675 49.5 39.675V39.75ZM57.75 39.75H55.125C54.6 39.75 54.225 39.3 54.225 38.775V36.15C54.225 35.625 54.6 35.175 55.125 35.175H57.75C58.275 35.175 58.65 35.625 58.65 36.15V38.775C58.65 39.225 58.2 39.675 57.75 39.675V39.75Z" fill="#96C8E6"/>
<path d="M24.975 48.225H22.275C21.75 48.225 21.375 47.775 21.375 47.25V44.625C21.375 44.1 21.75 43.725 22.275 43.725H24.975C25.5 43.725 25.875 44.1 25.875 44.625V47.25C25.875 47.7 25.5 48.225 24.975 48.225Z" fill="#DBECF7"/>
<path d="M33.15 48.225H30.525C30 48.225 29.625 47.775 29.625 47.25V44.625C29.625 44.1 30 43.725 30.525 43.725H33.15C33.675 43.725 34.05 44.1 34.05 44.625V47.25C34.05 47.7 33.675 48.225 33.15 48.225ZM41.325 48.225H38.7C38.175 48.225 37.8 47.775 37.8 47.25V44.625C37.8 44.1 38.175 43.725 38.7 43.725H41.325C41.85 43.725 42.3 44.1 42.3 44.625V47.25C42.3 47.7 41.85 48.225 41.325 48.225ZM49.5 48.225H46.95C46.425 48.225 46.05 47.775 46.05 47.25V44.625C46.05 44.1 46.425 43.725 46.95 43.725H49.5C50.025 43.725 50.4 44.1 50.4 44.625V47.25C50.4 47.7 49.95 48.225 49.5 48.225ZM57.75 48.225H55.125C54.6 48.225 54.225 47.775 54.225 47.25V44.625C54.225 44.1 54.6 43.725 55.125 43.725H57.75C58.275 43.725 58.65 44.1 58.65 44.625V47.25C58.65 47.7 58.2 48.225 57.75 48.225Z" fill="#96C8E6"/>
<path d="M24.975 56.625H22.275C21.75 56.625 21.375 56.25 21.375 55.725V53.1C21.375 52.575 21.75 52.2 22.275 52.2H24.975C25.5 52.2 25.875 52.575 25.875 53.1V55.8C25.875 56.25 25.5 56.55 24.975 56.55V56.625Z" fill="#DBECF7"/>
<path d="M33.15 56.625H30.525C30 56.625 29.625 56.25 29.625 55.725V53.1C29.625 52.575 30 52.2 30.525 52.2H33.15C33.675 52.2 34.05 52.575 34.05 53.1V55.8C34.05 56.25 33.675 56.55 33.15 56.55V56.625ZM41.325 56.625H38.7C38.175 56.625 37.8 56.25 37.8 55.725V53.1C37.8 52.575 38.175 52.2 38.7 52.2H41.325C41.85 52.2 42.3 52.575 42.3 53.1V55.8C42.3 56.25 41.85 56.55 41.325 56.55V56.625ZM49.5 56.625H46.95C46.425 56.625 46.05 56.25 46.05 55.725V53.1C46.05 52.575 46.425 52.2 46.95 52.2H49.5C50.025 52.2 50.4 52.575 50.4 53.1V55.8C50.4 56.25 49.95 56.55 49.5 56.55V56.625ZM57.75 56.625H55.125C54.6 56.625 54.225 56.25 54.225 55.725V53.1C54.225 52.575 54.6 52.2 55.125 52.2H57.75C58.275 52.2 58.65 52.575 58.65 53.1V55.8C58.65 56.25 58.2 56.55 57.75 56.55V56.625Z" fill="#96C8E6"/>
<path d="M23.625 15.9C23.025 15.9 22.5 15.45 22.5 14.85V6.89998C22.5 6.29998 23.025 5.84998 23.625 5.84998C24.225 5.84998 24.675 6.29998 24.675 6.89998V14.85C24.675 15.45 24.15 15.9 23.625 15.9ZM56.25 15.9C55.575 15.9 55.125 15.45 55.125 14.85V6.89998C55.125 6.29998 55.575 5.84998 56.175 5.84998C56.775 5.84998 57.225 6.29998 57.225 6.89998V14.85C57.225 15.45 56.7 15.9 56.175 15.9H56.25Z" fill="#313CC4"/>
<path d="M54.75 53.7C54.75 57.45 51.75 60.45 48 60.45C44.25 60.45 41.325 57.45 41.325 53.7C41.325 49.95 44.325 46.95 48.075 46.95C51.675 46.95 54.825 50.1 54.825 53.7H54.75Z" stroke="#2E43A3" stroke-width="2.7"/>
<path d="M44.475 52.125L48.45 56.4L55.725 47.4L53.175 47.025L48.225 54.9L45.9 51.45L44.4 52.2L44.475 52.125Z" fill="#A74602" stroke="#A74602" stroke-width="1.4" stroke-miterlimit="10" stroke-linecap="round" stroke-linejoin="round"/>
<path d="M28.8 37.275C26.55 36.975 24.975 34.8 25.35 32.625C25.725 30.375 27.75 28.725 29.85 29.025C32.1 29.4 33.75 31.5 33.375 33.75C33 36 30.975 37.65 28.8 37.275Z" fill="#313CC4"/>
<path d="M29.025 35.55C28.4183 35.4704 27.8681 35.1531 27.4953 34.6679C27.1226 34.1826 26.9579 33.5692 27.0375 32.9625C27.117 32.3558 27.4344 31.8056 27.9196 31.4328C28.4049 31.0601 29.0183 30.8954 29.625 30.975C29.9215 31.0118 30.2078 31.1074 30.467 31.2561C30.7262 31.4048 30.9532 31.6036 31.1348 31.841C31.3163 32.0784 31.4487 32.3496 31.5243 32.6387C31.5999 32.9278 31.6171 33.2291 31.575 33.525C31.5474 33.8282 31.4586 34.1226 31.314 34.3904C31.1693 34.6583 30.9718 34.894 30.7335 35.0833C30.4951 35.2726 30.2207 35.4116 29.9271 35.4918C29.6334 35.572 29.3265 35.5918 29.025 35.55Z" fill="#1924B1"/>
<path d="M52.725 40.65C50.475 40.35 48.9 38.25 49.275 36.075C49.575 33.825 51.675 32.175 53.85 32.475C56.1 32.775 57.675 34.875 57.3 37.2C57.075 39.45 55.05 40.95 52.725 40.65Z" fill="#313CC4"/>
<path d="M52.95 38.85C52.3533 38.7704 51.8126 38.4571 51.4469 37.9789C51.0812 37.5006 50.9205 36.8967 51 36.3C51.0796 35.7033 51.3929 35.1626 51.8712 34.7969C52.3494 34.4312 52.9533 34.2704 53.55 34.35C53.8466 34.3869 54.1328 34.4824 54.392 34.6311C54.6513 34.7798 54.8783 34.9787 55.0598 35.2161C55.2413 35.4534 55.3738 35.7246 55.4493 36.0137C55.5249 36.3029 55.5422 36.6041 55.5 36.9C55.5 38.175 54.225 39 52.95 38.85Z" fill="#1924B1"/>
<path d="M59.775 32.025C59.775 32.025 60 28.65 59.55 26.775L55.8 20.775C54.675 19.125 52.2 17.925 50.25 17.625L38.25 15.9C37.05 15.75 36.3 16.05 35.25 16.65L26.85 23.25C21.45 22.5 20.925 28.5 21 31.2C21 31.95 21.6 32.7 22.35 32.7L24.525 33V32.475C24.975 29.85 27.45 27.975 30.075 28.275C32.7 28.65 34.575 31.2 34.2 33.825V34.35L48.45 36.45V35.925C48.9 33.225 51.375 31.35 54 31.725C56.625 32.1 58.5 34.575 58.125 37.275V37.8L59.925 38.025L60 37.275C60.075 36.975 60 36.75 59.7 36.525L59.925 35.1C60.075 34.125 60.3 33.15 59.925 32.325L59.775 32.025ZM25.725 26.775C25.575 27.75 24.9 28.425 24.15 28.35C23.4 28.35 22.95 27.375 23.1 26.4C23.25 25.35 23.85 24.675 24.6 24.75C25.35 24.75 25.875 25.725 25.725 26.7V26.775ZM44.7 24.675C44.7 25.05 44.325 25.35 43.95 25.275L32.175 23.7C31.575 23.55 31.425 22.725 32.025 22.425L37.8 17.775C38.25 17.475 38.7 17.4 39.3 17.475L43.8 18.075C44.325 18.075 44.775 18.6 44.775 19.125L44.7 24.675ZM54.525 26.775L47.55 25.8L47.25 18.675L48.9 18.9C50.55 19.125 52.05 20.1 52.875 21.6L55.2 25.8C55.5 26.25 55.2 26.85 54.525 26.775ZM58.575 27.375L58.8 29.625V31.425L57.75 31.275C57.3 31.2 57 30.825 57 30.3C57 30.3 57.225 27.15 58.575 27.375Z" fill="#A74602"/>
<path d="M16.275 42.525C20.1 41.025 21.525 35.325 19.425 29.775C17.25 24.075 12.45 20.775 8.62503 22.275C4.72503 23.775 3.37503 29.475 5.47503 35.025C7.57503 40.65 12.45 44.025 16.275 42.525Z" stroke="#313CC4" stroke-width="2" stroke-miterlimit="10"/>
<path d="M21.3 27.525C18.9128 27.4976 16.5501 27.0403 14.325 26.175C13.05 25.575 12.525 24.975 12.6 24.3C12.675 23.55 13.425 23.25 14.85 23.025C15.975 22.8 17.475 22.875 19.05 23.175C20.325 23.4 22.05 23.85 23.1 24.225L22.35 24.975C21.675 24.675 20.175 24.225 18.9 24.075C17.4 23.85 16.05 23.775 14.925 23.925C13.8 24.075 13.5 24.375 13.5 24.45C13.5 24.45 13.65 24.9 14.7 25.425C15.9294 25.9405 17.2123 26.3178 18.525 26.55C21.9 27.075 23.925 26.55 24 26.25C24 26.175 23.625 25.8 23.25 25.65C23.475 25.275 24 24.9 24 24.9C24.6 25.425 24.975 25.95 24.9 26.4C24.75 27.15 23.25 27.525 21.3 27.525ZM25.425 57.225L21.675 60.225C21.1714 60.6433 20.5652 60.9194 19.9191 61.0249C19.273 61.1304 18.6105 61.0614 18 60.825C16.95 60.525 15.975 59.85 15.075 59.325C13.0418 57.8832 11.2668 56.1082 9.82501 54.075C8.91326 52.8483 8.15747 51.5131 7.57501 50.1C7.42501 49.35 7.20001 48.825 7.12501 48.075C7.05001 47.175 7.27501 46.35 7.57501 45.6C8.45954 43.8727 9.68406 42.3421 11.175 41.1L12 40.5L12.6 40.05C13.35 39.45 14.175 38.925 15.075 38.475C15.975 37.95 16.95 37.5 17.925 37.2C18.675 37.05 19.2 36.9 19.875 36.9C20.625 36.9 21.225 37.125 21.9 37.5C23.8512 38.7569 25.5336 40.3884 26.85 42.3C27.75 43.425 28.35 44.55 29.1 45.825C29.7 47.1 30.225 48.45 30.525 49.8C30.675 50.475 30.75 51.15 30.525 51.9C30.3717 52.9113 29.8345 53.8246 29.025 54.45L25.5 57.225H25.425ZM21.75 52.575C22.95 51.825 24 50.925 25.125 50.025C25.5 49.725 25.575 49.275 25.275 48.9L22.8 45.6C22.425 45.15 22.05 45.075 21.525 45.45L15.075 50.55C14.625 50.85 14.55 51.3 14.925 51.75L17.4 55.05C17.7 55.425 18.15 55.5 18.525 55.2L21.75 52.575ZM15.975 45L18.225 43.2L19.8 41.7C20.1 41.4 20.325 41.1 20.4 40.725C20.475 40.425 20.4 40.2 20.025 40.05H19.35C18.75 40.05 18.225 40.2 17.625 40.425C16.581 40.9049 15.5989 41.5093 14.7 42.225L12.75 43.725C12 44.475 11.25 45.225 10.725 46.125C10.5 46.5 10.275 46.875 10.2 47.325C10.125 47.85 10.425 48.075 10.95 48.075C11.325 48.075 11.7 47.85 12 47.7L14.325 46.2L15.975 45Z" fill="#313CC4"/>
<path d="M28.875 60.6C29.55 60.6 30.15 60.75 30.75 60.825C31.125 60.825 31.425 60.825 31.8 60.975C31.95 60.975 31.95 60.975 31.95 61.2L31.575 64.275V64.425C31.575 64.575 31.65 64.575 31.725 64.575L33.675 64.8L35.025 64.95V65.25C35.025 66 34.875 66.675 34.725 67.35L34.875 67.575C35.625 67.575 36.375 67.725 37.125 67.875C37.2 67.875 37.275 67.875 37.35 68.025L38.25 69L38.475 69.3V69.75C38.475 69.975 38.475 70.575 38.325 71.25C38.2504 71.7748 37.9729 72.2494 37.5523 72.572C37.1316 72.8945 36.6012 73.0392 36.075 72.975L34.35 72.75C34.2 72.75 34.2 72.6 34.125 72.525L23.625 58.875C23.55 58.65 22.575 57.75 23.325 57.15C24.45 56.1 25.875 54.45 27.6 54.9L27.975 55.425C28.5727 56.2084 29.148 57.0088 29.7 57.825L29.1 60.45H28.95L28.875 60.6Z" fill="#313CC4"/>
<path d="M21.825 52.575L18.6 55.2C18.225 55.5 17.85 55.425 17.475 55.05L15 51.75C14.7 51.3 14.7 50.85 15.15 50.55C17.4 48.9 19.425 47.175 21.6 45.45C22.05 45.15 22.5 45.15 22.875 45.6L25.35 48.9C25.65 49.275 25.575 49.65 25.2 50.025C24.0679 50.8747 22.9177 51.6999 21.75 52.5L21.825 52.575Z" fill="#A74602"/>
</g>
<defs>
<clipPath id="clip0_40_49">
<rect width="75" height="75" fill="white"/>
</clipPath>
</defs>
</svg>
