<svg width="74" height="75" viewBox="0 0 74 75" fill="none" xmlns="http://www.w3.org/2000/svg">
<g clip-path="url(#clip0_40_15)">
<path d="M0.371761 38.025C-1.08928 9.525 16.4432 0.3 33.5373 0C52.677 0 70.6477 21.975 72.474 43.95C74.3003 65.85 59.1786 72.975 49.974 74.1C37.0438 75.6 1.90585 66.6 0.371761 38.025Z" fill="#DBECF7"/>
<path d="M45.2987 52.2H28.3506V61.8H45.2987V52.2Z" fill="#313CC4"/>
<path d="M60.7127 55.65L12.9367 55.8C11.7679 55.8 10.8182 54.675 10.8182 53.325V21.225C10.8182 19.8 11.7679 18.75 13.0097 18.675L60.7127 18.6C61.8815 18.6 62.8312 19.725 62.8312 21.075V53.175C62.8312 54.525 61.8815 55.65 60.6396 55.65H60.7127Z" fill="#EEF8FF" stroke="#434FF1" stroke-width="1.6" stroke-miterlimit="10"/>
<path d="M47.9286 13.5C44.4577 11.6478 40.5896 10.7195 36.6786 10.8C32.7676 10.7195 28.8995 11.6478 25.4286 13.5C23.8214 17.25 23.7484 38.55 36.6786 39C49.6818 38.55 49.5357 17.25 47.9286 13.5Z" fill="#1924B1"/>
<path d="M45.8831 15.6C43.0356 14.1168 39.8699 13.3946 36.6786 13.5C33.4993 13.4535 30.3595 14.2271 27.5471 15.75C26.2321 18.75 26.1591 36.075 36.6786 36.375C47.198 36.15 47.125 18.675 45.8831 15.675V15.6Z" fill="#F5BBBB"/>
<path d="M37.1899 15.075H36.9708C34.3359 15.0551 31.7333 15.6717 29.3734 16.875C28.2776 19.425 28.2046 34.05 36.9708 34.275H37.1899V15.075Z" fill="#A74602"/>
<path d="M61.9546 55.8H11.6948C11.2565 55.8 10.8182 55.275 10.8182 54.675V48.6H62.8312V54.6C62.8312 55.35 62.3929 55.8 61.9546 55.8ZM48.513 61.35C49.3896 62.025 49.7549 63 48.9513 63.6C47.7094 64.725 44.349 63.975 37.0438 63.9C29.3003 63.75 25.3555 64.425 24.4059 63.45C23.8945 62.85 24.6981 61.95 25.2825 61.575C26.8166 60.525 29.4464 60.75 36.6786 60.675C44.7143 60.675 47.1981 60.3 48.586 61.425L48.513 61.35Z" fill="#434FF1"/>
<path d="M40.6234 28.2L46.0292 44.4L49.8279 39.75L53.8458 43.125L55.7451 40.8L57.5714 38.55L53.6266 35.175L57.4253 30.525L40.6234 28.2Z" fill="white" stroke="#434FF1" stroke-width="1.2" stroke-miterlimit="10" stroke-linejoin="round"/>
</g>
<defs>
<clipPath id="clip0_40_15">
<rect width="73.0519" height="75" fill="white" transform="translate(0.298706)"/>
</clipPath>
</defs>
</svg>
