<svg width="22" height="28" viewBox="0 0 22 28" fill="none" xmlns="http://www.w3.org/2000/svg">
<path fill-rule="evenodd" clip-rule="evenodd" d="M3.47368 0C1.55521 0 0 1.70946 0 3.81818V24.1818C0 26.2906 1.55523 28 3.47368 28H18.5263C20.4448 28 22 26.2906 22 24.1818V11.4545C22 11.117 21.878 10.7933 21.6609 10.5546L12.3977 0.372807C12.2869 0.251007 12.1559 0.156418 12.0135 0.0930108C11.8768 0.0321617 11.7294 0 11.5789 0H3.47368ZM10.4211 2.54545H3.47368C2.83419 2.54545 2.31579 3.11527 2.31579 3.81818V24.1818C2.31579 24.8847 2.8342 25.4545 3.47368 25.4545H18.5263C19.1658 25.4545 19.6842 24.8847 19.6842 24.1818V12.7273H11.5789C10.9394 12.7273 10.4211 12.1575 10.4211 11.4545V2.54545ZM18.0467 10.1819L12.7368 4.3454V10.1819H18.0467Z" fill="#1924B1"/>
</svg>
