<svg width="219" height="138" viewBox="0 0 219 138" fill="none" xmlns="http://www.w3.org/2000/svg">
<path d="M67.1675 115.319H59.6263L58.5018 26.5367H66.043L67.1675 115.319Z" fill="white" stroke="#262626" stroke-miterlimit="10"/>
<path d="M66.043 26.5367V28.9916L58.5018 27.2878V26.5367H66.043Z" fill="#262626"/>
<path d="M80.7679 12.3661L78.8173 17.2044L77.0206 21.6636L75.6543 25.0538C75.4779 25.4913 75.1723 25.8665 74.777 26.1309C74.3818 26.3953 73.9152 26.5367 73.4376 26.5368H50.7448C50.2671 26.5368 49.8005 26.3954 49.4052 26.131C49.01 25.8666 48.7044 25.4914 48.528 25.0538L47.1618 21.6636L45.3623 17.2044L43.4144 12.3661H80.7679Z" fill="white" stroke="#262626" stroke-miterlimit="10"/>
<path d="M39.8275 12.3655H83.8601" stroke="#262626" stroke-miterlimit="10" stroke-linecap="round"/>
<path d="M43.4144 12.3656H80.7679L62.0915 8.53302L43.4144 12.3656Z" stroke="#262626" stroke-miterlimit="10" stroke-linecap="round"/>
<path d="M62.0916 8.53309V1" stroke="#262626" stroke-miterlimit="10" stroke-linecap="round"/>
<path d="M66.043 30.4299V32.2853L58.5018 30.7675V30.4299H66.043Z" fill="#262626"/>
<path d="M69.7677 29.0499H54.8148V30.4429H69.7677V29.0499Z" fill="white" stroke="#262626" stroke-miterlimit="10"/>
<path d="M78.4024 17.8698L76.605 22.329H48.304L46.5072 17.8698H78.4024Z" fill="#BDDCE8"/>
<path d="M78.8175 17.2043L77.0207 21.6636H47.1619L45.3646 17.2043H78.8175Z" stroke="#262626" stroke-miterlimit="10" stroke-linecap="round"/>
<path d="M51.021 21.6636L49.2242 17.2043" stroke="#262626" stroke-miterlimit="10" stroke-linecap="round"/>
<path d="M54.8807 21.6636L53.0834 17.2043" stroke="#262626" stroke-miterlimit="10" stroke-linecap="round"/>
<path d="M58.7399 21.6636L56.9431 17.2043" stroke="#262626" stroke-miterlimit="10" stroke-linecap="round"/>
<path d="M73.0382 21.6636L74.8355 17.2043" stroke="#262626" stroke-miterlimit="10" stroke-linecap="round"/>
<path d="M69.1788 21.6636L70.9756 17.2043" stroke="#262626" stroke-miterlimit="10" stroke-linecap="round"/>
<path d="M65.3193 21.6636L67.1167 17.2043" stroke="#262626" stroke-miterlimit="10" stroke-linecap="round"/>
<path d="M62.0916 21.6636V17.2043" stroke="#262626" stroke-miterlimit="10" stroke-linecap="round"/>
<path d="M209.746 82.4884H90.4203C98.5043 60.6254 122.16 44.7973 150.084 44.7973C178.007 44.7973 201.663 60.6254 209.746 82.4884Z" stroke="#262626" stroke-miterlimit="10" stroke-linecap="round"/>
<path d="M206.113 82.6493H95.718C102.63 63.9551 127.038 49.8995 150.916 49.8995C174.794 49.8995 199.2 63.9551 206.113 82.6493Z" fill="#BDDCE8"/>
<path d="M206.967 82.4884H93.1992C100.322 63.2232 125.478 48.7379 150.085 48.7379C174.692 48.7379 199.845 63.2232 206.967 82.4884Z" stroke="#262626" stroke-miterlimit="10" stroke-linecap="round"/>
<path d="M157.288 43.2015V45.0662" stroke="#262626" stroke-miterlimit="10" stroke-linecap="round"/>
<path d="M142.811 45.0662V43.2015" stroke="#262626" stroke-miterlimit="10" stroke-linecap="round"/>
<path d="M159.688 41.0908H141.37V43.6057H159.688V41.0908Z" fill="#FED4C7"/>
<path d="M159.242 40.6506H140.924V43.1655H159.242V40.6506Z" stroke="#262626" stroke-miterlimit="10" stroke-linecap="round"/>
<path d="M150.915 49.6847V82.1923" stroke="white" stroke-miterlimit="10" stroke-linecap="round"/>
<path d="M160.908 50.4161V82.1923" stroke="white" stroke-miterlimit="10" stroke-linecap="round"/>
<path d="M170.903 52.6942V82.1923" stroke="white" stroke-miterlimit="10" stroke-linecap="round"/>
<path d="M180.897 56.7422V82.1923" stroke="white" stroke-miterlimit="10" stroke-linecap="round"/>
<path d="M193.046 64.4078V82.1922" stroke="white" stroke-miterlimit="10" stroke-linecap="round"/>
<path d="M140.923 50.4962V82.1628" stroke="white" stroke-miterlimit="10" stroke-linecap="round"/>
<path d="M130.929 52.775V82.1629" stroke="white" stroke-miterlimit="10" stroke-linecap="round"/>
<path d="M120.935 56.8229V82.1628" stroke="white" stroke-miterlimit="10" stroke-linecap="round"/>
<path d="M110.941 62.8791V82.1629" stroke="white" stroke-miterlimit="10" stroke-linecap="round"/>
<path d="M178.766 22.8668C179.454 22.8668 180.011 22.3176 180.011 21.6402C180.011 20.9627 179.454 20.4136 178.766 20.4136C178.079 20.4136 177.522 20.9627 177.522 21.6402C177.522 22.3176 178.079 22.8668 178.766 22.8668Z" fill="#FED4C7"/>
<path d="M184.858 22.8668C185.546 22.8668 186.103 22.3176 186.103 21.6402C186.103 20.9627 185.546 20.4136 184.858 20.4136C184.171 20.4136 183.614 20.9627 183.614 21.6402C183.614 22.3176 184.171 22.8668 184.858 22.8668Z" fill="#FED4C7"/>
<path d="M190.95 22.8668C191.638 22.8668 192.195 22.3176 192.195 21.6402C192.195 20.9627 191.638 20.4136 190.95 20.4136C190.263 20.4136 189.706 20.9627 189.706 21.6402C189.706 22.3176 190.263 22.8668 190.95 22.8668Z" fill="#FED4C7"/>
<path d="M197.042 22.8668C197.73 22.8668 198.287 22.3176 198.287 21.6402C198.287 20.9627 197.73 20.4136 197.042 20.4136C196.355 20.4136 195.798 20.9627 195.798 21.6402C195.798 22.3176 196.355 22.8668 197.042 22.8668Z" fill="#FED4C7"/>
<path d="M175.745 19.7361H199.173" stroke="#262626" stroke-miterlimit="10" stroke-linecap="round"/>
<path d="M175.745 23.4717H199.173" stroke="#262626" stroke-miterlimit="10" stroke-linecap="round"/>
<path d="M187.459 29.8223V82.4945" stroke="#262626" stroke-miterlimit="10" stroke-linecap="round"/>
<path d="M193.997 23.481L187.459 29.8223L180.921 23.481" stroke="#262626" stroke-miterlimit="10" stroke-linecap="round"/>
<path d="M178.195 22.8155C178.883 22.8155 179.44 22.2664 179.44 21.5889C179.44 20.9115 178.883 20.3623 178.195 20.3623C177.508 20.3623 176.951 20.9115 176.951 21.5889C176.951 22.2664 177.508 22.8155 178.195 22.8155Z" stroke="#262626" stroke-miterlimit="10" stroke-linecap="round"/>
<path d="M184.287 22.8155C184.975 22.8155 185.532 22.2664 185.532 21.5889C185.532 20.9115 184.975 20.3623 184.287 20.3623C183.6 20.3623 183.043 20.9115 183.043 21.5889C183.043 22.2664 183.6 22.8155 184.287 22.8155Z" stroke="#262626" stroke-miterlimit="10" stroke-linecap="round"/>
<path d="M190.379 22.8155C191.067 22.8155 191.624 22.2664 191.624 21.5889C191.624 20.9115 191.067 20.3623 190.379 20.3623C189.692 20.3623 189.135 20.9115 189.135 21.5889C189.135 22.2664 189.692 22.8155 190.379 22.8155Z" stroke="#262626" stroke-miterlimit="10" stroke-linecap="round"/>
<path d="M196.471 22.8155C197.158 22.8155 197.716 22.2664 197.716 21.5889C197.716 20.9115 197.158 20.3623 196.471 20.3623C195.784 20.3623 195.227 20.9115 195.227 21.5889C195.227 22.2664 195.784 22.8155 196.471 22.8155Z" stroke="#262626" stroke-miterlimit="10" stroke-linecap="round"/>
<path d="M102.839 30.0487C102.335 30.0487 101.849 30.2276 101.468 30.5527L100.693 31.2137L90.392 30.3612C90.3523 30.358 90.3153 30.3401 90.2885 30.311C90.2612 30.2825 90.2461 30.2445 90.2465 30.2052C90.2464 30.1847 90.2505 30.1643 90.2584 30.1453C90.2664 30.1262 90.2781 30.1089 90.2928 30.0944C90.3076 30.0798 90.3251 30.0683 90.3444 30.0605C90.3637 30.0526 90.3844 30.0486 90.4053 30.0487H102.839Z" fill="white" stroke="#262626" stroke-miterlimit="10"/>
<path d="M120.165 32.2564L123.228 28.2428H122.871C122.715 28.2428 122.563 28.2881 122.434 28.3731L120.796 29.4492C120.204 29.8399 119.508 30.0486 118.796 30.0492H102.839C102.335 30.0493 101.849 30.228 101.468 30.5526L100.693 31.2147C99.9375 31.8594 100.4 33.0832 101.4 33.0832H118.486C118.811 33.0831 119.133 33.0083 119.424 32.8648C119.716 32.7213 119.969 32.513 120.165 32.2564Z" fill="white" stroke="#262626" stroke-miterlimit="10"/>
<path d="M111.766 31.0206C111.04 30.3939 110.108 30.0485 109.143 30.0487H130.077C130.125 30.0487 130.172 30.0677 130.206 30.1016C130.241 30.1354 130.26 30.1814 130.26 30.2292C130.26 30.2742 130.243 30.3176 130.212 30.3508C130.182 30.3841 130.139 30.4047 130.094 30.4087L112.728 31.8529L111.766 31.0206Z" fill="white" stroke="#262626" stroke-miterlimit="10"/>
<path d="M97.1143 31.5185C97.1143 32.2161 96.6368 32.5662 95.8748 32.5662C95.5428 32.5662 95.275 32.4959 95.0752 32.3699C95.1526 32.4103 95.2388 32.4316 95.3264 32.4321C95.7088 32.4321 96.0187 32.0225 96.0187 31.518C96.0187 31.0135 95.7088 30.6044 95.3264 30.6044C95.2388 30.6046 95.1525 30.626 95.0752 30.6666V30.6633C95.2739 30.539 95.5406 30.4692 95.8748 30.4692C96.6639 30.4692 97.1143 30.8553 97.1143 31.5185Z" fill="white" stroke="#262626" stroke-miterlimit="10"/>
<path d="M95.3264 32.4315C95.7087 32.4315 96.0187 32.0225 96.0187 31.518C96.0187 31.0134 95.7087 30.6044 95.3264 30.6044C94.9441 30.6044 94.6342 31.0134 94.6342 31.518C94.6342 32.0225 94.9441 32.4315 95.3264 32.4315Z" fill="white" stroke="#262626" stroke-miterlimit="10"/>
<path d="M114.315 31.5185C114.315 32.2161 113.837 32.5662 113.075 32.5662C112.743 32.5662 112.476 32.4959 112.276 32.3699C112.353 32.4102 112.439 32.4315 112.526 32.4321C112.909 32.4321 113.219 32.0225 113.219 31.518C113.219 31.0135 112.909 30.6044 112.526 30.6044C112.439 30.6047 112.353 30.626 112.276 30.6666V30.6633C112.474 30.539 112.741 30.4692 113.075 30.4692C113.864 30.4692 114.315 30.8553 114.315 31.5185Z" fill="white" stroke="#262626" stroke-miterlimit="10"/>
<path d="M112.527 32.4315C112.909 32.4315 113.219 32.0225 113.219 31.518C113.219 31.0134 112.909 30.6044 112.527 30.6044C112.145 30.6044 111.835 31.0134 111.835 31.518C111.835 32.0225 112.145 32.4315 112.527 32.4315Z" fill="white" stroke="#262626" stroke-miterlimit="10"/>
<path d="M103.179 31.1383H100.773L101.382 30.6311H102.9C102.962 30.631 103.022 30.6498 103.072 30.6847C103.122 30.7197 103.16 30.7692 103.181 30.8264L103.254 31.0298C103.259 31.0419 103.26 31.0548 103.258 31.0675C103.257 31.0802 103.252 31.0924 103.245 31.103C103.237 31.1135 103.228 31.1223 103.216 31.1284C103.205 31.1346 103.192 31.138 103.179 31.1383Z" fill="#262626"/>
<path d="M105.315 30.6311H105.313C105.223 30.6311 105.15 30.7044 105.15 30.7947V30.9742C105.15 31.0645 105.223 31.1378 105.313 31.1378H105.315C105.406 31.1378 105.479 31.0645 105.479 30.9742V30.7947C105.479 30.7044 105.406 30.6311 105.315 30.6311Z" fill="#262626"/>
<path d="M106.25 30.6311H106.248C106.157 30.6311 106.084 30.7044 106.084 30.7947V30.9742C106.084 31.0645 106.157 31.1378 106.248 31.1378H106.25C106.34 31.1378 106.414 31.0645 106.414 30.9742V30.7947C106.414 30.7044 106.34 30.6311 106.25 30.6311Z" fill="#262626"/>
<path d="M107.185 30.6311H107.182C107.092 30.6311 107.019 30.7044 107.019 30.7947V30.9742C107.019 31.0645 107.092 31.1378 107.182 31.1378H107.185C107.275 31.1378 107.348 31.0645 107.348 30.9742V30.7947C107.348 30.7044 107.275 30.6311 107.185 30.6311Z" fill="#262626"/>
<path d="M108.119 30.6311H108.117C108.027 30.6311 107.953 30.7044 107.953 30.7947V30.9742C107.953 31.0645 108.027 31.1378 108.117 31.1378H108.119C108.21 31.1378 108.283 31.0645 108.283 30.9742V30.7947C108.283 30.7044 108.21 30.6311 108.119 30.6311Z" fill="#262626"/>
<path d="M109.054 30.6311H109.052C108.961 30.6311 108.888 30.7044 108.888 30.7947V30.9742C108.888 31.0645 108.961 31.1378 109.052 31.1378H109.054C109.144 31.1378 109.217 31.0645 109.217 30.9742V30.7947C109.217 30.7044 109.144 30.6311 109.054 30.6311Z" fill="#262626"/>
<path d="M109.988 30.6311H109.986C109.896 30.6311 109.823 30.7044 109.823 30.7947V30.9742C109.823 31.0645 109.896 31.1378 109.986 31.1378H109.988C110.079 31.1378 110.152 31.0645 110.152 30.9742V30.7947C110.152 30.7044 110.079 30.6311 109.988 30.6311Z" fill="#262626"/>
<path d="M208.798 75.622C209.349 75.6233 209.887 75.7914 210.338 76.1035C210.789 76.4156 211.132 76.8568 211.321 77.3673" stroke="#262626" stroke-miterlimit="10" stroke-linecap="round"/>
<path d="M217.661 82.6614V82.5267C216.746 80.1635 214.285 78.4711 211.398 78.4711C210.53 78.4695 209.668 78.6259 208.858 78.9325C208.511 79.0645 208.136 78.8234 208.138 78.4793V78.4711C208.139 77.7423 207.997 77.0202 207.721 76.344C206.78 74.0277 204.346 72.3779 201.493 72.3779C198.64 72.3779 196.207 74.0277 195.266 76.344C195.244 76.3986 195.223 76.4498 195.203 76.5038C195.123 76.4493 195.041 76.3948 194.959 76.344C193.841 75.6617 192.553 75.3002 191.238 75.3002C189.923 75.3002 188.634 75.6617 187.517 76.344C185.752 77.4403 184.593 79.2936 184.593 81.3955V81.4043C184.593 81.6911 184.228 81.852 183.988 81.6682C182.66 80.6538 180.882 80.032 178.926 80.032C176.393 80.032 174.155 81.0732 172.815 82.6625L217.661 82.6614Z" fill="white" stroke="#262626" stroke-miterlimit="10" stroke-linecap="round"/>
<path d="M205.198 81.3148C203.98 80.5267 202.471 80.5595 201.41 81.2887C201.387 81.305 201.362 81.3219 201.339 81.3394C201.32 81.2941 201.3 81.2489 201.279 81.2036C200.996 80.6035 200.549 80.0932 199.987 79.7301C199.426 79.367 198.773 79.1656 198.102 79.1485C197.037 79.1294 196.015 79.6001 195.417 80.4978V80.5017" stroke="#262626" stroke-miterlimit="10" stroke-linecap="round"/>
<path d="M80.7678 123.935H192.708" stroke="#262626" stroke-miterlimit="10" stroke-linecap="round"/>
<path d="M57.5527 115.309C57.5527 120.073 61.1274 123.935 65.5366 123.935H63.4244C58.8536 123.935 55.4969 120.073 55.4969 115.309C55.4969 110.546 58.8536 106.684 63.4244 106.684H65.5366C61.1274 106.684 57.5527 110.544 57.5527 115.309Z" fill="white" stroke="#262626" stroke-miterlimit="10"/>
<path d="M65.6531 106.685H65.5365" stroke="#262626" stroke-miterlimit="10"/>
<path d="M65.6531 123.935H65.5365" stroke="#262626" stroke-miterlimit="10"/>
<path d="M73.5211 115.309C73.5211 120.03 70.01 123.865 65.655 123.934H65.5366C61.1274 123.934 57.5527 120.072 57.5527 115.308C57.5527 110.545 61.1274 106.683 65.5366 106.683H65.655C70.01 106.753 73.5211 110.588 73.5211 115.309Z" fill="#A74602" stroke="#262626" stroke-miterlimit="10"/>
<path d="M65.5367 121.517C68.6759 121.517 71.2208 118.768 71.2208 115.377C71.2208 111.985 68.6759 109.236 65.5367 109.236C62.3974 109.236 59.8525 111.985 59.8525 115.377C59.8525 118.768 62.3974 121.517 65.5367 121.517Z" stroke="#262626" stroke-miterlimit="10"/>
<path d="M206.117 95.1686V115.268H49.8372V98.1045C49.8373 96.9542 50.1729 95.8282 50.804 94.8607C51.4352 93.8931 52.3352 93.1248 53.3969 92.6472L75.8966 83.9786L90.1423 61.9487C90.7579 60.9959 91.6074 60.2116 92.6122 59.6682C93.6169 59.1248 94.7445 58.8399 95.8906 58.8399H148.336C160.473 58.8399 165.371 62.5661 171.103 69.0569L175.458 73.9873C178.408 77.3261 181.813 80.2446 185.578 82.6592H199.131C200.975 82.6592 202.744 83.3814 204.048 84.6669C205.353 85.9523 206.086 87.6958 206.086 89.5139V94.6232C206.106 94.8043 206.117 94.9863 206.117 95.1686Z" fill="white" stroke="#262626" stroke-miterlimit="10" stroke-linecap="round"/>
<path d="M205.962 92.2676V114.234H50.5117V98.2888C50.5117 96.0805 52.8071 94.0761 54.927 93.162L77.0017 85.0154H198.602C200.553 85.0152 202.425 85.7792 203.805 87.1392C205.186 88.4992 205.961 90.3439 205.962 92.2676Z" fill="#1924B1"/>
<path d="M209.886 111.438H47.5911C46.501 111.438 45.6173 112.309 45.6173 113.383V113.414C45.6173 114.489 46.501 115.36 47.5911 115.36H209.886C210.976 115.36 211.86 114.489 211.86 113.414V113.383C211.86 112.309 210.976 111.438 209.886 111.438Z" fill="white" stroke="#262626" stroke-miterlimit="10"/>
<path d="M131.022 58.9451H104.642L107.184 55.1524C107.486 54.6975 107.898 54.3236 108.383 54.0643C108.868 53.805 109.411 53.6684 109.963 53.6667H125.702H125.789C126.325 53.6824 126.85 53.8255 127.319 54.084C127.788 54.3425 128.186 54.7086 128.48 55.1513L131.022 58.9451Z" fill="white"/>
<path d="M131.022 58.9451H106.01L108.421 55.5636C108.72 55.1513 109.116 54.8158 109.574 54.5854C110.032 54.355 110.54 54.2363 111.054 54.2394H125.977H126.06C126.56 54.2489 127.052 54.3734 127.494 54.6031C127.937 54.8328 128.32 55.1614 128.611 55.5625L131.022 58.9451Z" fill="#1924B1"/>
<path d="M131.178 58.8432H104.642L107.254 55.0254C107.568 54.5644 107.993 54.1867 108.49 53.9253C108.987 53.664 109.542 53.5271 110.105 53.5266H125.71H125.799C126.348 53.5404 126.885 53.6833 127.367 53.9434C127.848 54.2036 128.259 54.5734 128.566 55.0221L131.178 58.8432Z" stroke="#262626" stroke-miterlimit="10" stroke-linecap="round"/>
<path d="M131.178 58.8432H120.426L123.037 55.0254C123.333 54.567 123.742 54.1896 124.225 53.9282C124.709 53.6668 125.251 53.5297 125.802 53.5297C126.353 53.5297 126.896 53.6668 127.379 53.9282C127.862 54.1896 128.271 54.567 128.567 55.0254L131.178 58.8432Z" stroke="#262626" stroke-miterlimit="10" stroke-linecap="round"/>
<path d="M147.405 90.6111H145.389V92.598H147.405V90.6111Z" fill="#262626"/>
<path d="M151.438 90.6111H149.422V92.598H151.438V90.6111Z" fill="#262626"/>
<path d="M155.47 90.6111H153.454V92.598H155.47V90.6111Z" fill="#262626"/>
<path d="M159.502 90.6111H157.486V92.598H159.502V90.6111Z" fill="#262626"/>
<path d="M149.421 92.5986H147.405V94.5855H149.421V92.5986Z" fill="#262626"/>
<path d="M153.454 92.5986H151.438V94.5855H153.454V92.5986Z" fill="#262626"/>
<path d="M157.486 92.5986H155.47V94.5855H157.486V92.5986Z" fill="#262626"/>
<path d="M107.283 90.6111H105.267V92.598H107.283V90.6111Z" fill="#262626"/>
<path d="M111.315 90.6111H109.299V92.598H111.315V90.6111Z" fill="#262626"/>
<path d="M115.348 90.6111H113.332V92.598H115.348V90.6111Z" fill="#262626"/>
<path d="M119.38 90.6111H117.364V92.598H119.38V90.6111Z" fill="#262626"/>
<path d="M109.299 92.5986H107.283V94.5855H109.299V92.5986Z" fill="#262626"/>
<path d="M113.332 92.5986H111.316V94.5855H113.332V92.5986Z" fill="#262626"/>
<path d="M117.364 92.5986H115.348V94.5855H117.364V92.5986Z" fill="#262626"/>
<path d="M170.073 72.8955V84.0407H134.913V62.8328C134.913 62.1819 135.175 61.5576 135.642 61.0973C136.109 60.6371 136.742 60.3785 137.403 60.3785H147.349C157.486 60.3785 162.629 63.3607 168.221 68.6364C168.805 69.1863 169.271 69.8472 169.589 70.5792C169.908 71.3111 170.072 72.0991 170.073 72.8955Z" stroke="#262626" stroke-miterlimit="10" stroke-linecap="round"/>
<path d="M179.073 84.0407H171.769V73.504C171.769 73.4246 171.793 73.3471 171.839 73.2818C171.885 73.2165 171.95 73.1666 172.025 73.1388C172.101 73.1109 172.183 73.1064 172.261 73.1258C172.339 73.1453 172.41 73.1878 172.463 73.2477L174.475 75.5258C176.221 77.5025 178.129 79.3343 180.18 81.0028C181.437 82.0265 180.705 84.0407 179.073 84.0407Z" stroke="#262626" stroke-miterlimit="10" stroke-linecap="round"/>
<path d="M170.072 81.2559V84.0325H166.906V81.2559C166.906 80.5215 166.759 79.7943 166.474 79.1158C166.189 78.4373 165.771 77.8208 165.244 77.3015C164.717 76.7823 164.092 76.3704 163.403 76.0894C162.715 75.8084 161.977 75.6638 161.232 75.6639H164.399C165.144 75.6639 165.882 75.8085 166.57 76.0896C167.259 76.3706 167.884 76.7825 168.411 77.3018C168.938 77.821 169.356 78.4375 169.641 79.116C169.926 79.7944 170.072 80.5216 170.072 81.2559Z" fill="#A74602" stroke="#262626" stroke-miterlimit="10"/>
<path d="M166.906 81.2561V84.0327H134.922V75.6646H161.232C161.977 75.6645 162.715 75.8091 163.403 76.0901C164.092 76.371 164.717 76.7829 165.244 77.3021C165.771 77.8213 166.189 78.4377 166.474 79.1161C166.759 79.7946 166.906 80.5217 166.906 81.2561Z" fill="white" stroke="#262626" stroke-miterlimit="10"/>
<path d="M127.982 97.0267V97.0513C126.602 97.0512 125.236 96.7706 123.971 96.2268C122.706 95.6831 121.569 94.888 120.63 93.8912L111.207 83.8869H114.727L119.906 92.1416C120.771 93.5209 121.953 94.6812 123.355 95.5295C124.757 96.3779 126.342 96.8906 127.982 97.0267Z" fill="#262626"/>
<path d="M103.344 71.9677H120.579C122.041 71.9677 123.473 72.3772 124.707 73.1484C125.942 73.9197 126.93 75.0209 127.554 76.3238L129.81 81.0344L134.303 75.6469C134.79 75.0635 135.462 74.6589 136.21 74.4986C136.959 74.3384 137.741 74.4318 138.429 74.7639L142.733 76.8414C143.154 77.0448 143.528 77.3319 143.832 77.6848C144.136 78.0376 144.362 78.4486 144.496 78.8917C144.631 79.3349 144.671 79.8008 144.614 80.26C144.558 80.7192 144.405 81.1619 144.166 81.5602L137.933 91.9615C137.001 93.5153 135.675 94.8029 134.085 95.6974C132.495 96.592 130.695 97.0625 128.864 97.0627C127.069 97.0627 125.304 96.6106 123.737 95.7494C122.169 94.8881 120.85 93.6462 119.906 92.1415L114.727 83.8869H91.1538L96.9237 75.3541C97.6282 74.3122 98.5828 73.4579 99.7028 72.8672C100.823 72.2764 102.073 71.9674 103.344 71.9677Z" fill="#98C8DB"/>
<g opacity="0.5">
<path d="M123.073 72.3773V95.3551C122.987 95.2991 122.901 95.2411 122.817 95.1811V72.2944C122.903 72.3206 122.988 72.3484 123.073 72.3773Z" fill="white"/>
<path d="M124.682 73.1354V96.2114C124.596 96.1743 124.511 96.1361 124.426 96.0963V72.9811C124.513 73.0307 124.601 73.0825 124.682 73.1354Z" fill="white"/>
<path d="M126.292 74.4657V96.7491C126.206 96.7279 126.121 96.7055 126.036 96.6821V74.1973C126.123 74.2846 126.209 74.374 126.292 74.4657Z" fill="white"/>
<path d="M127.902 77.0562V97.0179C127.816 97.0109 127.73 97.0021 127.646 96.9918V76.5157L127.749 76.7339L127.902 77.0562Z" fill="white"/>
<path d="M129.511 80.4171V97.0426C129.426 97.0486 129.341 97.0524 129.255 97.0556V79.8755L129.27 79.9082L129.511 80.4171Z" fill="white"/>
<path d="M131.12 79.4593V96.8205C131.035 96.8396 130.95 96.8576 130.865 96.8751V79.7707L130.962 79.6518L131.12 79.4593Z" fill="white"/>
<path d="M132.73 77.5292V96.3363C132.646 96.3695 132.56 96.4023 132.474 96.4333V77.8401L132.73 77.5292Z" fill="white"/>
<path d="M134.339 75.6006V95.5454C134.255 95.5999 134.169 95.6474 134.083 95.6965V75.9109L134.301 75.6475L134.339 75.6006Z" fill="white"/>
<path d="M135.949 74.5644V94.3592C135.865 94.4361 135.78 94.5108 135.693 94.5845V74.6533C135.78 74.62 135.863 74.5906 135.949 74.5644Z" fill="white"/>
<path d="M137.559 74.4804V92.5457H137.549C137.468 92.6632 137.386 92.7784 137.302 92.8915V74.4406C137.388 74.4515 137.474 74.464 137.559 74.4804Z" fill="white"/>
<path d="M139.168 75.1224V89.8935L138.912 90.326V74.9969L139.168 75.1224Z" fill="white"/>
<path d="M140.778 75.8994V87.2078L140.586 87.5323L140.522 87.6403V75.7745L140.778 75.8994Z" fill="white"/>
<path d="M142.387 76.6767V84.5218L142.302 84.6669L142.132 84.9548V76.5513L142.387 76.6767Z" fill="white"/>
<path d="M143.997 77.8967V81.8362L143.741 82.2692V77.582C143.833 77.6811 143.919 77.7863 143.997 77.8967Z" fill="white"/>
<path d="M100.591 72.4667V83.8869H100.335V72.5698C100.42 72.5338 100.505 72.5 100.591 72.4667Z" fill="white"/>
<path d="M102.201 72.0511V83.8863H101.945V72.0931C102.03 72.0778 102.115 72.0636 102.201 72.0511Z" fill="white"/>
<path d="M103.81 71.9677H103.555V83.8869H103.81V71.9677Z" fill="white"/>
<path d="M105.42 71.9677H105.164V83.8869H105.42V71.9677Z" fill="white"/>
<path d="M107.029 71.9677H106.774V83.8869H107.029V71.9677Z" fill="white"/>
<path d="M108.639 71.9677H108.383V83.8869H108.639V71.9677Z" fill="white"/>
<path d="M110.248 71.9677H109.992V83.8869H110.248V71.9677Z" fill="white"/>
<path d="M111.858 71.9677H111.602V83.8869H111.858V71.9677Z" fill="white"/>
<path d="M113.468 71.9677H113.212V83.8869H113.468V71.9677Z" fill="white"/>
<path d="M115.077 71.9677V84.4514L115.052 84.411L114.821 84.0374V71.9677H115.077Z" fill="white"/>
<path d="M116.687 71.9677V87.0169L116.431 86.603V71.9677H116.687Z" fill="white"/>
<path d="M118.296 71.9677V89.5814L118.041 89.168V71.9677H118.296Z" fill="white"/>
<path d="M119.905 71.9677V92.1475L119.902 92.1415L119.65 91.7341V71.9677H119.905Z" fill="white"/>
<path d="M121.515 72.0244V94.1224C121.433 94.0421 121.352 93.9606 121.273 93.8781L121.26 93.8645V71.9971C121.345 72.0048 121.43 72.0135 121.515 72.0244Z" fill="white"/>
<path d="M92.5435 81.828V83.8869H92.2877V82.212L92.5435 81.828Z" fill="white"/>
<path d="M94.1532 79.4484V83.8868H93.8975V79.8318L94.0174 79.6518L94.1532 79.4484Z" fill="white"/>
<path d="M95.7629 77.0677V83.8869H95.5066V77.4512L95.7629 77.0677Z" fill="white"/>
<path d="M97.3743 74.7536V83.8869H97.1185V75.0847C97.1654 75.0198 97.214 74.9554 97.263 74.8927C97.298 74.8443 97.335 74.798 97.3743 74.7536Z" fill="white"/>
<path d="M98.9819 73.2974V83.8869H98.7261V73.4807C98.8057 73.4207 98.8868 73.3625 98.9693 73.3062L98.9819 73.2974Z" fill="white"/>
<path d="M134.478 95.4647C134.433 95.4924 134.388 95.5196 134.343 95.5465C134.258 95.6011 134.171 95.6485 134.084 95.6976C134.07 95.7058 134.057 95.7134 134.043 95.7205H123.684C123.537 95.6391 123.392 95.5538 123.249 95.4647H134.478Z" fill="white"/>
<path d="M136.454 93.8782C136.37 93.9649 136.284 94.0505 136.196 94.134H121.532C121.527 94.1307 121.523 94.1263 121.519 94.1225C121.435 94.0422 121.353 93.9607 121.273 93.8782H136.454Z" fill="white"/>
<path d="M137.725 92.2915C137.67 92.3733 137.618 92.4551 137.562 92.5348V92.5473H120.176C120.118 92.4633 120.06 92.378 120.004 92.2915H137.725Z" fill="white"/>
<path d="M138.685 90.7055L138.531 90.9613H119.165L119.005 90.7055H138.685Z" fill="white"/>
<path d="M139.636 89.1189L139.483 89.3747H118.17L118.04 89.168L118.01 89.1189H139.636Z" fill="white"/>
<path d="M140.587 87.5324L140.522 87.6404L140.433 87.7888H117.175L117.015 87.5324H140.587Z" fill="white"/>
<path d="M141.507 85.9971L141.354 86.2534H116.212L116.051 85.9971H141.507Z" fill="white"/>
<path d="M142.458 84.411L142.391 84.5217L142.304 84.6668H115.216L115.081 84.4514L115.055 84.411H142.458Z" fill="white"/>
<path d="M143.408 82.8245L143.255 83.0803H91.7006L91.8738 82.8245H143.408Z" fill="white"/>
<path d="M144.336 81.2385C144.296 81.3246 144.252 81.4103 144.204 81.4943H92.7731L92.9468 81.2385H144.336Z" fill="white"/>
<path d="M129.27 79.9077H93.8459L93.8974 79.8319L94.0191 79.6519H129.148L129.255 79.875L129.27 79.9077Z" fill="white"/>
<path d="M144.657 79.6519V79.9077H130.751L130.865 79.7708L130.964 79.6519H144.657Z" fill="white"/>
<path d="M128.511 78.321H94.9183L95.0915 78.0652H128.388L128.511 78.321Z" fill="white"/>
<path d="M143.782 78.0652V78.321H132.073L132.287 78.0652H143.782Z" fill="white"/>
<path d="M127.75 76.7351H95.9913L96.164 76.4793H127.646V76.5158L127.75 76.7351Z" fill="white"/>
<path d="M142.512 76.7351H133.396L133.61 76.4793H141.982L142.132 76.5513L142.391 76.6767L142.512 76.7351Z" fill="white"/>
<path d="M126.854 75.1474H97.0693C97.0848 75.1261 97.1003 75.1043 97.1164 75.0836C97.164 75.0187 97.2132 74.9543 97.263 74.8916H126.66C126.726 74.9761 126.791 75.0618 126.854 75.1474Z" fill="white"/>
<path d="M139.225 75.1474H134.818C134.938 75.0536 135.063 74.9681 135.195 74.8916H138.696L138.912 74.9958L139.172 75.1212L139.225 75.1474Z" fill="white"/>
<path d="M125.305 73.5619H98.6171C98.6525 73.5352 98.689 73.5074 98.7277 73.4807C98.8085 73.4207 98.8908 73.3625 98.9745 73.3062H124.951C125.07 73.3874 125.189 73.473 125.305 73.5619Z" fill="white"/>
</g>
<path d="M133.054 77.2979L127.433 84.0407" stroke="#262626" stroke-miterlimit="10" stroke-linecap="round"/>
<path d="M121.106 71.9677C122.332 71.9677 123.534 72.3036 124.578 72.9377C125.622 73.5719 126.466 74.4794 127.017 75.5591L129.811 81.0344" stroke="#262626" stroke-miterlimit="10" stroke-linecap="round"/>
<path d="M114.675 84.1427L113.372 81.5199" stroke="#262626" stroke-miterlimit="10" stroke-linecap="round"/>
<path d="M109.458 71.9677H107.033L109.491 70.4836V76.6581L114.936 72.0184L114.457 70.4836H115.153C115.459 70.4835 115.759 70.5711 116.016 70.7356L117.937 71.9677H114.975" stroke="#262626" stroke-miterlimit="10" stroke-linecap="round"/>
<path d="M114.832 71.9679L109.594 76.6071V68.6644H113.798L114.832 71.9679Z" fill="#632D23"/>
<path d="M113.799 68.6636L114.832 71.9677L109.595 69.9202V68.6636H113.799Z" fill="#262626" fill-opacity="0.756863"/>
<path d="M113.924 66.5769V66.7045H113.734C113.583 66.7045 113.438 66.7637 113.331 66.8689C113.224 66.9742 113.164 67.1169 113.164 67.2658V67.3552C112.951 67.3497 112.745 67.2775 112.576 67.1488C112.406 67.0202 112.283 66.8419 112.224 66.6396L112.133 66.3288C112.055 66.0634 111.892 65.8301 111.668 65.6642C111.444 65.4982 111.171 65.4085 110.891 65.4087H110.233C110.063 65.4086 109.895 65.4415 109.738 65.5055C109.581 65.5695 109.438 65.6634 109.318 65.7818C109.198 65.9002 109.102 66.0407 109.037 66.1954C108.972 66.35 108.939 66.5158 108.939 66.6833V66.5742C108.939 66.0767 109.139 65.5997 109.496 65.2479C109.853 64.8962 110.337 64.6985 110.842 64.6985H112.021C112.271 64.6985 112.518 64.7472 112.75 64.8416C112.981 64.936 113.19 65.0744 113.367 65.2489C113.544 65.4233 113.684 65.6304 113.78 65.8583C113.875 66.0862 113.924 66.3304 113.924 66.5769Z" fill="#262626" fill-opacity="0.756863"/>
<path d="M115.196 67.7065C115.196 67.9721 115.089 68.2268 114.898 68.4146C114.708 68.6023 114.449 68.7078 114.18 68.7078H113.345L112.98 69.2789C112.888 69.4215 112.762 69.539 112.612 69.6204C112.463 69.7019 112.295 69.7446 112.124 69.7446H109.951C109.682 69.7445 109.425 69.6393 109.235 69.4523C109.046 69.2652 108.939 69.0116 108.939 68.7471V66.6833C108.939 66.5159 108.972 66.3501 109.037 66.1954C109.102 66.0407 109.198 65.9002 109.318 65.7818C109.438 65.6635 109.581 65.5696 109.738 65.5056C109.895 65.4415 110.063 65.4086 110.233 65.4087H110.889C111.169 65.4086 111.442 65.4983 111.666 65.6642C111.89 65.8302 112.053 66.0634 112.131 66.3288L112.222 66.6397C112.282 66.8419 112.405 67.0202 112.574 67.1489C112.743 67.2775 112.949 67.3498 113.163 67.3552V67.2658C113.163 67.1169 113.223 66.9742 113.33 66.8689C113.436 66.7637 113.581 66.7046 113.732 66.7046H114.179C114.313 66.7045 114.445 66.7304 114.568 66.7807C114.692 66.831 114.804 66.9048 114.898 66.9978C114.993 67.0909 115.068 67.2013 115.119 67.3229C115.17 67.4445 115.196 67.5749 115.196 67.7065Z" fill="#632D23"/>
<path d="M113.736 67.7774C113.736 67.6287 113.796 67.486 113.902 67.3808C114.009 67.2755 114.153 67.2163 114.304 67.2162" stroke="#262626" stroke-opacity="0.756863" stroke-miterlimit="10" stroke-linecap="round"/>
<path d="M110.044 68.2499C109.445 68.2499 109.772 66.7724 109.772 66.7724C109.772 66.7724 109.349 66.6824 108.99 66.7724" stroke="#262626" stroke-opacity="0.756863" stroke-miterlimit="10" stroke-linecap="round"/>
<path d="M110.755 66.6871C110.755 66.6871 111.313 66.6538 111.715 66.8404" stroke="#262626" stroke-opacity="0.756863" stroke-miterlimit="10" stroke-linecap="round"/>
<path d="M111.071 67.6639C111.15 67.6639 111.215 67.5538 111.215 67.4179C111.215 67.2821 111.15 67.1719 111.071 67.1719C110.991 67.1719 110.926 67.2821 110.926 67.4179C110.926 67.5538 110.991 67.6639 111.071 67.6639Z" fill="#262626" fill-opacity="0.756863"/>
<path d="M109.202 67.6481C109.276 67.6481 109.337 67.5451 109.337 67.418C109.337 67.2908 109.276 67.1878 109.202 67.1878C109.127 67.1878 109.067 67.2908 109.067 67.418C109.067 67.5451 109.127 67.6481 109.202 67.6481Z" fill="#262626" fill-opacity="0.756863"/>
<path d="M110.175 68.7591C110.175 68.7591 110.808 68.8136 110.927 68.6064" stroke="#262626" stroke-opacity="0.756863" stroke-miterlimit="10" stroke-linecap="round"/>
<path d="M144.611 79.4172C143.326 80.0717 141.579 79.9457 140.618 79.337L138.574 78.0428C137.396 77.2967 136.65 75.7985 137.052 74.4241C137.136 74.4273 137.218 74.4328 137.303 74.4421C137.388 74.4513 137.476 74.4639 137.562 74.4803C137.863 74.536 138.155 74.6314 138.43 74.7639L138.696 74.8926L138.912 74.9967L139.172 75.1222L139.227 75.1484L140.523 75.7745L140.783 75.8994L141.983 76.4791L142.133 76.5511L142.393 76.6766L142.513 76.7349L142.735 76.844C143.115 77.0267 143.457 77.2779 143.743 77.5847C143.836 77.6838 143.923 77.7889 144.002 77.8994C144.328 78.3486 144.537 78.8698 144.611 79.4172Z" fill="#262626" fill-opacity="0.756863"/>
<path d="M139.03 77.1348C138.4 76.74 137.924 76.147 137.679 75.452C137.435 74.7571 137.436 74.001 137.682 73.3067C138.401 71.2887 139.696 68.5071 140.87 68.5715C141.458 68.6048 140.919 70.7455 141.8 70.7787C142.836 70.818 146.916 64.8469 147.95 65.5123C148.983 66.1777 150.311 71.0847 149.174 73.257C148.556 74.4384 146.634 76.5927 144.972 78.0522C144.434 78.5246 143.754 78.8108 143.035 78.8674C142.317 78.924 141.599 78.7479 140.992 78.3658L139.03 77.1348Z" fill="#632D23"/>
<path d="M149.394 70.0156C149.139 70.5027 147.679 72.8315 147.181 73.5264" stroke="#262626" stroke-opacity="0.756863" stroke-miterlimit="10" stroke-linecap="round"/>
<path d="M149.068 68.1116C148.813 68.5992 146.851 71.4386 146.294 72.1165" stroke="#262626" stroke-opacity="0.756863" stroke-miterlimit="10" stroke-linecap="round"/>
<path d="M148.514 66.5376C148.259 67.0252 145.926 69.7931 145.369 70.4738" stroke="#262626" stroke-opacity="0.756863" stroke-miterlimit="10" stroke-linecap="round"/>
<path d="M141.574 71.7708C141.574 71.7708 142.513 74.2606 141.436 76.4165" stroke="#262626" stroke-opacity="0.756863" stroke-miterlimit="10" stroke-linecap="round"/>
<path d="M93.5483 84.0407H84.1295C83.9757 81.1697 85.5682 78.9543 87.9477 78.9335C90.3504 78.9106 92.7298 81.1353 93.5483 84.0407Z" stroke="#262626" stroke-miterlimit="10" stroke-linecap="round"/>
<path d="M170.105 115.398H193.476C193.282 109.711 189.246 104.179 181.778 104.179C175.355 104.177 170.442 109.474 170.105 115.398Z" fill="#262626"/>
<path d="M194.62 109.784C192.406 104.696 187.49 101.155 181.778 101.155C175.869 101.155 170.81 104.945 168.719 110.318" stroke="#262626" stroke-miterlimit="10" stroke-linecap="round"/>
<path d="M182.844 123.935H180.731C176.16 123.935 172.804 120.073 172.804 115.309C172.804 110.546 176.16 106.684 180.731 106.684H182.844C178.434 106.684 174.859 110.545 174.859 115.309C174.859 120.073 178.434 123.935 182.844 123.935Z" fill="#A74602" stroke="#262626" stroke-miterlimit="10"/>
<path d="M190.827 115.309C190.827 120.031 187.316 123.866 182.961 123.934H182.844C178.434 123.934 174.86 120.072 174.86 115.308C174.86 110.545 178.434 106.683 182.844 106.683H182.961C187.316 106.753 190.827 110.588 190.827 115.309Z" fill="white" stroke="#262626" stroke-miterlimit="10"/>
<path d="M182.843 121.517C185.983 121.517 188.528 118.768 188.528 115.377C188.528 111.985 185.983 109.236 182.843 109.236C179.704 109.236 177.159 111.985 177.159 115.377C177.159 118.768 179.704 121.517 182.843 121.517Z" stroke="#262626" stroke-miterlimit="10"/>
<path d="M79.6849 115.398H103.057C102.862 109.711 98.8273 104.179 91.3592 104.179C84.9363 104.177 80.0225 109.474 79.6849 115.398Z" fill="#262626"/>
<path d="M104.201 109.784C101.987 104.696 97.0705 101.155 91.3592 101.155C85.4499 101.155 80.3905 104.945 78.2999 110.318" stroke="#262626" stroke-miterlimit="10" stroke-linecap="round"/>
<path d="M92.4245 123.935H90.3123C85.7416 123.935 82.3849 120.073 82.3849 115.309C82.3849 110.546 85.7416 106.684 90.3123 106.684H92.4245C88.0153 106.684 84.4406 110.545 84.4406 115.309C84.4406 120.073 88.0153 123.935 92.4245 123.935Z" fill="#A74602" stroke="#262626" stroke-miterlimit="10"/>
<path d="M100.408 115.309C100.408 120.03 96.8971 123.865 92.5422 123.934H92.4243C88.0151 123.934 84.4404 120.072 84.4404 115.308C84.4404 110.545 88.0151 106.683 92.4243 106.683H92.5422C96.8971 106.753 100.408 110.588 100.408 115.309Z" fill="white" stroke="#262626" stroke-miterlimit="10"/>
<path d="M92.4244 121.517C95.5636 121.517 98.1085 118.768 98.1085 115.377C98.1085 111.985 95.5636 109.236 92.4244 109.236C89.2851 109.236 86.7402 111.985 86.7402 115.377C86.7402 118.768 89.2851 121.517 92.4244 121.517Z" stroke="#262626" stroke-miterlimit="10"/>
<path d="M206.086 94.0881H201.488C200.694 94.0881 199.975 93.5885 199.651 92.8135L198.691 90.5113C198.415 89.8459 198.869 89.0933 199.55 89.0933H206.086V94.0881Z" fill="white"/>
<path d="M206.095 94.0881H200.54C200.119 94.0877 199.706 93.9671 199.353 93.741C198.999 93.5148 198.72 93.1927 198.548 92.8135L197.506 90.5113C197.436 90.358 197.406 90.1899 197.42 90.0224C197.433 89.8549 197.488 89.6933 197.581 89.5523C197.673 89.4113 197.8 89.2954 197.95 89.2152C198.1 89.1351 198.268 89.0931 198.438 89.0933H206.097L206.095 94.0881Z" stroke="#262626" stroke-miterlimit="10" stroke-linecap="round"/>
<path d="M206.065 90.8102H197.73" stroke="#262626" stroke-miterlimit="10" stroke-linecap="round"/>
<path d="M206.065 92.4263H198.408" stroke="#262626" stroke-miterlimit="10" stroke-linecap="round"/>
<path d="M71.5772 100.523H69.6194V98.4503C69.6199 97.2008 69.9863 95.9781 70.6746 94.9289C71.3629 93.8797 72.3438 93.0486 73.4995 92.5354L74.2344 92.2081V97.8994C74.2351 98.2437 74.1669 98.5848 74.0337 98.9032C73.9005 99.2215 73.7049 99.5108 73.458 99.7545C73.2112 99.9982 72.918 100.191 72.5953 100.323C72.2725 100.455 71.9265 100.523 71.5772 100.523Z" fill="white"/>
<path d="M52.0025 100.727H50.0453V98.6542C50.0452 97.4046 50.4113 96.1816 51.0997 95.1323C51.788 94.083 52.7693 93.252 53.9255 92.7393L54.6598 92.412V98.1088C54.6598 98.4527 54.591 98.7932 54.4575 99.1109C54.3239 99.4286 54.1282 99.7172 53.8814 99.9603C53.6346 100.203 53.3417 100.396 53.0193 100.528C52.6969 100.659 52.3514 100.727 52.0025 100.727Z" fill="white"/>
<path d="M135.266 109.786H163.283C164.574 105.98 166.927 102.609 170.073 100.061V85.1173" stroke="#262626" stroke-miterlimit="10" stroke-linecap="round"/>
<path d="M133.22 75.1473V62.8321C133.22 62.1812 132.957 61.5569 132.49 61.0967C132.023 60.6364 131.39 60.3778 130.73 60.3778H94.9045C93.7584 60.3779 92.6307 60.6628 91.6259 61.2062C90.6211 61.7495 89.7715 62.5339 89.1556 63.4866" stroke="#262626" stroke-miterlimit="10" stroke-linecap="round"/>
<path d="M97.0294 98.1088C99.8261 99.0283 102.378 100.555 104.497 102.575C106.615 104.596 108.247 107.059 109.271 109.784H133.22V97.5672" stroke="#262626" stroke-miterlimit="10" stroke-linecap="round"/>
<path d="M159.572 87.1664C159.368 86.7611 159.805 86.3553 160.093 86.3553H165.866C166.154 86.3553 166.534 86.6684 166.387 87.1664" stroke="#262626" stroke-miterlimit="10" stroke-linecap="round"/>
<path d="M69.6193 115.268V98.1045C69.6195 96.9543 69.9552 95.8284 70.5863 94.861C71.2174 93.8935 72.1174 93.1253 73.179 92.6477L95.6787 83.9786L109.924 61.9487C110.54 60.996 111.39 60.2117 112.394 59.6683C113.399 59.1249 114.527 58.84 115.673 58.8399" stroke="#262626" stroke-miterlimit="10" stroke-linecap="round"/>
<path d="M114.329 84.0407H75.8601" stroke="#262626" stroke-miterlimit="10" stroke-linecap="round"/>
<path d="M76.714 82.7148L76.0838 83.6894C75.7008 83.2924 75.6544 83.2253 74.6638 83.2253H71.8633C71.6471 83.2254 71.4331 83.1835 71.2333 83.102C71.0336 83.0205 70.8521 82.901 70.6992 82.7504C70.5464 82.5998 70.4251 82.4209 70.3424 82.2241C70.2596 82.0273 70.217 81.8163 70.217 81.6033V80.6215C70.217 80.4085 70.2596 80.1975 70.3424 80.0007C70.4251 79.8039 70.5464 79.625 70.6992 79.4744C70.8521 79.3238 71.0336 79.2043 71.2333 79.1228C71.4331 79.0413 71.6471 78.9994 71.8633 78.9995H72.9147C73.3717 78.9995 73.8213 79.1131 74.222 79.3297C74.6227 79.5463 74.9615 79.8589 75.2072 80.2387L76.714 82.7148Z" fill="white" stroke="#262626" stroke-miterlimit="10" stroke-linecap="round"/>
<path d="M76.1567 83.5766L76.0255 83.7795C75.8972 83.6828 75.7591 83.5997 75.6133 83.5313C75.066 83.2744 74.4241 83.2253 73.583 83.2253H70.7819C70.5657 83.2254 70.3516 83.1835 70.1519 83.102C69.9522 83.0205 69.7707 82.9011 69.6178 82.7505C69.465 82.5998 69.3437 82.421 69.2609 82.2242C69.1782 82.0273 69.1356 81.8164 69.1356 81.6033V80.6216C69.1356 80.4085 69.1782 80.1976 69.2609 80.0008C69.3437 79.8039 69.465 79.6251 69.6178 79.4745C69.7707 79.3238 69.9522 79.2044 70.1519 79.1229C70.3516 79.0414 70.5657 78.9995 70.7819 78.9996H71.8333C72.2903 78.9996 72.7399 79.1131 73.1406 79.3297C73.5413 79.5463 73.8802 79.8589 74.1258 80.2387L76.1567 83.5766Z" fill="white"/>
<path d="M69.1362 80.6647V81.6033C69.1362 81.8163 69.1787 82.0273 69.2614 82.2241C69.344 82.4209 69.4653 82.5998 69.6181 82.7504C69.7709 82.901 69.9524 83.0205 70.1521 83.102C70.3518 83.1835 70.5658 83.2254 70.7819 83.2253H73.5836C74.4253 83.2253 75.0671 83.2739 75.6139 83.5313L74.0091 80.891C73.7635 80.5111 73.4247 80.1983 73.024 79.9816C72.6233 79.765 72.1736 79.6513 71.7166 79.6513H70.6652C70.3368 79.6505 70.0157 79.7466 69.7433 79.9272C69.4708 80.1078 69.2594 80.3647 69.1362 80.6647Z" fill="#1924B1"/>
<path d="M76.1567 83.5766L76.0255 83.7795C75.3886 83.3022 74.6421 83.2253 73.583 83.2253H70.7819C70.5657 83.2254 70.3516 83.1835 70.1519 83.102C69.9522 83.0205 69.7707 82.9011 69.6178 82.7505C69.465 82.5998 69.3437 82.421 69.2609 82.2242C69.1782 82.0273 69.1356 81.8164 69.1356 81.6033V80.6216C69.1356 80.4085 69.1782 80.1976 69.2609 80.0008C69.3437 79.8039 69.465 79.6251 69.6178 79.4745C69.7707 79.3238 69.9522 79.2044 70.1519 79.1229C70.3516 79.0414 70.5657 78.9995 70.7819 78.9996H71.8333C72.2903 78.9996 72.7399 79.1131 73.1406 79.3297C73.5413 79.5463 73.8802 79.8589 74.1258 80.2387L76.1567 83.5766Z" stroke="#262626" stroke-miterlimit="10" stroke-linecap="round"/>
<path d="M107.414 80.6587V81.6404C107.415 81.8534 107.372 82.0644 107.289 82.2612C107.207 82.458 107.085 82.6368 106.933 82.7875C106.78 82.9381 106.598 83.0576 106.399 83.1391C106.199 83.2206 105.985 83.2625 105.769 83.2624H100.222C99.3808 83.2624 98.7389 83.3109 98.1921 83.5684C97.9548 83.6801 97.7376 83.8293 97.5491 84.0102H97.4064L99.6752 80.2763C99.9208 79.8965 100.26 79.5838 100.66 79.3672C101.061 79.1506 101.511 79.0371 101.968 79.0372H105.767C105.983 79.0368 106.197 79.0785 106.397 79.1598C106.597 79.2411 106.779 79.3605 106.932 79.5111C107.085 79.6617 107.206 79.8406 107.289 80.0375C107.372 80.2344 107.414 80.4455 107.414 80.6587Z" fill="white"/>
<path d="M107.414 80.7012V81.6377C107.415 81.8507 107.372 82.0616 107.289 82.2585C107.207 82.4553 107.085 82.6341 106.933 82.7848C106.78 82.9354 106.598 83.0549 106.399 83.1364C106.199 83.2179 105.985 83.2598 105.769 83.2597H100.222C99.3808 83.2597 98.7389 83.3082 98.1921 83.5657L99.7969 80.9254C100.042 80.5454 100.381 80.2327 100.782 80.016C101.183 79.7993 101.632 79.6857 102.089 79.6857H105.888C106.216 79.6857 106.537 79.7824 106.809 79.9634C107.081 80.1443 107.292 80.4013 107.414 80.7012Z" fill="#1924B1"/>
<path d="M107.414 80.6587V81.6404C107.415 81.8534 107.372 82.0644 107.289 82.2612C107.207 82.458 107.085 82.6368 106.933 82.7875C106.78 82.9381 106.598 83.0576 106.399 83.1391C106.199 83.2206 105.985 83.2625 105.769 83.2624H100.222C99.0305 83.2624 98.2381 83.3595 97.5491 84.0102H97.4064L99.6752 80.2763C99.9208 79.8965 100.26 79.5838 100.66 79.3672C101.061 79.1506 101.511 79.0371 101.968 79.0372H105.767C105.983 79.0368 106.197 79.0785 106.397 79.1598C106.597 79.2411 106.779 79.3605 106.932 79.5111C107.085 79.6617 107.206 79.8406 107.289 80.0375C107.372 80.2344 107.414 80.4455 107.414 80.6587Z" stroke="#262626" stroke-miterlimit="10" stroke-linecap="round"/>
<path d="M6.74548 135.181H78.2303" stroke="#262626" stroke-miterlimit="10" stroke-linecap="round"/>
<path d="M29.6093 137.462H69.7329" stroke="#262626" stroke-miterlimit="10" stroke-linecap="round"/>
<path d="M74.8421 105.899V129.553C74.8421 130.425 74.4907 131.261 73.8652 131.877C73.2398 132.494 72.3915 132.84 71.507 132.84H57.0936C56.2124 132.835 55.3692 132.486 54.748 131.87C54.1267 131.254 53.778 130.421 53.7778 129.553V105.899C53.7778 105.03 54.1265 104.197 54.7477 103.581C55.369 102.965 56.2123 102.616 57.0936 102.611H71.5075C72.3921 102.611 73.2403 102.957 73.8657 103.574C74.491 104.191 74.8422 105.027 74.8421 105.899Z" fill="white" stroke="#262626" stroke-miterlimit="10"/>
<path d="M61.4201 106.353V129.5C61.4201 131.271 59.9377 132.706 58.1044 132.718C56.2716 132.707 54.7892 131.272 54.7892 129.5V106.353C54.7892 104.582 56.2716 103.146 58.1044 103.135C59.9377 103.146 61.4201 104.582 61.4201 106.353Z" fill="#98C8DB"/>
<path d="M60.4082 105.899V129.553C60.4138 129.986 60.3323 130.415 60.1682 130.816C60.0041 131.218 59.7608 131.583 59.4524 131.891C59.144 132.199 58.7766 132.443 58.3715 132.61C57.9664 132.777 57.5317 132.863 57.0927 132.863C56.6537 132.863 56.219 132.777 55.8139 132.61C55.4089 132.443 55.0415 132.199 54.733 131.891C54.4246 131.583 54.1813 131.218 54.0172 130.816C53.8531 130.415 53.7716 129.986 53.7773 129.553V105.899C53.7716 105.466 53.8531 105.037 54.0172 104.635C54.1813 104.234 54.4246 103.869 54.733 103.561C55.0415 103.253 55.4089 103.008 55.8139 102.841C56.219 102.674 56.6537 102.589 57.0927 102.589C57.5317 102.589 57.9664 102.674 58.3715 102.841C58.7766 103.008 59.144 103.253 59.4524 103.561C59.7608 103.869 60.0041 104.234 60.1682 104.635C60.3323 105.037 60.4138 105.466 60.4082 105.899Z" stroke="#262626" stroke-miterlimit="10"/>
<path d="M71.1615 135.181C71.6468 135.181 72.0402 134.794 72.0402 134.315C72.0402 133.837 71.6468 133.449 71.1615 133.449C70.6761 133.449 70.2827 133.837 70.2827 134.315C70.2827 134.794 70.6761 135.181 71.1615 135.181Z" stroke="#262626" stroke-miterlimit="10" stroke-linecap="round"/>
<path d="M60.4563 135.181C60.9416 135.181 61.335 134.794 61.335 134.315C61.335 133.837 60.9416 133.449 60.4563 133.449C59.9709 133.449 59.5775 133.837 59.5775 134.315C59.5775 134.794 59.9709 135.181 60.4563 135.181Z" stroke="#262626" stroke-miterlimit="10" stroke-linecap="round"/>
<path d="M67.9338 91.4724H61.3538V102.611H67.9338V91.4724Z" stroke="#262626" stroke-miterlimit="10" stroke-linecap="round"/>
<path d="M68.7982 91.2101H60.3855V91.7326H68.7982V91.2101Z" fill="#262626"/>
<path d="M63.7637 106.353V129.5" stroke="#262626" stroke-miterlimit="10" stroke-linecap="round"/>
<path d="M66.4801 106.353V129.5" stroke="#262626" stroke-miterlimit="10" stroke-linecap="round"/>
<path d="M69.196 106.353V129.5" stroke="#262626" stroke-miterlimit="10" stroke-linecap="round"/>
<path d="M71.9125 106.353V129.5" stroke="#262626" stroke-miterlimit="10" stroke-linecap="round"/>
<path d="M72.8797 108.481H68.2144V110.937H72.8797V108.481Z" fill="#F5BBBB"/>
<path d="M67.7195 113.728L64.3182 114.822L65.4273 118.174L68.8285 117.081L67.7195 113.728Z" fill="#1924B1"/>
<path d="M71.0065 121.457H67.9337V123.477H71.0065V121.457Z" fill="#98C8DB"/>
<path d="M69.7184 58.7205H66.1315C65.6847 58.7205 65.3225 59.0775 65.3225 59.5178V66.6659C65.3225 67.1062 65.6847 67.4632 66.1315 67.4632H69.7184C70.1652 67.4632 70.5274 67.1062 70.5274 66.6659V59.5178C70.5274 59.0775 70.1652 58.7205 69.7184 58.7205Z" fill="#98C8DB"/>
<path d="M69.8833 68.8164L66.5703 69.4839C66.125 68.8692 65.63 68.291 65.0901 67.755C63.9009 66.5595 62.626 65.6825 61.7395 65.376L62.388 62.679C62.4578 62.3888 62.6221 62.1291 62.8559 61.9398C63.0897 61.7504 63.38 61.6419 63.6824 61.6307L65.3236 61.5718C65.3237 61.7297 65.3558 61.8861 65.418 62.0316C65.4801 62.1772 65.5711 62.3091 65.6856 62.4196C65.8001 62.5302 65.9358 62.617 66.0847 62.6752C66.2337 62.7334 66.393 62.7618 66.5532 62.7586L69.3482 62.704C69.6631 62.6978 69.963 62.5701 70.1836 62.3485C70.4041 62.1268 70.5278 61.8288 70.528 61.5183V61.0378C70.7252 61.048 70.9115 61.1305 71.0504 61.269C71.1892 61.4075 71.2705 61.5921 71.2783 61.7867L71.4787 66.6304C71.4992 67.1181 71.3532 67.5986 71.064 67.9949C70.7748 68.3912 70.359 68.6805 69.8833 68.8164Z" fill="#A74602"/>
<path d="M71.2043 62.8404C71.2458 63.8445 70.0705 64.2377 68.9211 64.3675" stroke="#262626" stroke-miterlimit="10" stroke-linecap="round"/>
<path d="M71.2501 64.2939C71.2916 65.2986 70.1162 65.6913 68.9669 65.8211" stroke="#262626" stroke-miterlimit="10" stroke-linecap="round"/>
<path d="M71.374 65.7119C71.4155 66.716 70.2397 67.0552 69.0903 67.1845" stroke="#262626" stroke-miterlimit="10" stroke-linecap="round"/>
<path d="M69.5424 60.0186C69.7092 60.0186 69.8445 59.8852 69.8445 59.7208C69.8445 59.5563 69.7092 59.423 69.5424 59.423C69.3755 59.423 69.2402 59.5563 69.2402 59.7208C69.2402 59.8852 69.3755 60.0186 69.5424 60.0186Z" stroke="#262626" stroke-miterlimit="10" stroke-linecap="round"/>
<path d="M21.5579 93.4783L33.2902 96.5719L21.585 128.494H9.1969L21.5579 93.4783Z" fill="#A74602"/>
<path d="M21.5579 93.4783L33.2903 96.5719L32.1581 99.6594L20.4656 96.5719L21.5579 93.4783Z" fill="#262626"/>
<path d="M47.4691 128.494H35.5513L34.4153 96.5718H45.3818L47.4691 128.494Z" fill="#A74602"/>
<path d="M45.4355 97.3867L34.5481 100.291H34.5475L34.4153 96.5718H45.3823L45.4355 97.3867Z" fill="#262626"/>
<path d="M21.9368 133.126C22.1231 133.197 22.2832 133.322 22.3962 133.485C22.5091 133.647 22.5697 133.84 22.5698 134.037V135.182H9.48343C9.19566 135.182 8.91208 135.114 8.65638 134.984C8.40068 134.854 8.18028 134.665 8.01357 134.434C7.84687 134.203 7.7387 133.936 7.6981 133.655C7.6575 133.374 7.68564 133.088 7.78018 132.82L9.31908 128.457L21.4482 128.511L20.8644 130.192C20.6721 130.728 20.6739 131.313 20.8693 131.847C21.0648 132.382 21.442 132.833 21.9368 133.125V133.126Z" fill="white" stroke="#262626" stroke-miterlimit="10"/>
<path d="M22.571 135.181H9.48343C9.19566 135.181 8.91208 135.113 8.65638 134.983C8.40068 134.853 8.18028 134.665 8.01357 134.433C7.84687 134.202 7.7387 133.935 7.6981 133.654C7.6575 133.373 7.68564 133.087 7.78018 132.819L8.10003 131.912C8.04673 132.171 8.05235 132.437 8.11648 132.693C8.18061 132.949 8.30165 133.188 8.47085 133.392C8.64004 133.596 8.85316 133.761 9.0948 133.874C9.33643 133.987 9.60054 134.046 9.86801 134.046H22.5693L22.571 135.181Z" fill="#1924B1" stroke="#262626" stroke-miterlimit="10"/>
<path d="M17.2892 128.494L17.0209 129.415C16.9587 129.627 16.9474 129.851 16.988 130.068C17.0285 130.285 17.1198 130.491 17.2545 130.667C17.3893 130.844 17.5638 130.987 17.7644 131.086C17.965 131.184 18.1861 131.236 18.4103 131.236H20.5685L21.45 128.515L17.2892 128.494Z" fill="#1924B1" stroke="#262626" stroke-miterlimit="10"/>
<path d="M16.5195 128.494L16.1942 129.607C16.1186 129.864 16.1047 130.135 16.1537 130.399C16.2028 130.662 16.3133 130.911 16.4767 131.125C16.64 131.339 16.8516 131.513 17.0949 131.633C17.3381 131.752 17.6062 131.815 17.8781 131.815H20.8745" stroke="#262626" stroke-miterlimit="10"/>
<path d="M49.9364 135.181H37.7901C37.253 135.182 36.7368 134.976 36.3504 134.608C35.964 134.241 35.7376 133.739 35.7189 133.21L35.6636 128.463L35.6791 128.459H47.3611L47.6167 130.954C47.6592 131.366 47.8096 131.76 48.0534 132.097C48.2971 132.435 48.6256 132.704 49.0068 132.878C49.274 133 49.5011 133.194 49.6621 133.437C49.8231 133.68 49.9116 133.963 49.9176 134.253L49.9364 135.181Z" fill="white" stroke="#262626" stroke-miterlimit="10"/>
<path d="M49.9357 135.181H37.7895C37.2523 135.182 36.7361 134.976 36.3497 134.608C35.9633 134.241 35.7369 133.739 35.7182 133.21L35.705 132.093H35.7193C35.7429 132.619 35.9712 133.115 36.3569 133.479C36.7425 133.843 37.2557 134.046 37.7895 134.046H49.8992C49.9103 134.114 49.9165 134.184 49.918 134.253L49.9357 135.181Z" fill="#1924B1" stroke="#262626" stroke-miterlimit="10"/>
<path d="M47.6631 131.234H46.3826C45.9112 131.234 45.4591 131.05 45.1258 130.721C44.7925 130.393 44.6052 129.947 44.6052 129.482V128.459H47.361L47.6166 130.954C47.6264 131.048 47.6419 131.142 47.6631 131.234Z" fill="#1924B1" stroke="#262626" stroke-miterlimit="10"/>
<path d="M47.8822 131.815H46.0373C45.5031 131.815 44.9908 131.606 44.613 131.233C44.2353 130.861 44.0231 130.356 44.0231 129.829V128.461" stroke="#262626" stroke-miterlimit="10"/>
<path d="M46.6445 96.5718H34.4152L34.3161 93.7739L33.2902 96.5718L21.559 93.4783L27.7101 76.0582C31.261 78.212 44.0431 76.0582 44.0431 76.0582H44.2091L46.6445 96.5718Z" fill="#F5BBBB"/>
<path d="M44.9137 82.0598V96.5696H44.5892V79.2897L44.9137 82.0598Z" fill="white"/>
<path d="M43.1668 76.1939V96.5696H42.8423V76.2419L43.1668 76.1939Z" fill="white"/>
<path d="M41.4198 76.435V96.5696H41.0925V76.4764L41.4198 76.435Z" fill="white"/>
<path d="M39.6723 76.6406V96.5696H39.3484V76.6744L39.6723 76.6406Z" fill="white"/>
<path d="M37.9254 76.808V96.5696H37.5981V76.838C37.709 76.8282 37.8181 76.8182 37.9254 76.808Z" fill="white"/>
<path d="M36.1784 76.9329V96.5674H35.8512V76.9493C35.9614 76.9471 36.0699 76.9395 36.1784 76.9329Z" fill="white"/>
<path d="M34.4308 77.0045V93.4478L34.1063 94.3455V77.011L34.4308 77.0045Z" fill="white"/>
<path d="M32.6856 77.0055V96.4137L32.3584 96.3259V76.9952C32.4675 77.0017 32.5765 77.0017 32.6856 77.0055Z" fill="white"/>
<path d="M30.9366 76.9029V95.9522L30.6121 95.8655V76.8675C30.7186 76.8806 30.8268 76.8924 30.9366 76.9029Z" fill="white"/>
<path d="M29.1889 76.6238V95.4909L28.865 95.4047V76.5376C28.9697 76.5654 29.0782 76.5965 29.1889 76.6238Z" fill="white"/>
<path d="M27.4425 76.7955V95.031L27.118 94.9438V77.7287L27.4425 76.7955Z" fill="white"/>
<path d="M25.6949 81.7455V94.5701L25.3704 94.4829V82.6787L25.6949 81.7455Z" fill="white"/>
<path d="M23.948 86.6945V94.1093L23.6235 94.0225V87.6277L23.948 86.6945Z" fill="white"/>
<path d="M44.2595 76.5108C33.0545 79.4794 26.6294 79.1914 26.6294 79.1914L27.7101 76.0581C31.261 78.2119 44.0431 76.0581 44.0431 76.0581H44.2091L44.2595 76.5108Z" fill="#262626"/>
<path d="M34.5802 96.5718L33.8813 83.9201L31.4758 81.9278" stroke="#262626" stroke-miterlimit="10"/>
<path d="M41.4245 84.0663L39.0993 85.2024L36.7747 84.0663V80.0969H41.4245V84.0663Z" fill="#F5BBBB" stroke="#592D29" stroke-linejoin="round"/>
<path d="M29.5694 84.0663L27.2442 85.2024L24.9196 84.0663L26.3467 80.0969H29.5694V84.0663Z" fill="#F5BBBB" stroke="#592D29" stroke-linejoin="round"/>
<path d="M67.3152 71.8057C67.3069 71.8155 67.298 71.8248 67.2886 71.8341L59.8454 79.8449C58.7916 80.9789 57.436 81.7985 55.9328 82.2103C54.4296 82.6221 52.8393 82.6096 51.343 82.1743C49.8466 81.7389 48.5044 80.8981 47.4692 79.7477C46.4339 78.5972 45.7472 77.1834 45.4873 75.6671L44.0403 67.2276V76.0587C44.0403 76.0587 31.2576 78.2125 27.7073 76.0587L22.6457 90.3275C22.6459 90.3288 22.6459 90.3301 22.6457 90.3314C22.379 91.0148 20.1611 90.9046 17.6804 89.9769C15.1997 89.0491 13.3315 87.7789 13.5855 87.0928C13.5853 87.0915 13.5853 87.0902 13.5855 87.0889C13.5858 87.087 13.5858 87.0849 13.5855 87.0829L23.5111 61.4033C24.049 60.012 25.0032 58.8147 26.2472 57.9701C27.4912 57.1256 28.9663 56.6736 30.4768 56.6741H45.3623C47.062 56.6741 48.7106 57.2468 50.0346 58.2973C51.3587 59.3477 52.2786 60.8128 52.6417 62.4493L54.693 71.1561L60.7396 65.3885C61.2813 64.8638 63.2851 65.9399 65.0896 67.755C66.8664 69.539 67.7988 71.2499 67.3152 71.8057Z" fill="white" stroke="#262626" stroke-miterlimit="10"/>
<path d="M22.6457 90.3276C22.6459 90.3288 22.6459 90.3301 22.6457 90.3314C22.379 91.0148 20.1611 90.9046 17.6804 89.9769C15.1997 89.0491 13.3315 87.7789 13.5855 87.0928C13.5853 87.0915 13.5853 87.0902 13.5855 87.089C13.5858 87.087 13.5858 87.0849 13.5855 87.083C13.8622 86.405 16.1537 86.5714 18.6299 87.4969C21.1062 88.4225 22.9013 89.642 22.6457 90.3276Z" fill="white" stroke="#262626" stroke-miterlimit="10"/>
<path d="M5.23424 96.9246L1.3326 107.986C0.645976 109.933 1.69045 112.059 3.66551 112.736L9.91096 114.876C11.886 115.553 14.0437 114.523 14.7304 112.577L18.632 101.515C19.3186 99.5687 18.2741 97.442 16.2991 96.7653L10.0536 94.6253C8.07859 93.9485 5.92087 94.978 5.23424 96.9246Z" stroke="#262626" stroke-miterlimit="10" stroke-linecap="round"/>
<path d="M17.62 104.384L14.7298 112.578C14.5665 113.041 14.3124 113.468 13.9818 113.834C13.6513 114.2 13.2508 114.498 12.8033 114.712C12.3558 114.925 11.87 115.05 11.3736 115.078C10.8773 115.106 10.3801 115.038 9.91055 114.877L3.66477 112.737C2.71644 112.412 1.93793 111.729 1.50044 110.838C1.06294 109.947 1.00229 108.922 1.3318 107.987L4.22201 99.793C4.62417 98.6533 5.46912 97.7176 6.57105 97.1918C7.67297 96.666 8.94166 96.5931 10.0981 96.9891L14.7763 98.5925C15.3488 98.7887 15.8766 99.0942 16.3294 99.4914C16.7822 99.8887 17.1512 100.37 17.4153 100.908C17.6793 101.446 17.8333 102.029 17.8685 102.626C17.9036 103.222 17.8191 103.82 17.62 104.384Z" stroke="#262626" stroke-miterlimit="10" stroke-linecap="round"/>
<path d="M6.94584 104.149L12.7146 106.125C12.8948 106.187 13.0428 106.317 13.1259 106.486C13.209 106.655 13.2205 106.85 13.1579 107.028L12.8764 107.826L5.74867 105.384L6.03014 104.586C6.09279 104.408 6.22446 104.262 6.39618 104.18C6.56791 104.098 6.76563 104.087 6.94584 104.149Z" stroke="#262626" stroke-miterlimit="10" stroke-linecap="round"/>
<path d="M6.46265 106.195L13.1006 108.47L12.1587 111.141C12.0682 111.397 11.8782 111.607 11.6304 111.726C11.3826 111.844 11.0973 111.86 10.8372 111.771L6.16033 110.168C5.90027 110.079 5.68678 109.892 5.56682 109.648C5.44687 109.404 5.43027 109.122 5.52067 108.866L6.46301 106.194L6.46265 106.195Z" fill="#98C8DB"/>
<path d="M5.99402 105.47L12.632 107.744L11.6897 110.416C11.5993 110.672 11.4092 110.883 11.1614 111.001C10.9136 111.119 10.6283 111.136 10.3682 111.046L5.69134 109.444C5.43128 109.355 5.21779 109.168 5.09783 108.923C4.97787 108.679 4.96127 108.398 5.05168 108.142L5.99402 105.47Z" stroke="#262626" stroke-miterlimit="10" stroke-linecap="round"/>
<path d="M18.682 92.0799L17.0734 97.0611L10.6179 94.8026L11.5952 91.7756L18.682 92.0799Z" stroke="#262626" stroke-miterlimit="10" stroke-linecap="round"/>
<path d="M21.5927 89.1167L21.4638 89.4647L20.984 90.7589L19.9631 93.5203C19.8556 93.8207 19.6562 94.0809 19.3923 94.2649C19.1285 94.449 18.8133 94.5478 18.49 94.5479H12.5032C12.2527 94.5477 12.0059 94.4883 11.7836 94.3744C11.5613 94.2606 11.37 94.0958 11.2259 93.8938C11.0817 93.6919 10.989 93.4587 10.9554 93.214C10.9218 92.9694 10.9484 92.7203 11.033 92.4879L11.7595 90.4824C11.8391 90.2637 11.9853 90.0744 12.1782 89.9407C12.371 89.807 12.6011 89.7352 12.8369 89.7352H14.0709L14.5302 88.3919L14.5933 88.207L15.0598 86.8435C15.9933 86.898 17.287 87.1767 18.578 87.6616C19.7772 88.1088 20.8678 88.6253 21.5927 89.1167Z" fill="#A74602"/>
<path d="M13.6393 94.3455C13.3997 94.3456 13.1636 94.2888 12.951 94.18C12.7383 94.0713 12.5553 93.9137 12.4174 93.7206C12.2795 93.5275 12.1907 93.3046 12.1585 93.0706C12.1264 92.8366 12.1518 92.5984 12.2326 92.3761L12.8751 90.6128C12.9513 90.4037 13.0911 90.2228 13.2756 90.095C13.46 89.9672 13.68 89.8987 13.9054 89.8989H18.3085C18.3937 89.8989 18.4777 89.919 18.5533 89.9576C18.629 89.9962 18.6941 90.0521 18.7433 90.1207C18.7925 90.1892 18.8242 90.2684 18.8359 90.3516C18.8476 90.4348 18.8389 90.5195 18.8104 90.5986L18.2449 92.2894L18.6826 92.2746" stroke="#262626" stroke-miterlimit="10" stroke-linecap="round"/>
<path d="M15.6558 94.3456C15.4163 94.3455 15.1803 94.2887 14.9677 94.1799C14.7551 94.0711 14.5722 93.9135 14.4343 93.7204C14.2965 93.5274 14.2077 93.3044 14.1756 93.0705C14.1435 92.8365 14.1689 92.5984 14.2497 92.3761L14.8916 90.6129C14.9678 90.4033 15.1078 90.2221 15.2926 90.0941C15.4774 89.9661 15.6978 89.8975 15.9236 89.8978" stroke="#262626" stroke-miterlimit="10" stroke-linecap="round"/>
<path d="M17.8958 94.4547C16.8616 94.4547 15.9175 93.3344 16.2662 92.375L16.9086 90.6118C16.9848 90.4026 17.1247 90.2218 17.3091 90.094C17.4935 89.9662 17.7135 89.8977 17.939 89.8978" stroke="#262626" stroke-miterlimit="10" stroke-linecap="round"/>
<path d="M14.5771 88.2539L15.0619 86.7874C15.9987 86.8375 17.2626 87.1146 18.5779 87.6055C19.8036 88.0636 20.8838 88.5872 21.6081 89.0857L21.4897 89.3976L14.5771 88.2539Z" fill="#262626"/>
<path d="M41.9227 53.8982V56.7822C41.9227 56.7822 39.2367 57.7154 37.3912 56.7822L39.4741 53.0588L39.6401 52.7626C39.6628 52.7899 40.4375 53.6849 41.9227 53.8982Z" fill="#A74602"/>
<path d="M39.6402 52.7613C39.6402 52.7613 40.4149 53.6814 41.9228 53.8979V55.9704L39.4708 53.0542L39.6402 52.7613Z" fill="#262626"/>
<path d="M27.7069 75.8422L10.4421 63.5663C10.4421 63.5663 10.2141 56.6037 17.6169 55.5969C21.0406 55.13 22.2403 56.8361 24.9716 56.4412C27.7467 56.0403 26.6024 51.8424 30.6901 50.9326C33.4242 50.3229 34.2155 52.258 36.1921 51.3275C37.5396 50.6937 38.3043 48.3491 40.7812 48.3491C42.6205 48.3491 42.8928 49.7671 42.8928 49.7671C42.8928 49.7671 42.1042 50.7134 39.6401 50.8055V52.6534C39.6401 52.6534 39.6401 55.808 36.8429 57.0526C34.8043 57.959 35.8258 59.4087 36.5015 62.2023C37.3913 65.8815 34.0191 68.5737 30.7288 69.2925C27.4656 70.007 26.7252 73.1839 27.7069 75.8422Z" fill="#1924B1"/>
<path d="M39.9395 50.7903C42.1341 50.6397 42.8723 49.7927 42.8945 49.7654L43.6791 51.6405C43.6971 51.6835 43.7057 51.7297 43.7043 51.7762C43.703 51.8227 43.6918 51.8684 43.6714 51.9103C43.651 51.9522 43.6219 51.9894 43.5859 52.0195C43.55 52.0496 43.508 52.0719 43.4628 52.085L43.2674 52.1396L43.3781 52.8344C43.4068 53.0169 43.3736 53.2037 43.2835 53.3656C43.1935 53.5276 43.0516 53.6557 42.8801 53.73C42.5487 53.8785 42.1819 53.9327 41.8209 53.8865C40.3136 53.6683 39.6412 52.7613 39.6412 52.7613H39.3585C39.0943 52.7613 38.841 52.6579 38.6542 52.4738C38.4674 52.2897 38.3624 52.04 38.3624 51.7796C38.3624 51.5192 38.4674 51.2695 38.6542 51.0854C38.841 50.9013 39.0943 50.7979 39.3585 50.7979L39.9395 50.7903Z" fill="#A74602"/>
<path d="M39.2306 51.34C39.398 51.34 39.5586 51.4056 39.677 51.5223C39.7955 51.639 39.862 51.7973 39.862 51.9623" stroke="#262626" stroke-miterlimit="10" stroke-linecap="round"/>
<path d="M41.5547 51.0183C41.5547 51.0183 41.9597 50.7221 42.4146 50.7145" stroke="#1924B1" stroke-miterlimit="10" stroke-linecap="round"/>
<path d="M42.1882 51.7486C42.2726 51.7486 42.3409 51.6275 42.3409 51.4781C42.3409 51.3287 42.2726 51.2076 42.1882 51.2076C42.1039 51.2076 42.0355 51.3287 42.0355 51.4781C42.0355 51.6275 42.1039 51.7486 42.1882 51.7486Z" fill="#262626"/>
</svg>
