<svg width="221" height="142" viewBox="0 0 221 142" fill="none" xmlns="http://www.w3.org/2000/svg">
<path d="M206.818 5.27283H88.0086C83.4654 5.27283 79.7824 8.90371 79.7824 13.3826V101.059C79.7824 105.538 83.4654 109.169 88.0086 109.169H206.818C211.361 109.169 215.044 105.538 215.044 101.059V13.3826C215.044 8.90371 211.361 5.27283 206.818 5.27283Z" fill="#D8E9F1"/>
<path d="M215.046 67.8367H174.67L145.665 51.1962C145.147 50.899 144.717 50.473 144.418 49.9606C144.119 49.4483 143.962 48.8676 143.961 48.2765V33.7026" stroke="white" stroke-miterlimit="10"/>
<path d="M143.961 29.3831V5.27283" stroke="white" stroke-miterlimit="10"/>
<path d="M124.57 68.1257V22.0589" stroke="white" stroke-miterlimit="10"/>
<path d="M79.7824 47.2831H97.0202C97.9457 47.2831 98.8622 47.1034 99.7173 46.7543C100.572 46.4051 101.349 45.8933 102.004 45.2481C102.658 44.6029 103.177 43.837 103.531 42.994C103.886 42.1511 104.068 41.2476 104.068 40.3351V22.2106" stroke="white" stroke-miterlimit="10"/>
<path d="M104.068 26.6121C104.068 27.9152 104.593 29.1649 105.528 30.0863C106.463 31.0078 107.73 31.5254 109.052 31.5254H141.755" stroke="white" stroke-miterlimit="10"/>
<path d="M146.139 31.5254H179.638C181.048 31.5252 182.409 31.0174 183.466 30.0974L192.519 22.2106L210.532 6.49982" stroke="white" stroke-miterlimit="10" stroke-linecap="round"/>
<path d="M146.139 31.5254V31.5428C146.139 32.1133 145.911 32.6607 145.503 33.0654C145.095 33.4701 144.541 33.6992 143.962 33.7026H143.948C143.66 33.7031 143.375 33.6476 143.109 33.5393C142.843 33.4309 142.601 33.2719 142.397 33.0713C142.193 32.8707 142.032 32.6324 141.921 32.3701C141.811 32.1079 141.754 31.8267 141.755 31.5428V31.5254C141.759 30.9557 141.992 30.4109 142.402 30.0098C142.812 29.6086 143.367 29.3836 143.945 29.3838H143.958C144.535 29.386 145.087 29.612 145.495 30.013C145.903 30.4139 146.135 30.9573 146.139 31.5254Z" stroke="white" stroke-miterlimit="10"/>
<path d="M215.046 22.2128H192.519" stroke="white" stroke-miterlimit="10"/>
<path d="M215.046 55.4832H174.67" stroke="white" stroke-miterlimit="10"/>
<path d="M174.669 5.27283V79.5805C174.669 80.5317 174.285 81.4439 173.603 82.1164C172.921 82.789 171.995 83.1668 171.031 83.1668H79.7824" stroke="white" stroke-miterlimit="10"/>
<path d="M187.982 109.51L162.228 83.1667" stroke="white" stroke-miterlimit="10"/>
<path d="M98.4827 67.8307L89.1581 47.2832" stroke="white" stroke-miterlimit="10"/>
<path d="M79.7824 22.2128H143.947" stroke="white" stroke-miterlimit="10"/>
<path d="M174.377 5.10297L146.25 31.3548" stroke="white" stroke-miterlimit="10"/>
<path d="M174.67 7.69647L149.322 31.3547" stroke="white" stroke-miterlimit="10"/>
<path d="M174.67 10.5638L152.394 31.3548" stroke="white" stroke-miterlimit="10"/>
<path d="M174.67 13.4304L155.465 31.3547" stroke="white" stroke-miterlimit="10"/>
<path d="M174.67 19.1642L161.609 31.3547" stroke="white" stroke-miterlimit="10"/>
<path d="M174.67 16.2977L158.537 31.3548" stroke="white" stroke-miterlimit="10"/>
<path d="M174.67 22.0316L164.68 31.3547" stroke="white" stroke-miterlimit="10"/>
<path d="M174.67 24.8982L167.752 31.3548" stroke="white" stroke-miterlimit="10"/>
<path d="M174.67 27.7655L170.824 31.3548" stroke="white" stroke-miterlimit="10"/>
<path d="M149.804 5.10297L143.961 10.5555" stroke="white" stroke-miterlimit="10"/>
<path d="M146.732 5.10297L143.961 7.68894" stroke="white" stroke-miterlimit="10"/>
<path d="M152.875 5.10297L143.961 13.4228" stroke="white" stroke-miterlimit="10"/>
<path d="M155.947 5.10297L143.948 16.3023" stroke="white" stroke-miterlimit="10"/>
<path d="M162.091 5.10297L143.948 22.0362" stroke="white" stroke-miterlimit="10"/>
<path d="M159.019 5.10297L143.948 19.1688" stroke="white" stroke-miterlimit="10"/>
<path d="M165.162 5.10297L143.961 24.8898" stroke="white" stroke-miterlimit="10"/>
<path d="M168.234 5.10297L143.961 27.7572" stroke="white" stroke-miterlimit="10"/>
<path d="M171.306 5.10297L145.005 29.6508" stroke="white" stroke-miterlimit="10"/>
<path d="M163.035 83.2122L134.908 109.464" stroke="white" stroke-miterlimit="10"/>
<path d="M164.102 85.0831L137.979 109.464" stroke="white" stroke-miterlimit="10"/>
<path d="M165.567 86.5823L141.051 109.464" stroke="white" stroke-miterlimit="10"/>
<path d="M167.032 88.0817L144.122 109.464" stroke="white" stroke-miterlimit="10"/>
<path d="M169.963 91.0794L150.266 109.464" stroke="white" stroke-miterlimit="10"/>
<path d="M168.498 89.5809L147.194 109.464" stroke="white" stroke-miterlimit="10"/>
<path d="M171.429 92.5787L153.338 109.464" stroke="white" stroke-miterlimit="10"/>
<path d="M172.895 94.0779L156.409 109.464" stroke="white" stroke-miterlimit="10"/>
<path d="M174.36 95.5771L159.481 109.464" stroke="white" stroke-miterlimit="10"/>
<path d="M175.736 96.9839L162.365 109.464" stroke="white" stroke-miterlimit="10"/>
<path d="M177.202 98.4832L165.436 109.464" stroke="white" stroke-miterlimit="10"/>
<path d="M178.66 99.9749L168.493 109.464" stroke="white" stroke-miterlimit="10"/>
<path d="M180.126 101.474L171.565 109.464" stroke="white" stroke-miterlimit="10"/>
<path d="M181.584 102.965L174.621 109.464" stroke="white" stroke-miterlimit="10"/>
<path d="M183.049 104.464L177.693 109.464" stroke="white" stroke-miterlimit="10"/>
<path d="M184.508 105.956L180.749 109.464" stroke="white" stroke-miterlimit="10"/>
<path d="M185.973 107.455L183.821 109.464" stroke="white" stroke-miterlimit="10"/>
<path d="M138.461 83.2122L132.619 88.6648" stroke="white" stroke-miterlimit="10"/>
<path d="M135.389 83.2122L132.619 85.7982" stroke="white" stroke-miterlimit="10"/>
<path d="M141.533 83.2122L132.619 91.5321" stroke="white" stroke-miterlimit="10"/>
<path d="M144.605 83.2122L132.605 94.4115" stroke="white" stroke-miterlimit="10"/>
<path d="M150.748 83.2122L132.605 100.145" stroke="white" stroke-miterlimit="10"/>
<path d="M147.676 83.2122L132.605 97.2789" stroke="white" stroke-miterlimit="10"/>
<path d="M153.819 83.2122L132.619 102.999" stroke="white" stroke-miterlimit="10"/>
<path d="M156.891 83.2122L132.619 105.866" stroke="white" stroke-miterlimit="10"/>
<path d="M159.963 83.2122L132.619 108.733" stroke="white" stroke-miterlimit="10"/>
<path d="M132.768 109.169L132.601 72.0577C132.584 70.9124 132.111 69.8196 131.284 69.0155C130.456 68.2115 129.341 67.7607 128.179 67.7609H79.7126" stroke="white" stroke-miterlimit="10"/>
<path d="M85.1266 29.396C85.3487 29.396 85.5289 29.2184 85.5289 28.9993C85.5289 28.7803 85.3487 28.6027 85.1266 28.6027C84.9044 28.6027 84.7242 28.7803 84.7242 28.9993C84.7242 29.2184 84.9044 29.396 85.1266 29.396Z" fill="#98C8DB"/>
<path d="M87.662 29.396C87.8842 29.396 88.0643 29.2184 88.0643 28.9993C88.0643 28.7803 87.8842 28.6027 87.662 28.6027C87.4398 28.6027 87.2596 28.7803 87.2596 28.9993C87.2596 29.2184 87.4398 29.396 87.662 29.396Z" fill="#98C8DB"/>
<path d="M90.1974 29.396C90.4195 29.396 90.5997 29.2184 90.5997 28.9993C90.5997 28.7803 90.4195 28.6027 90.1974 28.6027C89.9752 28.6027 89.795 28.7803 89.795 28.9993C89.795 29.2184 89.9752 29.396 90.1974 29.396Z" fill="#98C8DB"/>
<path d="M92.732 29.396C92.9541 29.396 93.1343 29.2184 93.1343 28.9993C93.1343 28.7803 92.9541 28.6027 92.732 28.6027C92.5098 28.6027 92.3297 28.7803 92.3297 28.9993C92.3297 29.2184 92.5098 29.396 92.732 29.396Z" fill="#98C8DB"/>
<path d="M95.2674 29.396C95.4896 29.396 95.6697 29.2184 95.6697 28.9993C95.6697 28.7803 95.4896 28.6027 95.2674 28.6027C95.0452 28.6027 94.8651 28.7803 94.8651 28.9993C94.8651 29.2184 95.0452 29.396 95.2674 29.396Z" fill="#98C8DB"/>
<path d="M97.802 29.396C98.0242 29.396 98.2043 29.2184 98.2043 28.9993C98.2043 28.7803 98.0242 28.6027 97.802 28.6027C97.5798 28.6027 97.3997 28.7803 97.3997 28.9993C97.3997 29.2184 97.5798 29.396 97.802 29.396Z" fill="#98C8DB"/>
<path d="M82.5919 29.396C82.8141 29.396 82.9942 29.2184 82.9942 28.9993C82.9942 28.7803 82.8141 28.6027 82.5919 28.6027C82.3697 28.6027 82.1896 28.7803 82.1896 28.9993C82.1896 29.2184 82.3697 29.396 82.5919 29.396Z" fill="#98C8DB"/>
<path d="M83.8596 30.698C84.0818 30.698 84.262 30.5204 84.262 30.3014C84.262 30.0824 84.0818 29.9048 83.8596 29.9048C83.6375 29.9048 83.4573 30.0824 83.4573 30.3014C83.4573 30.5204 83.6375 30.698 83.8596 30.698Z" fill="#98C8DB"/>
<path d="M86.3942 30.698C86.6164 30.698 86.7965 30.5204 86.7965 30.3014C86.7965 30.0824 86.6164 29.9048 86.3942 29.9048C86.172 29.9048 85.9919 30.0824 85.9919 30.3014C85.9919 30.5204 86.172 30.698 86.3942 30.698Z" fill="#98C8DB"/>
<path d="M88.9296 30.698C89.1518 30.698 89.3319 30.5204 89.3319 30.3014C89.3319 30.0824 89.1518 29.9048 88.9296 29.9048C88.7074 29.9048 88.5273 30.0824 88.5273 30.3014C88.5273 30.5204 88.7074 30.698 88.9296 30.698Z" fill="#98C8DB"/>
<path d="M91.4642 30.698C91.6864 30.698 91.8665 30.5204 91.8665 30.3014C91.8665 30.0824 91.6864 29.9048 91.4642 29.9048C91.242 29.9048 91.0619 30.0824 91.0619 30.3014C91.0619 30.5204 91.242 30.698 91.4642 30.698Z" fill="#98C8DB"/>
<path d="M93.9996 30.698C94.2218 30.698 94.4019 30.5204 94.4019 30.3014C94.4019 30.0824 94.2218 29.9048 93.9996 29.9048C93.7774 29.9048 93.5973 30.0824 93.5973 30.3014C93.5973 30.5204 93.7774 30.698 93.9996 30.698Z" fill="#98C8DB"/>
<path d="M96.5351 30.698C96.7572 30.698 96.9374 30.5204 96.9374 30.3014C96.9374 30.0824 96.7572 29.9048 96.5351 29.9048C96.3129 29.9048 96.1328 30.0824 96.1328 30.3014C96.1328 30.5204 96.3129 30.698 96.5351 30.698Z" fill="#98C8DB"/>
<path d="M99.0697 30.698C99.2919 30.698 99.472 30.5204 99.472 30.3014C99.472 30.0824 99.2919 29.9048 99.0697 29.9048C98.8475 29.9048 98.6674 30.0824 98.6674 30.3014C98.6674 30.5204 98.8475 30.698 99.0697 30.698Z" fill="#98C8DB"/>
<path d="M81.3242 30.698C81.5464 30.698 81.7265 30.5204 81.7265 30.3014C81.7265 30.0824 81.5464 29.9048 81.3242 29.9048C81.102 29.9048 80.9219 30.0824 80.9219 30.3014C80.9219 30.5204 81.102 30.698 81.3242 30.698Z" fill="#98C8DB"/>
<path d="M85.1266 32.0001C85.3487 32.0001 85.5289 31.8225 85.5289 31.6035C85.5289 31.3844 85.3487 31.2068 85.1266 31.2068C84.9044 31.2068 84.7242 31.3844 84.7242 31.6035C84.7242 31.8225 84.9044 32.0001 85.1266 32.0001Z" fill="#98C8DB"/>
<path d="M87.662 32.0001C87.8842 32.0001 88.0643 31.8225 88.0643 31.6035C88.0643 31.3844 87.8842 31.2068 87.662 31.2068C87.4398 31.2068 87.2596 31.3844 87.2596 31.6035C87.2596 31.8225 87.4398 32.0001 87.662 32.0001Z" fill="#98C8DB"/>
<path d="M90.1974 32.0001C90.4195 32.0001 90.5997 31.8225 90.5997 31.6035C90.5997 31.3844 90.4195 31.2068 90.1974 31.2068C89.9752 31.2068 89.795 31.3844 89.795 31.6035C89.795 31.8225 89.9752 32.0001 90.1974 32.0001Z" fill="#98C8DB"/>
<path d="M92.732 32.0001C92.9541 32.0001 93.1343 31.8225 93.1343 31.6035C93.1343 31.3844 92.9541 31.2068 92.732 31.2068C92.5098 31.2068 92.3297 31.3844 92.3297 31.6035C92.3297 31.8225 92.5098 32.0001 92.732 32.0001Z" fill="#98C8DB"/>
<path d="M95.2674 32.0001C95.4896 32.0001 95.6697 31.8225 95.6697 31.6035C95.6697 31.3844 95.4896 31.2068 95.2674 31.2068C95.0452 31.2068 94.8651 31.3844 94.8651 31.6035C94.8651 31.8225 95.0452 32.0001 95.2674 32.0001Z" fill="#98C8DB"/>
<path d="M97.802 32.0001C98.0242 32.0001 98.2043 31.8225 98.2043 31.6035C98.2043 31.3844 98.0242 31.2068 97.802 31.2068C97.5798 31.2068 97.3997 31.3844 97.3997 31.6035C97.3997 31.8225 97.5798 32.0001 97.802 32.0001Z" fill="#98C8DB"/>
<path d="M100.337 32.0001C100.559 32.0001 100.74 31.8225 100.74 31.6035C100.74 31.3844 100.559 31.2068 100.337 31.2068C100.115 31.2068 99.935 31.3844 99.935 31.6035C99.935 31.8225 100.115 32.0001 100.337 32.0001Z" fill="#98C8DB"/>
<path d="M100.337 29.396C100.559 29.396 100.74 29.2184 100.74 28.9993C100.74 28.7803 100.559 28.6027 100.337 28.6027C100.115 28.6027 99.935 28.7803 99.935 28.9993C99.935 29.2184 100.115 29.396 100.337 29.396Z" fill="#98C8DB"/>
<path d="M82.5919 32.0001C82.8141 32.0001 82.9942 31.8225 82.9942 31.6035C82.9942 31.3844 82.8141 31.2068 82.5919 31.2068C82.3697 31.2068 82.1896 31.3844 82.1896 31.6035C82.1896 31.8225 82.3697 32.0001 82.5919 32.0001Z" fill="#98C8DB"/>
<path d="M83.8596 33.3022C84.0818 33.3022 84.262 33.1246 84.262 32.9056C84.262 32.6865 84.0818 32.509 83.8596 32.509C83.6375 32.509 83.4573 32.6865 83.4573 32.9056C83.4573 33.1246 83.6375 33.3022 83.8596 33.3022Z" fill="#98C8DB"/>
<path d="M86.3942 33.3022C86.6164 33.3022 86.7965 33.1246 86.7965 32.9056C86.7965 32.6865 86.6164 32.509 86.3942 32.509C86.172 32.509 85.9919 32.6865 85.9919 32.9056C85.9919 33.1246 86.172 33.3022 86.3942 33.3022Z" fill="#98C8DB"/>
<path d="M88.9296 33.3022C89.1518 33.3022 89.3319 33.1246 89.3319 32.9056C89.3319 32.6865 89.1518 32.509 88.9296 32.509C88.7074 32.509 88.5273 32.6865 88.5273 32.9056C88.5273 33.1246 88.7074 33.3022 88.9296 33.3022Z" fill="#98C8DB"/>
<path d="M91.4642 33.3022C91.6864 33.3022 91.8665 33.1246 91.8665 32.9056C91.8665 32.6865 91.6864 32.509 91.4642 32.509C91.242 32.509 91.0619 32.6865 91.0619 32.9056C91.0619 33.1246 91.242 33.3022 91.4642 33.3022Z" fill="#98C8DB"/>
<path d="M93.9996 33.3022C94.2218 33.3022 94.4019 33.1246 94.4019 32.9056C94.4019 32.6865 94.2218 32.509 93.9996 32.509C93.7774 32.509 93.5973 32.6865 93.5973 32.9056C93.5973 33.1246 93.7774 33.3022 93.9996 33.3022Z" fill="#98C8DB"/>
<path d="M96.5351 33.3022C96.7572 33.3022 96.9374 33.1246 96.9374 32.9056C96.9374 32.6865 96.7572 32.509 96.5351 32.509C96.3129 32.509 96.1328 32.6865 96.1328 32.9056C96.1328 33.1246 96.3129 33.3022 96.5351 33.3022Z" fill="#98C8DB"/>
<path d="M99.0697 33.3022C99.2919 33.3022 99.472 33.1246 99.472 32.9056C99.472 32.6865 99.2919 32.509 99.0697 32.509C98.8475 32.509 98.6674 32.6865 98.6674 32.9056C98.6674 33.1246 98.8475 33.3022 99.0697 33.3022Z" fill="#98C8DB"/>
<path d="M81.3242 33.3022C81.5464 33.3022 81.7265 33.1246 81.7265 32.9056C81.7265 32.6865 81.5464 32.509 81.3242 32.509C81.102 32.509 80.9219 32.6865 80.9219 32.9056C80.9219 33.1246 81.102 33.3022 81.3242 33.3022Z" fill="#98C8DB"/>
<path d="M85.1266 34.6042C85.3487 34.6042 85.5289 34.4266 85.5289 34.2076C85.5289 33.9885 85.3487 33.811 85.1266 33.811C84.9044 33.811 84.7242 33.9885 84.7242 34.2076C84.7242 34.4266 84.9044 34.6042 85.1266 34.6042Z" fill="#98C8DB"/>
<path d="M87.662 34.6042C87.8842 34.6042 88.0643 34.4266 88.0643 34.2076C88.0643 33.9885 87.8842 33.811 87.662 33.811C87.4398 33.811 87.2596 33.9885 87.2596 34.2076C87.2596 34.4266 87.4398 34.6042 87.662 34.6042Z" fill="#98C8DB"/>
<path d="M90.1974 34.6042C90.4195 34.6042 90.5997 34.4266 90.5997 34.2076C90.5997 33.9885 90.4195 33.811 90.1974 33.811C89.9752 33.811 89.795 33.9885 89.795 34.2076C89.795 34.4266 89.9752 34.6042 90.1974 34.6042Z" fill="#98C8DB"/>
<path d="M92.732 34.6042C92.9541 34.6042 93.1343 34.4266 93.1343 34.2076C93.1343 33.9885 92.9541 33.811 92.732 33.811C92.5098 33.811 92.3297 33.9885 92.3297 34.2076C92.3297 34.4266 92.5098 34.6042 92.732 34.6042Z" fill="#98C8DB"/>
<path d="M95.2674 34.6042C95.4896 34.6042 95.6697 34.4266 95.6697 34.2076C95.6697 33.9885 95.4896 33.811 95.2674 33.811C95.0452 33.811 94.8651 33.9885 94.8651 34.2076C94.8651 34.4266 95.0452 34.6042 95.2674 34.6042Z" fill="#98C8DB"/>
<path d="M97.802 34.6042C98.0242 34.6042 98.2043 34.4266 98.2043 34.2076C98.2043 33.9885 98.0242 33.811 97.802 33.811C97.5798 33.811 97.3997 33.9885 97.3997 34.2076C97.3997 34.4266 97.5798 34.6042 97.802 34.6042Z" fill="#98C8DB"/>
<path d="M100.337 34.6042C100.559 34.6042 100.74 34.4266 100.74 34.2076C100.74 33.9885 100.559 33.811 100.337 33.811C100.115 33.811 99.935 33.9885 99.935 34.2076C99.935 34.4266 100.115 34.6042 100.337 34.6042Z" fill="#98C8DB"/>
<path d="M82.5919 34.6042C82.8141 34.6042 82.9942 34.4266 82.9942 34.2076C82.9942 33.9885 82.8141 33.811 82.5919 33.811C82.3697 33.811 82.1896 33.9885 82.1896 34.2076C82.1896 34.4266 82.3697 34.6042 82.5919 34.6042Z" fill="#98C8DB"/>
<path d="M83.8596 35.9063C84.0818 35.9063 84.262 35.7288 84.262 35.5097C84.262 35.2907 84.0818 35.1131 83.8596 35.1131C83.6375 35.1131 83.4573 35.2907 83.4573 35.5097C83.4573 35.7288 83.6375 35.9063 83.8596 35.9063Z" fill="#98C8DB"/>
<path d="M86.3942 35.9063C86.6164 35.9063 86.7965 35.7288 86.7965 35.5097C86.7965 35.2907 86.6164 35.1131 86.3942 35.1131C86.172 35.1131 85.9919 35.2907 85.9919 35.5097C85.9919 35.7288 86.172 35.9063 86.3942 35.9063Z" fill="#98C8DB"/>
<path d="M88.9296 35.9063C89.1518 35.9063 89.3319 35.7288 89.3319 35.5097C89.3319 35.2907 89.1518 35.1131 88.9296 35.1131C88.7074 35.1131 88.5273 35.2907 88.5273 35.5097C88.5273 35.7288 88.7074 35.9063 88.9296 35.9063Z" fill="#98C8DB"/>
<path d="M91.4642 35.9063C91.6864 35.9063 91.8665 35.7288 91.8665 35.5097C91.8665 35.2907 91.6864 35.1131 91.4642 35.1131C91.242 35.1131 91.0619 35.2907 91.0619 35.5097C91.0619 35.7288 91.242 35.9063 91.4642 35.9063Z" fill="#98C8DB"/>
<path d="M93.9996 35.9063C94.2218 35.9063 94.4019 35.7288 94.4019 35.5097C94.4019 35.2907 94.2218 35.1131 93.9996 35.1131C93.7774 35.1131 93.5973 35.2907 93.5973 35.5097C93.5973 35.7288 93.7774 35.9063 93.9996 35.9063Z" fill="#98C8DB"/>
<path d="M96.5351 35.9063C96.7572 35.9063 96.9374 35.7288 96.9374 35.5097C96.9374 35.2907 96.7572 35.1131 96.5351 35.1131C96.3129 35.1131 96.1328 35.2907 96.1328 35.5097C96.1328 35.7288 96.3129 35.9063 96.5351 35.9063Z" fill="#98C8DB"/>
<path d="M99.0697 35.9063C99.2919 35.9063 99.472 35.7288 99.472 35.5097C99.472 35.2907 99.2919 35.1131 99.0697 35.1131C98.8475 35.1131 98.6674 35.2907 98.6674 35.5097C98.6674 35.7288 98.8475 35.9063 99.0697 35.9063Z" fill="#98C8DB"/>
<path d="M81.3242 35.9063C81.5464 35.9063 81.7265 35.7288 81.7265 35.5097C81.7265 35.2907 81.5464 35.1131 81.3242 35.1131C81.102 35.1131 80.9219 35.2907 80.9219 35.5097C80.9219 35.7288 81.102 35.9063 81.3242 35.9063Z" fill="#98C8DB"/>
<path d="M85.1266 37.2085C85.3487 37.2085 85.5289 37.0309 85.5289 36.8119C85.5289 36.5929 85.3487 36.4153 85.1266 36.4153C84.9044 36.4153 84.7242 36.5929 84.7242 36.8119C84.7242 37.0309 84.9044 37.2085 85.1266 37.2085Z" fill="#98C8DB"/>
<path d="M87.662 37.2085C87.8842 37.2085 88.0643 37.0309 88.0643 36.8119C88.0643 36.5929 87.8842 36.4153 87.662 36.4153C87.4398 36.4153 87.2596 36.5929 87.2596 36.8119C87.2596 37.0309 87.4398 37.2085 87.662 37.2085Z" fill="#98C8DB"/>
<path d="M90.1974 37.2085C90.4195 37.2085 90.5997 37.0309 90.5997 36.8119C90.5997 36.5929 90.4195 36.4153 90.1974 36.4153C89.9752 36.4153 89.795 36.5929 89.795 36.8119C89.795 37.0309 89.9752 37.2085 90.1974 37.2085Z" fill="#98C8DB"/>
<path d="M92.732 37.2085C92.9541 37.2085 93.1343 37.0309 93.1343 36.8119C93.1343 36.5929 92.9541 36.4153 92.732 36.4153C92.5098 36.4153 92.3297 36.5929 92.3297 36.8119C92.3297 37.0309 92.5098 37.2085 92.732 37.2085Z" fill="#98C8DB"/>
<path d="M95.2674 37.2085C95.4896 37.2085 95.6697 37.0309 95.6697 36.8119C95.6697 36.5929 95.4896 36.4153 95.2674 36.4153C95.0452 36.4153 94.8651 36.5929 94.8651 36.8119C94.8651 37.0309 95.0452 37.2085 95.2674 37.2085Z" fill="#98C8DB"/>
<path d="M97.802 37.2085C98.0242 37.2085 98.2043 37.0309 98.2043 36.8119C98.2043 36.5929 98.0242 36.4153 97.802 36.4153C97.5798 36.4153 97.3997 36.5929 97.3997 36.8119C97.3997 37.0309 97.5798 37.2085 97.802 37.2085Z" fill="#98C8DB"/>
<path d="M100.337 37.2085C100.559 37.2085 100.74 37.0309 100.74 36.8119C100.74 36.5929 100.559 36.4153 100.337 36.4153C100.115 36.4153 99.935 36.5929 99.935 36.8119C99.935 37.0309 100.115 37.2085 100.337 37.2085Z" fill="#98C8DB"/>
<path d="M82.5919 37.2085C82.8141 37.2085 82.9942 37.0309 82.9942 36.8119C82.9942 36.5929 82.8141 36.4153 82.5919 36.4153C82.3697 36.4153 82.1896 36.5929 82.1896 36.8119C82.1896 37.0309 82.3697 37.2085 82.5919 37.2085Z" fill="#98C8DB"/>
<path d="M83.8596 38.5106C84.0818 38.5106 84.262 38.333 84.262 38.114C84.262 37.8949 84.0818 37.7173 83.8596 37.7173C83.6375 37.7173 83.4573 37.8949 83.4573 38.114C83.4573 38.333 83.6375 38.5106 83.8596 38.5106Z" fill="#98C8DB"/>
<path d="M86.3942 38.5106C86.6164 38.5106 86.7965 38.333 86.7965 38.114C86.7965 37.8949 86.6164 37.7173 86.3942 37.7173C86.172 37.7173 85.9919 37.8949 85.9919 38.114C85.9919 38.333 86.172 38.5106 86.3942 38.5106Z" fill="#98C8DB"/>
<path d="M88.9296 38.5106C89.1518 38.5106 89.3319 38.333 89.3319 38.114C89.3319 37.8949 89.1518 37.7173 88.9296 37.7173C88.7074 37.7173 88.5273 37.8949 88.5273 38.114C88.5273 38.333 88.7074 38.5106 88.9296 38.5106Z" fill="#98C8DB"/>
<path d="M91.4642 38.5106C91.6864 38.5106 91.8665 38.333 91.8665 38.114C91.8665 37.8949 91.6864 37.7173 91.4642 37.7173C91.242 37.7173 91.0619 37.8949 91.0619 38.114C91.0619 38.333 91.242 38.5106 91.4642 38.5106Z" fill="#98C8DB"/>
<path d="M93.9996 38.5106C94.2218 38.5106 94.4019 38.333 94.4019 38.114C94.4019 37.8949 94.2218 37.7173 93.9996 37.7173C93.7774 37.7173 93.5973 37.8949 93.5973 38.114C93.5973 38.333 93.7774 38.5106 93.9996 38.5106Z" fill="#98C8DB"/>
<path d="M96.5351 38.5106C96.7572 38.5106 96.9374 38.333 96.9374 38.114C96.9374 37.8949 96.7572 37.7173 96.5351 37.7173C96.3129 37.7173 96.1328 37.8949 96.1328 38.114C96.1328 38.333 96.3129 38.5106 96.5351 38.5106Z" fill="#98C8DB"/>
<path d="M99.0697 38.5106C99.2919 38.5106 99.472 38.333 99.472 38.114C99.472 37.8949 99.2919 37.7173 99.0697 37.7173C98.8475 37.7173 98.6674 37.8949 98.6674 38.114C98.6674 38.333 98.8475 38.5106 99.0697 38.5106Z" fill="#98C8DB"/>
<path d="M81.3242 38.5106C81.5464 38.5106 81.7265 38.333 81.7265 38.114C81.7265 37.8949 81.5464 37.7173 81.3242 37.7173C81.102 37.7173 80.9219 37.8949 80.9219 38.114C80.9219 38.333 81.102 38.5106 81.3242 38.5106Z" fill="#98C8DB"/>
<path d="M85.1266 39.8134C85.3487 39.8134 85.5289 39.6359 85.5289 39.4168C85.5289 39.1978 85.3487 39.0202 85.1266 39.0202C84.9044 39.0202 84.7242 39.1978 84.7242 39.4168C84.7242 39.6359 84.9044 39.8134 85.1266 39.8134Z" fill="#98C8DB"/>
<path d="M87.662 39.8134C87.8842 39.8134 88.0643 39.6359 88.0643 39.4168C88.0643 39.1978 87.8842 39.0202 87.662 39.0202C87.4398 39.0202 87.2596 39.1978 87.2596 39.4168C87.2596 39.6359 87.4398 39.8134 87.662 39.8134Z" fill="#98C8DB"/>
<path d="M90.1974 39.8134C90.4195 39.8134 90.5997 39.6359 90.5997 39.4168C90.5997 39.1978 90.4195 39.0202 90.1974 39.0202C89.9752 39.0202 89.795 39.1978 89.795 39.4168C89.795 39.6359 89.9752 39.8134 90.1974 39.8134Z" fill="#98C8DB"/>
<path d="M92.732 39.8134C92.9541 39.8134 93.1343 39.6359 93.1343 39.4168C93.1343 39.1978 92.9541 39.0202 92.732 39.0202C92.5098 39.0202 92.3297 39.1978 92.3297 39.4168C92.3297 39.6359 92.5098 39.8134 92.732 39.8134Z" fill="#98C8DB"/>
<path d="M95.2674 39.8134C95.4896 39.8134 95.6697 39.6359 95.6697 39.4168C95.6697 39.1978 95.4896 39.0202 95.2674 39.0202C95.0452 39.0202 94.8651 39.1978 94.8651 39.4168C94.8651 39.6359 95.0452 39.8134 95.2674 39.8134Z" fill="#98C8DB"/>
<path d="M97.802 39.8134C98.0242 39.8134 98.2043 39.6359 98.2043 39.4168C98.2043 39.1978 98.0242 39.0202 97.802 39.0202C97.5798 39.0202 97.3997 39.1978 97.3997 39.4168C97.3997 39.6359 97.5798 39.8134 97.802 39.8134Z" fill="#98C8DB"/>
<path d="M100.337 39.8134C100.559 39.8134 100.74 39.6359 100.74 39.4168C100.74 39.1978 100.559 39.0202 100.337 39.0202C100.115 39.0202 99.935 39.1978 99.935 39.4168C99.935 39.6359 100.115 39.8134 100.337 39.8134Z" fill="#98C8DB"/>
<path d="M82.5919 39.8134C82.8141 39.8134 82.9942 39.6359 82.9942 39.4168C82.9942 39.1978 82.8141 39.0202 82.5919 39.0202C82.3697 39.0202 82.1896 39.1978 82.1896 39.4168C82.1896 39.6359 82.3697 39.8134 82.5919 39.8134Z" fill="#98C8DB"/>
<path d="M83.8596 41.1155C84.0818 41.1155 84.262 40.9379 84.262 40.7189C84.262 40.4998 84.0818 40.3223 83.8596 40.3223C83.6375 40.3223 83.4573 40.4998 83.4573 40.7189C83.4573 40.9379 83.6375 41.1155 83.8596 41.1155Z" fill="#98C8DB"/>
<path d="M86.3942 41.1155C86.6164 41.1155 86.7965 40.9379 86.7965 40.7189C86.7965 40.4998 86.6164 40.3223 86.3942 40.3223C86.172 40.3223 85.9919 40.4998 85.9919 40.7189C85.9919 40.9379 86.172 41.1155 86.3942 41.1155Z" fill="#98C8DB"/>
<path d="M88.9296 41.1155C89.1518 41.1155 89.3319 40.9379 89.3319 40.7189C89.3319 40.4998 89.1518 40.3223 88.9296 40.3223C88.7074 40.3223 88.5273 40.4998 88.5273 40.7189C88.5273 40.9379 88.7074 41.1155 88.9296 41.1155Z" fill="#98C8DB"/>
<path d="M91.4642 41.1155C91.6864 41.1155 91.8665 40.9379 91.8665 40.7189C91.8665 40.4998 91.6864 40.3223 91.4642 40.3223C91.242 40.3223 91.0619 40.4998 91.0619 40.7189C91.0619 40.9379 91.242 41.1155 91.4642 41.1155Z" fill="#98C8DB"/>
<path d="M93.9996 41.1155C94.2218 41.1155 94.4019 40.9379 94.4019 40.7189C94.4019 40.4998 94.2218 40.3223 93.9996 40.3223C93.7774 40.3223 93.5973 40.4998 93.5973 40.7189C93.5973 40.9379 93.7774 41.1155 93.9996 41.1155Z" fill="#98C8DB"/>
<path d="M96.5351 41.1155C96.7572 41.1155 96.9374 40.9379 96.9374 40.7189C96.9374 40.4998 96.7572 40.3223 96.5351 40.3223C96.3129 40.3223 96.1328 40.4998 96.1328 40.7189C96.1328 40.9379 96.3129 41.1155 96.5351 41.1155Z" fill="#98C8DB"/>
<path d="M99.0697 41.1155C99.2919 41.1155 99.472 40.9379 99.472 40.7189C99.472 40.4998 99.2919 40.3223 99.0697 40.3223C98.8475 40.3223 98.6674 40.4998 98.6674 40.7189C98.6674 40.9379 98.8475 41.1155 99.0697 41.1155Z" fill="#98C8DB"/>
<path d="M101.659 30.698C101.881 30.698 102.061 30.5204 102.061 30.3014C102.061 30.0824 101.881 29.9048 101.659 29.9048C101.437 29.9048 101.257 30.0824 101.257 30.3014C101.257 30.5204 101.437 30.698 101.659 30.698Z" fill="#98C8DB"/>
<path d="M101.659 33.3022C101.881 33.3022 102.061 33.1246 102.061 32.9056C102.061 32.6865 101.881 32.509 101.659 32.509C101.437 32.509 101.257 32.6865 101.257 32.9056C101.257 33.1246 101.437 33.3022 101.659 33.3022Z" fill="#98C8DB"/>
<path d="M83.8596 25.4222C84.0818 25.4222 84.262 25.2446 84.262 25.0256C84.262 24.8065 84.0818 24.629 83.8596 24.629C83.6375 24.629 83.4573 24.8065 83.4573 25.0256C83.4573 25.2446 83.6375 25.4222 83.8596 25.4222Z" fill="#98C8DB"/>
<path d="M86.3942 25.4222C86.6164 25.4222 86.7965 25.2446 86.7965 25.0256C86.7965 24.8065 86.6164 24.629 86.3942 24.629C86.172 24.629 85.9919 24.8065 85.9919 25.0256C85.9919 25.2446 86.172 25.4222 86.3942 25.4222Z" fill="#98C8DB"/>
<path d="M88.9296 25.4222C89.1518 25.4222 89.3319 25.2446 89.3319 25.0256C89.3319 24.8065 89.1518 24.629 88.9296 24.629C88.7074 24.629 88.5273 24.8065 88.5273 25.0256C88.5273 25.2446 88.7074 25.4222 88.9296 25.4222Z" fill="#98C8DB"/>
<path d="M91.4642 25.4222C91.6864 25.4222 91.8665 25.2446 91.8665 25.0256C91.8665 24.8065 91.6864 24.629 91.4642 24.629C91.242 24.629 91.0619 24.8065 91.0619 25.0256C91.0619 25.2446 91.242 25.4222 91.4642 25.4222Z" fill="#98C8DB"/>
<path d="M93.9996 25.4222C94.2218 25.4222 94.4019 25.2446 94.4019 25.0256C94.4019 24.8065 94.2218 24.629 93.9996 24.629C93.7774 24.629 93.5973 24.8065 93.5973 25.0256C93.5973 25.2446 93.7774 25.4222 93.9996 25.4222Z" fill="#98C8DB"/>
<path d="M96.5351 25.4222C96.7572 25.4222 96.9374 25.2446 96.9374 25.0256C96.9374 24.8065 96.7572 24.629 96.5351 24.629C96.3129 24.629 96.1328 24.8065 96.1328 25.0256C96.1328 25.2446 96.3129 25.4222 96.5351 25.4222Z" fill="#98C8DB"/>
<path d="M99.0697 25.4222C99.2919 25.4222 99.472 25.2446 99.472 25.0256C99.472 24.8065 99.2919 24.629 99.0697 24.629C98.8475 24.629 98.6674 24.8065 98.6674 25.0256C98.6674 25.2446 98.8475 25.4222 99.0697 25.4222Z" fill="#98C8DB"/>
<path d="M81.3242 25.4222C81.5464 25.4222 81.7265 25.2446 81.7265 25.0256C81.7265 24.8065 81.5464 24.629 81.3242 24.629C81.102 24.629 80.9219 24.8065 80.9219 25.0256C80.9219 25.2446 81.102 25.4222 81.3242 25.4222Z" fill="#98C8DB"/>
<path d="M85.1266 26.7243C85.3487 26.7243 85.5289 26.5467 85.5289 26.3276C85.5289 26.1086 85.3487 25.931 85.1266 25.931C84.9044 25.931 84.7242 26.1086 84.7242 26.3276C84.7242 26.5467 84.9044 26.7243 85.1266 26.7243Z" fill="#98C8DB"/>
<path d="M87.662 26.7243C87.8842 26.7243 88.0643 26.5467 88.0643 26.3276C88.0643 26.1086 87.8842 25.931 87.662 25.931C87.4398 25.931 87.2596 26.1086 87.2596 26.3276C87.2596 26.5467 87.4398 26.7243 87.662 26.7243Z" fill="#98C8DB"/>
<path d="M90.1974 26.7243C90.4195 26.7243 90.5997 26.5467 90.5997 26.3276C90.5997 26.1086 90.4195 25.931 90.1974 25.931C89.9752 25.931 89.795 26.1086 89.795 26.3276C89.795 26.5467 89.9752 26.7243 90.1974 26.7243Z" fill="#98C8DB"/>
<path d="M92.732 26.7243C92.9541 26.7243 93.1343 26.5467 93.1343 26.3276C93.1343 26.1086 92.9541 25.931 92.732 25.931C92.5098 25.931 92.3297 26.1086 92.3297 26.3276C92.3297 26.5467 92.5098 26.7243 92.732 26.7243Z" fill="#98C8DB"/>
<path d="M95.2674 26.7243C95.4896 26.7243 95.6697 26.5467 95.6697 26.3276C95.6697 26.1086 95.4896 25.931 95.2674 25.931C95.0452 25.931 94.8651 26.1086 94.8651 26.3276C94.8651 26.5467 95.0452 26.7243 95.2674 26.7243Z" fill="#98C8DB"/>
<path d="M97.802 26.7243C98.0242 26.7243 98.2043 26.5467 98.2043 26.3276C98.2043 26.1086 98.0242 25.931 97.802 25.931C97.5798 25.931 97.3997 26.1086 97.3997 26.3276C97.3997 26.5467 97.5798 26.7243 97.802 26.7243Z" fill="#98C8DB"/>
<path d="M100.337 26.7243C100.559 26.7243 100.74 26.5467 100.74 26.3276C100.74 26.1086 100.559 25.931 100.337 25.931C100.115 25.931 99.935 26.1086 99.935 26.3276C99.935 26.5467 100.115 26.7243 100.337 26.7243Z" fill="#98C8DB"/>
<path d="M82.5919 26.7243C82.8141 26.7243 82.9942 26.5467 82.9942 26.3276C82.9942 26.1086 82.8141 25.931 82.5919 25.931C82.3697 25.931 82.1896 26.1086 82.1896 26.3276C82.1896 26.5467 82.3697 26.7243 82.5919 26.7243Z" fill="#98C8DB"/>
<path d="M83.8596 28.0264C84.0818 28.0264 84.262 27.8488 84.262 27.6298C84.262 27.4107 84.0818 27.2332 83.8596 27.2332C83.6375 27.2332 83.4573 27.4107 83.4573 27.6298C83.4573 27.8488 83.6375 28.0264 83.8596 28.0264Z" fill="#98C8DB"/>
<path d="M86.3942 28.0264C86.6164 28.0264 86.7965 27.8488 86.7965 27.6298C86.7965 27.4107 86.6164 27.2332 86.3942 27.2332C86.172 27.2332 85.9919 27.4107 85.9919 27.6298C85.9919 27.8488 86.172 28.0264 86.3942 28.0264Z" fill="#98C8DB"/>
<path d="M88.9296 28.0264C89.1518 28.0264 89.3319 27.8488 89.3319 27.6298C89.3319 27.4107 89.1518 27.2332 88.9296 27.2332C88.7074 27.2332 88.5273 27.4107 88.5273 27.6298C88.5273 27.8488 88.7074 28.0264 88.9296 28.0264Z" fill="#98C8DB"/>
<path d="M91.4642 28.0264C91.6864 28.0264 91.8665 27.8488 91.8665 27.6298C91.8665 27.4107 91.6864 27.2332 91.4642 27.2332C91.242 27.2332 91.0619 27.4107 91.0619 27.6298C91.0619 27.8488 91.242 28.0264 91.4642 28.0264Z" fill="#98C8DB"/>
<path d="M93.9996 28.0264C94.2218 28.0264 94.4019 27.8488 94.4019 27.6298C94.4019 27.4107 94.2218 27.2332 93.9996 27.2332C93.7774 27.2332 93.5973 27.4107 93.5973 27.6298C93.5973 27.8488 93.7774 28.0264 93.9996 28.0264Z" fill="#98C8DB"/>
<path d="M96.5351 28.0264C96.7572 28.0264 96.9374 27.8488 96.9374 27.6298C96.9374 27.4107 96.7572 27.2332 96.5351 27.2332C96.3129 27.2332 96.1328 27.4107 96.1328 27.6298C96.1328 27.8488 96.3129 28.0264 96.5351 28.0264Z" fill="#98C8DB"/>
<path d="M99.0697 28.0264C99.2919 28.0264 99.472 27.8488 99.472 27.6298C99.472 27.4107 99.2919 27.2332 99.0697 27.2332C98.8475 27.2332 98.6674 27.4107 98.6674 27.6298C98.6674 27.8488 98.8475 28.0264 99.0697 28.0264Z" fill="#98C8DB"/>
<path d="M81.3242 28.0264C81.5464 28.0264 81.7265 27.8488 81.7265 27.6298C81.7265 27.4107 81.5464 27.2332 81.3242 27.2332C81.102 27.2332 80.9219 27.4107 80.9219 27.6298C80.9219 27.8488 81.102 28.0264 81.3242 28.0264Z" fill="#98C8DB"/>
<path d="M101.659 25.4222C101.881 25.4222 102.061 25.2446 102.061 25.0256C102.061 24.8065 101.881 24.629 101.659 24.629C101.437 24.629 101.257 24.8065 101.257 25.0256C101.257 25.2446 101.437 25.4222 101.659 25.4222Z" fill="#98C8DB"/>
<path d="M101.659 28.0264C101.881 28.0264 102.061 27.8488 102.061 27.6298C102.061 27.4107 101.881 27.2332 101.659 27.2332C101.437 27.2332 101.257 27.4107 101.257 27.6298C101.257 27.8488 101.437 28.0264 101.659 28.0264Z" fill="#98C8DB"/>
<path d="M101.659 35.9063C101.881 35.9063 102.061 35.7288 102.061 35.5097C102.061 35.2907 101.881 35.1131 101.659 35.1131C101.437 35.1131 101.257 35.2907 101.257 35.5097C101.257 35.7288 101.437 35.9063 101.659 35.9063Z" fill="#98C8DB"/>
<path d="M101.659 38.5106C101.881 38.5106 102.061 38.333 102.061 38.114C102.061 37.8949 101.881 37.7173 101.659 37.7173C101.437 37.7173 101.257 37.8949 101.257 38.114C101.257 38.333 101.437 38.5106 101.659 38.5106Z" fill="#98C8DB"/>
<path d="M101.659 41.1155C101.881 41.1155 102.061 40.9379 102.061 40.7189C102.061 40.4998 101.881 40.3223 101.659 40.3223C101.437 40.3223 101.257 40.4998 101.257 40.7189C101.257 40.9379 101.437 41.1155 101.659 41.1155Z" fill="#98C8DB"/>
<path d="M81.3242 41.1155C81.5464 41.1155 81.7265 40.9379 81.7265 40.7189C81.7265 40.4998 81.5464 40.3223 81.3242 40.3223C81.102 40.3223 80.9219 40.4998 80.9219 40.7189C80.9219 40.9379 81.102 41.1155 81.3242 41.1155Z" fill="#98C8DB"/>
<path d="M85.1266 42.4176C85.3487 42.4176 85.5289 42.2401 85.5289 42.021C85.5289 41.802 85.3487 41.6244 85.1266 41.6244C84.9044 41.6244 84.7242 41.802 84.7242 42.021C84.7242 42.2401 84.9044 42.4176 85.1266 42.4176Z" fill="#98C8DB"/>
<path d="M87.662 42.4176C87.8842 42.4176 88.0643 42.2401 88.0643 42.021C88.0643 41.802 87.8842 41.6244 87.662 41.6244C87.4398 41.6244 87.2596 41.802 87.2596 42.021C87.2596 42.2401 87.4398 42.4176 87.662 42.4176Z" fill="#98C8DB"/>
<path d="M90.1974 42.4176C90.4195 42.4176 90.5997 42.2401 90.5997 42.021C90.5997 41.802 90.4195 41.6244 90.1974 41.6244C89.9752 41.6244 89.795 41.802 89.795 42.021C89.795 42.2401 89.9752 42.4176 90.1974 42.4176Z" fill="#98C8DB"/>
<path d="M92.732 42.4176C92.9541 42.4176 93.1343 42.2401 93.1343 42.021C93.1343 41.802 92.9541 41.6244 92.732 41.6244C92.5098 41.6244 92.3297 41.802 92.3297 42.021C92.3297 42.2401 92.5098 42.4176 92.732 42.4176Z" fill="#98C8DB"/>
<path d="M95.2674 42.4176C95.4896 42.4176 95.6697 42.2401 95.6697 42.021C95.6697 41.802 95.4896 41.6244 95.2674 41.6244C95.0452 41.6244 94.8651 41.802 94.8651 42.021C94.8651 42.2401 95.0452 42.4176 95.2674 42.4176Z" fill="#98C8DB"/>
<path d="M97.802 42.4176C98.0242 42.4176 98.2043 42.2401 98.2043 42.021C98.2043 41.802 98.0242 41.6244 97.802 41.6244C97.5798 41.6244 97.3997 41.802 97.3997 42.021C97.3997 42.2401 97.5798 42.4176 97.802 42.4176Z" fill="#98C8DB"/>
<path d="M100.337 42.4176C100.559 42.4176 100.74 42.2401 100.74 42.021C100.74 41.802 100.559 41.6244 100.337 41.6244C100.115 41.6244 99.935 41.802 99.935 42.021C99.935 42.2401 100.115 42.4176 100.337 42.4176Z" fill="#98C8DB"/>
<path d="M82.5919 42.4176C82.8141 42.4176 82.9942 42.2401 82.9942 42.021C82.9942 41.802 82.8141 41.6244 82.5919 41.6244C82.3697 41.6244 82.1896 41.802 82.1896 42.021C82.1896 42.2401 82.3697 42.4176 82.5919 42.4176Z" fill="#98C8DB"/>
<path d="M83.8596 43.778C84.0818 43.778 84.262 43.6005 84.262 43.3814C84.262 43.1624 84.0818 42.9848 83.8596 42.9848C83.6375 42.9848 83.4573 43.1624 83.4573 43.3814C83.4573 43.6005 83.6375 43.778 83.8596 43.778Z" fill="#98C8DB"/>
<path d="M86.3942 43.778C86.6164 43.778 86.7965 43.6005 86.7965 43.3814C86.7965 43.1624 86.6164 42.9848 86.3942 42.9848C86.172 42.9848 85.9919 43.1624 85.9919 43.3814C85.9919 43.6005 86.172 43.778 86.3942 43.778Z" fill="#98C8DB"/>
<path d="M88.9296 43.778C89.1518 43.778 89.3319 43.6005 89.3319 43.3814C89.3319 43.1624 89.1518 42.9848 88.9296 42.9848C88.7074 42.9848 88.5273 43.1624 88.5273 43.3814C88.5273 43.6005 88.7074 43.778 88.9296 43.778Z" fill="#98C8DB"/>
<path d="M91.4642 43.778C91.6864 43.778 91.8665 43.6005 91.8665 43.3814C91.8665 43.1624 91.6864 42.9848 91.4642 42.9848C91.242 42.9848 91.0619 43.1624 91.0619 43.3814C91.0619 43.6005 91.242 43.778 91.4642 43.778Z" fill="#98C8DB"/>
<path d="M93.9996 43.778C94.2218 43.778 94.4019 43.6005 94.4019 43.3814C94.4019 43.1624 94.2218 42.9848 93.9996 42.9848C93.7774 42.9848 93.5973 43.1624 93.5973 43.3814C93.5973 43.6005 93.7774 43.778 93.9996 43.778Z" fill="#98C8DB"/>
<path d="M96.5351 43.778C96.7572 43.778 96.9374 43.6005 96.9374 43.3814C96.9374 43.1624 96.7572 42.9848 96.5351 42.9848C96.3129 42.9848 96.1328 43.1624 96.1328 43.3814C96.1328 43.6005 96.3129 43.778 96.5351 43.778Z" fill="#98C8DB"/>
<path d="M99.0697 43.778C99.2919 43.778 99.472 43.6005 99.472 43.3814C99.472 43.1624 99.2919 42.9848 99.0697 42.9848C98.8475 42.9848 98.6674 43.1624 98.6674 43.3814C98.6674 43.6005 98.8475 43.778 99.0697 43.778Z" fill="#98C8DB"/>
<path d="M81.3242 43.778C81.5464 43.778 81.7265 43.6005 81.7265 43.3814C81.7265 43.1624 81.5464 42.9848 81.3242 42.9848C81.102 42.9848 80.9219 43.1624 80.9219 43.3814C80.9219 43.6005 81.102 43.778 81.3242 43.778Z" fill="#98C8DB"/>
<path d="M85.1266 45.0733C85.3487 45.0733 85.5289 44.8957 85.5289 44.6766C85.5289 44.4576 85.3487 44.28 85.1266 44.28C84.9044 44.28 84.7242 44.4576 84.7242 44.6766C84.7242 44.8957 84.9044 45.0733 85.1266 45.0733Z" fill="#98C8DB"/>
<path d="M87.662 45.0733C87.8842 45.0733 88.0643 44.8957 88.0643 44.6766C88.0643 44.4576 87.8842 44.28 87.662 44.28C87.4398 44.28 87.2596 44.4576 87.2596 44.6766C87.2596 44.8957 87.4398 45.0733 87.662 45.0733Z" fill="#98C8DB"/>
<path d="M90.1974 45.0733C90.4195 45.0733 90.5997 44.8957 90.5997 44.6766C90.5997 44.4576 90.4195 44.28 90.1974 44.28C89.9752 44.28 89.795 44.4576 89.795 44.6766C89.795 44.8957 89.9752 45.0733 90.1974 45.0733Z" fill="#98C8DB"/>
<path d="M92.732 45.0733C92.9541 45.0733 93.1343 44.8957 93.1343 44.6766C93.1343 44.4576 92.9541 44.28 92.732 44.28C92.5098 44.28 92.3297 44.4576 92.3297 44.6766C92.3297 44.8957 92.5098 45.0733 92.732 45.0733Z" fill="#98C8DB"/>
<path d="M95.2674 45.0733C95.4896 45.0733 95.6697 44.8957 95.6697 44.6766C95.6697 44.4576 95.4896 44.28 95.2674 44.28C95.0452 44.28 94.8651 44.4576 94.8651 44.6766C94.8651 44.8957 95.0452 45.0733 95.2674 45.0733Z" fill="#98C8DB"/>
<path d="M97.802 45.0733C98.0242 45.0733 98.2043 44.8957 98.2043 44.6766C98.2043 44.4576 98.0242 44.28 97.802 44.28C97.5798 44.28 97.3997 44.4576 97.3997 44.6766C97.3997 44.8957 97.5798 45.0733 97.802 45.0733Z" fill="#98C8DB"/>
<path d="M82.5919 45.0733C82.8141 45.0733 82.9942 44.8957 82.9942 44.6766C82.9942 44.4576 82.8141 44.28 82.5919 44.28C82.3697 44.28 82.1896 44.4576 82.1896 44.6766C82.1896 44.8957 82.3697 45.0733 82.5919 45.0733Z" fill="#98C8DB"/>
<path d="M181.059 62.099C181.281 62.099 181.461 61.9215 181.461 61.7024C181.461 61.4834 181.281 61.3058 181.059 61.3058C180.836 61.3058 180.656 61.4834 180.656 61.7024C180.656 61.9215 180.836 62.099 181.059 62.099Z" fill="#98C8DB"/>
<path d="M183.594 62.099C183.816 62.099 183.996 61.9215 183.996 61.7024C183.996 61.4834 183.816 61.3058 183.594 61.3058C183.372 61.3058 183.192 61.4834 183.192 61.7024C183.192 61.9215 183.372 62.099 183.594 62.099Z" fill="#98C8DB"/>
<path d="M186.129 62.099C186.351 62.099 186.531 61.9215 186.531 61.7024C186.531 61.4834 186.351 61.3058 186.129 61.3058C185.906 61.3058 185.726 61.4834 185.726 61.7024C185.726 61.9215 185.906 62.099 186.129 62.099Z" fill="#98C8DB"/>
<path d="M188.664 62.099C188.886 62.099 189.066 61.9215 189.066 61.7024C189.066 61.4834 188.886 61.3058 188.664 61.3058C188.442 61.3058 188.262 61.4834 188.262 61.7024C188.262 61.9215 188.442 62.099 188.664 62.099Z" fill="#98C8DB"/>
<path d="M191.199 62.099C191.421 62.099 191.601 61.9215 191.601 61.7024C191.601 61.4834 191.421 61.3058 191.199 61.3058C190.977 61.3058 190.796 61.4834 190.796 61.7024C190.796 61.9215 190.977 62.099 191.199 62.099Z" fill="#98C8DB"/>
<path d="M193.734 62.099C193.956 62.099 194.136 61.9215 194.136 61.7024C194.136 61.4834 193.956 61.3058 193.734 61.3058C193.512 61.3058 193.332 61.4834 193.332 61.7024C193.332 61.9215 193.512 62.099 193.734 62.099Z" fill="#98C8DB"/>
<path d="M178.523 62.099C178.745 62.099 178.926 61.9215 178.926 61.7024C178.926 61.4834 178.745 61.3058 178.523 61.3058C178.301 61.3058 178.121 61.4834 178.121 61.7024C178.121 61.9215 178.301 62.099 178.523 62.099Z" fill="#98C8DB"/>
<path d="M179.791 63.4011C180.013 63.4011 180.193 63.2235 180.193 63.0045C180.193 62.7854 180.013 62.6078 179.791 62.6078C179.569 62.6078 179.389 62.7854 179.389 63.0045C179.389 63.2235 179.569 63.4011 179.791 63.4011Z" fill="#98C8DB"/>
<path d="M182.326 63.4011C182.549 63.4011 182.729 63.2235 182.729 63.0045C182.729 62.7854 182.549 62.6078 182.326 62.6078C182.104 62.6078 181.924 62.7854 181.924 63.0045C181.924 63.2235 182.104 63.4011 182.326 63.4011Z" fill="#98C8DB"/>
<path d="M184.861 63.4011C185.083 63.4011 185.263 63.2235 185.263 63.0045C185.263 62.7854 185.083 62.6078 184.861 62.6078C184.639 62.6078 184.459 62.7854 184.459 63.0045C184.459 63.2235 184.639 63.4011 184.861 63.4011Z" fill="#98C8DB"/>
<path d="M187.396 63.4011C187.619 63.4011 187.799 63.2235 187.799 63.0045C187.799 62.7854 187.619 62.6078 187.396 62.6078C187.174 62.6078 186.994 62.7854 186.994 63.0045C186.994 63.2235 187.174 63.4011 187.396 63.4011Z" fill="#98C8DB"/>
<path d="M189.932 63.4011C190.154 63.4011 190.334 63.2235 190.334 63.0045C190.334 62.7854 190.154 62.6078 189.932 62.6078C189.71 62.6078 189.529 62.7854 189.529 63.0045C189.529 63.2235 189.71 63.4011 189.932 63.4011Z" fill="#98C8DB"/>
<path d="M192.466 63.4011C192.689 63.4011 192.869 63.2235 192.869 63.0045C192.869 62.7854 192.689 62.6078 192.466 62.6078C192.244 62.6078 192.064 62.7854 192.064 63.0045C192.064 63.2235 192.244 63.4011 192.466 63.4011Z" fill="#98C8DB"/>
<path d="M195.002 63.4011C195.224 63.4011 195.404 63.2235 195.404 63.0045C195.404 62.7854 195.224 62.6078 195.002 62.6078C194.78 62.6078 194.599 62.7854 194.599 63.0045C194.599 63.2235 194.78 63.4011 195.002 63.4011Z" fill="#98C8DB"/>
<path d="M177.256 63.4011C177.478 63.4011 177.659 63.2235 177.659 63.0045C177.659 62.7854 177.478 62.6078 177.256 62.6078C177.034 62.6078 176.854 62.7854 176.854 63.0045C176.854 63.2235 177.034 63.4011 177.256 63.4011Z" fill="#98C8DB"/>
<path d="M181.059 64.7032C181.281 64.7032 181.461 64.5256 181.461 64.3066C181.461 64.0875 181.281 63.91 181.059 63.91C180.836 63.91 180.656 64.0875 180.656 64.3066C180.656 64.5256 180.836 64.7032 181.059 64.7032Z" fill="#98C8DB"/>
<path d="M183.594 64.7032C183.816 64.7032 183.996 64.5256 183.996 64.3066C183.996 64.0875 183.816 63.91 183.594 63.91C183.372 63.91 183.192 64.0875 183.192 64.3066C183.192 64.5256 183.372 64.7032 183.594 64.7032Z" fill="#98C8DB"/>
<path d="M186.129 64.7032C186.351 64.7032 186.531 64.5256 186.531 64.3066C186.531 64.0875 186.351 63.91 186.129 63.91C185.906 63.91 185.726 64.0875 185.726 64.3066C185.726 64.5256 185.906 64.7032 186.129 64.7032Z" fill="#98C8DB"/>
<path d="M188.664 64.7032C188.886 64.7032 189.066 64.5256 189.066 64.3066C189.066 64.0875 188.886 63.91 188.664 63.91C188.442 63.91 188.262 64.0875 188.262 64.3066C188.262 64.5256 188.442 64.7032 188.664 64.7032Z" fill="#98C8DB"/>
<path d="M191.199 64.7032C191.421 64.7032 191.601 64.5256 191.601 64.3066C191.601 64.0875 191.421 63.91 191.199 63.91C190.977 63.91 190.796 64.0875 190.796 64.3066C190.796 64.5256 190.977 64.7032 191.199 64.7032Z" fill="#98C8DB"/>
<path d="M193.734 64.7032C193.956 64.7032 194.136 64.5256 194.136 64.3066C194.136 64.0875 193.956 63.91 193.734 63.91C193.512 63.91 193.332 64.0875 193.332 64.3066C193.332 64.5256 193.512 64.7032 193.734 64.7032Z" fill="#98C8DB"/>
<path d="M196.269 64.7032C196.492 64.7032 196.672 64.5256 196.672 64.3066C196.672 64.0875 196.492 63.91 196.269 63.91C196.047 63.91 195.867 64.0875 195.867 64.3066C195.867 64.5256 196.047 64.7032 196.269 64.7032Z" fill="#98C8DB"/>
<path d="M196.269 62.099C196.492 62.099 196.672 61.9215 196.672 61.7024C196.672 61.4834 196.492 61.3058 196.269 61.3058C196.047 61.3058 195.867 61.4834 195.867 61.7024C195.867 61.9215 196.047 62.099 196.269 62.099Z" fill="#98C8DB"/>
<path d="M178.523 64.7032C178.745 64.7032 178.926 64.5256 178.926 64.3066C178.926 64.0875 178.745 63.91 178.523 63.91C178.301 63.91 178.121 64.0875 178.121 64.3066C178.121 64.5256 178.301 64.7032 178.523 64.7032Z" fill="#98C8DB"/>
<path d="M179.791 66.0053C180.013 66.0053 180.193 65.8277 180.193 65.6087C180.193 65.3896 180.013 65.212 179.791 65.212C179.569 65.212 179.389 65.3896 179.389 65.6087C179.389 65.8277 179.569 66.0053 179.791 66.0053Z" fill="#98C8DB"/>
<path d="M182.326 66.0053C182.549 66.0053 182.729 65.8277 182.729 65.6087C182.729 65.3896 182.549 65.212 182.326 65.212C182.104 65.212 181.924 65.3896 181.924 65.6087C181.924 65.8277 182.104 66.0053 182.326 66.0053Z" fill="#98C8DB"/>
<path d="M184.861 66.0053C185.083 66.0053 185.263 65.8277 185.263 65.6087C185.263 65.3896 185.083 65.212 184.861 65.212C184.639 65.212 184.459 65.3896 184.459 65.6087C184.459 65.8277 184.639 66.0053 184.861 66.0053Z" fill="#98C8DB"/>
<path d="M187.396 66.0053C187.619 66.0053 187.799 65.8277 187.799 65.6087C187.799 65.3896 187.619 65.212 187.396 65.212C187.174 65.212 186.994 65.3896 186.994 65.6087C186.994 65.8277 187.174 66.0053 187.396 66.0053Z" fill="#98C8DB"/>
<path d="M189.932 66.0053C190.154 66.0053 190.334 65.8277 190.334 65.6087C190.334 65.3896 190.154 65.212 189.932 65.212C189.71 65.212 189.529 65.3896 189.529 65.6087C189.529 65.8277 189.71 66.0053 189.932 66.0053Z" fill="#98C8DB"/>
<path d="M192.466 66.0053C192.689 66.0053 192.869 65.8277 192.869 65.6087C192.869 65.3896 192.689 65.212 192.466 65.212C192.244 65.212 192.064 65.3896 192.064 65.6087C192.064 65.8277 192.244 66.0053 192.466 66.0053Z" fill="#98C8DB"/>
<path d="M195.002 66.0053C195.224 66.0053 195.404 65.8277 195.404 65.6087C195.404 65.3896 195.224 65.212 195.002 65.212C194.78 65.212 194.599 65.3896 194.599 65.6087C194.599 65.8277 194.78 66.0053 195.002 66.0053Z" fill="#98C8DB"/>
<path d="M177.256 66.0053C177.478 66.0053 177.659 65.8277 177.659 65.6087C177.659 65.3896 177.478 65.212 177.256 65.212C177.034 65.212 176.854 65.3896 176.854 65.6087C176.854 65.8277 177.034 66.0053 177.256 66.0053Z" fill="#98C8DB"/>
<path d="M197.591 63.4011C197.813 63.4011 197.993 63.2235 197.993 63.0045C197.993 62.7854 197.813 62.6078 197.591 62.6078C197.369 62.6078 197.189 62.7854 197.189 63.0045C197.189 63.2235 197.369 63.4011 197.591 63.4011Z" fill="#98C8DB"/>
<path d="M197.591 66.0053C197.813 66.0053 197.993 65.8277 197.993 65.6087C197.993 65.3896 197.813 65.212 197.591 65.212C197.369 65.212 197.189 65.3896 197.189 65.6087C197.189 65.8277 197.369 66.0053 197.591 66.0053Z" fill="#98C8DB"/>
<path d="M179.791 58.1253C180.013 58.1253 180.193 57.9477 180.193 57.7286C180.193 57.5096 180.013 57.332 179.791 57.332C179.569 57.332 179.389 57.5096 179.389 57.7286C179.389 57.9477 179.569 58.1253 179.791 58.1253Z" fill="#98C8DB"/>
<path d="M182.326 58.1253C182.549 58.1253 182.729 57.9477 182.729 57.7286C182.729 57.5096 182.549 57.332 182.326 57.332C182.104 57.332 181.924 57.5096 181.924 57.7286C181.924 57.9477 182.104 58.1253 182.326 58.1253Z" fill="#98C8DB"/>
<path d="M184.861 58.1253C185.083 58.1253 185.263 57.9477 185.263 57.7286C185.263 57.5096 185.083 57.332 184.861 57.332C184.639 57.332 184.459 57.5096 184.459 57.7286C184.459 57.9477 184.639 58.1253 184.861 58.1253Z" fill="#98C8DB"/>
<path d="M187.396 58.1253C187.619 58.1253 187.799 57.9477 187.799 57.7286C187.799 57.5096 187.619 57.332 187.396 57.332C187.174 57.332 186.994 57.5096 186.994 57.7286C186.994 57.9477 187.174 58.1253 187.396 58.1253Z" fill="#98C8DB"/>
<path d="M189.932 58.1253C190.154 58.1253 190.334 57.9477 190.334 57.7286C190.334 57.5096 190.154 57.332 189.932 57.332C189.71 57.332 189.529 57.5096 189.529 57.7286C189.529 57.9477 189.71 58.1253 189.932 58.1253Z" fill="#98C8DB"/>
<path d="M192.466 58.1253C192.689 58.1253 192.869 57.9477 192.869 57.7286C192.869 57.5096 192.689 57.332 192.466 57.332C192.244 57.332 192.064 57.5096 192.064 57.7286C192.064 57.9477 192.244 58.1253 192.466 58.1253Z" fill="#98C8DB"/>
<path d="M195.002 58.1253C195.224 58.1253 195.404 57.9477 195.404 57.7286C195.404 57.5096 195.224 57.332 195.002 57.332C194.78 57.332 194.599 57.5096 194.599 57.7286C194.599 57.9477 194.78 58.1253 195.002 58.1253Z" fill="#98C8DB"/>
<path d="M177.256 58.1253C177.478 58.1253 177.659 57.9477 177.659 57.7286C177.659 57.5096 177.478 57.332 177.256 57.332C177.034 57.332 176.854 57.5096 176.854 57.7286C176.854 57.9477 177.034 58.1253 177.256 58.1253Z" fill="#98C8DB"/>
<path d="M181.059 59.4274C181.281 59.4274 181.461 59.2498 181.461 59.0308C181.461 58.8117 181.281 58.6342 181.059 58.6342C180.836 58.6342 180.656 58.8117 180.656 59.0308C180.656 59.2498 180.836 59.4274 181.059 59.4274Z" fill="#98C8DB"/>
<path d="M183.594 59.4274C183.816 59.4274 183.996 59.2498 183.996 59.0308C183.996 58.8117 183.816 58.6342 183.594 58.6342C183.372 58.6342 183.192 58.8117 183.192 59.0308C183.192 59.2498 183.372 59.4274 183.594 59.4274Z" fill="#98C8DB"/>
<path d="M186.129 59.4274C186.351 59.4274 186.531 59.2498 186.531 59.0308C186.531 58.8117 186.351 58.6342 186.129 58.6342C185.906 58.6342 185.726 58.8117 185.726 59.0308C185.726 59.2498 185.906 59.4274 186.129 59.4274Z" fill="#98C8DB"/>
<path d="M188.664 59.4274C188.886 59.4274 189.066 59.2498 189.066 59.0308C189.066 58.8117 188.886 58.6342 188.664 58.6342C188.442 58.6342 188.262 58.8117 188.262 59.0308C188.262 59.2498 188.442 59.4274 188.664 59.4274Z" fill="#98C8DB"/>
<path d="M191.199 59.4274C191.421 59.4274 191.601 59.2498 191.601 59.0308C191.601 58.8117 191.421 58.6342 191.199 58.6342C190.977 58.6342 190.796 58.8117 190.796 59.0308C190.796 59.2498 190.977 59.4274 191.199 59.4274Z" fill="#98C8DB"/>
<path d="M193.734 59.4274C193.956 59.4274 194.136 59.2498 194.136 59.0308C194.136 58.8117 193.956 58.6342 193.734 58.6342C193.512 58.6342 193.332 58.8117 193.332 59.0308C193.332 59.2498 193.512 59.4274 193.734 59.4274Z" fill="#98C8DB"/>
<path d="M196.269 59.4274C196.492 59.4274 196.672 59.2498 196.672 59.0308C196.672 58.8117 196.492 58.6342 196.269 58.6342C196.047 58.6342 195.867 58.8117 195.867 59.0308C195.867 59.2498 196.047 59.4274 196.269 59.4274Z" fill="#98C8DB"/>
<path d="M178.523 59.4274C178.745 59.4274 178.926 59.2498 178.926 59.0308C178.926 58.8117 178.745 58.6342 178.523 58.6342C178.301 58.6342 178.121 58.8117 178.121 59.0308C178.121 59.2498 178.301 59.4274 178.523 59.4274Z" fill="#98C8DB"/>
<path d="M179.791 60.7295C180.013 60.7295 180.193 60.5519 180.193 60.3329C180.193 60.1139 180.013 59.9363 179.791 59.9363C179.569 59.9363 179.389 60.1139 179.389 60.3329C179.389 60.5519 179.569 60.7295 179.791 60.7295Z" fill="#98C8DB"/>
<path d="M182.326 60.7295C182.549 60.7295 182.729 60.5519 182.729 60.3329C182.729 60.1139 182.549 59.9363 182.326 59.9363C182.104 59.9363 181.924 60.1139 181.924 60.3329C181.924 60.5519 182.104 60.7295 182.326 60.7295Z" fill="#98C8DB"/>
<path d="M184.861 60.7295C185.083 60.7295 185.263 60.5519 185.263 60.3329C185.263 60.1139 185.083 59.9363 184.861 59.9363C184.639 59.9363 184.459 60.1139 184.459 60.3329C184.459 60.5519 184.639 60.7295 184.861 60.7295Z" fill="#98C8DB"/>
<path d="M187.396 60.7295C187.619 60.7295 187.799 60.5519 187.799 60.3329C187.799 60.1139 187.619 59.9363 187.396 59.9363C187.174 59.9363 186.994 60.1139 186.994 60.3329C186.994 60.5519 187.174 60.7295 187.396 60.7295Z" fill="#98C8DB"/>
<path d="M189.932 60.7295C190.154 60.7295 190.334 60.5519 190.334 60.3329C190.334 60.1139 190.154 59.9363 189.932 59.9363C189.71 59.9363 189.529 60.1139 189.529 60.3329C189.529 60.5519 189.71 60.7295 189.932 60.7295Z" fill="#98C8DB"/>
<path d="M192.466 60.7295C192.689 60.7295 192.869 60.5519 192.869 60.3329C192.869 60.1139 192.689 59.9363 192.466 59.9363C192.244 59.9363 192.064 60.1139 192.064 60.3329C192.064 60.5519 192.244 60.7295 192.466 60.7295Z" fill="#98C8DB"/>
<path d="M195.002 60.7295C195.224 60.7295 195.404 60.5519 195.404 60.3329C195.404 60.1139 195.224 59.9363 195.002 59.9363C194.78 59.9363 194.599 60.1139 194.599 60.3329C194.599 60.5519 194.78 60.7295 195.002 60.7295Z" fill="#98C8DB"/>
<path d="M177.256 60.7295C177.478 60.7295 177.659 60.5519 177.659 60.3329C177.659 60.1139 177.478 59.9363 177.256 59.9363C177.034 59.9363 176.854 60.1139 176.854 60.3329C176.854 60.5519 177.034 60.7295 177.256 60.7295Z" fill="#98C8DB"/>
<path d="M197.591 58.1253C197.813 58.1253 197.993 57.9477 197.993 57.7286C197.993 57.5096 197.813 57.332 197.591 57.332C197.369 57.332 197.189 57.5096 197.189 57.7286C197.189 57.9477 197.369 58.1253 197.591 58.1253Z" fill="#98C8DB"/>
<path d="M197.591 60.7295C197.813 60.7295 197.993 60.5519 197.993 60.3329C197.993 60.1139 197.813 59.9363 197.591 59.9363C197.369 59.9363 197.189 60.1139 197.189 60.3329C197.189 60.5519 197.369 60.7295 197.591 60.7295Z" fill="#98C8DB"/>
<path d="M201.428 62.099C201.65 62.099 201.83 61.9215 201.83 61.7024C201.83 61.4834 201.65 61.3058 201.428 61.3058C201.206 61.3058 201.026 61.4834 201.026 61.7024C201.026 61.9215 201.206 62.099 201.428 62.099Z" fill="#98C8DB"/>
<path d="M203.963 62.099C204.186 62.099 204.366 61.9215 204.366 61.7024C204.366 61.4834 204.186 61.3058 203.963 61.3058C203.741 61.3058 203.561 61.4834 203.561 61.7024C203.561 61.9215 203.741 62.099 203.963 62.099Z" fill="#98C8DB"/>
<path d="M206.498 62.099C206.72 62.099 206.9 61.9215 206.9 61.7024C206.9 61.4834 206.72 61.3058 206.498 61.3058C206.276 61.3058 206.096 61.4834 206.096 61.7024C206.096 61.9215 206.276 62.099 206.498 62.099Z" fill="#98C8DB"/>
<path d="M209.033 62.099C209.256 62.099 209.436 61.9215 209.436 61.7024C209.436 61.4834 209.256 61.3058 209.033 61.3058C208.811 61.3058 208.631 61.4834 208.631 61.7024C208.631 61.9215 208.811 62.099 209.033 62.099Z" fill="#98C8DB"/>
<path d="M211.569 62.099C211.791 62.099 211.971 61.9215 211.971 61.7024C211.971 61.4834 211.791 61.3058 211.569 61.3058C211.347 61.3058 211.167 61.4834 211.167 61.7024C211.167 61.9215 211.347 62.099 211.569 62.099Z" fill="#98C8DB"/>
<path d="M198.893 62.099C199.116 62.099 199.296 61.9215 199.296 61.7024C199.296 61.4834 199.116 61.3058 198.893 61.3058C198.671 61.3058 198.491 61.4834 198.491 61.7024C198.491 61.9215 198.671 62.099 198.893 62.099Z" fill="#98C8DB"/>
<path d="M200.16 63.4011C200.382 63.4011 200.563 63.2235 200.563 63.0045C200.563 62.7854 200.382 62.6078 200.16 62.6078C199.938 62.6078 199.758 62.7854 199.758 63.0045C199.758 63.2235 199.938 63.4011 200.16 63.4011Z" fill="#98C8DB"/>
<path d="M202.696 63.4011C202.918 63.4011 203.098 63.2235 203.098 63.0045C203.098 62.7854 202.918 62.6078 202.696 62.6078C202.473 62.6078 202.293 62.7854 202.293 63.0045C202.293 63.2235 202.473 63.4011 202.696 63.4011Z" fill="#98C8DB"/>
<path d="M205.231 63.4011C205.453 63.4011 205.633 63.2235 205.633 63.0045C205.633 62.7854 205.453 62.6078 205.231 62.6078C205.009 62.6078 204.829 62.7854 204.829 63.0045C204.829 63.2235 205.009 63.4011 205.231 63.4011Z" fill="#98C8DB"/>
<path d="M207.766 63.4011C207.988 63.4011 208.168 63.2235 208.168 63.0045C208.168 62.7854 207.988 62.6078 207.766 62.6078C207.544 62.6078 207.363 62.7854 207.363 63.0045C207.363 63.2235 207.544 63.4011 207.766 63.4011Z" fill="#98C8DB"/>
<path d="M210.301 63.4011C210.523 63.4011 210.703 63.2235 210.703 63.0045C210.703 62.7854 210.523 62.6078 210.301 62.6078C210.079 62.6078 209.899 62.7854 209.899 63.0045C209.899 63.2235 210.079 63.4011 210.301 63.4011Z" fill="#98C8DB"/>
<path d="M212.836 63.4011C213.058 63.4011 213.238 63.2235 213.238 63.0045C213.238 62.7854 213.058 62.6078 212.836 62.6078C212.614 62.6078 212.433 62.7854 212.433 63.0045C212.433 63.2235 212.614 63.4011 212.836 63.4011Z" fill="#98C8DB"/>
<path d="M201.428 64.7032C201.65 64.7032 201.83 64.5256 201.83 64.3066C201.83 64.0875 201.65 63.91 201.428 63.91C201.206 63.91 201.026 64.0875 201.026 64.3066C201.026 64.5256 201.206 64.7032 201.428 64.7032Z" fill="#98C8DB"/>
<path d="M203.963 64.7032C204.186 64.7032 204.366 64.5256 204.366 64.3066C204.366 64.0875 204.186 63.91 203.963 63.91C203.741 63.91 203.561 64.0875 203.561 64.3066C203.561 64.5256 203.741 64.7032 203.963 64.7032Z" fill="#98C8DB"/>
<path d="M206.498 64.7032C206.72 64.7032 206.9 64.5256 206.9 64.3066C206.9 64.0875 206.72 63.91 206.498 63.91C206.276 63.91 206.096 64.0875 206.096 64.3066C206.096 64.5256 206.276 64.7032 206.498 64.7032Z" fill="#98C8DB"/>
<path d="M209.033 64.7032C209.256 64.7032 209.436 64.5256 209.436 64.3066C209.436 64.0875 209.256 63.91 209.033 63.91C208.811 63.91 208.631 64.0875 208.631 64.3066C208.631 64.5256 208.811 64.7032 209.033 64.7032Z" fill="#98C8DB"/>
<path d="M211.569 64.7032C211.791 64.7032 211.971 64.5256 211.971 64.3066C211.971 64.0875 211.791 63.91 211.569 63.91C211.347 63.91 211.167 64.0875 211.167 64.3066C211.167 64.5256 211.347 64.7032 211.569 64.7032Z" fill="#98C8DB"/>
<path d="M198.893 64.7032C199.116 64.7032 199.296 64.5256 199.296 64.3066C199.296 64.0875 199.116 63.91 198.893 63.91C198.671 63.91 198.491 64.0875 198.491 64.3066C198.491 64.5256 198.671 64.7032 198.893 64.7032Z" fill="#98C8DB"/>
<path d="M200.16 66.0053C200.382 66.0053 200.563 65.8277 200.563 65.6087C200.563 65.3896 200.382 65.212 200.16 65.212C199.938 65.212 199.758 65.3896 199.758 65.6087C199.758 65.8277 199.938 66.0053 200.16 66.0053Z" fill="#98C8DB"/>
<path d="M202.696 66.0053C202.918 66.0053 203.098 65.8277 203.098 65.6087C203.098 65.3896 202.918 65.212 202.696 65.212C202.473 65.212 202.293 65.3896 202.293 65.6087C202.293 65.8277 202.473 66.0053 202.696 66.0053Z" fill="#98C8DB"/>
<path d="M205.231 66.0053C205.453 66.0053 205.633 65.8277 205.633 65.6087C205.633 65.3896 205.453 65.212 205.231 65.212C205.009 65.212 204.829 65.3896 204.829 65.6087C204.829 65.8277 205.009 66.0053 205.231 66.0053Z" fill="#98C8DB"/>
<path d="M207.766 66.0053C207.988 66.0053 208.168 65.8277 208.168 65.6087C208.168 65.3896 207.988 65.212 207.766 65.212C207.544 65.212 207.363 65.3896 207.363 65.6087C207.363 65.8277 207.544 66.0053 207.766 66.0053Z" fill="#98C8DB"/>
<path d="M210.301 66.0053C210.523 66.0053 210.703 65.8277 210.703 65.6087C210.703 65.3896 210.523 65.212 210.301 65.212C210.079 65.212 209.899 65.3896 209.899 65.6087C209.899 65.8277 210.079 66.0053 210.301 66.0053Z" fill="#98C8DB"/>
<path d="M212.836 66.0053C213.058 66.0053 213.238 65.8277 213.238 65.6087C213.238 65.3896 213.058 65.212 212.836 65.212C212.614 65.212 212.433 65.3896 212.433 65.6087C212.433 65.8277 212.614 66.0053 212.836 66.0053Z" fill="#98C8DB"/>
<path d="M200.16 58.1253C200.382 58.1253 200.563 57.9477 200.563 57.7286C200.563 57.5096 200.382 57.332 200.16 57.332C199.938 57.332 199.758 57.5096 199.758 57.7286C199.758 57.9477 199.938 58.1253 200.16 58.1253Z" fill="#98C8DB"/>
<path d="M202.696 58.1253C202.918 58.1253 203.098 57.9477 203.098 57.7286C203.098 57.5096 202.918 57.332 202.696 57.332C202.473 57.332 202.293 57.5096 202.293 57.7286C202.293 57.9477 202.473 58.1253 202.696 58.1253Z" fill="#98C8DB"/>
<path d="M205.231 58.1253C205.453 58.1253 205.633 57.9477 205.633 57.7286C205.633 57.5096 205.453 57.332 205.231 57.332C205.009 57.332 204.829 57.5096 204.829 57.7286C204.829 57.9477 205.009 58.1253 205.231 58.1253Z" fill="#98C8DB"/>
<path d="M207.766 58.1253C207.988 58.1253 208.168 57.9477 208.168 57.7286C208.168 57.5096 207.988 57.332 207.766 57.332C207.544 57.332 207.363 57.5096 207.363 57.7286C207.363 57.9477 207.544 58.1253 207.766 58.1253Z" fill="#98C8DB"/>
<path d="M210.301 58.1253C210.523 58.1253 210.703 57.9477 210.703 57.7286C210.703 57.5096 210.523 57.332 210.301 57.332C210.079 57.332 209.899 57.5096 209.899 57.7286C209.899 57.9477 210.079 58.1253 210.301 58.1253Z" fill="#98C8DB"/>
<path d="M212.836 58.1253C213.058 58.1253 213.238 57.9477 213.238 57.7286C213.238 57.5096 213.058 57.332 212.836 57.332C212.614 57.332 212.433 57.5096 212.433 57.7286C212.433 57.9477 212.614 58.1253 212.836 58.1253Z" fill="#98C8DB"/>
<path d="M201.428 59.4274C201.65 59.4274 201.83 59.2498 201.83 59.0308C201.83 58.8117 201.65 58.6342 201.428 58.6342C201.206 58.6342 201.026 58.8117 201.026 59.0308C201.026 59.2498 201.206 59.4274 201.428 59.4274Z" fill="#98C8DB"/>
<path d="M203.963 59.4274C204.186 59.4274 204.366 59.2498 204.366 59.0308C204.366 58.8117 204.186 58.6342 203.963 58.6342C203.741 58.6342 203.561 58.8117 203.561 59.0308C203.561 59.2498 203.741 59.4274 203.963 59.4274Z" fill="#98C8DB"/>
<path d="M206.498 59.4274C206.72 59.4274 206.9 59.2498 206.9 59.0308C206.9 58.8117 206.72 58.6342 206.498 58.6342C206.276 58.6342 206.096 58.8117 206.096 59.0308C206.096 59.2498 206.276 59.4274 206.498 59.4274Z" fill="#98C8DB"/>
<path d="M209.033 59.4274C209.256 59.4274 209.436 59.2498 209.436 59.0308C209.436 58.8117 209.256 58.6342 209.033 58.6342C208.811 58.6342 208.631 58.8117 208.631 59.0308C208.631 59.2498 208.811 59.4274 209.033 59.4274Z" fill="#98C8DB"/>
<path d="M211.569 59.4274C211.791 59.4274 211.971 59.2498 211.971 59.0308C211.971 58.8117 211.791 58.6342 211.569 58.6342C211.347 58.6342 211.167 58.8117 211.167 59.0308C211.167 59.2498 211.347 59.4274 211.569 59.4274Z" fill="#98C8DB"/>
<path d="M198.893 59.4274C199.116 59.4274 199.296 59.2498 199.296 59.0308C199.296 58.8117 199.116 58.6342 198.893 58.6342C198.671 58.6342 198.491 58.8117 198.491 59.0308C198.491 59.2498 198.671 59.4274 198.893 59.4274Z" fill="#98C8DB"/>
<path d="M200.16 60.7295C200.382 60.7295 200.563 60.5519 200.563 60.3329C200.563 60.1139 200.382 59.9363 200.16 59.9363C199.938 59.9363 199.758 60.1139 199.758 60.3329C199.758 60.5519 199.938 60.7295 200.16 60.7295Z" fill="#98C8DB"/>
<path d="M202.696 60.7295C202.918 60.7295 203.098 60.5519 203.098 60.3329C203.098 60.1139 202.918 59.9363 202.696 59.9363C202.473 59.9363 202.293 60.1139 202.293 60.3329C202.293 60.5519 202.473 60.7295 202.696 60.7295Z" fill="#98C8DB"/>
<path d="M205.231 60.7295C205.453 60.7295 205.633 60.5519 205.633 60.3329C205.633 60.1139 205.453 59.9363 205.231 59.9363C205.009 59.9363 204.829 60.1139 204.829 60.3329C204.829 60.5519 205.009 60.7295 205.231 60.7295Z" fill="#98C8DB"/>
<path d="M207.766 60.7295C207.988 60.7295 208.168 60.5519 208.168 60.3329C208.168 60.1139 207.988 59.9363 207.766 59.9363C207.544 59.9363 207.363 60.1139 207.363 60.3329C207.363 60.5519 207.544 60.7295 207.766 60.7295Z" fill="#98C8DB"/>
<path d="M210.301 60.7295C210.523 60.7295 210.703 60.5519 210.703 60.3329C210.703 60.1139 210.523 59.9363 210.301 59.9363C210.079 59.9363 209.899 60.1139 209.899 60.3329C209.899 60.5519 210.079 60.7295 210.301 60.7295Z" fill="#98C8DB"/>
<path d="M212.836 60.7295C213.058 60.7295 213.238 60.5519 213.238 60.3329C213.238 60.1139 213.058 59.9363 212.836 59.9363C212.614 59.9363 212.433 60.1139 212.433 60.3329C212.433 60.5519 212.614 60.7295 212.836 60.7295Z" fill="#98C8DB"/>
<path d="M197.149 80.7241C197.149 82.5867 200.571 88.6868 200.571 88.6868C200.571 88.6868 203.993 82.5844 203.993 80.7241C203.993 79.8291 203.632 78.9708 202.99 78.3379C202.348 77.705 201.477 77.3495 200.57 77.3495C199.662 77.3495 198.791 77.705 198.149 78.3379C197.507 78.9708 197.146 79.8291 197.146 80.7241H197.149ZM199.518 80.775C199.518 80.5696 199.579 80.3687 199.695 80.1978C199.81 80.0268 199.975 79.8935 200.167 79.8147C200.359 79.7359 200.571 79.7151 200.776 79.755C200.98 79.7949 201.168 79.8937 201.315 80.0388C201.463 80.1839 201.563 80.3689 201.604 80.5703C201.645 80.7718 201.624 80.9806 201.544 81.1704C201.464 81.3602 201.329 81.5224 201.156 81.6366C200.983 81.7507 200.779 81.8116 200.571 81.8116C200.292 81.8116 200.024 81.7025 199.827 81.5081C199.63 81.3137 199.518 81.05 199.518 80.775Z" fill="#313CC4"/>
<path d="M203.946 103.769H214.951V97.7953H203.946V103.769Z" fill="#BDDCE8"/>
<path d="M197.983 92.3087H208.988L214.951 97.7946H203.946L197.983 92.3087Z" fill="#98C8DB"/>
<path d="M192.013 97.7946L197.976 92.3087L203.946 97.7946V103.768L209.909 109.254H192.013V97.7946Z" fill="white"/>
<path d="M203.946 103.768H214.951L220.914 109.254H209.909L203.946 103.768Z" fill="#98C8DB"/>
<path d="M198.111 98.201H199.106V97.2197H198.111V98.201Z" fill="#1924B1"/>
<path d="M196.641 98.201H197.636V97.2197H196.641V98.201Z" fill="#1924B1"/>
<path d="M198.111 99.5972H199.106V98.6159H198.111V99.5972Z" fill="#1924B1"/>
<path d="M196.641 99.5972H197.636V98.6159H196.641V99.5972Z" fill="#1924B1"/>
<path d="M198.111 103.705H199.106V102.724H198.111V103.705Z" fill="#98C8DB"/>
<path d="M196.641 103.705H197.636V102.724H196.641V103.705Z" fill="#98C8DB"/>
<path d="M198.111 105.101H199.106V104.119H198.111V105.101Z" fill="#98C8DB"/>
<path d="M196.641 105.101H197.636V104.119H196.641V105.101Z" fill="#98C8DB"/>
<path d="M104.687 13.1217L96.2436 15.826V21.7866H87.3858V15.826L95.8289 13.1217H104.687Z" fill="#98C8DB"/>
<path d="M96.2435 21.7874V15.826L104.614 13.1217L113.057 15.826V21.7874H96.2435Z" fill="white"/>
<path d="M98.9259 16.5973H110.437C110.472 16.5973 110.507 16.6041 110.539 16.6174C110.572 16.6306 110.601 16.6501 110.626 16.6746C110.651 16.6991 110.671 16.7282 110.684 16.7602C110.698 16.7922 110.704 16.8265 110.704 16.8612V21.7905H98.6582V16.8612C98.6582 16.8265 98.6651 16.7922 98.6786 16.7602C98.692 16.7282 98.7118 16.6991 98.7366 16.6746C98.7615 16.6501 98.791 16.6306 98.8235 16.6174C98.8559 16.6041 98.8907 16.5973 98.9259 16.5973Z" fill="#98C8DB"/>
<path d="M98.6582 17.5611H110.705" stroke="white" stroke-miterlimit="10"/>
<path d="M98.6582 18.6752H110.705" stroke="white" stroke-miterlimit="10"/>
<path d="M98.6582 19.7899H110.705" stroke="white" stroke-miterlimit="10"/>
<path d="M98.6582 20.9047H110.705" stroke="white" stroke-miterlimit="10"/>
<path d="M104.536 1.47239e-06C103.696 0.00100613 102.891 0.330603 102.297 0.916411C101.704 1.50222 101.37 2.29635 101.37 3.1244C101.37 4.84965 104.54 10.5024 104.54 10.5024C104.54 10.5024 107.709 4.84965 107.709 3.1244C107.709 2.71381 107.627 2.30726 107.467 1.92799C107.308 1.54872 107.074 1.20416 106.779 0.913999C106.484 0.623842 106.135 0.393775 105.75 0.236947C105.365 0.0801184 104.952 -0.000397078 104.536 1.47239e-06ZM104.536 4.13225C104.343 4.1324 104.154 4.07611 103.994 3.97051C103.833 3.86491 103.708 3.71474 103.634 3.539C103.56 3.36326 103.541 3.16985 103.578 2.98325C103.616 2.79665 103.709 2.62525 103.845 2.49072C103.982 2.35619 104.156 2.26459 104.345 2.22752C104.534 2.19044 104.731 2.20954 104.909 2.28242C105.087 2.35529 105.239 2.47866 105.346 2.63691C105.454 2.79516 105.511 2.98117 105.511 3.17142C105.511 3.29763 105.486 3.42262 105.437 3.53923C105.388 3.65585 105.316 3.76181 105.225 3.85105C105.135 3.9403 105.027 4.01107 104.909 4.05932C104.791 4.10757 104.664 4.13235 104.536 4.13225Z" fill="#313CC4"/>
<path d="M82.2024 18.4742H79.7824V21.7867H82.2024V18.4742Z" fill="#A74602"/>
<path d="M87.2188 18.4742H82.2034V21.7867H87.2188V18.4742Z" fill="#1924B1"/>
<path d="M88.6919 18.4742H87.2189V21.7867H88.6919V18.4742Z" fill="#A74602"/>
<path d="M93.6727 18.4742H88.6919V21.7867H93.6727V18.4742Z" fill="#1924B1"/>
<path d="M86.4181 15.8693H84.2619V18.4743H86.4181V15.8693Z" fill="#A74602"/>
<path d="M90.8373 15.8693H86.4173V18.4743H90.8373V15.8693Z" fill="#1924B1"/>
<path opacity="0.5" d="M165.203 67.2149C168.113 67.2149 170.472 64.8892 170.472 62.0202C170.472 59.1512 168.113 56.8255 165.203 56.8255C162.293 56.8255 159.934 59.1512 159.934 62.0202C159.934 64.8892 162.293 67.2149 165.203 67.2149Z" fill="white"/>
<path d="M165.203 67.2149C168.113 67.2149 170.472 64.8892 170.472 62.0202C170.472 59.1512 168.113 56.8255 165.203 56.8255C162.293 56.8255 159.934 59.1512 159.934 62.0202C159.934 64.8892 162.293 67.2149 165.203 67.2149Z" stroke="#1924B1" stroke-miterlimit="10"/>
<path d="M104.069 22.6383V26.6978C104.069 27.978 104.585 29.2058 105.503 30.1112C106.421 31.0165 107.667 31.5252 108.965 31.5254H141.755V31.5292C141.755 32.1055 141.987 32.6582 142.4 33.0658C142.813 33.4734 143.374 33.7024 143.958 33.7026V48.3191C143.959 48.8803 144.108 49.4316 144.391 49.9183C144.675 50.405 145.082 50.81 145.574 51.0931L165.062 62.3084" stroke="#1924B1" stroke-linejoin="round"/>
<path d="M161.709 63.9198H167.866L165.001 58.2186V62.0725L161.709 63.9198Z" fill="#1924B1"/>
<path d="M143.34 141.916H172.689L179.583 140.635H150.234L143.34 141.916Z" fill="#CEE4ED"/>
<path d="M96.4882 141.916H125.838L132.732 140.635H103.383L96.4882 141.916Z" fill="#CEE4ED"/>
<path d="M49.6371 141.916H78.9858L85.8804 140.635H56.531L49.6371 141.916Z" fill="#CEE4ED"/>
<path d="M2.78534 141.916H32.134L39.0286 140.635H9.67923L2.78534 141.916Z" fill="#CEE4ED"/>
<path d="M156.175 140.423C160.915 140.423 164.757 136.635 164.757 131.962C164.757 127.289 160.915 123.501 156.175 123.501C151.435 123.501 147.592 127.289 147.592 131.962C147.592 136.635 151.435 140.423 156.175 140.423Z" fill="#262626"/>
<path d="M170.919 106.401L156.516 95.6773L141.648 61.2808C140.81 59.3405 139.411 57.6861 137.626 56.5232C135.841 55.3602 133.749 54.7402 131.609 54.7401H24.3008C22.4471 54.7403 20.6693 55.4664 19.3586 56.7587C18.0479 58.051 17.3116 59.8037 17.3116 61.6312V128.124H173.386V111.289C173.386 110.341 173.164 109.407 172.736 108.559C172.308 107.711 171.686 106.972 170.919 106.401Z" fill="#313CC4" stroke="#262626" stroke-miterlimit="10"/>
<path d="M173.385 111.285V128.12H130.631V111.285C130.631 110.338 130.409 109.404 129.981 108.557C129.553 107.709 128.931 106.971 128.164 106.4L113.763 95.6766L98.8943 61.2816C98.0556 59.3411 96.6568 57.6864 94.8719 56.5233C93.0869 55.3603 90.9946 54.7402 88.855 54.7401H131.609C133.749 54.7402 135.841 55.3603 137.626 56.5233C139.411 57.6864 140.81 59.3411 141.648 61.2816L156.516 95.6766L170.919 106.4C171.685 106.971 172.306 107.709 172.734 108.557C173.162 109.404 173.385 110.338 173.385 111.285Z" fill="white" stroke="#262626" stroke-miterlimit="10"/>
<path d="M14.4331 128.124H175.832C176.231 128.124 176.614 128.28 176.897 128.559C177.179 128.837 177.338 129.215 177.338 129.609V131.96H12.9269V129.609C12.9269 129.414 12.9659 129.221 13.0416 129.041C13.1173 128.86 13.2282 128.697 13.3681 128.559C13.5079 128.421 13.674 128.312 13.8567 128.237C14.0394 128.162 14.2353 128.124 14.4331 128.124Z" fill="white" stroke="#262626" stroke-miterlimit="10"/>
<path d="M161.854 117.79H143.558C143.176 117.79 142.866 118.095 142.866 118.472V122.725C142.866 123.101 143.176 123.406 143.558 123.406H161.854C162.236 123.406 162.545 123.101 162.545 122.725V118.472C162.545 118.095 162.236 117.79 161.854 117.79Z" fill="#98C8DB"/>
<path d="M162.791 117.118H144.495C144.113 117.118 143.803 117.423 143.803 117.8V122.053C143.803 122.429 144.113 122.734 144.495 122.734H162.791C163.173 122.734 163.482 122.429 163.482 122.053V117.8C163.482 117.423 163.173 117.118 162.791 117.118Z" stroke="#262626" stroke-miterlimit="10"/>
<path d="M157.073 118.522C157.274 118.522 157.436 118.362 157.436 118.164C157.436 117.966 157.274 117.806 157.073 117.806C156.873 117.806 156.71 117.966 156.71 118.164C156.71 118.362 156.873 118.522 157.073 118.522Z" fill="#262626"/>
<path d="M159.36 118.522C159.561 118.522 159.723 118.362 159.723 118.164C159.723 117.966 159.561 117.806 159.36 117.806C159.16 117.806 158.997 117.966 158.997 118.164C158.997 118.362 159.16 118.522 159.36 118.522Z" fill="#262626"/>
<path d="M161.647 118.522C161.848 118.522 162.01 118.362 162.01 118.164C162.01 117.966 161.848 117.806 161.647 117.806C161.447 117.806 161.284 117.966 161.284 118.164C161.284 118.362 161.447 118.522 161.647 118.522Z" fill="#262626"/>
<path d="M145.638 118.522C145.839 118.522 146.002 118.362 146.002 118.164C146.002 117.966 145.839 117.806 145.638 117.806C145.438 117.806 145.275 117.966 145.275 118.164C145.275 118.362 145.438 118.522 145.638 118.522Z" fill="#262626"/>
<path d="M147.925 118.522C148.126 118.522 148.288 118.362 148.288 118.164C148.288 117.966 148.126 117.806 147.925 117.806C147.725 117.806 147.562 117.966 147.562 118.164C147.562 118.362 147.725 118.522 147.925 118.522Z" fill="#262626"/>
<path d="M150.212 118.522C150.413 118.522 150.575 118.362 150.575 118.164C150.575 117.966 150.413 117.806 150.212 117.806C150.012 117.806 149.849 117.966 149.849 118.164C149.849 118.362 150.012 118.522 150.212 118.522Z" fill="#262626"/>
<path d="M152.499 118.522C152.7 118.522 152.862 118.362 152.862 118.164C152.862 117.966 152.7 117.806 152.499 117.806C152.299 117.806 152.136 117.966 152.136 118.164C152.136 118.362 152.299 118.522 152.499 118.522Z" fill="#262626"/>
<path d="M154.786 118.522C154.987 118.522 155.149 118.362 155.149 118.164C155.149 117.966 154.987 117.806 154.786 117.806C154.586 117.806 154.423 117.966 154.423 118.164C154.423 118.362 154.586 118.522 154.786 118.522Z" fill="#262626"/>
<path d="M155.929 119.697C156.13 119.697 156.292 119.536 156.292 119.339C156.292 119.141 156.13 118.981 155.929 118.981C155.729 118.981 155.566 119.141 155.566 119.339C155.566 119.536 155.729 119.697 155.929 119.697Z" fill="#262626"/>
<path d="M158.216 119.697C158.417 119.697 158.579 119.536 158.579 119.339C158.579 119.141 158.417 118.981 158.216 118.981C158.016 118.981 157.853 119.141 157.853 119.339C157.853 119.536 158.016 119.697 158.216 119.697Z" fill="#262626"/>
<path d="M160.503 119.697C160.704 119.697 160.866 119.536 160.866 119.339C160.866 119.141 160.704 118.981 160.503 118.981C160.303 118.981 160.14 119.141 160.14 119.339C160.14 119.536 160.303 119.697 160.503 119.697Z" fill="#262626"/>
<path d="M146.782 119.697C146.982 119.697 147.145 119.536 147.145 119.339C147.145 119.141 146.982 118.981 146.782 118.981C146.581 118.981 146.419 119.141 146.419 119.339C146.419 119.536 146.581 119.697 146.782 119.697Z" fill="#262626"/>
<path d="M149.068 119.697C149.269 119.697 149.432 119.536 149.432 119.339C149.432 119.141 149.269 118.981 149.068 118.981C148.868 118.981 148.705 119.141 148.705 119.339C148.705 119.536 148.868 119.697 149.068 119.697Z" fill="#262626"/>
<path d="M151.355 119.697C151.556 119.697 151.718 119.536 151.718 119.339C151.718 119.141 151.556 118.981 151.355 118.981C151.155 118.981 150.992 119.141 150.992 119.339C150.992 119.536 151.155 119.697 151.355 119.697Z" fill="#262626"/>
<path d="M153.642 119.697C153.843 119.697 154.005 119.536 154.005 119.339C154.005 119.141 153.843 118.981 153.642 118.981C153.442 118.981 153.279 119.141 153.279 119.339C153.279 119.536 153.442 119.697 153.642 119.697Z" fill="#262626"/>
<path d="M157.073 120.871C157.274 120.871 157.436 120.711 157.436 120.513C157.436 120.316 157.274 120.155 157.073 120.155C156.873 120.155 156.71 120.316 156.71 120.513C156.71 120.711 156.873 120.871 157.073 120.871Z" fill="#262626"/>
<path d="M159.36 120.871C159.561 120.871 159.723 120.711 159.723 120.513C159.723 120.316 159.561 120.155 159.36 120.155C159.16 120.155 158.997 120.316 158.997 120.513C158.997 120.711 159.16 120.871 159.36 120.871Z" fill="#262626"/>
<path d="M161.647 120.871C161.848 120.871 162.01 120.711 162.01 120.513C162.01 120.316 161.848 120.155 161.647 120.155C161.447 120.155 161.284 120.316 161.284 120.513C161.284 120.711 161.447 120.871 161.647 120.871Z" fill="#262626"/>
<path d="M145.638 120.871C145.839 120.871 146.002 120.711 146.002 120.513C146.002 120.316 145.839 120.155 145.638 120.155C145.438 120.155 145.275 120.316 145.275 120.513C145.275 120.711 145.438 120.871 145.638 120.871Z" fill="#262626"/>
<path d="M147.925 120.871C148.126 120.871 148.288 120.711 148.288 120.513C148.288 120.316 148.126 120.155 147.925 120.155C147.725 120.155 147.562 120.316 147.562 120.513C147.562 120.711 147.725 120.871 147.925 120.871Z" fill="#262626"/>
<path d="M150.212 120.871C150.413 120.871 150.575 120.711 150.575 120.513C150.575 120.316 150.413 120.155 150.212 120.155C150.012 120.155 149.849 120.316 149.849 120.513C149.849 120.711 150.012 120.871 150.212 120.871Z" fill="#262626"/>
<path d="M152.499 120.871C152.7 120.871 152.862 120.711 152.862 120.513C152.862 120.316 152.7 120.155 152.499 120.155C152.299 120.155 152.136 120.316 152.136 120.513C152.136 120.711 152.299 120.871 152.499 120.871Z" fill="#262626"/>
<path d="M154.786 120.871C154.987 120.871 155.149 120.711 155.149 120.513C155.149 120.316 154.987 120.155 154.786 120.155C154.586 120.155 154.423 120.316 154.423 120.513C154.423 120.711 154.586 120.871 154.786 120.871Z" fill="#262626"/>
<path d="M155.929 122.046C156.13 122.046 156.292 121.886 156.292 121.688C156.292 121.49 156.13 121.33 155.929 121.33C155.729 121.33 155.566 121.49 155.566 121.688C155.566 121.886 155.729 122.046 155.929 122.046Z" fill="#262626"/>
<path d="M158.216 122.046C158.417 122.046 158.579 121.886 158.579 121.688C158.579 121.49 158.417 121.33 158.216 121.33C158.016 121.33 157.853 121.49 157.853 121.688C157.853 121.886 158.016 122.046 158.216 122.046Z" fill="#262626"/>
<path d="M160.503 122.046C160.704 122.046 160.866 121.886 160.866 121.688C160.866 121.49 160.704 121.33 160.503 121.33C160.303 121.33 160.14 121.49 160.14 121.688C160.14 121.886 160.303 122.046 160.503 122.046Z" fill="#262626"/>
<path d="M146.782 122.046C146.982 122.046 147.145 121.886 147.145 121.688C147.145 121.49 146.982 121.33 146.782 121.33C146.581 121.33 146.419 121.49 146.419 121.688C146.419 121.886 146.581 122.046 146.782 122.046Z" fill="#262626"/>
<path d="M149.068 122.046C149.269 122.046 149.432 121.886 149.432 121.688C149.432 121.49 149.269 121.33 149.068 121.33C148.868 121.33 148.705 121.49 148.705 121.688C148.705 121.886 148.868 122.046 149.068 122.046Z" fill="#262626"/>
<path d="M151.355 122.046C151.556 122.046 151.718 121.886 151.718 121.688C151.718 121.49 151.556 121.33 151.355 121.33C151.155 121.33 150.992 121.49 150.992 121.688C150.992 121.886 151.155 122.046 151.355 122.046Z" fill="#262626"/>
<path d="M153.642 122.046C153.843 122.046 154.005 121.886 154.005 121.688C154.005 121.49 153.843 121.33 153.642 121.33C153.442 121.33 153.279 121.49 153.279 121.688C153.279 121.886 153.442 122.046 153.642 122.046Z" fill="#262626"/>
<path d="M90.082 95.7039V64.4727C90.082 64.0061 90.1752 63.544 90.3564 63.1129C90.5375 62.6818 90.8031 62.2901 91.1378 61.9602C91.4725 61.6303 91.8699 61.3686 92.3072 61.1901C92.7446 61.0116 93.2133 60.9198 93.6866 60.9199H135.256C136.093 60.9198 136.912 61.1622 137.61 61.6172C138.309 62.0721 138.856 62.7194 139.185 63.4785L152.594 95.6766L90.082 95.7039Z" fill="white"/>
<path d="M91.8713 95.7038V65.6489C91.8713 64.7064 92.251 63.8025 92.9271 63.1361C93.6031 62.4697 94.5199 62.0953 95.4759 62.0953H137.045C137.883 62.0953 138.701 62.338 139.4 62.793C140.098 63.2481 140.646 63.8955 140.974 64.6547L154.383 95.6765L91.8713 95.7038Z" fill="#98C8DB"/>
<path d="M117.111 73.739C116.639 73.7389 116.171 73.8306 115.734 74.0089C115.298 74.1871 114.901 74.4484 114.567 74.7778C114.232 75.1073 113.967 75.4984 113.787 75.9289C113.606 76.3593 113.513 76.8207 113.513 77.2866V95.7039H110.261V77.2866C110.261 76.8207 110.354 76.3593 110.535 75.9289C110.716 75.4984 110.981 75.1073 111.315 74.7778C111.649 74.4484 112.046 74.1871 112.483 74.0089C112.919 73.8306 113.387 73.7389 113.86 73.739H117.111Z" fill="#262626"/>
<path d="M133.989 77.2866V95.7039H113.513V77.2866C113.513 76.8207 113.606 76.3593 113.787 75.9289C113.967 75.4984 114.233 75.1073 114.567 74.7778C114.901 74.4484 115.298 74.1871 115.734 74.0089C116.171 73.8306 116.639 73.7389 117.111 73.739H130.391C131.345 73.739 132.26 74.1128 132.935 74.7781C133.61 75.4434 133.989 76.3457 133.989 77.2866Z" fill="#A72302"/>
<path d="M154.398 95.7039H160.447C160.985 95.7039 161.501 95.4932 161.881 95.1181C162.262 94.7431 162.475 94.2345 162.475 93.7041V86.9222C162.475 86.6112 162.35 86.313 162.127 86.0931C161.903 85.8733 161.601 85.7498 161.285 85.7498H159.358C159.042 85.7498 158.74 85.8733 158.517 86.0931C158.293 86.313 158.168 86.6112 158.168 86.9222V93.7102C158.168 94.2332 157.958 94.735 157.585 95.1063C157.211 95.4776 156.704 95.6883 156.173 95.6925L154.398 95.7039Z" fill="white"/>
<path d="M112.871 95.7039H102.73C102.192 95.7039 101.676 95.4932 101.295 95.1181C100.915 94.7431 100.701 94.2345 100.701 93.7041V86.9222C100.701 86.6112 100.827 86.313 101.05 86.0932C101.273 85.8733 101.575 85.7498 101.891 85.7498H103.819C104.134 85.7498 104.437 85.8733 104.66 86.0932C104.883 86.313 105.008 86.6112 105.008 86.9222V93.7102C105.008 94.2332 105.218 94.735 105.592 95.1063C105.966 95.4776 106.473 95.6883 107.004 95.6925L112.871 95.7039Z" fill="#313CC4"/>
<path d="M153.545 95.7039H159.601C160.139 95.7039 160.655 95.4932 161.035 95.1181C161.416 94.7431 161.629 94.2345 161.629 93.7041V86.9222C161.629 86.6112 161.504 86.313 161.281 86.0932C161.058 85.8733 160.755 85.7498 160.44 85.7498H158.509C158.193 85.7498 157.891 85.8733 157.668 86.0932C157.445 86.313 157.319 86.6112 157.319 86.9222V93.7102C157.319 94.2332 157.11 94.735 156.736 95.1063C156.362 95.4776 155.855 95.6883 155.325 95.6925L153.545 95.7039Z" fill="#313CC4"/>
<path d="M60.0618 83.6794V103.487H39.8555C39.4754 103.487 39.099 103.414 38.7478 103.27C38.3967 103.127 38.0776 102.916 37.809 102.651C37.5403 102.386 37.3272 102.072 37.182 101.725C37.0367 101.379 36.9621 101.008 36.9624 100.633V83.6794H60.0618Z" fill="white"/>
<path d="M60.051 82.9333H36.7917C36.775 82.9329 36.7585 82.935 36.7424 82.9393L31.7832 78.343H55.0987L60.051 82.9333Z" fill="white"/>
<path d="M74.7873 78.343L69.8311 82.9393C69.815 82.935 69.7985 82.933 69.7819 82.9333H60.9156L65.868 78.343H74.7873Z" fill="white"/>
<path d="M69.608 83.6794V100.623C69.6078 101.383 69.3015 102.111 68.7565 102.649C68.2115 103.186 67.4725 103.487 66.7018 103.487H60.9026V83.6794H69.608Z" fill="white"/>
<path d="M27.3062 132.117C27.2941 130.68 27.5705 129.256 28.1197 127.925C28.6688 126.595 29.4798 125.385 30.5058 124.365C31.5318 123.345 32.7524 122.535 34.0974 121.983C35.4424 121.43 36.885 121.146 38.3421 121.146C39.7991 121.146 41.2417 121.43 42.5867 121.983C43.9317 122.535 45.1524 123.345 46.1784 124.365C47.2043 125.385 48.0153 126.595 48.5644 127.925C49.1136 129.256 49.3901 130.68 49.3779 132.117H27.3062Z" fill="#262626"/>
<path d="M38.3425 140.423C43.0824 140.423 46.9248 136.635 46.9248 131.962C46.9248 127.289 43.0824 123.501 38.3425 123.501C33.6026 123.501 29.7601 127.289 29.7601 131.962C29.7601 136.635 33.6026 140.423 38.3425 140.423Z" fill="#A74602"/>
<path d="M38.3424 138.972C42.2696 138.972 45.4533 135.834 45.4533 131.962C45.4533 128.09 42.2696 124.952 38.3424 124.952C34.4152 124.952 31.2316 128.09 31.2316 131.962C31.2316 135.834 34.4152 138.972 38.3424 138.972Z" stroke="white" stroke-miterlimit="10"/>
<path d="M38.3425 133.271C39.1284 133.271 39.7655 132.643 39.7655 131.868C39.7655 131.093 39.1284 130.465 38.3425 130.465C37.5565 130.465 36.9194 131.093 36.9194 131.868C36.9194 132.643 37.5565 133.271 38.3425 133.271Z" stroke="#262626" stroke-miterlimit="10"/>
<path d="M101.37 132.117C101.357 130.68 101.634 129.256 102.183 127.925C102.732 126.595 103.543 125.385 104.569 124.365C105.595 123.345 106.816 122.535 108.161 121.983C109.506 121.43 110.948 121.146 112.405 121.146C113.863 121.146 115.305 121.43 116.65 121.983C117.995 122.535 119.216 123.345 120.242 124.365C121.268 125.385 122.079 126.595 122.628 127.925C123.177 129.256 123.453 130.68 123.441 132.117H101.37Z" fill="#262626"/>
<path d="M112.531 140.423C117.271 140.423 121.114 136.635 121.114 131.962C121.114 127.289 117.271 123.501 112.531 123.501C107.791 123.501 103.949 127.289 103.949 131.962C103.949 136.635 107.791 140.423 112.531 140.423Z" fill="#A74602"/>
<path d="M112.531 138.972C116.459 138.972 119.642 135.834 119.642 131.962C119.642 128.09 116.459 124.952 112.531 124.952C108.604 124.952 105.421 128.09 105.421 131.962C105.421 135.834 108.604 138.972 112.531 138.972Z" stroke="white" stroke-miterlimit="10"/>
<path d="M112.515 133.398C113.301 133.398 113.938 132.77 113.938 131.995C113.938 131.22 113.301 130.592 112.515 130.592C111.729 130.592 111.092 131.22 111.092 131.995C111.092 132.77 111.729 133.398 112.515 133.398Z" stroke="#262626" stroke-miterlimit="10"/>
<path d="M168.816 116.375C170.698 116.375 172.223 114.871 172.223 113.016C172.223 111.16 170.698 109.656 168.816 109.656C166.934 109.656 165.408 111.16 165.408 113.016C165.408 114.871 166.934 116.375 168.816 116.375Z" fill="#313CC4"/>
<path d="M168.896 119.05C169.366 119.05 169.747 118.674 169.747 118.21C169.747 117.747 169.366 117.371 168.896 117.371C168.425 117.371 168.044 117.747 168.044 118.21C168.044 118.674 168.425 119.05 168.896 119.05Z" stroke="#262626" stroke-miterlimit="10"/>
<path d="M136.118 116.375C138 116.375 139.526 114.871 139.526 113.016C139.526 111.16 138 109.656 136.118 109.656C134.236 109.656 132.711 111.16 132.711 113.016C132.711 114.871 134.236 116.375 136.118 116.375Z" fill="#313CC4"/>
<path d="M135.952 119.05C136.422 119.05 136.803 118.674 136.803 118.21C136.803 117.747 136.422 117.371 135.952 117.371C135.481 117.371 135.1 117.747 135.1 118.21C135.1 118.674 135.481 119.05 135.952 119.05Z" stroke="#262626" stroke-miterlimit="10"/>
<path d="M149.013 95.7039H115.451L116.593 90.3264C117.024 88.296 118.151 86.4737 119.784 85.1658C121.418 83.8578 123.458 83.144 125.562 83.1441H138.903C141.007 83.144 143.047 83.8579 144.68 85.1658C146.314 86.4738 147.44 88.296 147.872 90.3264L149.013 95.7039Z" fill="#A74602"/>
<path d="M131.37 85.7376V95.7623L123.134 95.7054L124.788 87.9702C124.911 87.4017 124.916 86.8147 124.803 86.2442C124.325 83.8175 121.359 83.7166 119.731 85.2136L119.826 84.996C120.09 84.387 120.53 83.8679 121.09 83.503C121.651 83.138 122.308 82.9434 122.98 82.9431H128.532C129.284 82.9429 130.006 83.2372 130.538 83.7612C131.07 84.2852 131.369 84.9961 131.37 85.7376Z" fill="#262626"/>
<path d="M124.765 88.2244H131.196" stroke="white" stroke-linecap="round" stroke-linejoin="round"/>
<path d="M123.901 92.3088H131.196" stroke="white" stroke-linecap="round" stroke-linejoin="round"/>
<path d="M142.67 85.4851V95.4863H137.755V85.7377C137.755 84.4659 136.908 83.3367 135.712 83.1373L135.758 82.8279H139.973C140.688 82.8279 141.374 83.1078 141.88 83.6061C142.385 84.1044 142.67 84.7803 142.67 85.4851Z" fill="#262626"/>
<path d="M137.884 88.2244H142.503" stroke="white" stroke-linecap="round" stroke-linejoin="round"/>
<path d="M128.978 83.1076L131.421 79.6951H135.682V83.1076C135.682 83.1076 134.351 84.4734 128.978 83.1076Z" fill="white" stroke="#262626" stroke-linejoin="round"/>
<path d="M133.916 83.6605C135.211 83.5089 135.685 83.1077 135.685 83.1077V79.6951H131.425V80.1297C131.425 80.6783 131.635 81.207 132.011 81.6107L133.916 83.6605Z" fill="#262626"/>
<path d="M136.067 76.1194V76.5585L131.655 77.6096V76.7162C131.655 76.2784 131.832 75.8585 132.146 75.5489C132.46 75.2392 132.886 75.0653 133.33 75.0653H134.998C135.139 75.0653 135.278 75.0926 135.407 75.1456C135.537 75.1985 135.655 75.2762 135.754 75.3741C135.853 75.472 135.932 75.5882 135.986 75.7161C136.039 75.844 136.067 75.981 136.067 76.1194Z" fill="#313CC4"/>
<path d="M131.74 77.6096L138.406 75.9761" stroke="#262626" stroke-linecap="round" stroke-linejoin="round"/>
<path d="M136.067 76.5585L136.42 79.7482C136.441 79.9355 136.421 80.125 136.363 80.3044C136.304 80.4837 136.208 80.649 136.08 80.7892C135.953 80.9295 135.797 81.0418 135.622 81.1186C135.448 81.1955 135.259 81.2352 135.068 81.2353H133.401C133.159 81.2348 132.921 81.1715 132.711 81.0517C132.501 80.9319 132.327 80.7598 132.205 80.5528L131.744 79.7633H130.985C130.707 79.756 130.443 79.6418 130.248 79.4451C130.054 79.2485 129.945 78.9848 129.945 78.7104C129.945 78.4359 130.054 78.1723 130.248 77.9756C130.443 77.7789 130.707 77.6648 130.985 77.6574H131.167C131.29 77.6576 131.41 77.6937 131.512 77.7612C131.614 77.8287 131.693 77.9245 131.74 78.0366V77.6096L136.067 76.5585Z" fill="white" stroke="#262626" stroke-linejoin="round"/>
<path d="M131.618 77.6096L133.433 77.263L132.653 77.448C132.533 77.4766 132.427 77.544 132.35 77.6394C132.274 77.7349 132.232 77.8528 132.232 77.9743V78.2921C132.232 78.5787 131.908 78.8116 131.617 78.8116L131.618 77.6096Z" fill="#262626"/>
<path d="M130.808 78.1526C130.883 78.1525 130.957 78.1669 131.026 78.195C131.095 78.2231 131.157 78.2644 131.21 78.3165C131.263 78.3685 131.305 78.4303 131.333 78.4984C131.362 78.5664 131.377 78.6393 131.377 78.713" stroke="#262626" stroke-linecap="round" stroke-linejoin="round"/>
<path d="M134.618 80.0872C134.474 80.1304 134.318 80.1154 134.185 80.0454C134.052 79.9754 133.953 79.8562 133.909 79.7141" stroke="#262626" stroke-linecap="round" stroke-linejoin="round"/>
<path d="M136.067 77.398H135.083C135.032 77.3982 134.982 77.4092 134.936 77.4303C134.89 77.4514 134.849 77.4821 134.816 77.5202C134.782 77.5584 134.758 77.6032 134.744 77.6514C134.731 77.6997 134.727 77.7504 134.735 77.7999C134.832 78.4066 134.951 79.4895 134.581 79.4895" stroke="#262626" stroke-linecap="round" stroke-linejoin="round"/>
<path d="M133.794 78.5735C133.913 78.5735 134.01 78.4211 134.01 78.233C134.01 78.045 133.913 77.8925 133.794 77.8925C133.675 77.8925 133.578 78.045 133.578 78.233C133.578 78.4211 133.675 78.5735 133.794 78.5735Z" fill="#262626"/>
<path d="M135.518 78.531C135.621 78.531 135.704 78.3976 135.704 78.233C135.704 78.0684 135.621 77.9349 135.518 77.9349C135.415 77.9349 135.332 78.0684 135.332 78.233C135.332 78.3976 135.415 78.531 135.518 78.531Z" fill="#262626"/>
<path d="M155.667 95.7039L152.975 93.3704C151.338 91.9504 149.232 91.1669 147.051 91.1667H138.951C137.457 91.1667 135.986 91.5353 134.672 92.239L131.185 94.1114C129.225 95.1605 127.031 95.71 124.801 95.71L155.667 95.7039Z" fill="#A74602"/>
<path d="M124.802 95.7038C127.032 95.7039 129.227 95.1544 131.187 94.1052L134.674 92.2389C135.987 91.5352 137.458 91.1666 138.953 91.1666H147.055C149.235 91.1669 151.341 91.9503 152.978 93.3704L155.296 95.2602" stroke="white" stroke-linecap="round" stroke-linejoin="round"/>
<path d="M113.762 95.6986L113.795 115.407C113.541 115.395 113.285 115.39 113.026 115.39C107.015 115.39 101.76 118.476 98.9136 123.073C98.7384 123.356 98.4923 123.59 98.1991 123.752C97.9058 123.915 97.5752 124 97.2389 123.999H89.9097V64.3173C89.9097 63.421 90.2708 62.5615 90.9136 61.9278C91.5564 61.2941 92.4283 60.938 93.3374 60.938H141.546" stroke="#262626" stroke-miterlimit="10"/>
<path d="M48.7371 133.664C48.7371 135.729 47.814 137.601 46.3056 138.972" stroke="#262626" stroke-miterlimit="10" stroke-linecap="round"/>
<path d="M123.062 133.512C123.062 135.576 122.139 137.449 120.631 138.821" stroke="#262626" stroke-miterlimit="10" stroke-linecap="round"/>
<path d="M98.7405 61.0541C97.0258 57.0871 93.2281 54.7401 88.855 54.7401" stroke="#262626" stroke-miterlimit="10"/>
<path d="M130.631 128.124V111.289C130.632 110.342 130.409 109.408 129.981 108.56C129.553 107.713 128.931 106.975 128.164 106.404L113.763 95.6804" stroke="#262626" stroke-miterlimit="10"/>
<path d="M93.6774 99.8512C93.6774 99.4845 93.8252 99.1328 94.0881 98.8734C94.3511 98.614 94.7078 98.4682 95.0797 98.468H99.7067C100.079 98.468 100.436 98.6138 100.699 98.8732C100.962 99.1326 101.11 99.4844 101.11 99.8512" stroke="#262626" stroke-miterlimit="10" stroke-linecap="round"/>
<path d="M168.318 104.464L170.814 106.311C171.648 106.928 171.205 108.237 170.162 108.237H133.777C131.751 108.237 129.781 107.588 128.161 106.389L125.563 104.464" stroke="#262626" stroke-miterlimit="10"/>
<path d="M39.6494 65.4707H7.6969" stroke="#262626" stroke-miterlimit="10" stroke-linecap="round"/>
<path d="M31.8809 68.959H0.792236" stroke="#262626" stroke-miterlimit="10" stroke-linecap="round"/>
<path d="M32.4378 51.5352H120.328C121.096 51.5352 121.833 51.8361 122.376 52.3717C122.919 52.9073 123.225 53.6337 123.225 54.3912V54.74H29.5409V54.3912C29.5409 53.6337 29.8461 52.9073 30.3894 52.3717C30.9327 51.8361 31.6695 51.5352 32.4378 51.5352Z" stroke="#262626" stroke-miterlimit="10"/>
<path d="M141.702 109.677H164.069" stroke="#262626" stroke-miterlimit="10" stroke-linecap="round"/>
<path d="M113.723 95.7039H103.581C103.043 95.7037 102.528 95.4929 102.147 95.1179C101.767 94.7429 101.554 94.2343 101.554 93.7041V86.9222C101.554 86.6112 101.679 86.313 101.902 86.0932C102.125 85.8733 102.427 85.7498 102.743 85.7498H104.671C104.987 85.7498 105.289 85.8733 105.512 86.0932C105.735 86.313 105.861 86.6112 105.861 86.9222V93.7102C105.861 94.2332 106.07 94.735 106.444 95.1063C106.817 95.4776 107.325 95.6883 107.855 95.6925L113.723 95.7039Z" stroke="#262626" stroke-miterlimit="10"/>
<path d="M154.398 95.7039H160.447C160.985 95.7039 161.501 95.4932 161.881 95.1181C162.262 94.7431 162.476 94.2345 162.476 93.7041V86.9222C162.475 86.6112 162.35 86.313 162.127 86.0931C161.904 85.8733 161.601 85.7498 161.285 85.7498H159.358C159.042 85.7498 158.74 85.8733 158.517 86.0931C158.293 86.313 158.168 86.6112 158.168 86.9222V93.7102C158.168 94.2332 157.958 94.735 157.585 95.1063C157.211 95.4776 156.704 95.6883 156.173 95.6925L154.398 95.7039Z" stroke="#262626" stroke-miterlimit="10"/>
<path d="M113.723 95.7061H156.555" stroke="#262626" stroke-miterlimit="10"/>
<path d="M131.359 70.2316L136.275 65.5799" stroke="white" stroke-linecap="round" stroke-linejoin="round"/>
<path d="M128.976 72.4855L130.153 71.3722" stroke="white" stroke-linecap="round" stroke-linejoin="round"/>
<path d="M114.383 86.2927L126.33 74.9895" stroke="white" stroke-linecap="round" stroke-linejoin="round"/>
<path d="M128.21 68.9364L130.153 67.0974" stroke="white" stroke-linecap="round" stroke-linejoin="round"/>
<path d="M115.514 80.9487L126.678 70.3864" stroke="white" stroke-linecap="round" stroke-linejoin="round"/>
<path d="M113.967 95.5909L113.558 95.763L99.0051 62.0953H99.4882L113.967 95.5909Z" fill="white"/>
</svg>
