<svg width="22" height="24" viewBox="0 0 22 24" fill="none" xmlns="http://www.w3.org/2000/svg">
<path d="M11 1H5C3.59987 1 2.8998 1 2.36503 1.26643C1.89461 1.50078 1.51216 1.87473 1.27249 2.33469C1 2.85758 1 3.5421 1 4.91111V19.0889C1 20.4579 1 21.1425 1.27249 21.6653C1.51216 22.1253 1.89461 22.4993 2.36503 22.7336C2.8998 23 3.59987 23 5 23H9.75M11 1L18.5 8.33333M11 1V6.37778C11 7.06228 11 7.40454 11.1363 7.66599C11.2561 7.89596 11.4472 8.08294 11.6825 8.20012C11.9499 8.33333 12.2999 8.33333 13 8.33333H18.5M18.5 8.33333V12M16 20.5556H21M18.5 18.1111V23" stroke="#818698" stroke-width="2" stroke-linecap="round" stroke-linejoin="round"/>
</svg>
