<svg width="536" height="307" viewBox="0 0 536 307" fill="none" xmlns="http://www.w3.org/2000/svg">
<path d="M522.089 296.43C527.441 265.522 499.652 240.113 469.418 241.19H467.81C455.798 241.19 444.522 235.757 437.497 226.585L433.116 220.868C421.785 206.076 404.159 197.312 384.787 197.312C374.091 197.312 366.407 199.76 360.504 203.579C349.721 210.554 335.245 234.678 320.557 235.294C298.897 236.204 284.712 204.864 230.492 259.912" stroke="#262626" stroke-width="2" stroke-miterlimit="10" stroke-linecap="round"/>
<path d="M19.318 296.743C-8.37107 296.743 -3.3193 254.174 36.5978 271.99C70.7073 287.215 49.3632 221.676 92.966 236.986C103.672 240.745 129.078 259.959 143.342 260.06C149.109 260.1 189.604 238.362 224.004 256.422C256.848 273.664 287.918 296.741 287.918 296.741" stroke="#262626" stroke-width="2" stroke-miterlimit="10" stroke-linecap="round"/>
<path d="M527.068 296.729H464.352C465.717 283.81 479.233 273.665 495.706 273.665C512.179 273.665 525.703 283.81 527.068 296.729Z" fill="#7EBAD2"/>
<path d="M488.551 296.728L481.005 286.695H474.458L465.751 291.327C465.725 291.341 465.698 291.351 465.67 291.357C465.792 291.044 465.921 290.735 466.06 290.427L473.077 286.695H468.16C468.311 286.476 468.466 286.26 468.625 286.046H480.519L475.593 279.495C475.772 279.374 475.954 279.254 476.139 279.139L489.409 296.728H488.551Z" fill="white"/>
<path d="M512.173 296.496L522.951 286.252C523.08 286.431 523.206 286.61 523.329 286.79L512.869 296.731L512.173 296.496Z" fill="white"/>
<path d="M497.176 296.587V282.748L491.487 274C491.466 273.968 491.452 273.932 491.444 273.895C491.678 273.869 491.914 273.845 492.149 273.825L497.176 281.555V273.692C497.393 273.7 497.611 273.709 497.827 273.721V292.181L509.796 276.33C510.004 276.413 510.211 276.497 510.416 276.59L503.521 285.731L517.702 280.847C517.903 281.006 518.102 281.166 518.299 281.328L518.281 281.336L502.82 286.663L497.832 293.272V296.597L497.176 296.587Z" fill="white"/>
<path d="M451.913 285.854L453.733 283.837L455.753 285.654C456.773 286.571 457.386 287.855 457.458 289.224C457.529 290.592 457.053 291.933 456.135 292.952L454.315 294.969L452.29 293.148C451.272 292.23 450.661 290.946 450.591 289.579C450.52 288.211 450.996 286.872 451.913 285.854Z" fill="#A74602"/>
<path d="M444.517 287.31V285.231H446.599C448.569 285.231 450.458 286.013 451.851 287.404C453.244 288.795 454.026 290.681 454.026 292.649V294.728H451.944C449.975 294.728 448.085 293.946 446.693 292.555C445.3 291.164 444.517 289.277 444.517 287.31Z" fill="white" stroke="#262626" stroke-width="2" stroke-miterlimit="10"/>
<path d="M43.469 270.124L43.0002 270.096C41.5766 270.011 40.2452 269.364 39.2988 268.299C38.3523 267.234 37.8684 265.837 37.9535 264.415L37.9815 263.947L38.4503 263.975C39.8739 264.06 41.2053 264.706 42.1517 265.771C43.0982 266.837 43.5821 268.234 43.497 269.655L43.469 270.124Z" fill="#FFC200"/>
<path d="M45.7695 269.632L45.4927 269.139C45.0765 268.397 44.8107 267.582 44.7103 266.738C44.61 265.894 44.6772 265.038 44.908 264.22C45.1388 263.402 45.5287 262.638 46.0555 261.97C46.5823 261.303 47.2356 260.745 47.9781 260.33L48.4718 260.054L48.7486 260.547C49.5888 262.043 49.7993 263.812 49.3339 265.463C48.8684 267.115 47.7651 268.514 46.2666 269.353L45.7729 269.63L45.7695 269.632Z" stroke="#262626" stroke-width="2" stroke-miterlimit="10" stroke-linecap="round"/>
<path d="M452.486 230.618L452.758 228.699L454.679 228.971C456.038 229.162 457.264 229.885 458.089 230.98C458.914 232.075 459.269 233.453 459.077 234.81L458.805 236.729L456.884 236.457C455.525 236.265 454.299 235.542 453.474 234.447C452.649 233.352 452.294 231.975 452.486 230.618Z" fill="#FFC200"/>
<path d="M467.517 226.586H472.758V231.82C472.758 233.19 472.213 234.505 471.242 235.474C470.272 236.443 468.956 236.987 467.584 236.987H462.343V231.754C462.343 230.383 462.888 229.069 463.859 228.1C464.829 227.131 466.145 226.586 467.517 226.586Z" stroke="#262626" stroke-width="2" stroke-miterlimit="10" stroke-linecap="round"/>
<path d="M462.343 236.986L472.758 226.586" stroke="#262626" stroke-width="2" stroke-miterlimit="10" stroke-linecap="round"/>
<path d="M468.62 231.17H472.758" stroke="#262626" stroke-width="2" stroke-miterlimit="10" stroke-linecap="round"/>
<path d="M465.179 227.331V234.109" stroke="#262626" stroke-width="2" stroke-miterlimit="10" stroke-linecap="round"/>
<path d="M27.461 282.161H30.3076V285.004C30.3072 286.374 29.7623 287.687 28.7926 288.656C27.8228 289.625 26.5077 290.169 25.1361 290.17H22.2869V287.327C22.2873 285.957 22.8325 284.643 23.8028 283.674C24.7731 282.705 26.089 282.161 27.461 282.161Z" stroke="#262626" stroke-width="2" stroke-miterlimit="10" stroke-linecap="round"/>
<path d="M22.2869 290.17L30.3063 282.161" stroke="#262626" stroke-width="2" stroke-miterlimit="10" stroke-linecap="round"/>
<path d="M26.8794 285.691H30.1644" stroke="#262626" stroke-width="2" stroke-miterlimit="10" stroke-linecap="round"/>
<path d="M24.47 283.299V287.954" stroke="#262626" stroke-width="2" stroke-miterlimit="10" stroke-linecap="round"/>
<path d="M161.328 63.4489L225.691 19.4875C233.087 14.4359 242.457 15.0569 249.285 21.0466L368.936 126.118H18.0418L131.444 58.0764C137.214 54.6138 144.077 54.4059 150.002 57.5138L161.328 63.4489Z" stroke="#7EBAD2" stroke-width="2" stroke-miterlimit="10"/>
<path d="M162.023 63.3424L135.873 80.7528C135.738 80.843 135.577 80.8868 135.415 80.8776C135.253 80.8683 135.099 80.8066 134.975 80.7018C134.851 80.5969 134.765 80.4546 134.729 80.2964C134.694 80.1383 134.711 79.9728 134.778 79.8251L145.327 55.674L162.023 63.3424Z" fill="#7EBAD2"/>
<path d="M503.94 126.119C484.101 126.693 453.228 131.213 435.044 139.22L408.85 150.755C389.912 159.094 369.442 163.401 348.744 163.401H244.03C231.021 163.4 218.067 165.077 205.488 168.39C192.909 171.703 179.954 173.381 166.945 173.381H77.3841C64.8888 173.381 52.5984 170.21 41.6674 164.164C30.7365 158.119 21.5237 149.397 14.8947 138.819L6.93781 126.119H503.94Z" stroke="#262626" stroke-width="2" stroke-miterlimit="10" stroke-linecap="round"/>
<path d="M34.6334 133.908C35.1941 133.351 35.9531 133.038 36.7442 133.038C37.5354 133.038 38.2943 133.351 38.8551 133.908C39.4158 134.466 40.1748 134.778 40.966 134.778C41.7571 134.778 42.5161 134.466 43.0768 133.908C43.6376 133.351 44.3965 133.038 45.1877 133.038C45.9788 133.038 46.7378 133.351 47.2986 133.908L47.3194 133.928C47.8801 134.485 48.6391 134.798 49.4302 134.798C50.2214 134.798 50.9803 134.485 51.5411 133.928L51.6022 133.868C51.8793 133.591 52.2084 133.371 52.5706 133.221C52.9328 133.071 53.321 132.994 53.7131 132.994C54.1052 132.994 54.4935 133.071 54.8557 133.221C55.2179 133.371 55.5469 133.591 55.824 133.868L55.8851 133.928C56.4459 134.485 57.2048 134.798 57.996 134.798C58.7871 134.798 59.5461 134.485 60.1068 133.928L60.1472 133.887C60.7079 133.33 61.4669 133.017 62.258 133.017C63.0492 133.017 63.8082 133.33 64.3689 133.887L64.4092 133.928C64.97 134.485 65.7293 134.799 66.5208 134.799C67.3122 134.799 68.0715 134.485 68.6323 133.928L68.6518 133.908C69.2125 133.351 69.9715 133.038 70.7627 133.038C71.5538 133.038 72.3128 133.351 72.8735 133.908" stroke="#262626" stroke-width="2" stroke-miterlimit="10" stroke-linecap="round"/>
<path d="M72.8969 133.928C73.4576 134.485 74.2166 134.798 75.0077 134.798C75.7989 134.798 76.5578 134.485 77.1186 133.928L77.1394 133.908C77.7001 133.351 78.4591 133.038 79.2503 133.038C80.0414 133.038 80.8004 133.351 81.3611 133.908" stroke="#262626" stroke-width="2" stroke-miterlimit="10" stroke-linecap="round"/>
<path d="M47.2972 137.757L47.318 137.777C47.8787 138.335 48.6377 138.648 49.4289 138.648C50.22 138.648 50.979 138.335 51.5397 137.777L51.6009 137.716C52.1616 137.159 52.9206 136.846 53.7117 136.846C54.5029 136.846 55.2618 137.159 55.8226 137.716L55.8837 137.777C56.4445 138.335 57.2035 138.648 57.9946 138.648C58.7858 138.648 59.5447 138.335 60.1055 137.777L60.1458 137.736C60.7066 137.178 61.4655 136.866 62.2567 136.866C63.0478 136.866 63.8068 137.178 64.3675 137.736L64.4079 137.777C64.9687 138.335 65.7279 138.648 66.5194 138.648C67.3109 138.648 68.0701 138.335 68.6309 137.777L68.6504 137.757C69.2112 137.199 69.9701 136.886 70.7613 136.886C71.5524 136.886 72.3114 137.199 72.8721 137.757" stroke="#262626" stroke-width="2" stroke-miterlimit="10" stroke-linecap="round"/>
<path d="M340.888 142.52C341.448 143.077 342.207 143.39 342.998 143.39C343.79 143.39 344.549 143.077 345.109 142.52C345.67 141.962 346.429 141.649 347.221 141.649C348.012 141.649 348.772 141.962 349.332 142.52L349.352 142.541C349.913 143.098 350.672 143.411 351.463 143.411C352.254 143.411 353.013 143.098 353.574 142.541L353.635 142.48C354.195 141.922 354.954 141.609 355.746 141.609C356.537 141.609 357.296 141.922 357.856 142.48L357.918 142.541C358.478 143.098 359.237 143.411 360.028 143.411C360.82 143.411 361.579 143.098 362.139 142.541L362.18 142.499C362.74 141.942 363.499 141.629 364.291 141.629C365.082 141.629 365.841 141.942 366.401 142.499L366.443 142.541C367.004 143.098 367.763 143.411 368.554 143.411C369.345 143.411 370.104 143.098 370.665 142.541L370.684 142.52C371.245 141.962 372.004 141.649 372.796 141.649C373.587 141.649 374.346 141.962 374.907 142.52" stroke="#262626" stroke-width="2" stroke-miterlimit="10" stroke-linecap="round"/>
<path d="M349.327 146.368L349.347 146.389C349.907 146.946 350.666 147.259 351.457 147.259C352.249 147.259 353.007 146.946 353.568 146.389L353.629 146.328C354.19 145.771 354.949 145.458 355.74 145.458C356.531 145.458 357.29 145.771 357.851 146.328L357.912 146.389C358.473 146.946 359.232 147.259 360.023 147.259C360.814 147.259 361.573 146.946 362.134 146.389L362.174 146.349C362.735 145.791 363.494 145.479 364.285 145.479C365.076 145.479 365.835 145.791 366.396 146.349L366.438 146.389C366.998 146.946 367.757 147.259 368.549 147.259C369.34 147.259 370.099 146.946 370.659 146.389L370.679 146.368" stroke="#262626" stroke-width="2" stroke-miterlimit="10" stroke-linecap="round"/>
<path d="M167.497 77.007V113.625" stroke="#262626" stroke-width="2" stroke-miterlimit="10" stroke-linecap="round"/>
<path d="M162.296 82.1873V113.625" stroke="#262626" stroke-width="2" stroke-miterlimit="10" stroke-linecap="round"/>
<path d="M157.095 85.8136V113.625" stroke="#262626" stroke-width="2" stroke-miterlimit="10" stroke-linecap="round"/>
<path d="M151.895 88.533V113.625" stroke="#262626" stroke-width="2" stroke-miterlimit="10" stroke-linecap="round"/>
<path d="M146.693 90.7353V113.625" stroke="#262626" stroke-width="2" stroke-miterlimit="10" stroke-linecap="round"/>
<path d="M141.492 92.2892V113.625" stroke="#262626" stroke-width="2" stroke-miterlimit="10" stroke-linecap="round"/>
<path d="M136.292 93.4547V113.625" stroke="#262626" stroke-width="2" stroke-miterlimit="10" stroke-linecap="round"/>
<path d="M176.232 75.8208V113.625" stroke="#262626" stroke-width="2" stroke-miterlimit="10" stroke-linecap="round"/>
<path d="M181.432 80.1903V113.495" stroke="#262626" stroke-width="2" stroke-miterlimit="10" stroke-linecap="round"/>
<path d="M186.634 83.5113V113.495" stroke="#262626" stroke-width="2" stroke-miterlimit="10" stroke-linecap="round"/>
<path d="M191.835 86.2632V113.495" stroke="#262626" stroke-width="2" stroke-miterlimit="10" stroke-linecap="round"/>
<path d="M197.035 88.5954V113.495" stroke="#262626" stroke-width="2" stroke-miterlimit="10" stroke-linecap="round"/>
<path d="M202.237 90.5015V113.495" stroke="#262626" stroke-width="2" stroke-miterlimit="10" stroke-linecap="round"/>
<path d="M207.438 92.1268V113.495" stroke="#262626" stroke-width="2" stroke-miterlimit="10" stroke-linecap="round"/>
<path d="M212.647 93.5327V113.495" stroke="#262626" stroke-width="2" stroke-miterlimit="10" stroke-linecap="round"/>
<path d="M217.849 94.5292V113.495" stroke="#262626" stroke-width="2" stroke-miterlimit="10" stroke-linecap="round"/>
<path d="M223.05 95.6349V113.495" stroke="#262626" stroke-width="2" stroke-miterlimit="10" stroke-linecap="round"/>
<path d="M228.259 96.3911V113.495" stroke="#262626" stroke-width="2" stroke-miterlimit="10" stroke-linecap="round"/>
<path d="M233.46 97.1278V113.495" stroke="#262626" stroke-width="2" stroke-miterlimit="10" stroke-linecap="round"/>
<path d="M238.662 97.5839V113.495" stroke="#262626" stroke-width="2" stroke-miterlimit="10" stroke-linecap="round"/>
<path d="M243.871 97.9503V113.495" stroke="#262626" stroke-width="2" stroke-miterlimit="10" stroke-linecap="round"/>
<path d="M249.072 98.2972V113.495" stroke="#262626" stroke-width="2" stroke-miterlimit="10" stroke-linecap="round"/>
<path d="M254.274 98.3634V113.495" stroke="#262626" stroke-width="2" stroke-miterlimit="10" stroke-linecap="round"/>
<path d="M131.09 94.4902V113.625" stroke="#262626" stroke-width="2" stroke-miterlimit="10" stroke-linecap="round"/>
<path d="M125.889 95.0087V113.625" stroke="#262626" stroke-width="2" stroke-miterlimit="10" stroke-linecap="round"/>
<path d="M120.689 95.3972V113.625" stroke="#262626" stroke-width="2" stroke-miterlimit="10" stroke-linecap="round"/>
<path d="M115.488 95.6557V113.625" stroke="#262626" stroke-width="2" stroke-miterlimit="10" stroke-linecap="round"/>
<path d="M110.286 95.6557V113.625" stroke="#262626" stroke-width="2" stroke-miterlimit="10" stroke-linecap="round"/>
<path d="M105.086 95.0087V113.625" stroke="#262626" stroke-width="2" stroke-miterlimit="10" stroke-linecap="round"/>
<path d="M99.8848 94.1018V113.625" stroke="#262626" stroke-width="2" stroke-miterlimit="10" stroke-linecap="round"/>
<path d="M94.6834 92.8064V113.625" stroke="#262626" stroke-width="2" stroke-miterlimit="10" stroke-linecap="round"/>
<path d="M89.4833 91.1238V113.625" stroke="#262626" stroke-width="2" stroke-miterlimit="10" stroke-linecap="round"/>
<path d="M84.2819 89.0515V113.625" stroke="#262626" stroke-width="2" stroke-miterlimit="10" stroke-linecap="round"/>
<path d="M79.0805 86.332V113.625" stroke="#262626" stroke-width="2" stroke-miterlimit="10" stroke-linecap="round"/>
<path d="M73.8806 83.0942V113.625" stroke="#262626" stroke-width="2" stroke-miterlimit="10" stroke-linecap="round"/>
<path d="M64.9661 86.332V113.444" stroke="#262626" stroke-width="2" stroke-miterlimit="10" stroke-linecap="round"/>
<path d="M59.7647 91.598V113.444" stroke="#262626" stroke-width="2" stroke-miterlimit="10" stroke-linecap="round"/>
<path d="M54.5646 95.7869V113.444" stroke="#262626" stroke-width="2" stroke-miterlimit="10" stroke-linecap="round"/>
<path d="M49.3632 99.3678V113.444" stroke="#262626" stroke-width="2" stroke-miterlimit="10" stroke-linecap="round"/>
<path d="M44.1619 102.529V113.444" stroke="#262626" stroke-width="2" stroke-miterlimit="10" stroke-linecap="round"/>
<path d="M38.9618 105.299V113.444" stroke="#262626" stroke-width="2" stroke-miterlimit="10" stroke-linecap="round"/>
<path d="M33.7604 107.544V113.444" stroke="#262626" stroke-width="2" stroke-miterlimit="10" stroke-linecap="round"/>
<path d="M28.559 109.721V113.444" stroke="#262626" stroke-width="2" stroke-miterlimit="10" stroke-linecap="round"/>
<path d="M23.3589 111.158V113.444" stroke="#262626" stroke-width="2" stroke-miterlimit="10" stroke-linecap="round"/>
<path d="M342.493 71.8995V113.569" stroke="#262626" stroke-width="2" stroke-miterlimit="10" stroke-linecap="round"/>
<path d="M347.759 77.5982V113.569" stroke="#262626" stroke-width="2" stroke-miterlimit="10" stroke-linecap="round"/>
<path d="M353.026 82.0015V113.569" stroke="#262626" stroke-width="2" stroke-miterlimit="10" stroke-linecap="round"/>
<path d="M358.292 85.4979V113.569" stroke="#262626" stroke-width="2" stroke-miterlimit="10" stroke-linecap="round"/>
<path d="M363.559 88.3472V113.569" stroke="#262626" stroke-width="2" stroke-miterlimit="10" stroke-linecap="round"/>
<path d="M368.825 90.5495V113.569" stroke="#262626" stroke-width="2" stroke-miterlimit="10" stroke-linecap="round"/>
<path d="M374.092 92.492V113.569" stroke="#262626" stroke-width="2" stroke-miterlimit="10" stroke-linecap="round"/>
<path d="M379.358 93.7861V113.569" stroke="#262626" stroke-width="2" stroke-miterlimit="10" stroke-linecap="round"/>
<path d="M384.623 94.693V113.569" stroke="#262626" stroke-width="2" stroke-miterlimit="10" stroke-linecap="round"/>
<path d="M389.89 95.3413V113.569" stroke="#262626" stroke-width="2" stroke-miterlimit="10" stroke-linecap="round"/>
<path d="M395.156 95.5999V113.569" stroke="#262626" stroke-width="2" stroke-miterlimit="10" stroke-linecap="round"/>
<path d="M400.422 95.5999V113.569" stroke="#262626" stroke-width="2" stroke-miterlimit="10" stroke-linecap="round"/>
<path d="M405.689 94.9528V113.569" stroke="#262626" stroke-width="2" stroke-miterlimit="10" stroke-linecap="round"/>
<path d="M410.955 93.916V113.569" stroke="#262626" stroke-width="2" stroke-miterlimit="10" stroke-linecap="round"/>
<path d="M416.222 92.6206V113.569" stroke="#262626" stroke-width="2" stroke-miterlimit="10" stroke-linecap="round"/>
<path d="M421.488 90.8081V113.569" stroke="#262626" stroke-width="2" stroke-miterlimit="10" stroke-linecap="round"/>
<path d="M426.755 88.7357V113.569" stroke="#262626" stroke-width="2" stroke-miterlimit="10" stroke-linecap="round"/>
<path d="M432.021 86.0163V113.569" stroke="#262626" stroke-width="2" stroke-miterlimit="10" stroke-linecap="round"/>
<path d="M437.16 82.7785V113.569" stroke="#262626" stroke-width="2" stroke-miterlimit="10" stroke-linecap="round"/>
<path d="M483.343 110.776V113.569" stroke="#262626" stroke-width="2" stroke-miterlimit="10" stroke-linecap="round"/>
<path d="M478.076 108.95V113.569" stroke="#262626" stroke-width="2" stroke-miterlimit="10" stroke-linecap="round"/>
<path d="M472.81 106.807V113.569" stroke="#262626" stroke-width="2" stroke-miterlimit="10" stroke-linecap="round"/>
<path d="M467.543 104.452V113.569" stroke="#262626" stroke-width="2" stroke-miterlimit="10" stroke-linecap="round"/>
<path d="M462.277 101.544V113.569" stroke="#262626" stroke-width="2" stroke-miterlimit="10" stroke-linecap="round"/>
<path d="M457.01 98.0347V113.569" stroke="#262626" stroke-width="2" stroke-miterlimit="10" stroke-linecap="round"/>
<path d="M451.744 93.6068V113.569" stroke="#262626" stroke-width="2" stroke-miterlimit="10" stroke-linecap="round"/>
<path d="M446.605 88.3667V113.569" stroke="#262626" stroke-width="2" stroke-miterlimit="10" stroke-linecap="round"/>
<path d="M333.026 70.3586V113.569" stroke="#262626" stroke-width="2" stroke-miterlimit="10" stroke-linecap="round"/>
<path d="M327.759 75.2504V113.569" stroke="#262626" stroke-width="2" stroke-miterlimit="10" stroke-linecap="round"/>
<path d="M322.493 79.1768V113.569" stroke="#262626" stroke-width="2" stroke-miterlimit="10" stroke-linecap="round"/>
<path d="M317.226 82.4199V113.569" stroke="#262626" stroke-width="2" stroke-miterlimit="10" stroke-linecap="round"/>
<path d="M311.96 85.2536V113.569" stroke="#262626" stroke-width="2" stroke-miterlimit="10" stroke-linecap="round"/>
<path d="M306.694 87.8028V113.569" stroke="#262626" stroke-width="2" stroke-miterlimit="10" stroke-linecap="round"/>
<path d="M301.427 89.9518V113.569" stroke="#262626" stroke-width="2" stroke-miterlimit="10" stroke-linecap="round"/>
<path d="M296.161 92.0788V113.569" stroke="#262626" stroke-width="2" stroke-miterlimit="10" stroke-linecap="round"/>
<path d="M290.894 93.5392V113.569" stroke="#262626" stroke-width="2" stroke-miterlimit="10" stroke-linecap="round"/>
<path d="M285.628 94.8606V113.569" stroke="#262626" stroke-width="2" stroke-miterlimit="10" stroke-linecap="round"/>
<path d="M280.361 96.0364V113.569" stroke="#262626" stroke-width="2" stroke-miterlimit="10" stroke-linecap="round"/>
<path d="M275.095 96.9446V113.569" stroke="#262626" stroke-width="2" stroke-miterlimit="10" stroke-linecap="round"/>
<path d="M269.828 97.5657V113.569" stroke="#262626" stroke-width="2" stroke-miterlimit="10" stroke-linecap="round"/>
<path d="M264.562 98.4336V113.569" stroke="#262626" stroke-width="2" stroke-miterlimit="10" stroke-linecap="round"/>
<path d="M259.296 98.3803V113.569" stroke="#262626" stroke-width="2" stroke-miterlimit="10" stroke-linecap="round"/>
<path d="M171.726 71.2772V126.002" stroke="#262626" stroke-width="2" stroke-miterlimit="10" stroke-linecap="round"/>
<path d="M69.3075 79.8733V126.002" stroke="#262626" stroke-width="2" stroke-miterlimit="10" stroke-linecap="round"/>
<path d="M337.631 64.7781V126.002" stroke="#262626" stroke-width="2" stroke-miterlimit="10" stroke-linecap="round"/>
<path d="M441.339 79.8733V126.002" stroke="#262626" stroke-width="2" stroke-miterlimit="10" stroke-linecap="round"/>
<path d="M171.691 70.6184C186.225 90.6028 224.4 98.3297 256.266 98.3297" stroke="#262626" stroke-width="2" stroke-miterlimit="10" stroke-linecap="round"/>
<path d="M69.3427 79.8265C80.6418 88.6227 96.4684 95.5037 113.986 95.5037C140.095 95.5037 162.444 87.8925 171.653 70.6873" stroke="#262626" stroke-width="2" stroke-miterlimit="10" stroke-linecap="round"/>
<path d="M6.93781 113.508C33.0397 113.508 63.3541 93.0688 69.3283 79.8343" stroke="#262626" stroke-width="2" stroke-miterlimit="10" stroke-linecap="round"/>
<path d="M337.666 64.7028C322.95 84.691 288.327 98.3297 256.063 98.3297" stroke="#262626" stroke-width="2" stroke-miterlimit="10" stroke-linecap="round"/>
<path d="M441.304 79.8265C429.855 88.6227 413.836 95.5037 396.097 95.5037C369.66 95.5037 347.03 81.9469 337.705 64.7365" stroke="#262626" stroke-width="2" stroke-miterlimit="10" stroke-linecap="round"/>
<path d="M503.94 113.509C475.338 113.509 447.373 95.3894 441.317 79.8343" stroke="#262626" stroke-width="2" stroke-miterlimit="10" stroke-linecap="round"/>
<path d="M503.807 113.611H6.93781" stroke="#262626" stroke-width="2" stroke-miterlimit="10" stroke-linecap="round"/>
<path d="M57.3851 113.611C63.9773 113.611 69.3218 119.088 69.3218 125.845" stroke="#262626" stroke-width="2" stroke-miterlimit="10" stroke-linecap="round"/>
<path d="M81.2441 113.611C74.652 113.611 69.3075 119.088 69.3075 125.845" stroke="#262626" stroke-width="2" stroke-miterlimit="10" stroke-linecap="round"/>
<path d="M159.904 113.611C166.496 113.611 171.84 119.088 171.84 125.845" stroke="#262626" stroke-width="2" stroke-miterlimit="10" stroke-linecap="round"/>
<path d="M183.762 113.611C177.17 113.611 171.826 119.088 171.826 125.845" stroke="#262626" stroke-width="2" stroke-miterlimit="10" stroke-linecap="round"/>
<path d="M429.258 113.611C435.933 113.611 441.344 119.088 441.344 125.845" stroke="#262626" stroke-width="2" stroke-miterlimit="10" stroke-linecap="round"/>
<path d="M453.416 113.611C446.742 113.611 441.33 119.088 441.33 125.845" stroke="#262626" stroke-width="2" stroke-miterlimit="10" stroke-linecap="round"/>
<path d="M325.559 113.611C332.233 113.611 337.646 119.088 337.646 125.845" stroke="#262626" stroke-width="2" stroke-miterlimit="10" stroke-linecap="round"/>
<path d="M349.717 113.611C343.042 113.611 337.631 119.088 337.631 125.845" stroke="#262626" stroke-width="2" stroke-miterlimit="10" stroke-linecap="round"/>
<path d="M34.6321 296.729H534.784" stroke="#262626" stroke-width="2" stroke-miterlimit="10" stroke-linecap="round"/>
<path d="M124.402 305.225H320.553" stroke="#262626" stroke-width="2" stroke-miterlimit="10" stroke-linecap="round"/>
<path d="M180.445 143.272L168.039 198.818C167.531 201.091 166.263 203.123 164.444 204.579C162.624 206.036 160.362 206.829 158.03 206.829H103.175C102.238 206.829 101.313 206.619 100.468 206.214C99.6234 205.809 98.8806 205.22 98.2944 204.49C97.7083 203.76 97.2939 202.907 97.0819 201.996C96.8699 201.084 96.8657 200.137 97.0696 199.223L109.477 143.677C109.985 141.405 111.253 139.373 113.072 137.917C114.891 136.461 117.153 135.667 119.484 135.667H174.341C175.278 135.667 176.203 135.878 177.047 136.282C177.892 136.687 178.635 137.276 179.221 138.007C179.807 138.737 180.221 139.589 180.433 140.5C180.645 141.412 180.649 142.359 180.445 143.272Z" fill="white"/>
<path d="M264.056 143.272L251.649 198.818C251.141 201.091 249.874 203.123 248.054 204.58C246.235 206.036 243.973 206.83 241.641 206.829H183.955C183.018 206.829 182.093 206.619 181.248 206.214C180.404 205.809 179.661 205.22 179.075 204.49C178.489 203.76 178.074 202.907 177.863 201.996C177.651 201.084 177.647 200.137 177.851 199.223L190.258 143.677C190.766 141.405 192.034 139.373 193.853 137.917C195.672 136.46 197.934 135.667 200.266 135.667H257.952C258.889 135.667 259.814 135.878 260.658 136.282C261.503 136.687 262.246 137.276 262.832 138.007C263.418 138.737 263.832 139.589 264.044 140.5C264.256 141.412 264.26 142.359 264.056 143.272Z" fill="white"/>
<path d="M352.143 206.829H270.527C269.404 206.829 268.296 206.578 267.284 206.092C266.271 205.607 265.381 204.901 264.679 204.026C263.977 203.151 263.481 202.129 263.227 201.037C262.973 199.945 262.968 198.809 263.213 197.715L275.284 143.677C275.791 141.405 277.059 139.373 278.878 137.917C280.698 136.46 282.959 135.667 285.291 135.667H316.412C318.155 135.667 319.865 136.138 321.361 137.031C322.857 137.923 324.083 139.203 324.91 140.735L356.584 199.399C358.396 202.755 355.962 206.829 352.143 206.829Z" fill="white"/>
<path d="M251.097 206.829V178.805C251.097 174.781 252.698 170.921 255.547 168.075C258.397 165.229 262.262 163.631 266.291 163.631H301.844C304.749 163.631 307.59 164.485 310.012 166.088C312.434 167.691 314.329 169.971 315.461 172.644L329.943 206.829H251.097Z" fill="white" stroke="#262626" stroke-width="2" stroke-miterlimit="10"/>
<path d="M328.229 203.616H251.421V202.837H327.899L328.229 203.616Z" fill="#7EBAD2"/>
<path d="M326.702 200.013H251.421V199.234H326.373L326.702 200.013Z" fill="#7EBAD2"/>
<path d="M325.176 196.41H251.421V195.631H324.845L325.176 196.41Z" fill="#7EBAD2"/>
<path d="M323.65 192.808H251.421V192.028H323.319L323.65 192.808Z" fill="#7EBAD2"/>
<path d="M322.124 189.205H251.421V188.425H321.793L322.124 189.205Z" fill="#7EBAD2"/>
<path d="M320.597 185.602H251.421V184.822H320.267L320.597 185.602Z" fill="#7EBAD2"/>
<path d="M319.071 181.999H251.421V181.219H318.741L319.071 181.999Z" fill="#7EBAD2"/>
<path d="M317.544 178.391H251.427C251.434 178.131 251.448 177.871 251.468 177.611H317.21L317.544 178.391Z" fill="#7EBAD2"/>
<path d="M316.019 174.794H251.973C252.045 174.534 252.127 174.274 252.216 174.015H315.689L316.019 174.794Z" fill="#7EBAD2"/>
<path d="M314.376 171.191H253.529C253.687 170.926 253.855 170.666 254.031 170.412H313.895C314.063 170.666 314.224 170.925 314.376 171.191Z" fill="#7EBAD2"/>
<path d="M311.44 167.588H256.556C256.872 167.315 257.199 167.054 257.537 166.809H310.487C310.814 167.055 311.131 167.315 311.44 167.588Z" fill="#7EBAD2"/>
<path d="M321.433 206.829H251.011C255.434 203.155 299.046 186.084 317.268 193.232C327.783 197.36 321.433 206.829 321.433 206.829Z" fill="#A74602"/>
<path d="M317.128 197.612C321.037 199.147 322.225 201.029 322.665 203.28" stroke="#262626" stroke-width="2" stroke-linecap="round" stroke-linejoin="round"/>
<path d="M315.713 201.569C319.623 203.103 320.941 204.596 321.38 206.846" stroke="#262626" stroke-width="2" stroke-linecap="round" stroke-linejoin="round"/>
<path d="M293.611 163.631V156.896L283.942 154.699L278.168 163.631L293.737 173.521L293.611 163.631Z" fill="#A74602"/>
<path d="M278.168 163.631L294.161 173.521" stroke="#262626" stroke-width="2" stroke-miterlimit="10" stroke-linecap="round"/>
<path d="M293.611 163.89V156.896L284.366 154.841C284.384 155.579 284.575 156.303 284.925 156.954C285.275 157.605 285.773 158.164 286.38 158.587L293.611 163.89Z" fill="#262626"/>
<path d="M295.179 148.546C295.001 148.182 294.725 147.875 294.381 147.66C294.038 147.446 293.64 147.332 293.235 147.332H288.503C288.42 147.332 288.338 147.332 288.257 147.343C287.49 147.405 286.773 147.753 286.251 148.318C285.728 148.883 285.438 149.624 285.438 150.394V151.352C283.969 151.248 282.809 149.98 282.809 148.433C282.809 146.817 284.075 145.507 285.635 145.507C285.856 145.506 286.078 145.534 286.293 145.587C286.798 144.638 289.45 140.046 292.267 142.522C293.012 143.172 292.35 144.495 292.303 144.588C292.434 144.447 295.285 141.349 297.805 143.75C299.769 145.621 296.736 147.674 295.179 148.546Z" fill="#262626"/>
<path d="M295.397 149.49V155.096C295.397 155.898 295.078 156.668 294.51 157.235C293.942 157.803 293.171 158.122 292.367 158.122H288.464C287.661 158.122 286.89 157.803 286.322 157.235C285.753 156.668 285.434 155.898 285.434 155.096V155.075H283.291C282.691 155.075 282.115 154.837 281.691 154.413C281.266 153.989 281.028 153.414 281.028 152.814V152.365C281.028 151.765 281.266 151.19 281.691 150.766C282.115 150.342 282.691 150.104 283.291 150.104H283.644C283.984 150.103 284.321 150.176 284.63 150.318C284.939 150.46 285.214 150.667 285.434 150.926V150.394C285.434 149.582 285.757 148.803 286.332 148.229C286.907 147.655 287.686 147.332 288.499 147.332H293.231C293.515 147.332 293.797 147.387 294.06 147.495C294.322 147.603 294.561 147.762 294.762 147.963C294.964 148.163 295.123 148.401 295.232 148.663C295.341 148.926 295.397 149.207 295.397 149.49Z" fill="#A74602"/>
<path d="M294.825 150.187C294.825 150.187 291.744 149.667 292.199 150.903C292.655 152.138 292.657 153.481 292.341 154.143" stroke="#262626" stroke-width="2" stroke-miterlimit="10" stroke-linecap="round"/>
<path d="M289.48 152.818C289.705 152.818 289.888 152.569 289.888 152.262C289.888 151.955 289.705 151.706 289.48 151.706C289.254 151.706 289.072 151.955 289.072 152.262C289.072 152.569 289.254 152.818 289.48 152.818Z" fill="#262626"/>
<path d="M293.705 152.818C293.931 152.818 294.114 152.569 294.114 152.262C294.114 151.955 293.931 151.706 293.705 151.706C293.48 151.706 293.297 151.955 293.297 152.262C293.297 152.569 293.48 152.818 293.705 152.818Z" fill="#262626"/>
<path d="M292.19 155.466C292.19 155.466 290.675 155.856 290.486 154.768" stroke="#262626" stroke-width="2" stroke-miterlimit="10" stroke-linecap="round"/>
<path d="M287.6 150.326C288.412 149.948 289.322 149.833 290.202 149.997" stroke="#262626" stroke-width="2" stroke-miterlimit="10" stroke-linecap="round"/>
<path d="M284.735 152.969C284.735 152.546 284.567 152.141 284.268 151.842C283.969 151.544 283.563 151.376 283.14 151.376" stroke="#262626" stroke-width="2" stroke-miterlimit="10" stroke-linecap="round"/>
<path d="M285.888 149.974C287.126 149.974 288.129 148.972 288.129 147.736C288.129 146.501 287.126 145.499 285.888 145.499C284.651 145.499 283.648 146.501 283.648 147.736C283.648 148.972 284.651 149.974 285.888 149.974Z" fill="#262626"/>
<path d="M400.702 277.878C400.702 288.242 393.497 296.642 383.684 296.642H379.149C388.616 296.642 396.289 288.242 396.289 277.878C396.289 267.515 388.613 259.114 379.149 259.114H383.69C393.497 259.114 400.702 267.522 400.702 277.878Z" fill="white" stroke="#262626" stroke-width="2" stroke-miterlimit="10"/>
<path d="M379.15 296.643C388.617 296.643 396.291 288.242 396.291 277.878C396.291 267.515 388.617 259.114 379.15 259.114C369.684 259.114 362.009 267.515 362.009 277.878C362.009 288.242 369.684 296.643 379.15 296.643Z" fill="#A74602" stroke="#262626" stroke-width="2" stroke-miterlimit="10"/>
<path d="M379.149 289.399C384.887 289.399 389.538 284.307 389.538 278.025C389.538 271.744 384.887 266.651 379.149 266.651C373.411 266.651 368.759 271.744 368.759 278.025C368.759 284.307 373.411 289.399 379.149 289.399Z" stroke="#262626" stroke-width="2" stroke-miterlimit="10"/>
<path d="M421.081 234.39L364.842 206.832L326.419 135.67L325 133.039C323.819 130.832 322.061 128.986 319.912 127.699C317.762 126.412 315.304 125.732 312.798 125.732H114.377C111.232 125.732 108.18 126.802 105.726 128.766C103.272 130.73 101.561 133.471 100.876 136.537L70.619 271.991H427.742V245.495C427.741 243.215 427.121 240.979 425.948 239.023C424.775 237.068 423.093 235.466 421.081 234.39ZM158.03 206.832H103.175C102.238 206.832 101.313 206.622 100.468 206.217C99.6234 205.812 98.8805 205.223 98.2944 204.493C97.7082 203.762 97.2939 202.91 97.0819 201.998C96.8699 201.087 96.8656 200.139 97.0695 199.226L109.477 143.68C109.985 141.408 111.253 139.376 113.072 137.92C114.891 136.463 117.153 135.67 119.484 135.67H174.341C175.278 135.67 176.203 135.88 177.047 136.285C177.892 136.69 178.635 137.279 179.221 138.009C179.807 138.739 180.221 139.591 180.433 140.503C180.645 141.414 180.649 142.361 180.445 143.275L168.039 198.821C167.531 201.093 166.262 203.125 164.443 204.58C162.623 206.036 160.362 206.83 158.03 206.829V206.832ZM241.641 206.832H183.955C183.018 206.832 182.093 206.622 181.248 206.217C180.404 205.812 179.661 205.223 179.075 204.492C178.489 203.762 178.074 202.91 177.863 201.998C177.651 201.087 177.647 200.139 177.851 199.226L190.258 143.68C190.766 141.407 192.034 139.375 193.853 137.919C195.672 136.463 197.934 135.67 200.266 135.67H257.952C258.889 135.67 259.814 135.88 260.658 136.285C261.503 136.69 262.246 137.279 262.832 138.009C263.418 138.739 263.832 139.591 264.044 140.503C264.256 141.414 264.26 142.361 264.056 143.275L251.649 198.821C251.141 201.093 249.873 203.125 248.054 204.581C246.234 206.037 243.973 206.83 241.641 206.829V206.832ZM352.143 206.832H270.527C269.404 206.832 268.296 206.58 267.284 206.095C266.271 205.61 265.381 204.903 264.679 204.028C263.977 203.153 263.481 202.132 263.227 201.04C262.973 199.947 262.968 198.812 263.213 197.718L275.284 143.68C275.791 141.407 277.059 139.375 278.878 137.919C280.698 136.463 282.959 135.67 285.291 135.67H316.412C318.155 135.67 319.865 136.141 321.361 137.033C322.857 137.925 324.083 139.205 324.91 140.737L356.584 199.401C358.396 202.755 355.962 206.829 352.143 206.829V206.832Z" fill="#1924B1"/>
<path d="M437.128 274.864V278.112C437.128 278.874 436.824 279.605 436.285 280.144C435.746 280.682 435.014 280.985 434.251 280.985H64.1101C63.7322 280.985 63.3581 280.911 63.0089 280.767C62.6598 280.623 62.3425 280.411 62.0753 280.144C61.808 279.877 61.596 279.561 61.4514 279.212C61.3067 278.863 61.2323 278.49 61.2323 278.112V274.864C61.2321 274.487 61.3065 274.113 61.451 273.764C61.5956 273.416 61.8076 273.099 62.0749 272.832C62.3422 272.565 62.6595 272.354 63.0087 272.209C63.3579 272.065 63.7322 271.991 64.1101 271.991H434.251C434.629 271.991 435.003 272.065 435.352 272.21C435.701 272.354 436.018 272.566 436.285 272.832C436.553 273.099 436.764 273.416 436.909 273.765C437.053 274.113 437.128 274.487 437.128 274.864Z" fill="white" stroke="#262626" stroke-width="2" stroke-miterlimit="10"/>
<path d="M345.029 274.864V278.112C345.029 278.874 344.726 279.605 344.186 280.144C343.647 280.682 342.915 280.985 342.152 280.985H64.1101C63.7322 280.985 63.3581 280.911 63.0089 280.767C62.6598 280.623 62.3425 280.411 62.0753 280.144C61.808 279.877 61.596 279.561 61.4514 279.212C61.3067 278.863 61.2323 278.49 61.2323 278.112V274.864C61.2321 274.487 61.3065 274.113 61.451 273.764C61.5956 273.416 61.8076 273.099 62.0749 272.832C62.3422 272.565 62.6595 272.354 63.0087 272.209C63.3579 272.065 63.7322 271.991 64.1101 271.991H342.152C342.53 271.991 342.904 272.065 343.253 272.21C343.602 272.354 343.919 272.566 344.187 272.832C344.454 273.099 344.666 273.416 344.81 273.765C344.955 274.113 345.029 274.487 345.029 274.864Z" fill="white" stroke="#262626" stroke-width="2" stroke-miterlimit="10"/>
<path d="M419.973 255.537C424.243 255.537 427.704 250.993 427.704 245.388C427.704 239.783 424.243 235.24 419.973 235.24C415.702 235.24 412.241 239.783 412.241 245.388C412.241 250.993 415.702 255.537 419.973 255.537Z" fill="white"/>
<path d="M418.691 254.174C423.114 254.174 426.7 249.767 426.7 244.331C426.7 238.894 423.114 234.487 418.691 234.487C414.268 234.487 410.682 238.894 410.682 244.331C410.682 249.767 414.268 254.174 418.691 254.174Z" stroke="#262626" stroke-width="2" stroke-miterlimit="10" stroke-linecap="round"/>
<path d="M418.267 234.487H416.003C411.58 234.487 407.994 238.895 407.994 244.331C407.994 249.767 411.58 254.174 416.003 254.174H418.267" stroke="#262626" stroke-width="2" stroke-miterlimit="10" stroke-linecap="round"/>
<path d="M346.254 255.537C350.524 255.537 353.986 250.993 353.986 245.388C353.986 239.783 350.524 235.24 346.254 235.24C341.984 235.24 338.522 239.783 338.522 245.388C338.522 250.993 341.984 255.537 346.254 255.537Z" fill="white"/>
<path d="M344.973 254.174C349.396 254.174 352.982 249.767 352.982 244.331C352.982 238.894 349.396 234.487 344.973 234.487C340.55 234.487 336.964 238.894 336.964 244.331C336.964 249.767 340.55 254.174 344.973 254.174Z" stroke="#262626" stroke-width="2" stroke-miterlimit="10" stroke-linecap="round"/>
<path d="M344.549 234.487H342.285C337.861 234.487 334.276 238.895 334.276 244.331C334.276 249.767 337.861 254.174 342.285 254.174H344.549" stroke="#262626" stroke-width="2" stroke-miterlimit="10" stroke-linecap="round"/>
<path d="M330.265 271.991V245.495C330.265 243.215 329.646 240.978 328.473 239.022C327.3 237.066 325.619 235.464 323.607 234.387L273.402 211.048" stroke="#262626" stroke-width="2" stroke-miterlimit="10" stroke-linecap="round"/>
<path d="M157.838 266.282L187.195 134.97C187.365 134.21 187.789 133.531 188.397 133.044C189.005 132.557 189.761 132.292 190.541 132.292H266.093C266.73 132.292 267.359 132.435 267.933 132.711C268.507 132.986 269.012 133.387 269.41 133.883C269.809 134.38 270.09 134.959 270.235 135.579C270.379 136.198 270.382 136.842 270.244 137.463L241.445 266.278" stroke="#262626" stroke-width="2" stroke-miterlimit="10" stroke-linecap="round"/>
<path d="M160.087 211.048H99.3774" stroke="#262626" stroke-width="2" stroke-miterlimit="10" stroke-linecap="round"/>
<path d="M102.588 132.292H325" stroke="#262626" stroke-width="2" stroke-miterlimit="10" stroke-linecap="round"/>
<path d="M357.33 241.988H405.234" stroke="#262626" stroke-width="2" stroke-miterlimit="10" stroke-linecap="round"/>
<path d="M282.211 211.048H360.149" stroke="#262626" stroke-width="2" stroke-miterlimit="10" stroke-linecap="round"/>
<path d="M83.2074 265.183C88.2357 253.463 99.4152 245.304 112.398 245.304C125.832 245.304 137.333 254.034 142.089 266.411H254.348C258.756 253.45 270.414 245.304 283.397 245.304C296.831 245.304 308.332 254.034 313.087 266.411" stroke="#262626" stroke-width="2" stroke-miterlimit="10" stroke-linecap="round"/>
<path d="M398.025 246.489H364.539C363.186 246.489 362.089 247.584 362.089 248.935V262.794C362.089 264.145 363.186 265.24 364.539 265.24H398.025C399.378 265.24 400.475 264.145 400.475 262.794V248.935C400.475 247.584 399.378 246.489 398.025 246.489Z" stroke="white" stroke-width="2" stroke-miterlimit="10" stroke-linecap="round"/>
<path d="M367.47 251.739H395.092" stroke="#262626" stroke-width="2" stroke-miterlimit="10" stroke-linecap="round"/>
<path d="M367.47 256.119H395.092" stroke="#262626" stroke-width="2" stroke-miterlimit="10" stroke-linecap="round"/>
<path d="M367.47 260.499H395.092" stroke="#262626" stroke-width="2" stroke-miterlimit="10" stroke-linecap="round"/>
<path d="M137.51 271.991H87.2913C89.9414 260.211 100.179 251.429 112.4 251.429C124.622 251.429 134.86 260.211 137.51 271.991Z" fill="#262626"/>
<path d="M131.66 277.978C131.66 288.342 124.454 296.743 114.641 296.743H110.107C119.573 296.743 127.247 288.342 127.247 277.978C127.247 267.615 119.572 259.214 110.107 259.214H114.645C124.454 259.214 131.66 267.615 131.66 277.978Z" fill="#A74602" stroke="#262626" stroke-width="2" stroke-miterlimit="10"/>
<path d="M110.107 296.743C119.573 296.743 127.247 288.342 127.247 277.978C127.247 267.615 119.573 259.214 110.107 259.214C100.64 259.214 92.9661 267.615 92.9661 277.978C92.9661 288.342 100.64 296.743 110.107 296.743Z" fill="white" stroke="#262626" stroke-width="2" stroke-miterlimit="10"/>
<path d="M111.353 290.631C117.091 290.631 121.743 285.539 121.743 279.257C121.743 272.975 117.091 267.883 111.353 267.883C105.615 267.883 100.963 272.975 100.963 279.257C100.963 285.539 105.615 290.631 111.353 290.631Z" fill="#A74602"/>
<path d="M110.107 289.499C115.845 289.499 120.497 284.407 120.497 278.125C120.497 271.844 115.845 266.751 110.107 266.751C104.369 266.751 99.717 271.844 99.717 278.125C99.717 284.407 104.369 289.499 110.107 289.499Z" stroke="#262626" stroke-width="2" stroke-miterlimit="10"/>
<path d="M110.078 279.808C111.012 279.808 111.769 279.052 111.769 278.119C111.769 277.186 111.012 276.43 110.078 276.43C109.144 276.43 108.387 277.186 108.387 278.119C108.387 279.052 109.144 279.808 110.078 279.808Z" stroke="#262626" stroke-width="2" stroke-miterlimit="10"/>
<path d="M308.508 271.991H258.29C260.94 260.211 271.178 251.429 283.399 251.429C295.621 251.429 305.858 260.211 308.508 271.991Z" fill="#262626"/>
<path d="M302.659 277.978C302.659 288.342 295.453 296.743 285.64 296.743H281.106C290.572 296.743 298.246 288.342 298.246 277.978C298.246 267.615 290.571 259.214 281.106 259.214H285.64C295.453 259.214 302.659 267.615 302.659 277.978Z" fill="#A74602" stroke="#262626" stroke-width="2" stroke-miterlimit="10"/>
<path d="M281.106 296.743C290.572 296.743 298.246 288.342 298.246 277.978C298.246 267.615 290.572 259.214 281.106 259.214C271.639 259.214 263.965 267.615 263.965 277.978C263.965 288.342 271.639 296.743 281.106 296.743Z" fill="white" stroke="#262626" stroke-width="2" stroke-miterlimit="10"/>
<path d="M282.352 290.631C288.09 290.631 292.742 285.539 292.742 279.257C292.742 272.975 288.09 267.883 282.352 267.883C276.614 267.883 271.962 272.975 271.962 279.257C271.962 285.539 276.614 290.631 282.352 290.631Z" fill="#A74602"/>
<path d="M281.106 289.499C286.844 289.499 291.495 284.407 291.495 278.125C291.495 271.844 286.844 266.751 281.106 266.751C275.367 266.751 270.716 271.844 270.716 278.125C270.716 284.407 275.367 289.499 281.106 289.499Z" stroke="#262626" stroke-width="2" stroke-miterlimit="10"/>
<path d="M281.077 279.808C282.011 279.808 282.768 279.052 282.768 278.119C282.768 277.186 282.011 276.43 281.077 276.43C280.143 276.43 279.386 277.186 279.386 278.119C279.386 279.052 280.143 279.808 281.077 279.808Z" stroke="#262626" stroke-width="2" stroke-miterlimit="10"/>
<path d="M280.724 103.565V121.643C280.724 122.179 280.619 122.711 280.413 123.207C280.207 123.702 279.906 124.153 279.526 124.532C279.146 124.912 278.695 125.213 278.199 125.418C277.702 125.623 277.17 125.729 276.633 125.729H144.746C144.208 125.729 143.676 125.623 143.18 125.418C142.684 125.213 142.233 124.912 141.853 124.532C141.473 124.153 141.172 123.702 140.966 123.206C140.761 122.711 140.655 122.179 140.655 121.643V103.563C140.655 103.027 140.761 102.495 140.966 102C141.172 101.504 141.473 101.054 141.853 100.674C142.233 100.295 142.684 99.9941 143.18 99.7889C143.677 99.5836 144.209 99.4781 144.746 99.4783H276.632C277.717 99.4783 278.758 99.9087 279.525 100.675C280.293 101.441 280.724 102.481 280.724 103.565Z" fill="#7EBAD2"/>
<path d="M280.724 103.565V121.643C280.724 122.179 280.619 122.711 280.413 123.207C280.207 123.702 279.906 124.153 279.526 124.532C279.146 124.912 278.695 125.213 278.199 125.418C277.702 125.623 277.17 125.729 276.633 125.729H231.185C230.1 125.729 229.06 125.298 228.293 124.532C227.526 123.766 227.095 122.726 227.095 121.643V103.563C227.095 102.48 227.526 101.441 228.293 100.675C229.06 99.9086 230.1 99.4783 231.185 99.4783H276.632C277.717 99.4783 278.758 99.9087 279.525 100.675C280.293 101.441 280.724 102.481 280.724 103.565Z" fill="#A74602"/>
<path d="M279.021 104.674V120.533C279.021 122.513 277.316 124.118 275.211 124.118H232.891C230.787 124.118 229.081 122.513 229.081 120.533V104.673C229.081 102.693 230.787 101.088 232.891 101.088H275.209C277.314 101.083 279.021 102.694 279.021 104.674Z" stroke="#7EBAD2" stroke-width="2" stroke-miterlimit="10" stroke-linecap="round"/>
<path d="M229.071 112.532H278.605" stroke="#7EBAD2" stroke-width="2" stroke-miterlimit="10" stroke-linecap="round"/>
<path d="M249.576 45.3824H249.818C250.185 45.3824 250.536 45.5277 250.795 45.7865C251.054 46.0453 251.2 46.3963 251.2 46.7622V54.9477H248.196V46.7622C248.196 46.3963 248.341 46.0453 248.6 45.7865C248.86 45.5277 249.211 45.3824 249.577 45.3824H249.576Z" stroke="#262626" stroke-width="2" stroke-miterlimit="10" stroke-linecap="round"/>
<path d="M240.267 54.5229H258.944C259.917 54.5229 260.85 54.9088 261.538 55.5957C262.226 56.2825 262.612 57.2142 262.612 58.1856V99.4783H236.6V58.1856C236.6 57.2142 236.986 56.2825 237.674 55.5957C238.362 54.9088 239.295 54.5229 240.267 54.5229Z" fill="#262626"/>
<path d="M262.611 58.1856V58.9119L250.059 71.0784V99.4783H249.408V71.055L236.6 58.9002V58.1856C236.6 58.1258 236.6 58.0673 236.6 58.0089L249.408 70.1598V54.5229H250.059V70.1728L262.605 58.0115C262.609 58.0686 262.611 58.1271 262.611 58.1856Z" fill="white"/>
<path d="M253.59 125.729V116.729" stroke="#262626" stroke-width="2" stroke-miterlimit="10"/>
<path d="M121.878 125.729V116.729" stroke="#262626" stroke-width="2" stroke-miterlimit="10"/>
<path d="M306.076 125.729V116.729" stroke="#262626" stroke-width="2" stroke-miterlimit="10"/>
<path d="M114.604 116.729H311.003" stroke="#262626" stroke-width="2" stroke-miterlimit="10" stroke-linecap="round"/>
<path d="M164.661 69.2867H231.559C232.895 69.2867 234.177 69.8166 235.122 70.76C236.067 71.7033 236.599 72.9829 236.6 74.3176V99.4783H160.081V73.8615C160.081 73.2607 160.199 72.6658 160.429 72.1108C160.66 71.5558 160.997 71.0514 161.422 70.6266C161.848 70.2018 162.353 69.8649 162.908 69.6349C163.464 69.405 164.06 69.2867 164.661 69.2867Z" fill="#FFC200"/>
<path d="M236.318 99.4783V74.2825C236.318 73.0335 235.821 71.8357 234.937 70.952C234.054 70.0684 232.855 69.5713 231.604 69.5699H226.042C224.721 69.5699 223.454 70.0941 222.52 71.0271C221.586 71.9601 221.061 73.2255 221.061 74.5449V99.4783" stroke="white" stroke-width="2" stroke-miterlimit="10"/>
<path d="M164.354 69.2867V99.4783" stroke="white" stroke-width="2" stroke-miterlimit="10"/>
<path d="M168.74 69.2867V99.4783" stroke="white" stroke-width="2" stroke-miterlimit="10"/>
<path d="M173.126 69.2867V99.4783" stroke="white" stroke-width="2" stroke-miterlimit="10"/>
<path d="M177.511 69.2867V99.4783" stroke="white" stroke-width="2" stroke-miterlimit="10"/>
<path d="M181.897 69.2867V99.4783" stroke="white" stroke-width="2" stroke-miterlimit="10"/>
<path d="M186.283 69.2867V99.4783" stroke="white" stroke-width="2" stroke-miterlimit="10"/>
<path d="M190.668 69.2867V99.4783" stroke="white" stroke-width="2" stroke-miterlimit="10"/>
<path d="M195.054 69.2867V99.4783" stroke="white" stroke-width="2" stroke-miterlimit="10"/>
<path d="M199.44 69.2867V99.4783" stroke="white" stroke-width="2" stroke-miterlimit="10"/>
<path d="M203.825 69.2867V99.4783" stroke="white" stroke-width="2" stroke-miterlimit="10"/>
<path d="M208.211 69.2867V99.4783" stroke="white" stroke-width="2" stroke-miterlimit="10"/>
<path d="M212.597 69.2867V99.4783" stroke="white" stroke-width="2" stroke-miterlimit="10"/>
<path d="M216.982 69.2867V99.4783" stroke="white" stroke-width="2" stroke-miterlimit="10"/>
<path d="M160.081 95.4024H220.703" stroke="white" stroke-width="2" stroke-miterlimit="10"/>
<path d="M160.081 91.0225H220.703" stroke="white" stroke-width="2" stroke-miterlimit="10"/>
<path d="M160.081 86.6426H220.703" stroke="white" stroke-width="2" stroke-miterlimit="10"/>
<path d="M160.081 82.2627H220.703" stroke="white" stroke-width="2" stroke-miterlimit="10"/>
<path d="M160.081 77.8828H220.703" stroke="white" stroke-width="2" stroke-miterlimit="10"/>
<path d="M160.081 73.5029H221.127" stroke="white" stroke-width="2" stroke-miterlimit="10"/>
<path d="M228.686 69.5699V99.4783" stroke="white" stroke-width="2" stroke-miterlimit="10"/>
<path d="M204.249 63.5504H204.64C205.237 63.5504 205.809 63.7872 206.231 64.2087C206.653 64.6303 206.89 65.202 206.89 65.7981V66.1879C206.89 66.7841 206.653 67.3558 206.231 67.7773C205.809 68.1989 205.237 68.4357 204.64 68.4357H201.995V65.7981C201.995 65.5026 202.053 65.21 202.166 64.937C202.28 64.6641 202.446 64.4161 202.655 64.2073C202.865 63.9986 203.113 63.8331 203.387 63.7203C203.66 63.6076 203.953 63.5498 204.249 63.5504Z" stroke="#262626" stroke-width="2" stroke-miterlimit="10" stroke-linecap="round"/>
<path d="M198.646 61.5507H199.144C199.901 61.5507 200.627 61.8509 201.162 62.3853C201.697 62.9196 201.997 63.6444 201.997 64.4001V68.4396H198.646C197.889 68.4396 197.164 68.1394 196.629 67.605C196.094 67.0707 195.793 66.3459 195.793 65.5902V64.4001C195.793 63.6444 196.094 62.9196 196.629 62.3853C197.164 61.8509 197.889 61.5507 198.646 61.5507Z" stroke="#262626" stroke-width="2" stroke-miterlimit="10" stroke-linecap="round"/>
<path d="M201.999 68.4396C200.439 68.4394 198.92 68.9399 197.667 69.8673C196.413 70.7946 195.491 72.0996 195.037 73.59L182.149 116.726" stroke="#262626" stroke-width="2" stroke-miterlimit="10" stroke-linecap="round"/>
<path d="M369.141 192.875C372.432 192.875 375.1 189.178 375.1 184.617C375.1 180.056 372.432 176.359 369.141 176.359C365.85 176.359 363.183 180.056 363.183 184.617C363.183 189.178 365.85 192.875 369.141 192.875Z" fill="#FFC200"/>
<path d="M367.692 192.111C370.983 192.111 373.651 188.414 373.651 183.853C373.651 179.292 370.983 175.595 367.692 175.595C364.401 175.595 361.734 179.292 361.734 183.853C361.734 188.414 364.401 192.111 367.692 192.111Z" stroke="#262626" stroke-width="2" stroke-miterlimit="10" stroke-linecap="round"/>
<path d="M362.63 202.281C362.632 195.795 365.042 189.54 369.395 184.727" stroke="#262626" stroke-width="2" stroke-miterlimit="10" stroke-linecap="round"/>
<path d="M198.024 170.11L230.013 164.8L239.309 187.89C239.985 189.57 240.165 191.41 239.825 193.189C239.485 194.968 238.641 196.613 237.392 197.927L235.793 199.616V206.836H197.544L198.024 170.11Z" fill="#262626"/>
<path d="M237.392 197.927C238.641 196.613 239.485 194.968 239.825 193.189C240.165 191.41 239.985 189.57 239.309 187.89L230.013 164.8C232.253 164.428 234.554 164.791 236.571 165.833C238.588 166.876 240.212 168.543 241.202 170.584L251.228 191.282C254.712 198.475 249.466 206.829 241.471 206.829H235.793V199.609L237.392 197.927Z" fill="#A74602"/>
<path d="M197.15 170.234C195.3 170.547 193.552 171.3 192.054 172.428C190.555 173.557 189.35 175.028 188.54 176.718L179.417 195.76C172.164 210.898 188.429 226.518 203.292 218.688L225.799 206.829H250.273C250.805 206.829 251.315 206.619 251.691 206.243C252.067 205.868 252.278 205.358 252.278 204.827C252.278 204.456 252.175 204.093 251.98 203.777C251.785 203.462 251.507 203.206 251.175 203.039L240.206 197.519C236.385 195.596 232.165 194.594 227.886 194.594H204.259L204.555 176.585C204.57 175.654 204.38 174.732 203.998 173.883C203.616 173.034 203.052 172.28 202.345 171.674C201.638 171.068 200.806 170.624 199.908 170.375C199.01 170.126 198.069 170.078 197.15 170.234Z" fill="#A74602"/>
<path d="M250.273 206.406C251.381 206.406 252.278 205.933 252.278 204.827C252.278 204.456 252.175 204.093 251.98 203.777C251.785 203.462 251.507 203.206 251.175 203.039L240.206 197.519C236.385 195.596 232.165 194.594 227.886 194.594H207.974C204.337 194.594 200.767 195.567 197.634 197.412" stroke="#262626" stroke-width="2" stroke-miterlimit="10" stroke-linecap="round"/>
<path d="M222.975 203.155C222.975 204.017 223.317 204.843 223.927 205.452C224.537 206.061 225.364 206.403 226.227 206.403" stroke="#262626" stroke-width="2" stroke-miterlimit="10" stroke-linecap="round"/>
<path d="M238.766 200.811L246.962 204.163C247.408 204.346 247.789 204.657 248.057 205.056C248.325 205.455 248.468 205.925 248.468 206.406" stroke="#262626" stroke-width="2" stroke-miterlimit="10" stroke-linecap="round"/>
<path d="M233.337 201.541L239.746 204.163C240.191 204.346 240.572 204.657 240.84 205.056C241.108 205.455 241.251 205.925 241.251 206.406" stroke="#262626" stroke-width="2" stroke-miterlimit="10" stroke-linecap="round"/>
<path d="M230.477 164.734L213.927 167.477C212.356 174.103 206.456 178.191 199.935 175.945C185.754 171.063 210.122 151.452 214.305 147.808C218.778 143.91 224.713 143.798 226.085 147.299C227.356 150.53 224.719 151.976 222.833 152.244C223.041 153.738 224.489 162.621 230.477 164.734Z" fill="#FFC200"/>
<path d="M221.606 159.491V167.199C221.606 168.347 221.149 169.449 220.336 170.262C219.522 171.074 218.419 171.53 217.269 171.53C216.118 171.53 215.015 171.074 214.201 170.262C213.388 169.449 212.931 168.347 212.931 167.199V155.731L221.606 159.491Z" fill="#A74602"/>
<path d="M212.931 155.731L221.606 159.491V166.21L216.349 162.917C215.281 162.048 214.42 160.952 213.828 159.709C213.237 158.466 212.931 157.107 212.931 155.731Z" fill="#262626"/>
<path d="M222.518 152.236V157.456C222.518 157.903 222.43 158.345 222.259 158.758C222.088 159.17 221.837 159.545 221.521 159.861C221.205 160.177 220.829 160.427 220.416 160.598C220.003 160.769 219.56 160.857 219.113 160.857H218.325C217.404 160.857 216.498 160.622 215.694 160.173C214.889 159.725 214.214 159.078 213.731 158.295H211.371C210.779 158.28 210.216 158.036 209.803 157.613C209.389 157.19 209.158 156.622 209.158 156.031C209.158 155.439 209.389 154.871 209.803 154.448C210.216 154.025 210.779 153.781 211.371 153.767H212.079C212.413 153.765 212.74 153.87 213.012 154.064L216.942 149.576C219.44 152.389 222.518 152.236 222.518 152.236Z" fill="#A74602"/>
<path d="M212.556 156.357C212.556 155.97 212.402 155.599 212.128 155.325C211.854 155.051 211.482 154.897 211.094 154.897" stroke="#262626" stroke-width="2" stroke-miterlimit="10" stroke-linecap="round"/>
<path d="M222.237 152.91C222.237 152.91 220.9 152.763 220.025 153.756C219.463 154.395 219.44 155.965 220.167 156.997" stroke="#262626" stroke-width="2" stroke-miterlimit="10" stroke-linecap="round"/>
<path d="M217.31 155.671C217.535 155.671 217.718 155.422 217.718 155.115C217.718 154.808 217.535 154.559 217.31 154.559C217.084 154.559 216.902 154.808 216.902 155.115C216.902 155.422 217.084 155.671 217.31 155.671Z" fill="#262626"/>
<path d="M221.111 155.671C221.337 155.671 221.519 155.422 221.519 155.115C221.519 154.808 221.337 154.559 221.111 154.559C220.886 154.559 220.703 154.808 220.703 155.115C220.703 155.422 220.886 155.671 221.111 155.671Z" fill="#262626"/>
<path d="M220.025 158.319C220.025 158.319 218.51 158.709 218.321 157.621" stroke="#262626" stroke-width="2" stroke-miterlimit="10" stroke-linecap="round"/>
<path d="M215.43 153.459C215.43 153.459 216.58 152.567 218.032 152.848" stroke="#262626" stroke-width="2" stroke-miterlimit="10" stroke-linecap="round"/>
<path d="M173.807 172.991L167.975 199.049C167.499 201.177 166.336 203.089 164.665 204.492C162.994 205.895 160.908 206.71 158.728 206.813C158.573 206.813 158.415 206.824 158.258 206.824H102.986C102.06 206.824 101.146 206.616 100.312 206.215C99.4771 205.814 98.7436 205.231 98.1655 204.509C97.5875 203.786 97.1797 202.943 96.9724 202.041C96.7651 201.14 96.7636 200.204 96.968 199.302L100.073 185.611C100.885 182.028 102.893 178.827 105.766 176.534C108.64 174.24 112.209 172.991 115.887 172.991H173.807Z" fill="#7EBAD2"/>
<path d="M108.419 206.829C112.713 198.8 122.363 193.205 133.575 193.205C144.787 193.205 154.001 198.792 158.303 206.818L108.419 206.829Z" fill="white"/>
<path d="M144.362 195.079L141.123 206.822V206.829H140.458V206.822L140.808 194.02C142.014 194.298 143.201 194.651 144.362 195.079Z" fill="#262626"/>
<path d="M158.366 187.796V206.829H141.093L146.412 187.796C146.412 188.893 149.066 189.781 152.342 189.781C155.618 189.781 157.974 188.82 158.366 187.796Z" fill="white"/>
<path d="M158.366 187.796C157.976 188.82 155.617 189.781 152.342 189.781C149.068 189.781 146.412 188.893 146.412 187.796V179.611C146.412 179.611 147.323 179.258 148.446 180.642C149.569 182.026 150.397 181.534 150.91 180.382C151.484 179.106 153.587 172.976 156.543 172.976C158.946 172.976 158.625 177.731 158.487 179.127C158.485 179.15 158.491 179.172 158.503 179.191C158.515 179.209 158.532 179.224 158.553 179.232C158.574 179.24 158.597 179.241 158.619 179.235C158.64 179.229 158.659 179.216 158.673 179.199C159.097 178.644 160.005 177.538 160.463 177.61C161.073 177.716 158.553 187.309 158.366 187.796Z" fill="#A74602"/>
<path d="M155.75 173.477L153.586 180.272" stroke="#262626" stroke-width="2" stroke-miterlimit="10" stroke-linecap="round"/>
<path d="M157.447 173.912L155.426 180.555" stroke="#262626" stroke-width="2" stroke-miterlimit="10" stroke-linecap="round"/>
<path d="M158.557 179.232L158.038 180.788" stroke="#262626" stroke-width="2" stroke-miterlimit="10" stroke-linecap="round"/>
<path d="M128.473 190.296H137.588V193.212C137.588 194.338 137.14 195.418 136.342 196.215C135.544 197.011 134.463 197.459 133.335 197.459H132.728C131.601 197.459 130.519 197.011 129.721 196.215C128.924 195.418 128.476 194.338 128.476 193.212V190.296H128.473Z" fill="#A74602"/>
<path d="M128.473 190.296H137.588V193.241C137.588 193.868 137.448 194.487 137.178 195.053C136.908 195.619 136.514 196.117 136.026 196.512L131.174 194.413C130.371 194.065 129.687 193.489 129.207 192.758C128.728 192.026 128.472 191.17 128.473 190.296Z" fill="#262626"/>
<path d="M128.486 187.921C128.486 188.03 128.529 188.135 128.607 188.213C128.684 188.29 128.789 188.334 128.898 188.334H129.121C129.231 188.334 129.336 188.291 129.413 188.213C129.491 188.136 129.535 188.03 129.535 187.921V187.436C129.535 186.848 129.651 186.265 129.876 185.721C130.102 185.177 130.432 184.683 130.849 184.267C131.266 183.851 131.761 183.521 132.305 183.296C132.85 183.071 133.434 182.955 134.023 182.955H138.991L139.304 188.686C139.333 189.228 139.252 189.771 139.064 190.281C138.877 190.791 138.587 191.257 138.213 191.651C137.84 192.045 137.389 192.36 136.89 192.574C136.39 192.789 135.852 192.9 135.308 192.9H132.541C131.862 192.9 131.194 192.727 130.6 192.399C130.006 192.07 129.506 191.595 129.147 191.02H126.597C126.307 191.02 126.02 190.962 125.753 190.851C125.486 190.74 125.243 190.577 125.039 190.372C124.835 190.166 124.674 189.923 124.564 189.655C124.455 189.387 124.4 189.1 124.402 188.811C124.416 188.225 124.66 187.669 125.082 187.262C125.503 186.855 126.068 186.629 126.654 186.635H127.197C127.538 186.635 127.865 186.77 128.107 187.01C128.349 187.251 128.485 187.577 128.486 187.918V187.921Z" fill="#A74602"/>
<path d="M129.534 187.921C129.534 188.03 129.491 188.136 129.413 188.213C129.336 188.291 129.23 188.334 129.121 188.334H128.898C128.789 188.334 128.684 188.29 128.607 188.213C128.529 188.135 128.486 188.03 128.486 187.921C128.486 187.581 128.35 187.254 128.109 187.014C127.868 186.773 127.541 186.637 127.201 186.637L126.904 184.514C126.904 182.711 128.198 181.249 129.795 181.249C130.093 181.249 130.388 181.3 130.669 181.401C130.938 179.887 132.202 178.74 133.72 178.74C134.413 178.741 135.084 178.982 135.618 179.424C135.838 178.697 136.285 178.061 136.894 177.607C137.503 177.154 138.241 176.907 139.001 176.903C140.952 176.903 142.542 178.522 142.542 180.52C142.542 182.518 140.956 184.137 139.001 184.137C138.505 184.137 138.015 184.031 137.564 183.827C137.112 183.624 136.709 183.326 136.382 182.955H134.029C132.872 182.954 131.76 183.399 130.924 184.199C130.088 184.998 129.594 186.088 129.545 187.243L129.534 187.921Z" fill="#FFC200"/>
<path d="M127.624 188.637C127.578 188.367 127.438 188.122 127.228 187.945C127.019 187.768 126.754 187.671 126.48 187.67" stroke="#262626" stroke-width="2" stroke-miterlimit="10" stroke-linecap="round"/>
<path d="M138.645 185.47C138.645 185.47 137.385 184.929 136.445 186.045C135.896 186.694 135.631 188.334 136.163 189.143" stroke="#262626" stroke-width="2" stroke-miterlimit="10" stroke-linecap="round"/>
<path d="M133.584 188.101C133.81 188.101 133.992 187.852 133.992 187.545C133.992 187.238 133.81 186.989 133.584 186.989C133.359 186.989 133.176 187.238 133.176 187.545C133.176 187.852 133.359 188.101 133.584 188.101Z" fill="#262626"/>
<path d="M137.384 188.101C137.61 188.101 137.793 187.852 137.793 187.545C137.793 187.238 137.61 186.989 137.384 186.989C137.159 186.989 136.976 187.238 136.976 187.545C136.976 187.852 137.159 188.101 137.384 188.101Z" fill="#262626"/>
<path d="M136.011 190.604C136.011 190.604 134.599 190.744 134.307 190.047" stroke="#262626" stroke-width="2" stroke-miterlimit="10" stroke-linecap="round"/>
<path d="M131.845 186.171C131.845 186.171 132.44 185.272 134.027 185.278" stroke="#262626" stroke-width="2" stroke-miterlimit="10" stroke-linecap="round"/>
<path d="M398.77 40.4113C409.514 40.4113 418.223 31.7135 418.223 20.9843C418.223 10.2551 409.514 1.55731 398.77 1.55731C388.027 1.55731 379.318 10.2551 379.318 20.9843C379.318 31.7135 388.027 40.4113 398.77 40.4113Z" stroke="#FFC200" stroke-width="2" stroke-miterlimit="10"/>
</svg>
