<svg width="19" height="20" viewBox="0 0 19 20" fill="none" xmlns="http://www.w3.org/2000/svg">
<g clip-path="url(#clip0_60_426)">
<path fill-rule="evenodd" clip-rule="evenodd" d="M8.93418 0.00667883C8.49704 0.0300122 8.00525 0.126679 7.67418 0.253345C6.07623 0.979933 4.54254 1.84991 3.09061 2.85335C2.16811 3.49001 1.93668 3.67001 1.64418 3.98001C1.43787 4.18506 1.26235 4.42102 1.12347 4.68001C1.09454 4.78335 1.14918 4.89668 1.24561 4.93001C1.27775 4.94335 1.39668 4.94668 1.73418 4.94668C2.16168 4.94668 2.18418 4.94668 2.24525 4.92001C2.32882 4.88668 2.41882 4.82668 2.56025 4.69668C2.70811 4.56335 2.98775 4.35335 3.49561 3.99335C4.3396 3.39696 5.21409 2.84838 6.11525 2.35001C6.73169 2.00763 7.35882 1.68634 7.99561 1.38668C8.73811 1.08668 9.89847 1.10335 10.5992 1.42668C11.6341 1.92132 12.6427 2.47323 13.6206 3.08001C14.3886 3.5537 15.1321 4.06886 15.8481 4.62335C16.3785 5.09001 16.9088 6.06001 17.0278 6.79001C17.0728 7.05668 17.1467 8.14001 17.1724 8.91668C17.1949 9.48335 17.1917 10.7067 17.1692 11.2467C17.1539 11.9506 17.0981 12.653 17.002 13.35C16.8285 14.1533 16.2595 15.09 15.6842 15.5233C14.4975 16.4001 13.2538 17.1909 11.962 17.89C11.6953 18.0433 10.702 18.54 10.5156 18.6167C9.91132 18.8633 9.05954 18.91 8.34597 18.73C8.17414 18.6903 8.00706 18.631 7.84775 18.5533C7.69347 18.4867 6.81275 18.0367 6.60061 17.92C5.77252 17.4776 4.96386 16.9971 4.17704 16.48C4.13525 16.4533 4.09668 16.4333 4.09025 16.44C4.00197 16.3652 3.90851 16.2973 3.81061 16.2367C3.39703 15.9516 2.99185 15.6537 2.59561 15.3433C2.37704 15.1467 2.31918 15.11 2.21311 15.08C2.05109 15.059 1.88754 15.0534 1.72454 15.0633C1.46418 15.0633 1.28418 15.0667 1.25846 15.0767C1.20382 15.09 1.13632 15.1533 1.12989 15.1967C1.12347 15.2133 1.12025 15.26 1.12347 15.2967C1.12989 15.36 1.13632 15.3767 1.21989 15.4967C1.49896 15.9094 1.84999 16.2644 2.25489 16.5433C2.34306 16.6267 2.44012 16.6994 2.54418 16.76C3.70444 17.5973 4.91791 18.3524 6.17632 19.02C6.87382 19.3867 7.42668 19.6567 7.66775 19.7533C7.93132 19.8533 8.32989 19.94 8.72847 19.9867C8.91811 20.0067 9.58668 20.0067 9.76989 19.9867C10.3003 19.9267 10.6988 19.82 11.107 19.6333C11.859 19.2664 12.6007 18.8774 13.3313 18.4667C13.4708 18.3899 13.608 18.3087 13.7428 18.2233L13.8392 18.1667C14.7255 17.6321 15.5858 17.0525 16.417 16.43C16.642 16.26 16.9313 15.9567 17.166 15.65C17.211 15.59 17.2399 15.54 17.2335 15.5333C17.348 15.3977 17.4472 15.249 17.5292 15.09C17.8345 14.5533 18.0178 14.09 18.1238 13.6067C18.1688 13.3933 18.1913 13.2067 18.2331 12.6633C18.381 10.79 18.3745 8.94668 18.2106 7.04668C18.1688 6.54668 18.127 6.32335 17.9985 5.94668C17.7799 5.29001 17.4199 4.64668 16.9892 4.13335C16.7506 3.8495 16.4759 3.60056 16.1728 3.39335C15.4013 2.83335 14.5013 2.23335 13.7974 1.81335L13.5499 1.66668C12.7347 1.19238 11.9015 0.752029 11.0524 0.346679C10.6345 0.160012 10.1685 0.0466788 9.61561 0.0100122C9.46132 1.21637e-05 9.09168 -0.00332117 8.93418 0.00667883Z" fill="url(#paint0_linear_60_426)"/>
<path fill-rule="evenodd" clip-rule="evenodd" d="M4.62207 10.0043C4.17207 10.0643 3.88278 10.2909 3.75742 10.6709C3.68617 10.8827 3.65773 11.1073 3.67385 11.3309C3.67385 11.6543 3.68028 11.7209 3.73492 11.9243C3.84742 12.3609 4.13028 12.6043 4.60278 12.6743C4.89207 12.7143 5.39671 12.6743 5.67957 12.5943C5.776 12.5609 5.776 12.5609 5.75992 12.5009C5.74064 12.4309 5.58957 12.0176 5.58314 12.0109C5.57671 12.0076 5.51885 12.0176 5.45135 12.0343C5.2585 12.0843 5.20385 12.0909 5.00778 12.1009C4.79564 12.1076 4.69921 12.0943 4.59635 12.0409C4.42278 11.9576 4.35528 11.7876 4.34242 11.4076C4.32957 11.0176 4.37778 10.7976 4.50314 10.6976C4.66064 10.5676 5.00778 10.5409 5.3485 10.6309C5.46742 10.6643 5.45135 10.6809 5.58957 10.4043C5.65707 10.2709 5.71492 10.1509 5.71492 10.1409C5.71492 10.1176 5.67957 10.1043 5.56064 10.0743C5.25201 10.0091 4.93639 9.98665 4.62207 10.0076V10.0043ZM1.006 10.0809C0.989924 10.0976 1.00278 10.1343 1.08635 10.3676C1.19134 10.6534 1.2942 10.9401 1.39492 11.2276L1.55885 11.6943L1.75492 12.2409L1.89957 12.6476L1.7935 12.8609C1.73242 12.9776 1.6585 13.1276 1.62314 13.1876C1.50421 13.4109 1.45921 13.5143 1.46242 13.5343C1.47207 13.5509 1.50742 13.5543 1.80635 13.5543C2.05385 13.5543 2.14385 13.5509 2.15992 13.5376C2.1985 13.5043 2.491 12.8509 2.72242 12.2709C2.85274 11.9401 2.97704 11.6067 3.09528 11.2709C3.211 10.9476 3.26564 10.7876 3.38457 10.3943C3.45528 10.1643 3.47135 10.1043 3.4585 10.0909C3.44885 10.0743 3.39421 10.0743 3.13385 10.0743L2.82207 10.0776L2.75135 10.3309C2.61903 10.8043 2.46675 11.2714 2.29492 11.7309C2.26921 11.7976 2.26278 11.7909 2.20171 11.6176L2.05707 11.2043C1.92197 10.8347 1.78804 10.4647 1.65528 10.0943C1.64564 10.0743 1.61992 10.0743 1.33064 10.0743C1.15707 10.0743 1.00921 10.0743 1.00921 10.0809H1.006ZM6.48314 10.0876L6.46385 10.2743C6.40891 11.0146 6.28183 11.7472 6.08457 12.4609C6.06528 12.5243 6.05242 12.5843 6.05564 12.5943C6.06207 12.6076 6.11992 12.6076 6.39314 12.6076L6.72421 12.6043L6.75635 12.4909C6.89457 12.0243 7.04564 11.2143 7.08421 10.7576L7.09385 10.6643L7.6885 10.6576V11.6176C7.6885 12.1476 7.69492 12.5843 7.69814 12.5943C7.70778 12.6076 7.7785 12.6076 8.026 12.6076L8.34421 12.6043V10.0943L8.33778 10.0709H7.41207C6.68242 10.0709 6.48635 10.0709 6.47992 10.0843L6.48314 10.0876ZM8.78778 10.0843C8.77171 10.0943 8.78135 10.1276 8.96135 10.6209C9.20449 11.2927 9.44342 11.966 9.67814 12.6409C9.67814 12.6609 9.54957 12.9209 9.43064 13.1409C9.24743 13.4843 9.22814 13.5309 9.26993 13.5476C9.29564 13.5576 9.92564 13.5543 9.94492 13.5409C10.1196 13.2169 10.2721 12.8805 10.4014 12.5343C10.6445 11.9358 10.8675 11.3288 11.0699 10.7143C11.1792 10.3709 11.2531 10.1143 11.2467 10.0909C11.2403 10.0743 11.2017 10.0743 10.9253 10.0743C10.6424 10.0743 10.6135 10.0743 10.6039 10.0943C10.4768 10.5725 10.3277 11.0442 10.1571 11.5076L10.0671 11.7509C10.0574 11.7843 10.0349 11.7943 10.0349 11.7676C9.84832 11.2399 9.66189 10.7121 9.47564 10.1843L9.43707 10.0776H9.12207C8.9485 10.0743 8.80064 10.0776 8.78778 10.0843ZM11.671 10.0876L11.6678 11.3543L11.671 12.6043H12.3074V11.6343C12.3106 10.8676 12.3139 10.6643 12.3267 10.6609H12.7864C13.0306 10.6609 13.2364 10.6609 13.246 10.6543C13.2653 10.6409 13.471 10.1309 13.4646 10.1009C13.4646 10.0776 13.4517 10.0776 12.5678 10.0743C11.8606 10.0743 11.6742 10.0743 11.6678 10.0876H11.671ZM13.8181 10.0876V10.9476C13.8214 11.8809 13.8246 11.9009 13.8985 12.1276C13.935 12.2551 14.0042 12.3699 14.0987 12.4597C14.1933 12.5496 14.3096 12.6111 14.4353 12.6376C14.9595 12.7257 15.4968 12.6659 15.991 12.4643C16.0103 12.4543 16.0103 12.3909 16.0071 11.2643V10.0776H15.3674L15.3578 12.0243L15.2646 12.0476C15.1328 12.0809 14.8081 12.0809 14.7117 12.0509C14.634 12.026 14.5684 11.9711 14.5285 11.8976C14.4706 11.7843 14.4706 11.7476 14.4642 10.8876L14.4546 10.0776H14.1396C13.8824 10.0743 13.8246 10.0776 13.8181 10.0876Z" fill="#E93250"/>
<path fill-rule="evenodd" clip-rule="evenodd" d="M6.24735 6.36668C5.6752 6.44002 5.37949 6.75002 5.2927 7.36668C5.26699 7.53335 5.27342 7.93335 5.30235 8.10002C5.39235 8.62002 5.63342 8.90668 6.06735 9.01335C6.38235 9.09335 6.9352 9.06668 7.28235 8.96335C7.40449 8.92668 7.39806 8.94335 7.32735 8.73002C7.23092 8.44002 7.2052 8.38002 7.1827 8.37668C7.17306 8.37335 7.12485 8.38335 7.07663 8.39668C6.93199 8.43335 6.78735 8.45668 6.62663 8.46335C6.09306 8.49002 5.93556 8.29002 5.95485 7.61002C5.96449 7.31002 5.99985 7.18002 6.09627 7.08335C6.24092 6.93668 6.58485 6.90335 6.95127 7.00002C7.00913 7.01335 7.06056 7.02335 7.0702 7.02002C7.08628 7.01335 7.32735 6.53002 7.32735 6.50668C7.32735 6.48002 7.29842 6.46668 7.14092 6.42668C6.93257 6.37524 6.71855 6.35282 6.50449 6.36002L6.24735 6.36335V6.36668ZM3.32878 6.38668C2.83056 6.46002 2.58627 6.72002 2.49306 7.28002C2.47699 7.38002 2.46735 7.70335 2.47377 7.88002C2.48985 8.18002 2.53485 8.38002 2.62806 8.56668C2.69878 8.70668 2.83699 8.84668 2.9752 8.91335C3.15199 9.00335 3.37378 9.04668 3.66306 9.04668C4.10663 9.04668 4.40877 8.93668 4.5952 8.70668C4.7077 8.57002 4.78485 8.37002 4.8202 8.11335C4.83306 8.04668 4.83628 7.89668 4.83628 7.68335C4.83628 7.39335 4.83628 7.33668 4.81056 7.21668C4.74306 6.85002 4.59842 6.62668 4.34449 6.50002C4.21592 6.43335 4.14199 6.41002 3.97485 6.38668C3.76103 6.36587 3.54581 6.36587 3.33199 6.38668H3.32878ZM0.503418 6.45335V8.97002H1.14949L1.15592 7.03002H2.08806L2.1427 6.90668C2.24556 6.66335 2.31628 6.47668 2.30985 6.45668C2.30342 6.44002 2.21985 6.44002 1.40663 6.44002C0.699489 6.44002 0.506632 6.44002 0.503418 6.45335ZM3.90735 6.94668C4.00378 6.97668 4.04877 7.01335 4.09056 7.10335C4.15485 7.23335 4.16449 7.32335 4.1677 7.69668C4.1677 7.97002 4.16449 8.04335 4.1452 8.12668C4.08735 8.41002 3.97485 8.49335 3.64699 8.49335C3.23878 8.49335 3.14556 8.34335 3.14235 7.71002C3.14235 7.42668 3.1552 7.29335 3.19056 7.17668C3.23235 7.04335 3.31913 6.96002 3.43485 6.93668C3.59218 6.92072 3.75077 6.92408 3.90735 6.94668Z" fill="#0F5EAB"/>
</g>
<defs>
<linearGradient id="paint0_linear_60_426" x1="9.41954" y1="1.21636e-05" x2="9.39534" y2="17.7867" gradientUnits="userSpaceOnUse">
<stop offset="0.4" stop-color="#125EA9"/>
<stop offset="0.86" stop-color="#E93250"/>
</linearGradient>
<clipPath id="clip0_60_426">
<rect width="18" height="20" fill="white" transform="translate(0.5)"/>
</clipPath>
</defs>
</svg>
