<svg width="13" height="13" viewBox="0 0 13 13" fill="none" xmlns="http://www.w3.org/2000/svg">
<path d="M1.82312 13H11.1769C12.4121 13 13 12.649 13 11.8769C13 10.0378 10.5369 7.37743 6.50371 7.37743C2.46308 7.37743 0 10.0378 0 11.8769C0 12.649 0.587863 13 1.82312 13ZM1.47338 11.9401C1.2799 11.9401 1.19805 11.891 1.19805 11.7436C1.19805 10.5853 3.08814 8.43735 6.50371 8.43735C9.91184 8.43735 11.8019 10.5853 11.8019 11.7436C11.8019 11.891 11.7275 11.9401 11.5341 11.9401H1.47338ZM6.50371 6.50003C8.27471 6.50003 9.71836 5.01891 9.71836 3.20789C9.71836 1.41091 8.2822 0 6.50371 0C4.74011 0 3.28906 1.43898 3.28906 3.22193C3.28906 5.02592 4.73267 6.50003 6.50371 6.50003ZM6.50371 5.44007C5.41728 5.44007 4.48711 4.46436 4.48711 3.22193C4.48711 2.00054 5.40239 1.05994 6.50371 1.05994C7.61247 1.05994 8.52032 1.97949 8.52032 3.20789C8.52032 4.45033 7.59755 5.44007 6.50371 5.44007Z" fill="#262626" fill-opacity="0.85"/>
</svg>
