<svg width="770" height="207" viewBox="0 0 770 207" fill="none" xmlns="http://www.w3.org/2000/svg">
<path fill-rule="evenodd" clip-rule="evenodd" d="M206.726 81.4586H245.977C260.706 81.4586 269.22 85.5444 276.202 95.5035L280.034 101.036C285.227 108.527 288.292 117.72 288.292 125.807V163.005C288.292 169.814 285.653 172.964 279.608 172.964H268.535C266.644 158.584 254.663 147.853 239.676 147.853C224.689 147.853 212.707 158.584 210.817 172.964H96.5468C94.6567 158.584 82.6753 147.853 67.6882 147.853C52.7011 147.853 40.7196 158.584 38.8294 172.964H22.4776C16.9433 172.964 13.7079 169.218 13.7079 162.749V149.811C13.7079 134.574 23.925 125.977 45.2106 123.253L79.8636 118.912L116.815 95.9292C119.158 94.4665 121.383 93.1436 123.544 91.9485C123.43 90.9289 123.372 89.8717 123.372 88.7789V76.5417C118.881 78.6152 114.373 81.1356 109.493 84.1824L75.181 105.718L43.4226 109.634C14.3891 113.209 0 126.487 0 149.811V164.451C0 178.326 8.17367 186.668 21.7113 186.668H40.1623C44.07 198.091 54.761 206.076 67.6882 206.076C80.6154 206.076 91.3063 198.091 95.2139 186.668H212.15C216.058 198.091 226.749 206.076 239.676 206.076C252.603 206.076 263.294 198.091 267.202 186.668H280.374C295.274 186.668 302 179.007 302 162.153V125.807C302 115.166 298.083 102.994 291.358 93.2903L287.526 87.6726C277.735 73.4572 265.729 67.7541 245.977 67.7541H206.726V81.4586ZM52.2774 176.964C52.2774 185.646 59.0036 192.371 67.6882 192.371C76.3726 192.371 83.099 185.646 83.099 176.964C83.099 168.282 76.3726 161.557 67.6882 161.557C59.0036 161.557 52.2774 168.282 52.2774 176.964ZM224.265 176.964C224.265 185.646 230.992 192.371 239.676 192.371C248.36 192.371 255.087 185.646 255.087 176.964C255.087 168.282 248.36 161.557 239.676 161.557C230.992 161.557 224.265 168.282 224.265 176.964Z" fill="black" fill-opacity="0.85"/>
<path d="M142.188 49.1127L153.342 49.0276V36.7702C153.342 27.9176 157.684 23.1509 165.006 23.1509C172.414 23.1509 176.67 27.9176 176.67 36.7702V49.0276L187.824 49.1127V37.7065C187.824 22.2996 178.628 12 165.006 12C151.469 12 142.188 22.2996 142.188 37.7065V49.1127ZM143.465 97.8867H186.632C192.422 97.8867 195.147 94.9929 195.147 88.7789V55.667C195.147 49.4532 192.422 46.559 186.632 46.559H143.465C137.675 46.559 134.951 49.4532 134.951 55.667V88.7789C134.951 94.9929 137.675 97.8867 143.465 97.8867Z" fill="black" fill-opacity="0.85"/>
<path d="M374.7 83L369.5 66H343.5L338.3 83H322L347.2 11.3H365.7L391 83H374.7ZM360.7 36.7C360.367 35.5667 359.933 34.1333 359.4 32.4C358.867 30.6667 358.333 28.9 357.8 27.1C357.267 25.3 356.833 23.7333 356.5 22.4C356.167 23.7333 355.7 25.4 355.1 27.4C354.567 29.3333 354.033 31.2 353.5 33C353.033 34.7333 352.667 35.9667 352.4 36.7L347.3 53.3H365.9L360.7 36.7ZM422.243 11.6C428.576 11.6 433.876 12.2 438.143 13.4C442.476 14.5333 445.71 16.4333 447.843 19.1C450.043 21.7 451.143 25.2333 451.143 29.7C451.143 32.3667 450.71 34.8 449.843 37C448.976 39.2 447.71 41 446.043 42.4C444.443 43.8 442.476 44.7 440.143 45.1V45.6C442.543 46.0667 444.71 46.9 446.643 48.1C448.576 49.3 450.11 51.0333 451.243 53.3C452.376 55.5667 452.943 58.5667 452.943 62.3C452.943 66.6333 451.876 70.3667 449.743 73.5C447.676 76.5667 444.676 78.9333 440.743 80.6C436.81 82.2 432.143 83 426.743 83H400.043V11.6H422.243ZM423.943 39.9C428.343 39.9 431.376 39.2 433.043 37.8C434.776 36.4 435.643 34.3667 435.643 31.7C435.643 28.9667 434.643 27 432.643 25.8C430.643 24.6 427.476 24 423.143 24H415.143V39.9H423.943ZM415.143 51.9V70.5H425.043C429.576 70.5 432.743 69.6333 434.543 67.9C436.343 66.1 437.243 63.7333 437.243 60.8C437.243 59 436.843 57.4333 436.043 56.1C435.31 54.7667 434.01 53.7333 432.143 53C430.276 52.2667 427.743 51.9 424.543 51.9H415.143ZM494.73 83H479.63V24.2H460.23V11.6H514.13V24.2H494.73V83ZM587.988 47.2C587.988 52.7333 587.288 57.7667 585.888 62.3C584.554 66.7667 582.488 70.6333 579.688 73.9C576.954 77.1667 573.421 79.6667 569.088 81.4C564.821 83.1333 559.788 84 553.988 84C548.188 84 543.121 83.1333 538.788 81.4C534.521 79.6 530.988 77.1 528.188 73.9C525.454 70.6333 523.388 66.7333 521.988 62.2C520.654 57.6667 519.988 52.6333 519.988 47.1C519.988 39.7 521.188 33.2667 523.588 27.8C526.054 22.3333 529.788 18.1 534.788 15.1C539.854 12.0333 546.288 10.5 554.088 10.5C561.821 10.5 568.188 12.0333 573.188 15.1C578.188 18.1 581.888 22.3667 584.288 27.9C586.754 33.3667 587.988 39.8 587.988 47.2ZM535.888 47.2C535.888 52.2 536.521 56.5 537.788 60.1C539.054 63.7 541.021 66.4667 543.688 68.4C546.354 70.3333 549.788 71.3 553.988 71.3C558.321 71.3 561.788 70.3333 564.388 68.4C567.054 66.4667 568.988 63.7 570.188 60.1C571.454 56.5 572.088 52.2 572.088 47.2C572.088 39.6667 570.688 33.7667 567.888 29.5C565.088 25.2333 560.488 23.1 554.088 23.1C549.821 23.1 546.354 24.0667 543.688 26C541.021 27.9333 539.054 30.7 537.788 34.3C536.521 37.9 535.888 42.2 535.888 47.2Z" fill="#262626"/>
<path d="M380.3 128.3C380.3 133.1 378.6 136.967 375.2 139.9C371.8 142.833 367.467 144.667 362.2 145.4V145.7C368.733 146.367 373.733 148.2 377.2 151.2C380.733 154.133 382.5 157.967 382.5 162.7C382.5 166.833 381.367 170.533 379.1 173.8C376.833 177 373.467 179.5 369 181.3C364.533 183.1 359 184 352.4 184C347 184 342.2 183.667 338 183C333.867 182.333 330.267 181.367 327.2 180.1V167.4C329.267 168.4 331.6 169.267 334.2 170C336.8 170.667 339.433 171.2 342.1 171.6C344.767 171.933 347.233 172.1 349.5 172.1C355.833 172.1 360.4 171.2 363.2 169.4C366.067 167.533 367.5 164.933 367.5 161.6C367.5 158.2 365.433 155.733 361.3 154.2C357.167 152.6 351.6 151.8 344.6 151.8H337.9V140H343.9C349.567 140 353.967 139.633 357.1 138.9C360.233 138.167 362.433 137.1 363.7 135.7C364.967 134.3 365.6 132.633 365.6 130.7C365.6 128.233 364.5 126.3 362.3 124.9C360.167 123.433 356.933 122.7 352.6 122.7C348.933 122.7 345.467 123.233 342.2 124.3C339 125.367 336 126.767 333.2 128.5L326.6 118.4C329.067 116.8 331.667 115.433 334.4 114.3C337.2 113.1 340.267 112.2 343.6 111.6C346.933 110.933 350.633 110.6 354.7 110.6C360.1 110.6 364.7 111.367 368.5 112.9C372.3 114.433 375.2 116.533 377.2 119.2C379.267 121.8 380.3 124.833 380.3 128.3ZM439.544 183L434.344 166H408.344L403.144 183H386.844L412.044 111.3H430.544L455.844 183H439.544ZM425.544 136.7C425.21 135.567 424.777 134.133 424.244 132.4C423.71 130.667 423.177 128.9 422.644 127.1C422.11 125.3 421.677 123.733 421.344 122.4C421.01 123.733 420.544 125.4 419.944 127.4C419.41 129.333 418.877 131.2 418.344 133C417.877 134.733 417.51 135.967 417.244 136.7L412.144 153.3H430.744L425.544 136.7ZM565.287 171V203.8H550.687V183H464.887V111.6H479.987V170.4H502.187V111.6H517.387V170.4H539.587V111.6H554.687V171H565.287ZM576.313 111.6H589.913V146.1C589.913 147.767 589.879 149.633 589.813 151.7C589.746 153.767 589.679 155.8 589.613 157.8C589.546 159.733 589.479 161.433 589.413 162.9C589.346 164.3 589.279 165.267 589.213 165.8H589.513L622.513 111.6H640.613V183H627.113V148.7C627.113 146.9 627.146 144.933 627.213 142.8C627.279 140.6 627.346 138.5 627.413 136.5C627.546 134.5 627.646 132.767 627.713 131.3C627.846 129.767 627.946 128.767 628.013 128.3H627.613L594.513 183H576.313V111.6ZM686.137 183H671.037V124.2H651.637V111.6H705.537V124.2H686.137V183ZM753.216 183L748.016 166H722.016L716.816 183H700.516L725.716 111.3H744.216L769.516 183H753.216ZM739.216 136.7C738.882 135.567 738.449 134.133 737.916 132.4C737.382 130.667 736.849 128.9 736.316 127.1C735.782 125.3 735.349 123.733 735.016 122.4C734.682 123.733 734.216 125.4 733.616 127.4C733.082 129.333 732.549 131.2 732.016 133C731.549 134.733 731.182 135.967 730.916 136.7L725.816 153.3H744.416L739.216 136.7Z" fill="#1924B1"/>
</svg>
