<svg width="14" height="13" viewBox="0 0 14 13" fill="none" xmlns="http://www.w3.org/2000/svg">
<path d="M5.7571 1C4.86536 1 3.99365 1.26572 3.25219 1.76355C2.51074 2.26138 1.93284 2.96897 1.59159 3.79684C1.25034 4.62471 1.16105 5.53567 1.33502 6.41452C1.50899 7.29338 1.9384 8.10067 2.56896 8.73429C3.19951 9.36791 4.00289 9.79941 4.8775 9.97423C5.7521 10.149 6.65865 10.0593 7.48251 9.71641C8.30637 9.37349 9.01054 8.79279 9.50597 8.04773C10.0014 7.30267 10.2658 6.42672 10.2658 5.53064C10.2658 4.93567 10.1492 4.34652 9.92262 3.79684C9.69603 3.24716 9.36392 2.7477 8.94525 2.32699C8.52657 1.90629 8.02954 1.57256 7.48251 1.34487C6.93549 1.11719 6.3492 1 5.7571 1V1Z" stroke="#818698" stroke-width="1.5" stroke-miterlimit="10"/>
<path d="M8.99017 8.77984L12.269 12.0746" stroke="#818698" stroke-width="1.5" stroke-miterlimit="10" stroke-linecap="round"/>
</svg>
