<svg width="15" height="15" viewBox="0 0 15 15" fill="none" xmlns="http://www.w3.org/2000/svg">
<path d="M7.71295 0.146866C3.84288 0.146866 0.746826 3.24292 0.746826 7.11299V12.5311C0.746826 13.1469 0.991469 13.7376 1.42694 14.173C1.8624 14.6085 2.45302 14.8531 3.06887 14.8531H5.39091V8.66102H2.29485V7.11299C2.29485 5.67602 2.86569 4.29791 3.88178 3.28182C4.89787 2.26573 6.27598 1.69489 7.71295 1.69489C9.14992 1.69489 10.528 2.26573 11.5441 3.28182C12.5602 4.29791 13.1311 5.67602 13.1311 7.11299V8.66102H10.035V14.8531H12.357C12.9729 14.8531 13.5635 14.6085 13.999 14.173C14.4344 13.7376 14.6791 13.1469 14.6791 12.5311V7.11299C14.6791 3.24292 11.5598 0.146866 7.71295 0.146866Z" fill="#262626"/>
</svg>
