<svg width="27" height="22" viewBox="0 0 27 22" fill="none" xmlns="http://www.w3.org/2000/svg">
<path d="M2.38889 19.5733L9.33333 11.0018M24.6111 19.5733L17.6667 11.0018M1 5.28755L11.0347 12.1684C11.9257 12.7794 12.3711 13.085 12.8526 13.2036C13.2782 13.3086 13.7218 13.3086 14.1474 13.2036C14.6289 13.085 15.0743 12.7794 15.9653 12.1684L26 5.28755M5.44444 21.0018H21.5556C23.1112 21.0018 23.8892 21.0018 24.4833 20.6904C25.006 20.4166 25.431 19.9794 25.6972 19.4418C26 18.8307 26 18.0306 26 16.4304V5.57326C26 3.97312 26 3.17303 25.6972 2.56186C25.431 2.02425 25.006 1.58716 24.4833 1.31325C23.8892 1.00183 23.1112 1.00183 21.5556 1.00183H5.44444C3.88875 1.00183 3.11089 1.00183 2.51669 1.31325C1.99401 1.58716 1.56907 2.02425 1.30276 2.56186C1 3.17303 1 3.9731 1 5.57326V16.4304C1 18.0306 1 18.8307 1.30276 19.4418C1.56907 19.9794 1.99401 20.4166 2.51669 20.6904C3.11089 21.0018 3.88874 21.0018 5.44444 21.0018Z" stroke="#1924B1" stroke-width="2" stroke-linecap="round" stroke-linejoin="round"/>
</svg>
