<svg width="22" height="22" viewBox="0 0 22 22" fill="none" xmlns="http://www.w3.org/2000/svg">
<path d="M1 3.77986C1 13.2914 8.71067 21.0021 18.2222 21.0021C18.6514 21.0021 19.0768 20.9864 19.4981 20.9555C19.9815 20.9201 20.2233 20.9024 20.4433 20.7758C20.6255 20.6709 20.7984 20.4849 20.8897 20.2954C21 20.0668 21 19.8 21 19.2665V16.1362C21 15.6875 21 15.4632 20.9262 15.271C20.8609 15.1011 20.755 14.9499 20.6177 14.8305C20.4622 14.6954 20.2514 14.6188 19.8298 14.4654L16.2666 13.1698C15.7761 12.9914 15.5308 12.9022 15.2981 12.9173C15.0929 12.9306 14.8955 13.0008 14.7277 13.1196C14.5375 13.2544 14.4032 13.4782 14.1346 13.9259L13.2222 15.4465C10.2779 14.1131 7.891 11.7231 6.55556 8.77986L8.07622 7.86744C8.52389 7.59889 8.74767 7.46461 8.88244 7.27437C9.00133 7.10661 9.07144 6.90916 9.08478 6.70397C9.09989 6.47127 9.01067 6.226 8.83233 5.73547L7.53667 2.17231C7.38333 1.7507 7.30667 1.53989 7.17156 1.38441C7.05222 1.24706 6.901 1.14113 6.73111 1.07591C6.53889 1.00208 6.31455 1.00208 5.86589 1.00208H2.73556C2.20211 1.00208 1.93533 1.00208 1.70667 1.11235C1.51722 1.2037 1.33122 1.37653 1.22633 1.55878C1.09967 1.77882 1.082 2.02054 1.04655 2.504C1.01567 2.92525 1 3.35072 1 3.77986Z" stroke="#1924B1" stroke-width="2" stroke-linecap="round" stroke-linejoin="round"/>
</svg>
