<svg width="161" height="158" viewBox="0 0 161 158" fill="none" xmlns="http://www.w3.org/2000/svg">
<path d="M81.7544 136.5C115.476 136.5 142.813 135.666 142.813 134.638C142.813 133.61 115.476 132.776 81.7544 132.776C48.0326 132.776 20.6958 133.61 20.6958 134.638C20.6958 135.666 48.0326 136.5 81.7544 136.5Z" fill="#F5F8FF"/>
<path d="M90.0979 133.885H48.6411C45.2786 133.885 43.0148 131.06 43.585 127.575L60.2816 25.5235C60.8517 22.0384 64.0401 19.2133 67.4026 19.2133H108.859C112.222 19.2133 114.486 22.0384 113.916 25.5235L97.219 127.575C96.6488 131.06 93.4605 133.885 90.0979 133.885Z" fill="#5CA4E6"/>
<path d="M84.92 133.885H43.4632C40.1006 133.885 37.8368 131.06 38.407 127.575L55.1036 25.5235C55.6738 22.0384 58.8619 19.2133 62.2247 19.2133H103.681C107.044 19.2133 109.308 22.0384 108.738 25.5235L92.041 127.575C91.4708 131.06 88.2825 133.885 84.92 133.885Z" fill="#D1E8F7"/>
<path d="M85.1583 130.473H44.3413C42.5952 130.473 41.4198 129.006 41.7159 127.196L58.2889 25.9015C58.585 24.0919 60.2404 22.625 61.9864 22.625H102.803C104.549 22.625 105.725 24.0919 105.429 25.9015L88.8558 127.196C88.5598 129.006 86.9044 130.473 85.1583 130.473Z" fill="white"/>
<path d="M89.0217 56.7546H49.9938L54.0614 33.4658C54.3279 32.0458 55.6547 30.8947 57.0247 30.8947H93.8747C95.2448 30.8947 96.1394 32.0458 95.8729 33.4658L91.9849 54.1837C91.7184 55.6035 90.3918 56.7546 89.0217 56.7546Z" fill="url(#paint0_linear_54_6)"/>
<path d="M85.876 53.758H27.4489C26.0789 53.758 25.1841 52.6069 25.4506 51.1869L29.3386 30.4689C29.6051 29.0489 30.9317 27.8978 32.3019 27.8978H90.729C92.099 27.8978 92.9938 29.0489 92.7273 30.4689L88.8393 51.1869C88.5728 52.6069 87.246 53.758 85.876 53.758Z" fill="#DBA7A7"/>
<path d="M82.1483 127.832L45.9105 128.01C44.5403 128.01 43.6457 126.859 43.9122 125.439L47.8002 104.721C48.0667 103.301 49.3933 102.15 50.7635 102.15L87.0013 101.972C88.3715 101.972 89.2661 103.123 88.9996 104.543L85.1116 125.261C84.8451 126.681 83.5185 127.832 82.1483 127.832Z" fill="#DBA7A7"/>
<path d="M49.8961 121.558C50.9271 113.2 58.5899 106.424 67.0114 106.424C75.433 106.424 81.4241 113.2 80.393 121.558" stroke="#F5BBBB" stroke-miterlimit="10" stroke-linecap="round"/>
<path d="M49.8961 121.558C50.9271 113.2 58.5899 106.424 67.0114 106.424C71.1795 106.424 74.7524 108.084 77.173 110.774" stroke="white" stroke-miterlimit="10" stroke-linecap="round"/>
<path d="M77.8149 99.0429H51.8676C50.4827 99.0429 49.5466 97.8793 49.777 96.444L55.2569 62.2828C55.4871 60.8475 56.7965 59.6841 58.1815 59.6841H84.1285C85.5135 59.6841 86.4496 60.8475 86.2194 62.2828L80.7393 96.444C80.5091 97.8793 79.1998 99.0429 77.8149 99.0429Z" fill="url(#paint1_linear_54_6)"/>
<path d="M59.8577 77.7486H56.32C56.1254 77.7556 55.9387 77.8308 55.7909 77.962C55.6431 78.0935 55.5429 78.2732 55.5067 78.4715L53.5853 90.4492C53.5666 90.5378 53.5678 90.6298 53.5886 90.7179C53.6096 90.806 53.6495 90.888 53.7056 90.9577C53.7617 91.0274 53.8324 91.0831 53.9122 91.1202C53.9922 91.1573 54.0793 91.1749 54.1667 91.1719H57.7044C57.8992 91.1651 58.0857 91.0899 58.2334 90.9585C58.3814 90.827 58.4815 90.6475 58.5178 90.4492L60.4392 78.4715C60.4578 78.3828 60.4566 78.2908 60.4358 78.2028C60.4149 78.1145 60.3749 78.0325 60.3188 77.9628C60.2629 77.893 60.1922 77.8376 60.1121 77.8005C60.0323 77.7634 59.9453 77.7456 59.8577 77.7486Z" fill="white"/>
<path d="M66.3125 81.847H62.7747C62.58 81.8538 62.3935 81.929 62.2457 82.0604C62.0977 82.1918 61.9976 82.3714 61.9613 82.5697L60.6973 90.4493C60.6787 90.538 60.6799 90.63 60.7008 90.7181C60.7216 90.8061 60.7617 90.8881 60.8177 90.9579C60.8738 91.0276 60.9444 91.0832 61.0244 91.1203C61.1042 91.1574 61.1912 91.175 61.2788 91.172H64.8165C65.0111 91.1652 65.1978 91.09 65.3456 90.9586C65.4934 90.8272 65.5937 90.6476 65.6298 90.4493L66.8938 82.5697C66.9125 82.481 66.9113 82.389 66.8905 82.301C66.8695 82.2129 66.8296 82.1309 66.7735 82.0612C66.7175 81.9914 66.6467 81.9358 66.5669 81.8987C66.4869 81.8616 66.3999 81.844 66.3125 81.847Z" fill="white"/>
<path d="M74.8569 70.3163H71.3192C71.1246 70.323 70.9381 70.3983 70.7902 70.5297C70.6424 70.6611 70.5421 70.8406 70.506 71.0389L67.3923 90.4492C67.3737 90.5378 67.3748 90.6298 67.3958 90.7179C67.4166 90.806 67.4565 90.888 67.5126 90.9577C67.5687 91.0274 67.6394 91.083 67.7192 91.1201C67.7992 91.1572 67.8863 91.1749 67.9737 91.1718H71.5114C71.7061 91.1651 71.8926 91.0898 72.0404 90.9584C72.1884 90.827 72.2885 90.6474 72.3248 90.4492L75.4384 71.0389C75.457 70.9503 75.4558 70.8583 75.435 70.7702C75.4142 70.6821 75.3743 70.6001 75.3182 70.5304C75.2621 70.4607 75.1914 70.405 75.1114 70.368C75.0316 70.3309 74.9445 70.3132 74.8569 70.3163Z" fill="white"/>
<path d="M80.9449 75.3477H77.4072C77.2126 75.3545 77.0259 75.4298 76.8781 75.5612C76.7304 75.6926 76.63 75.8721 76.5939 76.0704L74.2873 90.4492C74.2688 90.5378 74.2698 90.6298 74.2908 90.7179C74.3116 90.806 74.3515 90.888 74.4076 90.9577C74.4637 91.0274 74.5344 91.083 74.6142 91.1201C74.6942 91.1572 74.7813 91.1749 74.8687 91.1718H78.4064C78.6012 91.1651 78.7876 91.0898 78.9356 90.9584C79.0834 90.827 79.1837 90.6474 79.2198 90.4492L81.5264 76.0704C81.545 75.9818 81.5438 75.8898 81.523 75.8017C81.5021 75.7136 81.4621 75.6316 81.406 75.5619C81.3499 75.4922 81.2793 75.4365 81.1993 75.3995C81.1195 75.3624 81.0325 75.3447 80.9449 75.3477Z" fill="white"/>
<path d="M57.8464 63.8865H67.4247" stroke="white" stroke-miterlimit="10" stroke-linecap="round"/>
<path d="M57.3056 67.2571H62.0948" stroke="white" stroke-miterlimit="10" stroke-linecap="round"/>
<path opacity="0.6" d="M54.6178 93.6128H56.4704" stroke="white" stroke-miterlimit="10" stroke-linecap="round"/>
<path opacity="0.6" d="M61.7299 93.6128H63.5822" stroke="white" stroke-miterlimit="10" stroke-linecap="round"/>
<path opacity="0.6" d="M68.4248 93.6128H70.2774" stroke="white" stroke-miterlimit="10" stroke-linecap="round"/>
<path opacity="0.6" d="M75.3198 93.6128H77.1723" stroke="white" stroke-miterlimit="10" stroke-linecap="round"/>
<path d="M111.85 99.0429H85.9032C84.5183 99.0429 83.5822 97.8793 83.8124 96.444L89.2925 62.2828C89.5227 60.8475 90.8319 59.6841 92.2169 59.6841H118.164C119.549 59.6841 120.485 60.8475 120.255 62.2828L114.775 96.444C114.545 97.8793 113.235 99.0429 111.85 99.0429Z" fill="url(#paint2_linear_54_6)"/>
<path d="M93.2211 82.8985H89.6833C89.4888 82.9053 89.3021 82.9805 89.1543 83.1119C89.0065 83.2434 88.9062 83.4229 88.8701 83.6212L87.6207 90.4492C87.6021 90.5379 87.6033 90.6299 87.6242 90.7179C87.645 90.806 87.6851 90.888 87.7411 90.9578C87.7972 91.0275 87.8678 91.0831 87.9478 91.1202C88.0276 91.1573 88.1146 91.1749 88.2022 91.1719H91.7399C91.9345 91.1651 92.1212 91.0899 92.269 90.9585C92.4168 90.8271 92.5171 90.6475 92.5532 90.4492L93.8026 83.6212C93.8212 83.5326 93.8199 83.4406 93.7991 83.3525C93.7783 83.2644 93.7382 83.1824 93.6821 83.1127C93.6261 83.0429 93.5555 82.9873 93.4755 82.9502C93.3957 82.9131 93.3086 82.8955 93.2211 82.8985Z" fill="white"/>
<path d="M101.684 72.3253H98.1461C97.9515 72.3321 97.765 72.4073 97.6171 72.5387C97.4693 72.6701 97.369 72.8497 97.3329 73.0479L94.7328 90.4491C94.7142 90.5377 94.7154 90.6297 94.7362 90.7178C94.757 90.8059 94.7969 90.8879 94.853 90.9576C94.9091 91.0273 94.9798 91.083 95.0598 91.1201C95.1397 91.1571 95.2267 91.1748 95.3143 91.1718H98.852C99.0466 91.165 99.2331 91.0897 99.381 90.9583C99.5288 90.8269 99.6291 90.6474 99.6653 90.4491L102.265 73.0479C102.284 72.9593 102.283 72.8673 102.262 72.7792C102.241 72.6912 102.201 72.6091 102.145 72.5394C102.089 72.4697 102.018 72.4141 101.938 72.377C101.858 72.3399 101.771 72.3223 101.684 72.3253Z" fill="white"/>
<path d="M107.722 77.2938H104.184C103.99 77.3006 103.803 77.3758 103.655 77.5072C103.507 77.6386 103.407 77.8182 103.371 78.0164L101.428 90.4492C101.409 90.5379 101.41 90.6299 101.431 90.7179C101.452 90.806 101.492 90.888 101.548 90.9578C101.604 91.0275 101.675 91.0831 101.755 91.1202C101.835 91.1573 101.922 91.1749 102.009 91.1719H105.547C105.741 91.1651 105.928 91.0899 106.076 90.9585C106.224 90.8271 106.324 90.6475 106.36 90.4492L108.303 78.0164C108.322 77.9278 108.321 77.8358 108.3 77.7477C108.279 77.6597 108.239 77.5776 108.183 77.5079C108.127 77.4382 108.056 77.3826 107.976 77.3455C107.896 77.3084 107.809 77.2908 107.722 77.2938Z" fill="white"/>
<path d="M114.98 75.3477H111.443C111.248 75.3545 111.061 75.4298 110.914 75.5612C110.766 75.6926 110.666 75.8721 110.629 76.0704L108.323 90.4492C108.304 90.5378 108.305 90.6298 108.326 90.7179C108.347 90.806 108.387 90.888 108.443 90.9577C108.499 91.0274 108.57 91.083 108.65 91.1201C108.73 91.1572 108.817 91.1749 108.904 91.1718H112.442C112.637 91.1651 112.823 91.0898 112.971 90.9584C113.119 90.827 113.219 90.6474 113.255 90.4492L115.562 76.0704C115.58 75.9818 115.579 75.8898 115.559 75.8017C115.538 75.7136 115.498 75.6316 115.442 75.5619C115.385 75.4922 115.315 75.4365 115.235 75.3995C115.155 75.3624 115.068 75.3447 114.98 75.3477Z" fill="white"/>
<path d="M91.8819 63.8865H101.46" stroke="white" stroke-miterlimit="10" stroke-linecap="round"/>
<path d="M91.3411 67.2571H96.1303" stroke="white" stroke-miterlimit="10" stroke-linecap="round"/>
<path opacity="0.6" d="M88.6533 93.6128H90.5057" stroke="white" stroke-miterlimit="10" stroke-linecap="round"/>
<path opacity="0.6" d="M95.7654 93.6128H97.6178" stroke="white" stroke-miterlimit="10" stroke-linecap="round"/>
<path opacity="0.6" d="M102.46 93.6128H104.313" stroke="white" stroke-miterlimit="10" stroke-linecap="round"/>
<path opacity="0.6" d="M109.355 93.6128H111.208" stroke="white" stroke-miterlimit="10" stroke-linecap="round"/>
<path d="M1.71287 137.435L9.08081 153.409L8.16708 153.862C7.85861 154.015 7.50437 154.034 7.18213 153.916C6.8599 153.798 6.59598 153.552 6.44871 153.233L0.192007 139.669C0.0447382 139.349 0.0258147 138.982 0.139535 138.648C0.253428 138.314 0.490505 138.04 0.798979 137.888L1.71287 137.435Z" fill="#71C8EA"/>
<path d="M9.73439 133.828L4.64948 136.006L7.50213 140.187L12.01 138.761L9.73439 133.828Z" fill="#A74602"/>
<path d="M6.48637 136.173C6.48637 136.173 8.47158 139.351 8.77111 141.126C9.07064 142.902 10.0962 151.884 9.82023 152.693C9.62186 153.275 8.90135 153.525 8.44423 153.578C8.34393 153.589 8.24276 153.567 8.15485 153.516C8.06693 153.465 7.9964 153.387 7.95339 153.292L1.2652 138.792C1.15337 138.55 1.13771 138.272 1.22133 138.019C1.30511 137.765 1.48146 137.555 1.71285 137.435C2.6381 136.953 4.05351 136.231 4.64946 136.006C5.57058 135.659 6.17859 135.661 6.48637 136.173Z" fill="#1924B1"/>
<path d="M42.4826 143.775L35.5728 156.994C35.4099 157.306 35.1344 157.537 34.8068 157.638C34.4793 157.739 34.1264 157.701 33.8258 157.532L32.9352 157.032L41.0728 141.465L41.9633 141.965C42.2639 142.133 42.4874 142.419 42.5848 142.758C42.6821 143.098 42.6455 143.464 42.4826 143.775Z" fill="#71C8EA"/>
<path d="M33.2372 137.442L38.2094 139.884L35.1565 143.91L30.7238 142.25L33.2372 137.442Z" fill="#A74602"/>
<path d="M36.3667 139.955C36.3667 139.955 34.2291 143.024 33.8434 144.782C33.4578 146.54 31.9956 155.456 32.2317 156.279C32.4013 156.871 33.1088 157.158 33.5628 157.235C33.6624 157.251 33.7644 157.235 33.8547 157.188C33.9451 157.142 34.0192 157.067 34.0669 156.975L41.4537 142.844C41.5771 142.608 41.6063 142.331 41.5351 142.074C41.4639 141.816 41.2979 141.597 41.0728 141.465C40.1722 140.935 38.7936 140.14 38.2095 139.884C37.3064 139.489 36.6991 139.459 36.3667 139.955Z" fill="#1924B1"/>
<path d="M48.2169 118.611C48.2169 118.611 50.1204 128.407 48.6432 130.327L11.0027 140.316L7.79288 134.085L29.7733 123.748L34.1754 117.495L48.2169 118.611Z" fill="#D1E8F7"/>
<path d="M38.6918 125.601L30.387 128.48L26.5117 130.164L31.5512 134.863L27.0457 135.918L14.7565 125.601H38.6918Z" fill="#5CA4E6"/>
<path d="M10.1514 133.268L10.4069 134.188L16.2426 138.908L21.7244 137.522C21.7244 137.522 11.1495 132.306 10.1514 133.268Z" fill="#5CA4E6"/>
<path d="M20.716 118.039C20.716 118.039 10.0725 117.441 4.79694 117.922C1.39994 118.231 0.175341 127.24 2.88623 128.879L31.9798 144.318L35.4083 137.897L16.6402 124.731L30.0674 122.774L20.716 118.039Z" fill="#D1E8F7"/>
<path d="M5.69154 129.646C8.83477 129.646 11.3829 127.006 11.3829 123.748C11.3829 120.49 8.83477 117.849 5.69154 117.849C2.54814 117.849 0 120.49 0 123.748C0 127.006 2.54814 129.646 5.69154 129.646Z" fill="#D1E8F7"/>
<path d="M47.6976 130.408C50.8409 130.408 53.389 127.767 53.389 124.51C53.389 121.252 50.8409 118.611 47.6976 118.611C44.5542 118.611 42.0061 121.252 42.0061 124.51C42.0061 127.767 44.5542 130.408 47.6976 130.408Z" fill="#D1E8F7"/>
<path d="M32.1068 96.6754C31.5072 93.6077 32.9173 93.6867 33.3866 93.199C33.3866 93.199 35.1469 91.6945 36.4884 93.0969C37.9082 94.5803 46.0474 106.104 46.0474 106.104L40.9548 110.958L39.9975 109.774L37.5179 106.709L34.8657 103.434L34.5362 103.061L30.9584 98.861C30.9584 98.861 32.4459 98.2904 32.1068 96.6754Z" fill="#1924B1"/>
<path d="M34.931 99.7561C36.9807 99.0447 38.0856 96.7461 37.3991 94.6218C36.7127 92.4977 34.4947 91.3524 32.445 92.0639C30.3954 92.7755 29.2904 95.0741 29.977 97.1982C30.6635 99.3223 32.8815 100.468 34.931 99.7561Z" fill="#1924B1"/>
<path d="M34.5831 103.045C34.4804 102.403 34.275 101.121 34.0539 99.9523L32.879 94.2957C32.879 94.2957 36.0346 99.1294 37.4886 102.496C38.5652 105.019 39.8143 107.591 40.0209 109.766L37.5414 106.702L34.8892 103.426L34.5831 103.045Z" fill="#465393"/>
<path d="M51.1342 93.1307C52.3444 90.843 51.7629 90.4547 52.2776 89.1533C52.7848 87.8832 51.8843 84.735 52.7464 85.1643C53.6084 85.5935 53.8752 86.7344 53.8752 86.7344C54.4648 85.6534 55.0078 83.6646 56.419 83.4369C57.8307 83.2094 57.9556 83.6698 58.7556 84.3502C60.8839 86.1854 58.1699 88.9436 57.7169 89.9938C57.4255 90.6523 55.2841 92.6594 55.0468 93.098L53.969 94.7184L51.1342 93.1307Z" fill="#A74602"/>
<path d="M55.2924 86.8759L57.0123 83.585" stroke="#E56441" stroke-linecap="round"/>
<path d="M56.4193 87.409L58.2938 84.344" stroke="#E56441" stroke-linecap="round"/>
<path d="M57.7581 87.998L58.8294 86.1418" stroke="#E56441" stroke-linecap="round"/>
<path d="M54.8674 89.773C54.8583 88.6334 54.1985 87.2546 54.1985 87.2546L54.8674 89.773Z" fill="#E56441"/>
<path d="M54.8674 89.773C54.8583 88.6334 54.1985 87.2546 54.1985 87.2546" stroke="#E56441" stroke-linecap="round"/>
<path d="M40.9116 106.012L51.2674 91.7199C51.3333 91.6359 51.4271 91.5803 51.5303 91.5635C51.6335 91.5469 51.7392 91.5705 51.8266 91.6297L54.5383 93.4883C54.6672 93.5787 54.7589 93.7156 54.7959 93.8724C54.8329 94.0291 54.8122 94.1944 54.7381 94.3363L46.4101 110.253L40.9116 106.012Z" fill="#1924B1"/>
<path d="M43.4277 112.049C45.3431 112.049 46.8958 110.44 46.8958 108.455C46.8958 106.47 45.3431 104.861 43.4277 104.861C41.5125 104.861 39.9598 106.47 39.9598 108.455C39.9598 110.44 41.5125 112.049 43.4277 112.049Z" fill="#1924B1"/>
<path d="M28.0494 90.0398C28.0494 90.0398 33.8609 91.6336 34.8584 92.0471C35.8561 92.4608 35.9225 94.1149 35.989 95.2867C36.0555 96.4585 35.8321 122.774 35.8321 122.774L22.9709 122.261L13.3526 116.426C13.3526 116.426 13.7708 95.5459 13.9038 94.581C14.0368 93.616 12.9917 92.7851 14.1246 92.2992L21.4072 90.3055L28.0494 90.0398Z" fill="#1924B1"/>
<path d="M18.3715 99.4141L18.4751 118.857L12.9459 112.47L15.621 98.8091L18.3715 99.4141Z" fill="#465393"/>
<path d="M20.4587 90.6029C20.4587 90.6029 19.636 92.3176 20.4587 93.5005C21.2814 94.6833 24.575 95.8325 26.8252 95.7986C29.0752 95.7649 30.2674 93.5415 29.2474 90.4287L25.5208 89.3438L21.4072 90.3057L20.4587 90.6029Z" fill="#465393"/>
<path d="M29.7735 75.8245C29.7735 75.8245 31.3938 79.4481 29.6656 80.1966C27.9375 80.9451 28.1387 76.0003 29.7735 75.8245Z" fill="#A74602"/>
<path d="M27.9457 87.4195L28.4145 92.8977C28.4145 92.8977 28.8639 93.6321 27.1137 94.0178C25.9878 94.2658 22.9561 93.0278 22.3679 92.6564C22.1177 92.5188 21.9218 92.2952 21.8137 92.024C21.7057 91.7526 21.6923 91.4509 21.7757 91.1705C21.9545 90.5001 22.6953 84.9153 22.6953 84.9153L27.9457 87.4195Z" fill="#A74602"/>
<path d="M28.0361 88.4757L25.2435 87.0459L28.3568 92.2223L28.0361 88.4757Z" fill="#F5BBBB"/>
<path d="M28.843 76.873C28.843 76.873 30.4818 81.1328 31.0763 84.1209C31.676 87.1358 30.7191 87.8888 29.4565 88.3321C28.4605 88.6819 26.8701 88.9608 25.7883 88.6097C23.8155 87.9696 21.8855 86.1222 21.4239 85.7428C20.7093 85.1553 20.0037 82.4904 21.0511 80.9828C22.0987 79.4751 26.2258 74.7373 28.843 76.873Z" fill="#A74602"/>
<path d="M26.7329 82.7526C26.9509 82.6636 27.0215 82.3122 26.8905 81.9673C26.7596 81.6225 26.4769 81.4151 26.259 81.5039C26.041 81.5929 25.9704 81.9443 26.1012 82.2892C26.2321 82.634 26.515 82.8414 26.7329 82.7526Z" fill="#262626" fill-opacity="0.0352941"/>
<path d="M29.7286 81.5085C29.9465 81.4197 30.0171 81.0681 29.8862 80.7234C29.7554 80.3786 29.4726 80.1712 29.2546 80.26C29.0366 80.349 28.9661 80.7004 29.097 81.0453C29.2277 81.3899 29.5106 81.5975 29.7286 81.5085Z" fill="#262626" fill-opacity="0.0352941"/>
<path d="M28.6299 82.0967C28.6299 82.0967 28.3638 82.9315 28.9232 82.8502C29.455 82.7535 29.816 83.0258 29.3513 83.5851" fill="#E56441"/>
<path d="M28.6299 82.0967C28.6299 82.0967 28.3638 82.9315 28.9232 82.8502C29.455 82.7535 29.816 83.0258 29.3513 83.5851" stroke="#E56441" stroke-linecap="round"/>
<path d="M29.3773 84.3231L29.38 84.3225L29.3828 84.3216C29.3905 84.3191 29.3988 84.3189 29.4065 84.3209C29.4144 84.3227 29.4217 84.3268 29.4275 84.3327C29.4334 84.3386 29.4377 84.3459 29.4399 84.3539C29.442 84.3621 29.4421 84.3707 29.4401 84.3787L29.4383 84.3856L29.4377 84.3928C29.4034 84.7581 29.3157 84.9753 29.2092 85.0972C29.1063 85.2153 28.9773 85.2545 28.8309 85.2429C28.6807 85.231 28.5157 85.1653 28.3558 85.0753C28.1979 84.9863 28.0512 84.877 27.9378 84.7832C27.93 84.7758 27.9244 84.7665 27.9213 84.756C27.9178 84.7451 27.9175 84.7333 27.9202 84.7221C27.9228 84.711 27.9285 84.7007 27.9362 84.6927C27.9441 84.6845 27.954 84.6788 27.9648 84.6761L27.9656 84.6759C28.3982 84.5623 29.0506 84.4029 29.3773 84.3231Z" fill="#E56441" stroke="#E56441"/>
<path d="M24.8351 81.2931L24.8761 81.3527C24.9286 81.4448 25.0141 81.5119 25.114 81.539C25.2138 81.5661 25.3201 81.5511 25.4094 81.4974L26.9212 80.5321C26.9962 80.4886 27.0526 80.4173 27.0794 80.3326C27.1061 80.2479 27.1013 80.1559 27.0657 80.0748C27.0461 80.024 27.0165 79.9781 26.9784 79.9402C26.9406 79.9022 26.8954 79.8729 26.8456 79.8544C26.7961 79.8359 26.7433 79.8285 26.6906 79.8326C26.638 79.8369 26.5869 79.8526 26.5406 79.8788L24.9879 80.7846C24.9451 80.8071 24.907 80.8381 24.8759 80.8759C24.8449 80.9139 24.8215 80.9577 24.8074 81.0053C24.7932 81.0528 24.7882 81.1027 24.793 81.1521C24.7978 81.2015 24.8121 81.2494 24.8351 81.2931Z" fill="#262626" fill-opacity="0.0352941"/>
<path d="M30.0576 78.8176L28.2834 78.9879C28.231 78.9936 28.1802 79.0109 28.1346 79.0383C28.089 79.0658 28.0496 79.1031 28.019 79.1476C27.9884 79.192 27.9672 79.2427 27.9569 79.2963C27.9466 79.35 27.9473 79.4053 27.959 79.4584C27.9743 79.5461 28.0207 79.6248 28.0892 79.6786C28.1579 79.7326 28.2434 79.7578 28.329 79.7494L30.1021 79.6522C30.205 79.6437 30.3007 79.5934 30.3679 79.5123C30.4352 79.431 30.4687 79.3256 30.4612 79.2188L30.4624 79.1457C30.4574 79.0961 30.4428 79.0483 30.4195 79.0048C30.3963 78.9613 30.3648 78.9232 30.3271 78.8925C30.2893 78.8618 30.2459 78.8395 30.1997 78.8265C30.1534 78.8137 30.105 78.8107 30.0576 78.8176Z" fill="#262626" fill-opacity="0.0352941"/>
<path d="M26.8089 77.7228C26.8089 77.7228 25.9234 79.4691 24.3168 79.9869C22.7103 80.5049 23.5882 83.1327 23.5882 83.1327C23.5882 83.1327 22.4866 81.9969 21.2204 82.6363C19.954 83.2755 20.9152 85.7846 22.6647 85.8165L22.1888 88.6397C22.1888 88.6397 21.3028 87.4962 20.371 86.8843C19.439 86.2724 16.0916 83.8972 17.5703 80.7689C17.5703 80.7689 16.4133 76.3765 19.5865 74.099C22.7597 71.8218 25.5062 72.6812 25.5062 72.6812C25.5062 72.6812 26.2626 71.4375 28.0161 71.6914C29.7696 71.9455 30.1739 75.2223 29.5932 76.4075C29.0126 77.5927 28.0663 78.0964 26.8089 77.7228Z" fill="#FFC200"/>
<path d="M13.5887 95.2309C15.8203 93.1215 16.4792 94.4158 17.1242 94.5825C17.1242 94.5825 19.274 95.3747 18.8023 97.2881C18.3037 99.3127 12.9459 112.47 12.9459 112.47L6.3111 110.436L6.79935 108.977L8.0625 105.197L9.41166 101.156L9.55102 100.672L11.1896 95.3327C11.1896 95.3327 12.426 96.362 13.5887 95.2309Z" fill="#1924B1"/>
<path d="M18.0079 98.8814C19.4137 97.1795 19.2221 94.6191 17.5801 93.1622C15.9381 91.7053 13.4674 91.904 12.0618 93.6057C10.656 95.3074 10.8475 97.868 12.4897 99.3249C14.1316 100.782 16.6022 100.583 18.0079 98.8814Z" fill="#1924B1"/>
<path d="M12.2891 109.239L24.607 121.748C24.6788 121.827 24.7197 121.931 24.7221 122.039C24.7245 122.147 24.6882 122.252 24.6201 122.335L22.4876 124.878C22.3842 124.998 22.2413 125.075 22.0864 125.092C21.9318 125.11 21.7762 125.067 21.6503 124.972L7.51331 114.333L12.2891 109.239Z" fill="#1924B1"/>
<path d="M9.62306 115.098C11.5384 115.098 13.0911 113.489 13.0911 111.504C13.0911 109.519 11.5384 107.91 9.62306 107.91C7.70787 107.91 6.15518 109.519 6.15518 111.504C6.15518 113.489 7.70787 115.098 9.62306 115.098Z" fill="#1924B1"/>
<path d="M29.6634 106.829L22.9783 126.023H9.53687C9.53687 125.437 9.76155 124.875 10.1614 124.461C10.5614 124.046 11.1037 123.813 11.6692 123.813H21.3936L27.1662 106.829H29.6634Z" fill="white"/>
<path d="M29.6634 106.829H47.6976L40.723 126.023H22.9783L29.6634 106.829Z" fill="url(#paint3_linear_54_6)"/>
<path d="M54.8452 44.2309C54.8452 44.2309 57.8501 43.5749 58.8033 45.0894C59.7564 46.6039 60.7095 49.4491 62.8698 49.0802C65.0302 48.7113 66.6822 41.27 68.8425 41.336C71.0028 41.4018 70.0497 46.2748 72.4007 46.3406C74.7517 46.4064 74.1798 43.6407 76.0861 43.6407C77.9923 43.6407 77.3568 49.5673 79.8349 49.6331C82.313 49.6991 82.0587 41.9945 85.8075 42.1261" stroke="white" stroke-miterlimit="10" stroke-linecap="round"/>
<path d="M46.0734 43.2071C47.6037 39.3114 46.1303 35.0083 42.7825 33.5958C39.4347 32.1833 35.4803 34.1963 33.95 38.092C32.4197 41.9877 33.8931 46.2909 37.2408 47.7034C40.5886 49.1159 44.5432 47.1029 46.0734 43.2071Z" stroke="#F5BBBB" stroke-miterlimit="10" stroke-linecap="round"/>
<path d="M43.1289 46.9768C41.3625 48.1843 39.198 48.5291 37.2408 47.7034C33.8931 46.2909 32.4197 41.9877 33.95 38.092C35.4803 34.1963 39.4347 32.1833 42.7825 33.5958" stroke="white" stroke-miterlimit="10" stroke-linecap="round"/>
<path d="M57.1038 33.1444H70.3264" stroke="white" stroke-miterlimit="10" stroke-linecap="round"/>
<path opacity="0.6" d="M56.4772 36.9243H61.8569" stroke="white" stroke-miterlimit="10" stroke-linecap="round"/>
<path d="M157.21 127.096C157.172 127.1 157.155 127.122 157.175 127.14C157.158 127.161 157.158 127.161 157.163 127.201C157.083 127.473 157.026 127.751 156.993 128.034L160.255 130.751L160.616 130.33C160.616 130.33 159.412 128.787 158.961 128.338C158.767 128.14 158.593 127.959 158.419 127.779C158.268 127.616 158.132 127.432 158.001 127.286C157.819 127.027 157.291 127.127 157.286 127.087C157.265 127.07 157.21 127.096 157.21 127.096Z" fill="#233B62"/>
<path d="M132.544 103.487L135.694 106.65L153.306 124.277L153.628 124.581L153.767 124.805L153.788 124.823L156.283 128.74L156.561 129.188L156.654 129.337L158.342 132.006L156.952 132.723L156.549 132.928L155.981 133.212L155.085 133.693L155.07 133.715L154.118 134.222L154.072 134.147L151.904 129.853C151.484 129.024 150.894 128.299 150.177 127.729L131.025 112.535L127.385 109.647L132.544 103.487Z" fill="#A74602"/>
<path d="M156.042 124.968C155.197 124.562 154.249 124.198 153.323 124.255C153.881 124.762 154.135 125.664 154.505 126.321C155.264 127.674 157.21 130.189 156.215 132.326C155.656 133.527 154.094 134.165 154.072 134.147C153.81 135.38 152.515 140.4 155.099 137.49C156.542 135.865 157.974 134.129 158.693 132.406C158.989 131.7 158.364 130.995 158.058 130.399C157.666 129.496 157.081 128.301 157.155 127.302L157.17 127.28C157.213 127.211 160.56 130.315 160.616 130.33C160.732 130.137 161 129.747 161 129.747C161 129.747 156.202 125.03 156.042 124.968Z" fill="#1C85E8"/>
<path d="M120.004 141.389C119.974 141.364 119.947 141.368 119.95 141.396C119.923 141.399 119.923 141.399 119.899 141.43C119.659 141.567 119.43 141.725 119.216 141.903L119.715 146.209L120.257 146.17C120.257 146.17 120.438 144.194 120.417 143.546C120.412 143.263 120.41 143.009 120.408 142.754C120.409 142.528 120.437 142.298 120.441 142.099C120.486 141.782 120.04 141.47 120.064 141.438C120.061 141.41 120.004 141.389 120.004 141.389Z" fill="#233B62"/>
<path d="M118.303 106.637L118.419 111.181L119.115 136.545L119.14 136.995L119.088 137.256L119.092 137.284L118.232 141.893L118.128 142.415L118.094 142.589L117.5 145.721L116.022 145.225L115.596 145.08L114.998 144.871L114.034 144.566L114.007 144.569L112.986 144.244L113.003 144.156L114.351 139.516C114.61 138.618 114.677 137.673 114.549 136.745L111.112 112.004L110.458 107.301L118.303 106.637Z" fill="#A74602"/>
<path d="M120.604 139.021C120.275 138.119 119.842 137.173 119.142 136.542C119.199 137.309 118.773 138.138 118.593 138.875C118.222 140.393 117.917 143.601 115.764 144.408C114.554 144.861 113.006 144.184 113.003 144.156C111.984 144.848 107.67 147.497 111.481 147.29C113.609 147.174 115.804 146.971 117.481 146.261C118.169 145.97 118.198 145.014 118.381 144.365C118.71 143.436 119.098 142.157 119.825 141.496L119.852 141.493C119.929 141.474 120.226 146.119 120.257 146.17C120.469 146.116 120.923 146.031 120.923 146.031C120.923 146.031 120.677 139.182 120.604 139.021Z" fill="#1C85E8"/>
<path d="M113.558 72.5471L107.332 99.7952L107.321 101.73L112.383 133.994L120.444 133.09L118.106 102.275L124.519 86.1977L123.223 73.013L113.558 72.5471Z" fill="#282E71"/>
<path d="M112.686 106.413C115.693 106.413 118.131 103.887 118.131 100.771C118.131 97.6551 115.693 95.1289 112.686 95.1289C109.68 95.1289 107.242 97.6551 107.242 100.771C107.242 103.887 109.68 106.413 112.686 106.413Z" fill="#282E71"/>
<path d="M120.149 97.1528L118.614 83.6902L118.106 102.275L120.149 97.1528Z" fill="#383C78"/>
<path d="M130.364 72.4619C130.364 72.4619 133.267 77.516 133.304 81.7486C133.363 88.1011 131.152 99.4915 131.152 99.4915L150.454 119.71L145.858 126.851C145.858 126.851 129.389 112.688 122.42 105.961L120.859 102.686L118.614 83.6901L122.046 72.4619H130.364Z" fill="#282E71"/>
<path d="M113.558 72.5471L130.464 72.7272L132.107 76.2508L113.272 73.7975L113.558 72.5471Z" fill="#383C78"/>
<path d="M126.255 107.598C129.261 107.598 131.699 105.072 131.699 101.956C131.699 98.8401 129.261 96.314 126.255 96.314C123.248 96.314 120.811 98.8401 120.811 101.956C120.811 105.072 123.248 107.598 126.255 107.598Z" fill="#282E71"/>
<path d="M111.584 35.1037C111.584 35.1037 111.811 37.7228 111.145 40.2404C110.478 42.758 105.429 48.0892 109.906 52.4334C114.384 56.7773 119.861 45.1275 119.861 45.1275L118.146 39.7467L112.217 33.3531L111.584 35.1037Z" fill="#282E71"/>
<path d="M125.245 35.7151C125.245 35.7151 126.589 37.4842 129.65 38.9302C132.654 40.3493 135.889 42.6819 135.223 47.7663C134.555 52.8508 125.675 48.9017 123.066 45.9892C120.457 43.0768 120.816 37.8768 120.816 37.8768L125.245 35.7151Z" fill="#282E71"/>
<path d="M118.377 45.2422C118.377 45.2422 114.968 46.6398 114.448 47.0711C113.928 47.5026 113.434 51.0235 112.549 52.6951C111.665 54.3668 110.37 57.4523 112.261 60.2866C114.151 63.1207 113.95 65.3712 113.95 65.3712L113.547 72.4808L129.836 72.792C129.981 72.7968 130.123 72.7697 130.256 72.713C130.388 72.6563 130.507 72.5709 130.607 72.4626C130.705 72.3546 130.779 72.2258 130.827 72.0853C130.873 71.9448 130.891 71.7954 130.879 71.6474C130.698 69.5745 129.87 66.6636 129.805 63.3628C129.717 58.8896 129.652 43.9429 129.652 43.9429L122.555 43.712C121.126 43.9675 118.377 45.2422 118.377 45.2422Z" fill="#DBA7A7"/>
<path d="M126.859 50.0527C126.859 50.0527 124.485 52.2959 124.345 53.9602C124.206 55.6245 123.883 60.2648 120.832 60.7277C117.092 61.295 116.114 61.8474 117.847 62.2815C119.58 62.7157 123.515 62.0123 123.515 63.8734C123.515 65.198 125.043 66.1889 125.811 65.4653C126.579 64.7418 132.697 53.743 126.859 50.0527Z" fill="#F5BBBB"/>
<path d="M98.2287 51.9331L96.9418 50.2258C96.6724 49.8262 96.3142 49.4996 95.8973 49.2737C95.2641 48.9451 94.2932 48.3321 93.9558 47.7194C93.3967 46.7456 91.1932 44.1151 93.1046 42.0705C93.8122 41.3159 93.6353 41.4944 95.0497 41.517C96.4641 41.5395 96.6812 43.0606 97.3879 44.0562C97.3879 44.0562 97.5467 42.9078 98.328 42.3831C99.1094 41.8583 98.5909 45.0633 99.192 46.2779C99.7929 47.4925 99.3073 47.9516 100.731 50.0855L98.2287 51.9331Z" fill="#A74602"/>
<path d="M94.8345 41.6923L95.9839 44.3948" stroke="#E56441" stroke-linecap="round"/>
<path d="M93.3354 42.1729L94.9281 45.0506" stroke="#E56441" stroke-linecap="round"/>
<path d="M92.3951 44.0649L93.6505 45.7829" stroke="#E56441" stroke-linecap="round"/>
<path d="M97.0922 44.6686C97.0922 44.6686 96.6058 46.1125 96.69 47.2502L97.0922 44.6686Z" fill="#E56441"/>
<path d="M97.0922 44.6686C97.0922 44.6686 96.6058 46.1125 96.69 47.2502" stroke="#E56441" stroke-linecap="round"/>
<path d="M115.276 46.6061C113.955 47.0807 112.113 48.0434 111.615 49.1175L107.211 59.5146L99.8767 47.9653L97.0994 50.9969L103.949 65.6785C105.2 68.907 108.38 70.12 110.683 66.6404L114.362 60.6507L115.276 46.6061Z" fill="#DBA7A7"/>
<path d="M113.398 55.5562C113.398 55.5562 113.001 54.8464 113.001 58.5516L110.683 66.6403L114.362 60.6506C117.314 56.5375 114.982 55.439 113.398 55.5562Z" fill="#F5BBBB"/>
<path d="M121.472 50.6506L109.307 55.6723C108.929 55.8283 108.745 56.2724 108.895 56.664L114.984 72.5057C115.134 72.8975 115.563 73.0886 115.941 72.9326L128.106 67.9107C128.484 67.7547 128.668 67.3107 128.517 66.919L122.429 51.0773C122.278 50.6855 121.85 50.4946 121.472 50.6506Z" fill="#1C85E8"/>
<path d="M111.163 57.1623L116.179 55.0916" stroke="white" stroke-miterlimit="10" stroke-linecap="round"/>
<path d="M111.921 59.0238L114.207 58.0798" stroke="white" stroke-miterlimit="10" stroke-linecap="round"/>
<path d="M117.945 41.5181L118.137 47.0756C118.137 47.0756 117.875 48.2925 119.08 48.1575C120.285 48.0225 121.907 47.039 122.819 45.9589C123.731 44.8787 123.669 44.7921 123.278 44.0831C122.887 43.3744 121.052 37.9717 121.052 37.9717L117.945 41.5181Z" fill="#A74602"/>
<path d="M117.973 41.9841L120.195 40.5176C120.195 40.5176 119.21 44.996 118.137 47.0755L117.973 41.9841Z" fill="#FCBA9F"/>
<path d="M111.981 33.2014C111.981 33.2014 111.946 38.7322 114.248 41.5156C115.75 43.3307 117.329 43.09 119.964 40.1017C122.38 37.3617 122.719 35.9337 122.719 35.9337L121.051 30.5076C121.051 30.5076 112.252 28.168 111.981 33.2014Z" fill="#A74602"/>
<path d="M114.272 31.9184C114.272 31.9184 115.237 34.3456 117.028 35.0239C118.819 35.7021 119.287 36.9634 119.287 36.9634C119.287 36.9634 119.631 34.8882 121.039 34.9636C122.446 35.039 122.16 37.6146 121.287 38.4697C121.287 38.4697 122.338 40.4901 123.229 41.9842L127.132 37.9696C127.132 37.9696 125.121 35.5602 124.679 33.6215C124.237 31.6828 122.806 26.4928 117.35 26.8366C110.944 27.2401 111.312 32.6346 111.584 35.6308C111.584 35.6308 113.593 34.8325 114.272 31.9184Z" fill="#282E71"/>
<path d="M114.966 39.8053L116.523 39.0137C116.524 39.0228 116.526 39.0326 116.527 39.0427C116.537 39.1274 116.542 39.2439 116.52 39.3717C116.476 39.6219 116.327 39.9255 115.885 40.1227C115.601 40.2181 115.359 40.124 115.181 39.9988C115.092 39.9358 115.021 39.8663 114.972 39.8123C114.97 39.81 114.968 39.8076 114.966 39.8053Z" fill="#E56441" stroke="#E56441"/>
<path d="M113.269 37.5592C113.466 37.5088 113.568 37.2244 113.496 36.9238C113.425 36.6232 113.207 36.4203 113.01 36.4707C112.813 36.521 112.712 36.8056 112.783 37.1062C112.855 37.4066 113.073 37.6095 113.269 37.5592Z" fill="#262626" fill-opacity="0.0352941"/>
<path d="M116.187 36.8584C116.384 36.8081 116.486 36.5235 116.414 36.2229C116.342 35.9225 116.125 35.7196 115.928 35.7699C115.731 35.8203 115.63 36.1047 115.701 36.4053C115.773 36.7059 115.99 36.9088 116.187 36.8584Z" fill="#262626" fill-opacity="0.0352941"/>
<path d="M112.137 35.9384L113.622 35.5852C113.647 35.577 113.668 35.5597 113.682 35.5367C113.695 35.5136 113.7 35.4863 113.695 35.4597C113.679 35.4146 113.654 35.3732 113.621 35.3383C113.589 35.3035 113.55 35.2757 113.507 35.2568C113.464 35.2379 113.418 35.2283 113.371 35.2283C113.325 35.2284 113.279 35.2384 113.236 35.2575L112.071 35.7687C111.974 35.7935 112.016 35.9695 112.137 35.9384Z" fill="#262626" fill-opacity="0.0352941"/>
<path d="M117.123 34.561L115.189 35.1891C115.176 35.1265 115.176 35.0618 115.189 34.9992C115.202 34.9366 115.227 34.8774 115.263 34.8254C115.299 34.7735 115.345 34.73 115.398 34.6977C115.452 34.6654 115.511 34.6451 115.572 34.638L117.118 34.4292C117.166 34.4169 117.196 34.5424 117.123 34.561Z" fill="#262626" fill-opacity="0.0352941"/>
<path d="M114.311 36.5541L114.101 38.1768L114.654 38.4535" fill="#E56441"/>
<path d="M114.311 36.5541L114.101 38.1768L114.654 38.4535" stroke="#E56441" stroke-linecap="round"/>
<path d="M115.783 65.0066L110.987 66.4328L110.4 69.4959L111.492 72.8859C111.492 72.8859 112.259 72.351 112.099 71.1033C111.939 69.8553 115.992 69.891 116.735 68.3223" fill="#A74602"/>
<path d="M126.739 48.1239C126.739 48.1239 126.708 43.9135 129.962 43.913C132.145 43.9126 133.189 44.9733 133.468 48.2833C133.662 50.5975 133.803 63.2949 133.803 63.2949C133.803 63.2949 134.352 69.0899 129.609 69.1981L115.914 68.773L115.604 64.8074L127.543 63.5741L126.739 48.1239Z" fill="#DBA7A7"/>
<path d="M116.836 47.5974C116.836 47.5974 118.07 47.2332 117.87 45.976C117.675 44.7387 117.668 43.6646 118.059 43.8142C118.059 43.8142 118.405 44.4285 120.554 43.7458C122.69 43.0885 122.556 42.3293 122.556 42.3293C122.556 42.3293 122.858 42.0519 123.083 42.764C123.309 43.4762 123.881 45.4482 125.09 45.3063L125.417 48.9819L118.986 51.1759C118.971 51.2014 115.999 48.2172 116.836 47.5974Z" fill="#DBA7A7"/>
<path d="M64.3783 120.948H68.4248" stroke="white" stroke-miterlimit="10" stroke-linecap="round"/>
<path opacity="0.5" d="M65.202 122.768H67.2254" stroke="white" stroke-miterlimit="10" stroke-linecap="round"/>
<path d="M61.6829 117.314L64.7877 115.07L66.9749 116.58L69.8859 114.395" stroke="white" stroke-linecap="round" stroke-linejoin="round"/>
<path d="M67.6479 113.442H70.7446V116.618" stroke="white" stroke-linecap="round" stroke-linejoin="round"/>
<path d="M104.312 14.8415H92.3113C92.1646 14.8473 92.0187 14.8176 91.885 14.7544C91.7513 14.6915 91.6338 14.5968 91.5418 14.4784C91.4496 14.3599 91.3856 14.2208 91.3546 14.0719C91.3236 13.9232 91.3265 13.7691 91.3634 13.6217L93.2078 3.79374C93.2789 3.4579 93.4554 3.15596 93.7097 2.93524C93.9641 2.71454 94.2819 2.58752 94.6134 2.57409H106.614C106.761 2.56822 106.907 2.598 107.041 2.66103C107.174 2.72406 107.292 2.8186 107.384 2.93709C107.476 3.05559 107.54 3.19478 107.571 3.34351C107.602 3.49225 107.599 3.64643 107.562 3.79374L105.718 13.6217C105.647 13.9576 105.47 14.2595 105.216 14.4802C104.962 14.701 104.644 14.8279 104.312 14.8415Z" fill="#1C85E8"/>
<path d="M96.0804 5.23206L104.071 5.23366C104.129 5.23108 104.186 5.24227 104.238 5.26638C104.291 5.2905 104.337 5.32686 104.374 5.37254C104.41 5.41836 104.436 5.47239 104.449 5.53016C104.462 5.58811 104.462 5.64819 104.449 5.70614L104.34 6.3261C104.322 6.41614 104.283 6.50065 104.228 6.57287C104.173 6.64526 104.103 6.70338 104.022 6.74261L99.6447 8.92627C99.5769 8.96336 99.5013 8.98261 99.4248 8.98208C99.3482 8.98172 99.2729 8.96157 99.2056 8.92359L95.604 6.67378C95.5383 6.63117 95.4871 6.56841 95.4571 6.49423C95.4274 6.41988 95.4206 6.33804 95.4379 6.25959L95.5359 5.70436C95.5626 5.57384 95.6307 5.45634 95.7295 5.37076C95.8282 5.28508 95.9517 5.23626 96.0804 5.23206Z" fill="white"/>
<path d="M95.6838 7.48962L99.1292 9.72944C99.176 9.75672 99.2288 9.77116 99.2825 9.77116C99.3362 9.77116 99.389 9.75672 99.4358 9.72944L103.671 7.49122C103.899 7.37087 104.129 7.52349 104.086 7.76688L103.456 11.3349C103.408 11.5693 103.286 11.7804 103.108 11.9343C102.931 12.0882 102.709 12.1759 102.477 12.1834L95.2217 12.182C95.1187 12.1866 95.0161 12.1665 94.9219 12.1231C94.8278 12.0798 94.7445 12.0146 94.6788 11.9324C94.6129 11.85 94.5664 11.7532 94.5428 11.6492C94.5193 11.5453 94.5191 11.437 94.5427 11.3331L95.1722 7.76509C95.182 7.70839 95.2044 7.65472 95.2374 7.60819C95.2704 7.56165 95.3133 7.52367 95.3626 7.49711C95.4122 7.47054 95.4667 7.45592 95.5225 7.45467C95.5782 7.45324 95.6334 7.46519 95.6838 7.48962Z" fill="white"/>
<path d="M107.029 5.14821C108.401 5.14821 109.513 3.99574 109.513 2.5741C109.513 1.15247 108.401 0 107.029 0C105.657 0 104.545 1.15247 104.545 2.5741C104.545 3.99574 105.657 5.14821 107.029 5.14821Z" fill="#F5BBBB"/>
<path d="M107.203 59.5108L109.262 62.6819L108.164 57.2642L107.203 59.5108Z" fill="#F5BBBB"/>
<defs>
<linearGradient id="paint0_linear_54_6" x1="71.8135" y1="30.8331" x2="75.1874" y2="86.1005" gradientUnits="userSpaceOnUse">
<stop stop-color="white"/>
<stop offset="1" stop-color="#94B9FF"/>
</linearGradient>
<linearGradient id="paint1_linear_54_6" x1="63.7712" y1="47.1609" x2="77.8738" y2="142.546" gradientUnits="userSpaceOnUse">
<stop stop-color="white"/>
<stop offset="1" stop-color="#94B9FF"/>
</linearGradient>
<linearGradient id="paint2_linear_54_6" x1="97.8067" y1="47.1609" x2="111.909" y2="142.546" gradientUnits="userSpaceOnUse">
<stop stop-color="white"/>
<stop offset="1" stop-color="#94B9FF"/>
</linearGradient>
<linearGradient id="paint3_linear_54_6" x1="34.7226" y1="106.783" x2="38.1647" y2="147.669" gradientUnits="userSpaceOnUse">
<stop stop-color="white"/>
<stop offset="1" stop-color="#94B9FF"/>
</linearGradient>
</defs>
</svg>
