<svg width="168" height="115" viewBox="0 0 168 115" fill="none" xmlns="http://www.w3.org/2000/svg">
<g clip-path="url(#clip0_54_291)">
<path d="M15.8146 0.0731201H21.2404" stroke="white" stroke-miterlimit="10" stroke-linecap="round"/>
<path d="M136.23 0H119.305C118.164 0 117.24 0.901957 117.24 2.01479V19.891C117.24 21.0038 118.164 21.9058 119.305 21.9058H136.23C137.37 21.9058 138.295 21.0038 138.295 19.891V2.01479C138.295 0.901957 137.37 0 136.23 0Z" fill="#1C85E8"/>
<path d="M119.804 16.4656H125.23" stroke="white" stroke-miterlimit="10" stroke-linecap="round"/>
<path opacity="0.4" d="M119.804 18.9362H131.017" stroke="white" stroke-miterlimit="10" stroke-linecap="round"/>
<path d="M119.924 6.21057H122.73C122.937 6.21057 123.139 6.26321 123.318 6.3633C123.497 6.46339 123.646 6.60754 123.75 6.78116L126.466 11.3135C126.573 11.4914 126.727 11.6383 126.912 11.7388C127.096 11.839 127.306 11.8891 127.517 11.8834C127.728 11.8779 127.935 11.817 128.114 11.7072C128.293 11.5974 128.438 11.4427 128.535 11.2592L130.214 8.07733C130.313 7.89091 130.461 7.73446 130.643 7.62432C130.826 7.51435 131.037 7.45491 131.251 7.45265L136.18 7.40114" stroke="white" stroke-miterlimit="10" stroke-linecap="round"/>
<path opacity="0.4" d="M119.924 11.0857H121.304C121.616 11.0857 121.915 10.9655 122.136 10.7511L128.515 4.57069C128.737 4.35626 129.036 4.23608 129.347 4.23608H131.214C131.482 4.23608 131.741 4.32419 131.95 4.48615C132.159 4.64795 132.305 4.87421 132.365 5.12768L133.346 9.2494C133.406 9.50287 133.552 9.72897 133.761 9.89093C133.97 10.0529 134.229 10.141 134.495 10.141H136.18" stroke="white" stroke-miterlimit="10" stroke-linecap="round"/>
<path d="M160.35 109.062C160.35 109.062 159.73 115.15 148.978 115.15H136.371L153.095 102.464L160.35 109.062Z" fill="#1924B1"/>
<path d="M135.333 38.5061L164.938 44.9056C165.202 44.9607 165.453 45.0623 165.679 45.2054C166.497 45.7326 167.96 47.274 167.679 51.4887C167.304 57.1066 160.35 109.062 160.35 109.062L131.925 85.0538L135.333 38.5061Z" fill="#1924B1"/>
<path d="M132.169 38.3411L161.99 44.7874C161.99 44.7874 164.541 45.6939 164.515 51.3236C164.488 56.9534 157.185 108.897 157.185 108.897L128.76 84.8886L132.169 38.3411Z" fill="#1C85E8"/>
<path d="M132.654 41.3085C132.654 41.3085 133.178 48.7242 133.409 49.8994C133.814 51.9579 143.084 47.6334 142.404 45.8005C142.052 44.8494 140.446 35.7881 140.446 35.7881L132.654 41.3085Z" fill="#BC775C"/>
<path d="M133.464 49.6148L132.67 42.0227H137.369L133.464 49.6148Z" fill="#A74602" stroke="#A74602"/>
<path d="M144.437 34.1986C144.796 30.465 140.455 31.2701 139.713 31.4385C138.97 31.6069 137.808 26.0741 137.808 26.0741C137.808 26.0741 129.243 24.5861 127.409 26.0707C127.409 26.0707 126.257 33.0442 126.072 37.5102C125.886 41.9763 127.17 43.9763 128.848 44.1292C131.135 44.5288 133.839 44.0787 135.567 43.0851C138.645 41.3147 139.96 38.1127 139.96 38.1127C140.015 38.0881 140.045 38.0753 140.045 38.0753C140.045 38.0753 144.1 37.7248 144.437 34.1986Z" fill="#BC775C"/>
<path d="M127.165 37.3691C127.903 36.9129 129.77 36.9527 130.527 37.0974C131.971 37.3734 132.415 37.5564 132.577 37.8835C132.74 38.2105 132.772 38.5723 132.169 38.3409C131.565 38.1095 130.303 37.6867 129.179 37.7165C128.657 37.7689 128.14 37.8608 127.632 37.9919C127.046 38.1632 126.5 37.7805 127.165 37.3691Z" fill="#493212"/>
<path d="M126.643 32.8122C126.643 32.8122 127.13 28.6343 127.192 27.4775C127.281 25.8136 128.527 26.349 129.42 27.5161C130.705 29.2491 133.155 29.1394 135.215 28.5957C137.023 28.1657 137.05 28.2669 137.214 30.1296C137.38 31.9923 137.996 35.4513 138.575 34.6236C139.296 33.54 139.787 32.5255 141.054 31.866C142.776 30.9699 144.542 32.6232 144.127 33.8999C143.712 35.177 142.741 36.6469 140.573 37.8542L141.633 42.6498C147.007 35.3776 149.031 25.3904 141.743 23.0779C139.02 22.2138 136.193 16.6147 130.924 17.8885C127.192 18.791 127.192 21.71 126.926 24.2482C121.912 24.4599 126.643 32.8122 126.643 32.8122Z" fill="#FFC200"/>
<path d="M133.087 34.1878C133.19 33.6585 132.984 33.1762 132.629 33.1105C132.274 33.0449 131.902 33.4208 131.8 33.9502C131.698 34.4795 131.902 34.9618 132.257 35.0274C132.612 35.093 132.984 34.7171 133.087 34.1878Z" fill="#262626" fill-opacity="0.0352941"/>
<path d="M128.195 33.253C128.297 32.7237 128.092 32.2414 127.737 32.1758C127.381 32.1102 127.01 32.4861 126.907 33.0154C126.805 33.5448 127.01 34.0271 127.365 34.0927C127.721 34.1583 128.092 33.7824 128.195 33.253Z" fill="#262626" fill-opacity="0.0352941"/>
<path d="M129.196 34.6234C129.196 34.6234 129.832 35.7413 128.96 35.7824C128.127 35.7939 127.655 36.2845 128.515 36.9527" stroke="#A74602" stroke-linecap="round"/>
<path d="M128.687 37.8851C129.205 37.9071 130.241 37.9513 130.931 37.9918C130.972 37.9939 131.012 38.0069 131.045 38.0296C131.08 38.0523 131.107 38.0837 131.125 38.1204C131.141 38.1572 131.148 38.198 131.143 38.2382C131.14 38.2783 131.123 38.3164 131.098 38.3483C130.5 39.0284 129.111 40.2658 128.482 38.1674C128.466 38.1355 128.46 38.1002 128.463 38.065C128.466 38.0299 128.479 37.9962 128.5 37.9674C128.521 37.9386 128.549 37.9157 128.582 37.9013C128.615 37.8869 128.651 37.8812 128.687 37.8851Z" fill="white"/>
<path d="M134.731 32.4078L134.686 32.5043C134.631 32.6509 134.52 32.7706 134.377 32.8375C134.233 32.9042 134.067 32.9128 133.917 32.8613L131.354 31.9077C131.228 31.8665 131.121 31.7807 131.058 31.6673C130.994 31.5538 130.975 31.4208 131.007 31.295C131.022 31.2169 131.055 31.143 131.102 31.0781C131.15 31.0132 131.209 30.9587 131.279 30.9182C131.351 30.8779 131.429 30.8525 131.508 30.8437C131.59 30.835 131.673 30.8431 131.749 30.8676L134.357 31.7245C134.428 31.7442 134.495 31.7779 134.553 31.8233C134.611 31.8688 134.658 31.925 134.692 31.9888C134.727 32.0526 134.749 32.1224 134.755 32.1945C134.762 32.2664 134.754 32.339 134.731 32.4078Z" fill="#262626" fill-opacity="0.0352941"/>
<path d="M126.117 30.3412L128.857 30.0853C128.938 30.0787 129.02 30.0891 129.096 30.1155C129.173 30.142 129.243 30.1841 129.302 30.239C129.361 30.2939 129.407 30.3603 129.438 30.434C129.469 30.5077 129.483 30.5869 129.48 30.6663C129.481 30.7958 129.433 30.9212 129.344 31.0176C129.255 31.1138 129.132 31.1739 128.999 31.186L126.282 31.546C126.123 31.5629 125.964 31.5179 125.839 31.4209C125.715 31.3238 125.634 31.1826 125.616 31.0279L125.594 30.9238C125.588 30.8517 125.596 30.7792 125.62 30.7107C125.643 30.642 125.68 30.5785 125.729 30.5242C125.777 30.4698 125.837 30.4256 125.904 30.3942C125.97 30.3628 126.043 30.3446 126.117 30.3412Z" fill="#262626" fill-opacity="0.0352941"/>
<path d="M7.90527 109.062C7.90527 109.062 8.52434 115.15 19.278 115.15H31.8841L15.1605 102.464L7.90527 109.062Z" fill="#1924B1"/>
<path d="M32.9226 38.5061L3.31727 44.9056C3.05381 44.9607 2.8028 45.0623 2.57685 45.2054C1.75791 45.7326 0.295175 47.274 0.576235 51.4887C0.950759 57.1066 7.90536 109.062 7.90536 109.062L36.3309 85.0538L32.9226 38.5061Z" fill="#1924B1"/>
<path d="M36.0868 38.3411L6.26483 44.7874C6.26483 44.7874 3.71388 45.6939 3.74044 51.3236C3.76717 56.9534 11.0696 108.897 11.0696 108.897L39.4951 84.8886L36.0868 38.3411Z" fill="#DBA7A7"/>
<path d="M48.9938 65.1421L51.8874 69.0928C52.3006 69.6569 52.8317 70.129 53.4456 70.478C54.0596 70.8272 54.7424 71.0454 55.4491 71.1181L74.3898 73.0681L74.6777 77.696L51.5654 79.0648C50.2633 79.1421 48.9616 78.9061 47.7748 78.378C46.5878 77.85 45.5519 77.0457 44.7579 76.0359L38.5636 68.1575L48.9938 65.1421Z" fill="#A74602"/>
<path d="M50.8035 67.6131C50.8035 67.6131 44.8491 69.147 43.1083 73.938L40.1414 69.6596L50.1637 66.7395L50.8035 67.6131Z" fill="#F5BBBB"/>
<path d="M36.2729 50.2394C36.2729 50.2394 42.0668 51.8868 43.6798 53.7892C44.935 55.2695 47.0689 61.4198 48.7412 64.3819C49.1454 65.0978 49.7188 65.1626 49.2928 65.8661C47.5306 68.7764 46.0204 73.0186 43.1084 73.938C33.3619 72.5016 36.2729 50.2394 36.2729 50.2394Z" fill="#1924B1"/>
<path d="M42.5346 58.667C42.5346 58.667 46.4013 65.5082 46.9883 69.1847C46.9883 69.1847 45.6116 72.5933 44.6398 73.2867C43.1236 74.3684 42.291 73.7606 42.291 73.7606L42.5346 58.667Z" fill="#465393"/>
<path d="M22.3253 36.4201C27.6694 36.4201 32.0015 32.1936 32.0015 26.9801C32.0015 21.7664 27.6694 17.5399 22.3253 17.5399C16.9811 17.5399 12.649 21.7664 12.649 26.9801C12.649 32.1936 16.9811 36.4201 22.3253 36.4201Z" fill="#262626" fill-opacity="0.0352941"/>
<path d="M30.5235 21.9473C30.5235 21.9473 18.0354 19.7962 16.5703 34.5697C16.5703 34.5697 17.8214 35.8822 19.6221 36.0257C19.6221 36.0257 21.0845 21.6909 31.2548 22.7986L30.5235 21.9473Z" fill="#DBA7A7"/>
<path d="M27.8761 22.5103C27.8761 22.5103 26.4399 21.7831 27.5221 20.9446C28.2056 20.3886 28.75 19.6876 29.1135 18.8951C29.4559 19.0803 29.7132 19.3851 29.8339 19.7482C29.9546 20.1113 29.9295 20.5055 29.7636 20.8513C29.209 22.1867 28.862 22.2616 28.862 22.2616L27.8761 22.5103Z" fill="#DBA7A7"/>
<path d="M27.8034 21.7066C27.8034 21.7066 27.408 23.2373 26.3229 22.4024C25.611 21.8812 24.7868 21.5253 23.9127 21.3621C24.0186 20.9946 24.2637 20.6802 24.5982 20.4821C24.9327 20.2842 25.3318 20.2175 25.7148 20.2954C27.1744 20.5152 27.3289 20.8276 27.3289 20.8276L27.8034 21.7066Z" fill="#DBA7A7"/>
<path d="M30.5714 43.5734L32.1002 49.1226C32.1002 49.1226 43.7714 62.0415 34.0845 66.7395C32.3819 67.5654 24.2446 61.2191 22.7168 59.8122C21.1888 58.4052 21.8223 50.0939 21.8223 50.0939L25.3307 38.2225L30.5714 43.5734Z" fill="#A74602"/>
<path d="M27.1321 61.1801C27.1321 61.1801 32.8336 64.6765 38.5635 61.4321C38.5635 61.4321 37.6805 66.2488 34.2072 67.7991C30.7337 69.3492 27.1321 61.1801 27.1321 61.1801Z" fill="#1C85E8"/>
<path d="M30.8724 44.5537L27.8071 42.5975L32.3459 50.0445L30.8724 44.5537Z" fill="#F5BBBB"/>
<path d="M38.6315 29.9176C38.6315 29.9176 40.2529 38.2404 37.3553 43.0924C35.4656 46.2566 32.8697 46.3458 27.8071 42.5974C23.1652 39.1603 22.2191 37.1057 22.2191 37.1057L23.3538 28.4533C23.3538 28.4533 36.7733 22.4117 38.6315 29.9176Z" fill="#A74602"/>
<path d="M32.1002 49.1227C32.1002 49.1227 37.8391 50.5053 38.7645 51.1418C39.6898 51.7783 40.8775 57.3496 42.5438 59.9295C44.21 62.5095 46.4861 66.5859 43.5621 71.3004C40.6381 76.0149 40.9017 80.5261 40.9017 80.5261L43.1147 92.3606H18.4669C17.4367 92.4524 16.8887 89.9056 16.9194 88.8967C17.0203 85.5694 17.3435 84.5774 17.1257 79.3015C16.8307 72.1513 14.0935 51.8666 14.0935 51.8666L22.2192 48.923C21.9693 60.0828 28.6151 57.6471 34.2073 67.7991C38.7847 59.2212 32.1002 49.1227 32.1002 49.1227Z" fill="#1924B1"/>
<path d="M19.4429 57.6471C19.4429 57.6471 20.649 60.0995 19.6966 62.6047C18.6256 65.4213 17.4471 72.2849 22.667 72.7173C29.0652 73.2474 26.3792 74.379 23.4826 75.2463C20.5859 76.1135 21.7895 76.043 21.9744 79.0142C22.1061 81.1289 16.2789 85.4223 16.8156 83.7834C19.6954 74.9903 9.90879 64.125 19.4429 57.6471Z" fill="#465393"/>
<path d="M33.3237 40.7034L36.3946 41.2025C36.3832 41.228 36.3691 41.2578 36.352 41.2913C36.2965 41.4001 36.2112 41.5446 36.092 41.6876C35.8539 41.9733 35.4862 42.2478 34.9513 42.235C34.1138 42.1414 33.7105 41.7328 33.5127 41.3527C33.4125 41.1603 33.3639 40.9732 33.3407 40.8339C33.332 40.7831 33.3269 40.7388 33.3237 40.7034Z" fill="#E56441" stroke="#E56441"/>
<path d="M38.007 37.0019C38.351 36.9856 38.6098 36.5713 38.5849 36.0766C38.56 35.5822 38.261 35.1944 37.9171 35.211C37.5731 35.2273 37.3144 35.6416 37.3392 36.1362C37.3641 36.6309 37.6631 37.0184 38.007 37.0019Z" fill="#262626" fill-opacity="0.0352941"/>
<path d="M32.9283 37.3156C33.2723 37.2993 33.5309 36.885 33.5062 36.3904C33.4813 35.8957 33.1823 35.5082 32.8383 35.5247C32.4944 35.541 32.2355 35.9553 32.2604 36.45C32.2852 36.9444 32.5842 37.3322 32.9283 37.3156Z" fill="#262626" fill-opacity="0.0352941"/>
<path d="M39.0872 33.9805L36.5043 34.1454C36.4601 34.1446 36.4178 34.1282 36.3851 34.0992C36.3524 34.0704 36.3314 34.0309 36.3263 33.9881C36.3318 33.9109 36.3534 33.8356 36.3895 33.7667C36.4259 33.6979 36.476 33.637 36.537 33.5876C36.5981 33.5382 36.6688 33.5014 36.7448 33.4794C36.8208 33.4574 36.9007 33.4506 36.9794 33.4595L39.1151 33.689C39.2846 33.6809 39.2991 33.9703 39.0872 33.9805Z" fill="#262626" fill-opacity="0.0352941"/>
<path d="M30.3242 34.2408L33.7675 34.2836C33.759 34.1815 33.7288 34.0823 33.6787 33.9924C33.6287 33.9025 33.5598 33.8238 33.4766 33.7612C33.3935 33.6989 33.2978 33.6542 33.1959 33.6301C33.0938 33.6059 32.9879 33.6028 32.8846 33.6211L30.2714 34.0361C30.1868 34.0401 30.1972 34.247 30.3242 34.2408Z" fill="#262626" fill-opacity="0.0352941"/>
<path d="M35.8392 35.9573L36.9439 38.3438L36.1739 39.0306" stroke="#E56441" stroke-linecap="round"/>
<path d="M35.4621 31.2093C33.6582 31.2214 32.8134 30.8133 30.9212 31.6819C30.324 31.9559 29.7591 32.2301 29.4166 32.9019C29.0497 34.253 29.285 36.1298 26.8441 36.0776C26.8441 36.0776 27.6336 33.5138 25.9564 33.1862C23.1083 32.6298 23.5662 37.1257 25.3307 38.2225C26.5298 38.9678 24.4698 44.3446 22.9373 46.321C17.6956 34.3706 19.5148 33.1669 20.8776 30.0475C23.1933 24.7466 25.2223 23.1328 30.7042 22.2561C30.7042 22.2561 37.9673 22.4474 39.8928 28.6814C41.5388 34.0107 39.0684 36.0538 39.0684 36.0538C39.0684 36.0538 39.1451 32.0882 38.743 31.6819C38.2141 31.1472 37.7851 31.1936 35.4621 31.2093Z" fill="#262626" fill-opacity="0.0352941"/>
<path d="M123.593 95.7148L103.04 99.277L107.085 115.15H120.251C120.251 115.15 126.509 102.026 123.593 95.7148Z" fill="#A74602"/>
<path d="M110.471 97.1053C110.471 97.1053 113.638 98.057 114.946 103.097C116.253 108.137 114.827 115.15 114.827 115.15H116.863C116.863 115.15 124.126 106.829 118.783 96.2246L110.471 97.1053Z" fill="#F5BBBB"/>
<path d="M153.437 90.7131C153.437 90.7131 155.021 102.252 152.657 107.752C150.644 112.429 147.537 115.081 143.763 115.15H114.827C114.827 115.15 114.781 100.071 102.576 97.4949C102.576 97.4949 142.744 86.5807 153.437 90.7131Z" fill="#282E71"/>
<path d="M153.993 94.2125L127.738 95.0558L128.017 93.2666L133.134 92.6896H153.957L153.993 94.2125Z" fill="#383C78"/>
<path d="M133.617 49.0149C133.391 49.949 133.333 46.6443 132.876 46.7822C130.786 47.4141 124.839 49.2247 123.574 49.741C122.033 50.3699 121.93 52.8853 121.827 54.6672C121.755 55.9156 123.66 73.4406 123.755 85.3135C123.775 87.8499 121.144 90.819 120.833 92.2288C120.746 92.6085 120.7 92.9959 120.694 93.3848C120.693 93.6559 120.802 93.9166 120.997 94.1095C121.192 94.3026 121.458 94.4121 121.736 94.4142L153.088 94.7C153.088 94.7 154.478 94.8971 154.142 93.3496C153.81 91.657 153.629 89.9395 153.598 88.2164C153.286 75.8848 153.226 55.2326 153.09 54.2548C152.884 52.7875 154.499 51.5239 152.75 50.7852L143.039 47.0005C143.039 47.0005 141.26 48.2672 141.003 48.3954C136.125 50.8289 133.617 49.0149 133.617 49.0149Z" fill="#DBA7A7"/>
<path d="M135.637 50.2736C135.637 50.2736 134.528 54.2461 135.041 58.0833C135.552 61.9204 133.532 67.1704 133.114 71.3835C132.695 75.5965 134.744 81.116 134.423 84.6525C134.105 88.1889 135.267 94.7083 135.267 94.7083" stroke="#F5BBBB" stroke-miterlimit="10"/>
<path d="M47.7556 92.7738L68.3091 96.3361L64.2634 112.209H51.0979C51.0979 112.209 44.8397 99.0852 47.7556 92.7738Z" fill="#A74602"/>
<path d="M60.8779 94.1642C60.8779 94.1642 57.7104 95.1159 56.4029 100.156C55.0954 105.196 56.5221 112.209 56.5221 112.209H54.4853C54.4853 112.209 47.2227 103.888 52.566 93.2834L60.8779 94.1642Z" fill="#F5BBBB"/>
<path d="M17.3026 88.5187C17.3026 88.5187 13.6603 95.1883 14.0935 103.983C14.5053 112.337 19.1895 115.15 26.5946 115.15L56.5221 112.209C56.5221 112.209 56.5677 97.1301 68.7725 94.5541C68.7725 94.5541 55.1838 84.9043 41.4388 87.3287C34.6926 88.5187 30.4541 89.9666 17.3026 88.5187Z" fill="#282E71"/>
<path d="M16.7905 86.2891C16.7905 86.2891 36.1733 88.2647 43.3172 83.057L42.9978 87.4047C42.9978 87.4047 30.9185 93.9519 17.0756 90.2675C17.0756 90.2675 15.0001 88.8455 16.7905 86.2891Z" fill="#1C85E8"/>
<path d="M75.9413 79.6139C75.9413 79.6139 81.6993 78.4378 84.0837 78.9766C86.5138 79.4664 91.6283 80.7148 90.7123 84.3728C90.0786 86.9846 87.2836 85.95 87.2836 85.95C87.2836 85.95 88.0111 86.993 86.9297 87.4688C86.2703 87.7361 82.016 85.4599 82.016 85.4599C79.1769 86.3508 75.4722 84.4698 75.4722 84.4698L75.9413 79.6139Z" fill="#A74602"/>
<path d="M84.1334 84.5576L87.2357 85.9524" stroke="#F5BBBB" stroke-linecap="round" stroke-linejoin="round"/>
<path d="M84.8271 82.1775C85.6044 82.3267 89.1026 83.9365 89.1026 83.9365" stroke="#F5BBBB" stroke-linecap="round" stroke-linejoin="round"/>
<path d="M85.2626 80.3729C86.8206 80.7529 88.3112 81.3593 89.6843 82.1717" stroke="#F5BBBB" stroke-linecap="round" stroke-linejoin="round"/>
<path d="M50.3417 61.4323H112.834L144.459 112.209H24.5035L50.3417 61.4323Z" fill="url(#paint0_linear_54_291)"/>
<path d="M101.215 83.0823L103.31 95.457L114.946 103.097L134.425 101.044L129.64 95.457L101.215 83.0823Z" fill="#96BAFD"/>
<path d="M90.0187 70.7971L98.7408 86.4868L111.729 98.5079L101.215 83.0823L90.0187 70.7971Z" fill="white"/>
<path d="M90.0187 70.7971L98.7408 86.4868L97.8996 87.118L89.308 71.2208L90.0187 70.7971Z" fill="#5CA4E6"/>
<path d="M98.7408 86.4869L111.729 98.508V99.2779L97.8997 87.1181L98.7408 86.4869Z" fill="#5CA4E6"/>
<path d="M111.729 99.2778L129.64 96.0838V95.457L111.729 98.5079V99.2778Z" fill="#5CA4E6"/>
<path d="M129.64 95.4571L117.972 80.8873L101.215 83.0824L111.729 98.508L129.64 95.4571Z" fill="#E7EFFF"/>
<path d="M22.8607 58.6999L20.1559 73.873C20.0876 74.2523 19.873 74.5918 19.5562 74.8216C19.2393 75.0514 18.8444 75.1541 18.4524 75.1086C18.4524 75.1086 10.8301 74.6196 8.29278 74.4134C7.69513 74.3649 6.07086 72.9276 6.56741 70.5604C7.02261 67.3267 9.15471 59.776 10.5029 55.5831C11.1308 53.4969 17.8448 54.7458 17.8448 54.7458L22.8607 58.6999Z" fill="#1924B1"/>
<path d="M16.5336 63.8928C20.0682 63.8928 22.9334 61.0975 22.9334 57.6492C22.9334 54.2011 20.0682 51.4056 16.5336 51.4056C12.9992 51.4056 10.1338 54.2011 10.1338 57.6492C10.1338 61.0975 12.9992 63.8928 16.5336 63.8928Z" fill="#1924B1"/>
<path d="M8.46747 75.2564L8.57206 74.0468L18.0613 75.1011L17.9144 76.1305L17.1071 82.6222L7.88062 81.6513L8.46747 75.2564Z" fill="#A74602"/>
<path d="M8.61827 74.0365L18.0614 75.1012L17.9145 76.1306C15.7688 75.8994 10.9581 75.5055 8.46753 75.2565L8.61827 74.0365Z" fill="#F5BBBB"/>
<path d="M12.4575 86.4222C15.0232 86.4222 17.1032 84.393 17.1032 81.8899C17.1032 79.3866 15.0232 77.3574 12.4575 77.3574C9.89162 77.3574 7.81165 79.3866 7.81165 81.8899C7.81165 84.393 9.89162 86.4222 12.4575 86.4222Z" fill="#A74602"/>
<path d="M14.7508 85.7918L40.9697 73.7839C40.9697 73.7839 42.5425 68.3291 40.8322 69.2348C39.0791 70.1605 11.147 77.5267 11.147 77.5267L14.7508 85.7918Z" fill="#A74602"/>
<path d="M55.9678 74.3864L44.8205 76.2863C44.1025 76.4088 43.6251 75.9222 43.7544 75.1996L47.1821 56.0303C47.3114 55.3078 47.9982 54.6227 48.7164 54.5002L59.8634 52.6003C60.5816 52.4778 61.0589 52.9644 60.9297 53.687L57.5019 72.8563C57.3728 73.5788 56.686 74.2639 55.9678 74.3864Z" fill="#1C85E8"/>
<path d="M56.4679 74.3008L45.3208 76.2009C44.6026 76.3234 44.1253 75.8367 44.2545 75.1142L47.6823 55.9449C47.8115 55.2222 48.4984 54.5373 49.2164 54.4148L60.3637 52.5147C61.0817 52.3923 61.5592 52.8788 61.4298 53.6015L58.0022 72.7708C57.8728 73.4934 57.186 74.1784 56.4679 74.3008Z" fill="#7EBAD2"/>
<path d="M39.2504 69.7685L40.5446 73.8846C40.5446 73.8846 45.9065 72.6302 47.0534 72.0808C49.2901 70.9589 51.6953 69.4458 51.977 68.8705C52.84 67.4154 52.9416 65.6151 52.8428 64.3576C52.8303 64.1707 52.7708 63.9898 52.6697 63.8306C52.5686 63.6714 52.4288 63.5391 52.2628 63.445C52.0969 63.3509 51.9096 63.2981 51.7179 63.2913C51.526 63.2843 51.3354 63.3235 51.1628 63.4054L46.4694 65.6907C46.4694 65.6907 45.8583 64.6835 46.4731 63.8831C46.8692 63.3548 46.2581 62.3477 45.9865 62.039C45.8794 61.8963 45.308 61.8921 45.1785 62.0364C44.96 62.3086 45.2605 63.2542 44.7995 63.8544C44.0146 64.8153 44.7113 65.2327 42.6905 66.8707C41.0918 68.1556 39.2338 69.729 39.2504 69.7685Z" fill="#A74602"/>
<path d="M48.3273 66.3869C49.6627 65.9478 52.3861 64.4006 52.3861 64.4006" stroke="#F5BBBB" stroke-linecap="round" stroke-linejoin="round"/>
<path d="M48.1519 68.124C49.2266 67.7424 52.0646 66.2422 52.0646 66.2422" stroke="#F5BBBB" stroke-linecap="round" stroke-linejoin="round"/>
<path d="M48.7994 69.6724C49.508 69.4367 51.615 68.459 51.615 68.459" stroke="#F5BBBB" stroke-linecap="round" stroke-linejoin="round"/>
<path d="M8.30927 73.5527C8.07951 74.454 8.10142 75.3988 8.37269 76.2889C8.37269 76.2889 12.9377 78.4462 17.7612 77.3627C18.0863 77.0914 18.3243 76.7346 18.4468 76.3347C18.5694 75.935 18.5713 75.5092 18.4523 75.1085L8.30927 73.5527Z" fill="#1924B1"/>
<path d="M144.296 57.4186C144.296 57.4186 142.89 64.9262 143.763 72.2679C144.309 76.8619 147.313 81.5779 147.274 83.7706C147.213 87.3208 143.053 88.8246 143.041 90.8802C143.033 92.0964 146.401 91.3397 147.89 90.8669C151.235 89.8041 153.433 91.2482 153.433 91.2482L152.542 60.101L144.296 57.4186Z" fill="#F5BBBB"/>
<path d="M153.234 55.5931C150.148 51.8248 148.764 53.6295 147.68 53.7217C147.68 53.7217 144.007 54.3889 144.296 57.4186C144.602 60.6242 150.004 81.9873 150.004 81.9873L161.344 81.1558L160.806 78.21L159.699 72.1427L158.519 65.6554L158.414 64.8831L157.087 56.3487C157.087 56.3487 154.833 57.6056 153.234 55.5931Z" fill="#DBA7A7"/>
<path d="M153.996 62.0982C157.011 60.2923 157.956 56.444 156.105 53.5025C154.254 50.5611 150.309 49.6405 147.294 51.4464C144.278 53.2521 143.335 57.1006 145.186 60.0419C147.037 62.9833 150.981 63.9039 153.996 62.0982Z" fill="#DBA7A7"/>
<path d="M126.854 82.8741L119.705 83.3931L118.015 87.2821L118.592 92.0827C118.592 92.0827 119.823 91.5936 119.95 89.8954C120.077 88.1973 125.769 89.402 127.257 87.5368" fill="#BC775C"/>
<path d="M154.127 76.5835L126.388 81.6848C126.221 81.7222 126.074 81.8184 125.976 81.9549C125.878 82.0916 125.835 82.2587 125.855 82.4244L126.527 87.5741C126.562 87.8203 126.689 88.0451 126.885 88.2046C127.08 88.3643 127.329 88.4472 127.584 88.4377L156.158 87.3472L154.127 76.5835Z" fill="#DBA7A7"/>
<path d="M155.768 87.389C158.902 87.389 161.444 84.9097 161.444 81.8514C161.444 78.793 158.902 76.3138 155.768 76.3138C152.633 76.3138 150.092 78.793 150.092 81.8514C150.092 84.9097 152.633 87.389 155.768 87.389Z" fill="#DBA7A7"/>
<path d="M127.064 56.6725C127.99 52.2116 125.812 52.3266 125.087 51.6172C125.087 51.6172 122.368 49.4296 120.296 51.4689C118.103 53.626 105.53 70.3829 105.53 70.3829L113.397 77.4415L114.875 75.72L118.706 71.2632L122.803 66.4999L123.312 65.9575L128.838 59.8505C128.838 59.8505 126.54 59.0209 127.064 56.6725Z" fill="#DBA7A7"/>
<path d="M130.354 57.4324C131.415 54.3437 129.708 51.0011 126.542 49.9665C123.376 48.9319 119.949 50.5972 118.889 53.686C117.829 56.7747 119.536 60.1174 122.702 61.152C125.868 62.1866 129.294 60.5213 130.354 57.4324Z" fill="#DBA7A7"/>
<path d="M122.803 66.4998C122.568 64.0205 121.725 60.3064 121.725 60.3064C121.725 60.3064 120.997 60.2408 118.751 65.1366C117.088 68.8055 115.158 72.545 114.839 75.7082L118.669 71.2514L122.803 66.4998Z" fill="#F5BBBB"/>
<path d="M107.441 48.6622C107.032 44.8898 108.084 44.7069 108.098 42.6617C108.105 40.6629 111.199 36.9628 109.724 37.0376C108.248 37.1123 107.212 38.4878 107.212 38.4878C106.993 36.6949 107.363 33.7111 105.482 32.5853C103.602 31.4595 103.159 32.0045 101.627 32.4522C97.5389 33.6771 99.8211 38.9551 99.8629 40.6275C99.8999 41.6802 101.798 45.6178 101.884 46.3442L102.488 49.1445L107.441 48.6622Z" fill="#BC775C"/>
<path d="M105.111 37.8543L104.552 32.4393" stroke="#A74602" stroke-linecap="round"/>
<path d="M103.199 37.9144L102.289 32.7129" stroke="#A74602" stroke-linecap="round"/>
<path d="M100.952 37.9263L100.492 34.8132" stroke="#A74602" stroke-linecap="round"/>
<path d="M104.051 41.988C104.719 40.4646 106.452 38.9984 106.452 38.9984L104.051 41.988Z" fill="#A74602"/>
<path d="M104.051 41.988C104.719 40.4646 106.452 38.9984 106.452 38.9984" stroke="#A74602" stroke-linecap="round"/>
<path d="M114.604 71.8868L108.478 49.143C108.433 48.9919 108.331 48.8628 108.194 48.7804C108.056 48.6981 107.892 48.6683 107.733 48.6968L102.8 49.614C102.565 49.6605 102.355 49.7909 102.212 49.9795C102.07 50.1684 102.004 50.4021 102.028 50.6355L104.33 74.3797L114.604 71.8868Z" fill="#DBA7A7"/>
<path d="M102.433 50.5996C102.433 50.5996 101.826 48.329 102.433 48.0795C103.041 47.83 106.847 47.1207 107.358 47.5845C107.868 48.0484 108.314 49.9822 108.314 49.9822L102.433 50.5996Z" fill="#DBA7A7"/>
<path d="M109.614 78.9275C112.572 78.9275 114.971 76.5876 114.971 73.7014C114.971 70.8151 112.572 68.4752 109.614 68.4752C106.655 68.4752 104.257 70.8151 104.257 73.7014C104.257 76.5876 106.655 78.9275 109.614 78.9275Z" fill="#DBA7A7"/>
<path d="M22.3252 48.3923C22.3252 48.3923 26.2295 55.7696 30.2166 56.9829C30.2166 56.9829 32.4574 55.8221 32.1002 49.1226" stroke="white" stroke-miterlimit="10"/>
<path d="M30.0765 58.884C30.8275 58.884 31.4363 58.2901 31.4363 57.5576C31.4363 56.8249 30.8275 56.231 30.0765 56.231C29.3254 56.231 28.7167 56.8249 28.7167 57.5576C28.7167 58.2901 29.3254 58.884 30.0765 58.884Z" fill="#1924B1"/>
<path d="M28.2468 56.3756C28.5064 56.3756 28.7168 56.1703 28.7168 55.9171C28.7168 55.664 28.5064 55.4586 28.2468 55.4586C27.9873 55.4586 27.777 55.664 27.777 55.9171C27.777 56.1703 27.9873 56.3756 28.2468 56.3756Z" fill="#1924B1"/>
<path d="M31.4364 56.0918C31.6959 56.0918 31.9064 55.8865 31.9064 55.6333C31.9064 55.3802 31.6959 55.1748 31.4364 55.1748C31.1768 55.1748 30.9664 55.3802 30.9664 55.6333C30.9664 55.8865 31.1768 56.0918 31.4364 56.0918Z" fill="#1924B1"/>
<path d="M69.1995 78.8353L53.875 78.9197V93.2835L76.6831 91.9867L69.1995 78.8353Z" fill="white"/>
<path d="M67.7488 80.2349L70.2828 85.3135" stroke="#1C85E8" stroke-miterlimit="10" stroke-linecap="round"/>
<path opacity="0.4" d="M65.2791 80.2355L66.2287 82.1385" stroke="#1C85E8" stroke-miterlimit="10" stroke-linecap="round"/>
<path opacity="0.4" d="M54.9086 80.2354L62.4879 80.0636L63.0448 81.8724L55.0601 82.1385L54.9086 80.2354Z" fill="#1C85E8"/>
<path opacity="0.4" d="M55.1212 83.1783L59.571 83.0612L60.128 84.8698L55.2728 85.0813L55.1212 83.1783Z" fill="#1C85E8"/>
<path opacity="0.4" d="M55.1212 86.3822L62.7004 86.2106L63.2575 88.0192L55.2728 88.2853L55.1212 86.3822Z" fill="#1C85E8"/>
<path opacity="0.4" d="M55.3339 89.3252L59.7837 89.2081L60.3406 91.0167L55.4854 91.2283L55.3339 89.3252Z" fill="#1C85E8"/>
<path d="M42.291 103.097L59.1894 92.7738L71.1702 96.098L56.7306 108.48L42.291 103.097Z" fill="#1C85E8"/>
<path d="M135.599 49.6825C135.599 49.6825 141.26 47.8309 142.324 45.3835C142.324 45.3835 144.909 45.7462 145.923 46.6941C146.932 47.6422 149.396 47.9242 147.261 48.9783C145.126 50.0323 136.801 50.9252 136.294 50.7873C135.788 50.6495 135.599 49.6825 135.599 49.6825Z" fill="white"/>
<path d="M133.253 46.3126V47.5513C133.253 47.5513 133.759 49.3306 135.599 49.6827C135.599 49.6827 135.886 50.6647 134.873 50.7813C133.862 50.8979 130.921 49.4472 130.488 49.3052C130.053 49.1652 129.862 48.5799 130.705 48.1112C130.705 48.1112 131.007 46.5057 133.253 46.3126Z" fill="white"/>
<path d="M138.409 63.6758C138.401 63.6761 138.393 63.6755 138.386 63.6737C138.358 63.6674 138.333 63.6505 138.318 63.627C138.303 63.6032 138.297 63.5742 138.303 63.5464C138.612 62.2314 137.749 60.607 136.915 59.0355C136.296 57.869 135.655 56.6623 135.493 55.5742C135.109 53.0483 136.157 50.2106 136.168 50.183C136.178 50.1568 136.198 50.1354 136.225 50.1236C136.251 50.1116 136.279 50.1102 136.308 50.1194C136.321 50.1241 136.333 50.1314 136.344 50.1408C136.354 50.1502 136.362 50.1613 136.369 50.174C136.376 50.1866 136.379 50.2004 136.379 50.2143C136.379 50.2282 136.377 50.2422 136.372 50.2553C136.362 50.2828 135.332 53.0716 135.705 55.5446C135.866 56.5965 136.497 57.7863 137.11 58.9378C137.96 60.5433 138.843 62.2039 138.516 63.5951C138.511 63.6185 138.497 63.639 138.477 63.6538C138.458 63.6683 138.434 63.6761 138.409 63.6758Z" fill="white"/>
<path d="M134.39 62.4712C134.365 62.4717 134.342 62.4638 134.322 62.4492C134.304 62.4345 134.291 62.4137 134.286 62.3906C133.605 59.606 134.334 54.832 134.573 53.4343C134.772 52.378 134.842 51.3023 134.782 50.2298C134.779 50.2021 134.789 50.1744 134.807 50.153C134.825 50.1316 134.85 50.118 134.88 50.1153C134.908 50.1125 134.936 50.1208 134.958 50.1381C134.981 50.1556 134.995 50.1809 134.998 50.2086C135.061 51.2995 134.99 52.3936 134.787 53.4683C134.548 54.8575 133.824 59.5954 134.497 62.3418C134.5 62.3575 134.501 62.3739 134.497 62.3896C134.493 62.4055 134.487 62.4202 134.477 62.433C134.467 62.445 134.453 62.4547 134.438 62.4612C134.422 62.4678 134.407 62.4712 134.39 62.4712Z" fill="white"/>
<g opacity="0.6">
<path opacity="0.6" d="M138.295 64.4366C138.673 64.4366 138.98 64.1378 138.98 63.769C138.98 63.4004 138.673 63.1014 138.295 63.1014C137.915 63.1014 137.608 63.4004 137.608 63.769C137.608 64.1378 137.915 64.4366 138.295 64.4366Z" fill="white"/>
</g>
<g opacity="0.6">
<path opacity="0.6" d="M134.513 63.0349C134.893 63.0349 135.2 62.7361 135.2 62.3673C135.2 61.9987 134.893 61.6998 134.513 61.6998C134.135 61.6998 133.828 61.9987 133.828 62.3673C133.828 62.7361 134.135 63.0349 134.513 63.0349Z" fill="white"/>
</g>
<path d="M93.2905 5.10815H94.2866" stroke="#5CA4E6" stroke-miterlimit="10"/>
<path d="M111.523 0.0236816H54.1416C52.465 0.0236816 51.1057 1.34981 51.1057 2.98545V39.0611C51.1057 40.6969 52.465 42.0229 54.1416 42.0229H111.523C113.2 42.0229 114.559 40.6969 114.559 39.0611V2.98545C114.559 1.34981 113.2 0.0236816 111.523 0.0236816Z" fill="url(#paint1_linear_54_291)"/>
<path d="M109.516 31.387H77.6385C77.1109 31.387 76.6832 31.8042 76.6832 32.3189V36.5245C76.6832 37.0392 77.1109 37.4564 77.6385 37.4564H109.516C110.043 37.4564 110.471 37.0392 110.471 36.5245V32.3189C110.471 31.8042 110.043 31.387 109.516 31.387Z" fill="white"/>
<path d="M99.6425 34.0054V33.7636H100.204V35.8696H99.9292V34.0054H99.6425ZM100.665 34.2937C100.679 34.115 100.749 33.9753 100.877 33.8742C101.004 33.7733 101.169 33.7228 101.372 33.7228C101.508 33.7228 101.624 33.7471 101.721 33.7957C101.821 33.8423 101.896 33.9063 101.945 33.9879C101.997 34.0694 102.023 34.1617 102.023 34.2645C102.023 34.385 101.987 34.4888 101.915 34.5763C101.846 34.6636 101.754 34.72 101.641 34.7452V34.7598C101.77 34.7909 101.873 34.852 101.948 34.9433C102.024 35.0345 102.062 35.154 102.062 35.3016C102.062 35.4122 102.036 35.5123 101.984 35.6015C101.932 35.689 101.855 35.758 101.751 35.8083C101.648 35.8589 101.523 35.8841 101.378 35.8841C101.167 35.8841 100.994 35.8307 100.859 35.724C100.723 35.6151 100.648 35.4617 100.632 35.2637H100.895C100.908 35.3803 100.957 35.4754 101.041 35.5492C101.124 35.6229 101.236 35.6598 101.375 35.6598C101.514 35.6598 101.62 35.6248 101.692 35.555C101.765 35.4831 101.802 35.3908 101.802 35.2782C101.802 35.1326 101.752 35.0277 101.653 34.9637C101.553 34.8996 101.403 34.8675 101.202 34.8675H101.133V34.6461H101.205C101.388 34.6442 101.526 34.6152 101.62 34.5588C101.713 34.5005 101.76 34.4113 101.76 34.2908C101.76 34.1879 101.725 34.1053 101.656 34.0433C101.588 33.9811 101.491 33.95 101.363 33.95C101.24 33.95 101.14 33.9811 101.065 34.0433C100.989 34.1053 100.944 34.1889 100.93 34.2937H100.665ZM102.396 35.6569C102.649 35.4588 102.847 35.2967 102.99 35.1705C103.133 35.0423 103.254 34.9093 103.351 34.7715C103.451 34.6315 103.501 34.4947 103.501 34.3607C103.501 34.2346 103.469 34.1355 103.405 34.0635C103.343 33.9899 103.243 33.9529 103.103 33.9529C102.968 33.9529 102.863 33.9947 102.787 34.0781C102.713 34.1597 102.674 34.2694 102.668 34.4074H102.405C102.413 34.1899 102.48 34.0219 102.608 33.9034C102.735 33.785 102.899 33.7257 103.1 33.7257C103.306 33.7257 103.468 33.7811 103.587 33.8917C103.709 34.0025 103.769 34.1549 103.769 34.3491C103.769 34.5102 103.72 34.6675 103.62 34.8209C103.523 34.9725 103.411 35.1064 103.286 35.2229C103.16 35.3375 103 35.4715 102.805 35.6248H103.832V35.8462H102.396V35.6569Z" fill="#1C85E8"/>
<path d="M72.2167 4.47205H55.5114C54.885 4.47205 54.3772 4.96748 54.3772 5.57872V36.3499C54.3772 36.9609 54.885 37.4564 55.5114 37.4564H72.2167C72.8431 37.4564 73.3509 36.9609 73.3509 36.3499V5.57872C73.3509 4.96748 72.8431 4.47205 72.2167 4.47205Z" fill="#1C85E8"/>
<path opacity="0.4" d="M63.8643 26.3774C66.5067 26.3774 68.6489 24.2874 68.6489 21.7095C68.6489 19.1314 66.5067 17.0415 63.8643 17.0415C61.2217 17.0415 59.0795 19.1314 59.0795 21.7095C59.0795 24.2874 61.2217 26.3774 63.8643 26.3774Z" fill="white"/>
<path d="M62.384 20.4245V23.3871C62.384 23.4692 62.4059 23.55 62.4476 23.6214C62.4893 23.6927 62.5492 23.7523 62.6216 23.7941C62.694 23.836 62.7763 23.8588 62.8605 23.8603C62.9448 23.8616 63.0278 23.8417 63.1017 23.8023L65.8778 22.3209C65.9541 22.2802 66.0179 22.2201 66.0622 22.1471C66.1065 22.074 66.1299 21.9906 66.1299 21.9058C66.1299 21.8209 66.1065 21.7375 66.0622 21.6644C66.0179 21.5914 65.9541 21.5313 65.8778 21.4907L63.1017 20.0092C63.0278 19.9699 62.9448 19.9499 62.8605 19.9512C62.7763 19.9527 62.694 19.9755 62.6216 20.0173C62.5492 20.0593 62.4893 20.1189 62.4476 20.1901C62.4059 20.2615 62.384 20.3422 62.384 20.4245Z" fill="white"/>
<path d="M77.5403 8.43384H89.4743" stroke="white" stroke-miterlimit="10" stroke-linecap="round"/>
<path opacity="0.4" d="M77.5403 13.8673H102.203" stroke="white" stroke-miterlimit="10" stroke-linecap="round"/>
<path d="M77.6873 21.0692H89.6214" stroke="white" stroke-miterlimit="10" stroke-linecap="round"/>
<path opacity="0.4" d="M77.6873 26.5028H102.35" stroke="white" stroke-miterlimit="10" stroke-linecap="round"/>
<path d="M82.0133 33.3837C81.8265 33.2154 81.5815 33.1218 81.3273 33.1218C81.073 33.1218 80.8281 33.2154 80.6413 33.3837L80.3828 33.6165L80.1244 33.3837C79.9376 33.2154 79.6927 33.1218 79.4384 33.1218C79.1842 33.1218 78.9392 33.2154 78.7526 33.3837C78.654 33.4708 78.5751 33.5771 78.5212 33.6957C78.4672 33.8142 78.4393 33.9426 78.4393 34.0724C78.4393 34.2021 78.4672 34.3304 78.5212 34.4489C78.5751 34.5676 78.654 34.6739 78.7526 34.7609L80.3828 36.235L82.0133 34.7803C82.1162 34.6938 82.1987 34.5866 82.2553 34.4661C82.3119 34.3456 82.3413 34.2146 82.3413 34.0821C82.3413 33.9494 82.3119 33.8184 82.2553 33.6979C82.1987 33.5774 82.1162 33.4702 82.0133 33.3837Z" fill="#F4608A"/>
<path d="M83.8335 34.2937C83.8474 34.115 83.9182 33.9753 84.0455 33.8742C84.173 33.7733 84.3382 33.7228 84.5412 33.7228C84.6765 33.7228 84.793 33.7471 84.8905 33.7957C84.9901 33.8423 85.0646 33.9063 85.1144 33.9879C85.1662 34.0694 85.1921 34.1617 85.1921 34.2645C85.1921 34.385 85.1563 34.4888 85.0846 34.5763C85.0148 34.6636 84.9234 34.72 84.8098 34.7452V34.7598C84.9393 34.7909 85.0417 34.852 85.1174 34.9433C85.193 35.0345 85.2308 35.154 85.2308 35.3016C85.2308 35.4122 85.2049 35.5123 85.1533 35.6015C85.1015 35.689 85.0238 35.758 84.9204 35.8083C84.8168 35.8589 84.6924 35.8841 84.5472 35.8841C84.3362 35.8841 84.163 35.8307 84.0276 35.724C83.8923 35.6151 83.8167 35.4617 83.8008 35.2637H84.0634C84.0774 35.3803 84.1262 35.4754 84.2098 35.5492C84.2933 35.6229 84.4049 35.6598 84.5442 35.6598C84.6835 35.6598 84.7891 35.6248 84.8606 35.555C84.9343 35.4831 84.9712 35.3908 84.9712 35.2782C84.9712 35.1326 84.9214 35.0277 84.8218 34.9637C84.7223 34.8996 84.5721 34.8675 84.371 34.8675H84.3023V34.6461H84.374C84.5571 34.6442 84.6954 34.6152 84.7891 34.5588C84.8825 34.5005 84.9293 34.4113 84.9293 34.2908C84.9293 34.1879 84.8945 34.1053 84.8248 34.0433C84.7572 33.9811 84.6596 33.95 84.5322 33.95C84.4089 33.95 84.3093 33.9811 84.2336 34.0433C84.158 34.1053 84.1132 34.1889 84.0993 34.2937H83.8335ZM85.9231 35.5026L85.5887 36.2861H85.4066L85.6246 35.5026H85.9231ZM87.5659 33.9937H86.5181V34.6578C86.5637 34.5957 86.6315 34.5452 86.7211 34.5063C86.8106 34.4655 86.9072 34.4451 87.0106 34.4451C87.1758 34.4451 87.3103 34.4791 87.4137 34.5472C87.5173 34.6132 87.5908 34.6996 87.6347 34.8065C87.6805 34.9112 87.7034 35.0228 87.7034 35.1414C87.7034 35.2812 87.6765 35.4064 87.6227 35.5171C87.5689 35.6278 87.4864 35.7152 87.3749 35.7792C87.2655 35.8433 87.1292 35.8754 86.9658 35.8754C86.7568 35.8754 86.5876 35.8229 86.4583 35.7181C86.329 35.6132 86.2503 35.4734 86.2224 35.2987H86.4882C86.5141 35.4093 86.5687 35.4958 86.6524 35.5579C86.7361 35.62 86.8415 35.6511 86.9688 35.6511C87.1262 35.6511 87.2445 35.6054 87.3242 35.5142C87.4038 35.4209 87.4436 35.2986 87.4436 35.1472C87.4436 34.9958 87.4038 34.8792 87.3242 34.7977C87.2445 34.7141 87.1272 34.6724 86.9718 34.6724C86.8664 34.6724 86.7737 34.6976 86.6942 34.7481C86.6165 34.7967 86.5598 34.8636 86.5241 34.9491H86.2672V33.7607H87.5659V33.9937ZM88.0316 35.6569C88.2843 35.4588 88.4823 35.2967 88.6258 35.1705C88.769 35.0423 88.8894 34.9093 88.987 34.7715C89.0865 34.6315 89.1363 34.4947 89.1363 34.3607C89.1363 34.2346 89.1044 34.1355 89.0406 34.0635C88.9791 33.9899 88.8784 33.9529 88.7392 33.9529C88.6039 33.9529 88.4983 33.9947 88.4227 34.0781C88.349 34.1597 88.3092 34.2694 88.3032 34.4074H88.0406C88.0485 34.1899 88.1161 34.0219 88.2436 33.9034C88.3709 33.785 88.5351 33.7257 88.7362 33.7257C88.9412 33.7257 89.1034 33.7811 89.2229 33.8917C89.3443 34.0025 89.405 34.1549 89.405 34.3491C89.405 34.5102 89.3552 34.6675 89.2556 34.8209C89.1582 34.9725 89.0466 35.1064 88.9213 35.2229C88.7959 35.3375 88.6357 35.4715 88.4407 35.6248H89.4676V35.8462H88.0316V35.6569ZM91.1103 33.9704L90.2804 35.8696H90.0057L90.8477 33.9967H89.6952V33.7694H91.1103V33.9704Z" fill="#1C85E8"/>
<path d="M98.4246 34.4249C98.4246 33.5314 97.3394 32.8071 96.0008 32.8071C94.6622 32.8071 93.577 33.5314 93.577 34.4249C93.577 35.3185 94.6622 36.0428 96.0008 36.0428C96.0966 36.0428 96.1904 36.0379 96.2832 36.0303C96.2975 36.029 96.3117 36.0311 96.325 36.0361C96.3385 36.0411 96.3504 36.0489 96.3602 36.0591C96.5322 36.2349 96.9097 36.5068 97.6249 36.5499C97.6428 36.551 97.6606 36.5474 97.6765 36.5393C97.6925 36.5311 97.7056 36.5189 97.7149 36.5039C97.724 36.4888 97.7288 36.4716 97.7287 36.4541C97.7283 36.4367 97.7232 36.4195 97.7137 36.4047C97.5887 36.2227 97.4913 36.0241 97.424 35.8152C97.4186 35.7943 97.4205 35.7723 97.4297 35.7529C97.4388 35.7333 97.4546 35.7174 97.4743 35.7078C98.0514 35.4123 98.4246 34.9481 98.4246 34.4249Z" fill="#1C85E8"/>
<path d="M144.459 112.209H24.5035V115.15H144.459V112.209Z" fill="#1C85E8"/>
<path d="M25.4429 37.8988C25.7179 37.8988 25.9409 37.6812 25.9409 37.4129C25.9409 37.1445 25.7179 36.927 25.4429 36.927C25.1678 36.927 24.9448 37.1445 24.9448 37.4129C24.9448 37.6812 25.1678 37.8988 25.4429 37.8988Z" fill="#1924B1"/>
</g>
<defs>
<linearGradient id="paint0_linear_54_291" x1="70.0172" y1="-1.86245" x2="81.7841" y2="170.499" gradientUnits="userSpaceOnUse">
<stop stop-color="white"/>
<stop offset="1" stop-color="#94B9FF"/>
</linearGradient>
<linearGradient id="paint1_linear_54_291" x1="75.4865" y1="-13.3394" x2="84.8515" y2="89.8188" gradientUnits="userSpaceOnUse">
<stop stop-color="white"/>
<stop offset="1" stop-color="#94B9FF"/>
</linearGradient>
<clipPath id="clip0_54_291">
<rect width="167.009" height="115" fill="white" transform="translate(0.540894)"/>
</clipPath>
</defs>
</svg>
