<svg width="107" height="18" viewBox="0 0 107 18" fill="none" xmlns="http://www.w3.org/2000/svg">
<line x1="0.5" y1="2.18557e-08" x2="0.499999" y2="18" stroke="#818698"/>
<path d="M11.5852 16V2.90909H16.0085C17.0355 2.90909 17.875 3.09446 18.527 3.4652C19.1832 3.83168 19.669 4.32812 19.9844 4.95455C20.2997 5.58097 20.4574 6.27983 20.4574 7.05114C20.4574 7.82244 20.2997 8.52344 19.9844 9.15412C19.6733 9.7848 19.1918 10.2876 18.5398 10.6626C17.8878 11.0334 17.0526 11.2188 16.0341 11.2188H12.8636V9.8125H15.983C16.6861 9.8125 17.2507 9.69105 17.6768 9.44815C18.103 9.20526 18.4119 8.87713 18.6037 8.46378C18.7997 8.04616 18.8977 7.57528 18.8977 7.05114C18.8977 6.52699 18.7997 6.05824 18.6037 5.64489C18.4119 5.23153 18.1009 4.90767 17.6705 4.6733C17.2401 4.43466 16.669 4.31534 15.9574 4.31534H13.1705V16H11.5852ZM26.8175 16.2045C25.8714 16.2045 25.0554 15.9957 24.3693 15.5781C23.6875 15.1562 23.1612 14.5682 22.7905 13.8139C22.424 13.0554 22.2408 12.1733 22.2408 11.1676C22.2408 10.1619 22.424 9.27557 22.7905 8.50852C23.1612 7.73722 23.6768 7.13636 24.3374 6.70597C25.0021 6.27131 25.7777 6.05398 26.6641 6.05398C27.1754 6.05398 27.6804 6.1392 28.179 6.30966C28.6776 6.48011 29.1314 6.7571 29.5405 7.14062C29.9496 7.51989 30.2756 8.02273 30.5185 8.64915C30.7614 9.27557 30.8828 10.0469 30.8828 10.9631V11.6023H23.3146V10.2983H29.3487C29.3487 9.74432 29.2379 9.25 29.0163 8.81534C28.799 8.38068 28.4879 8.03764 28.0831 7.78622C27.6825 7.5348 27.2095 7.40909 26.6641 7.40909C26.0632 7.40909 25.5433 7.55824 25.1044 7.85653C24.6697 8.15057 24.3352 8.53409 24.1009 9.0071C23.8665 9.48011 23.7493 9.98722 23.7493 10.5284V11.3977C23.7493 12.1392 23.8771 12.7678 24.1328 13.2834C24.3928 13.7947 24.7528 14.1847 25.2131 14.4531C25.6733 14.7173 26.2081 14.8494 26.8175 14.8494C27.2138 14.8494 27.5717 14.794 27.8913 14.6832C28.2152 14.5682 28.4943 14.3977 28.7287 14.1719C28.9631 13.9418 29.1442 13.6562 29.272 13.3153L30.7294 13.7244C30.576 14.2188 30.3182 14.6534 29.956 15.0284C29.5938 15.3991 29.1463 15.6889 28.6136 15.8977C28.081 16.1023 27.4822 16.2045 26.8175 16.2045ZM39.2372 6.18182V7.58807H34.6861V16H33.1776V6.18182H39.2372ZM42.9478 13.7756L47.6779 6.18182H49.4165V16H47.908V8.40625L43.2035 16H41.4393V6.18182H42.9478V13.7756ZM56.1681 16.2045C55.2818 16.2045 54.5041 15.9936 53.835 15.5717C53.1703 15.1499 52.6504 14.5597 52.2754 13.8011C51.9047 13.0426 51.7193 12.1562 51.7193 11.142C51.7193 10.1193 51.9047 9.22656 52.2754 8.46378C52.6504 7.70099 53.1703 7.10866 53.835 6.68679C54.5041 6.26491 55.2818 6.05398 56.1681 6.05398C57.0545 6.05398 57.8301 6.26491 58.4949 6.68679C59.1639 7.10866 59.6838 7.70099 60.0545 8.46378C60.4295 9.22656 60.617 10.1193 60.617 11.142C60.617 12.1562 60.4295 13.0426 60.0545 13.8011C59.6838 14.5597 59.1639 15.1499 58.4949 15.5717C57.8301 15.9936 57.0545 16.2045 56.1681 16.2045ZM56.1681 14.8494C56.8414 14.8494 57.3954 14.6768 57.8301 14.3317C58.2647 13.9865 58.5865 13.5327 58.7953 12.9702C59.0041 12.4077 59.1085 11.7983 59.1085 11.142C59.1085 10.4858 59.0041 9.87429 58.7953 9.30753C58.5865 8.74077 58.2647 8.28267 57.8301 7.93324C57.3954 7.58381 56.8414 7.40909 56.1681 7.40909C55.4949 7.40909 54.9409 7.58381 54.5062 7.93324C54.0716 8.28267 53.7498 8.74077 53.541 9.30753C53.3322 9.87429 53.2278 10.4858 53.2278 11.142C53.2278 11.7983 53.3322 12.4077 53.541 12.9702C53.7498 13.5327 54.0716 13.9865 54.5062 14.3317C54.9409 14.6768 55.4949 14.8494 56.1681 14.8494ZM69.4908 10.4006V11.8068H64.0703V10.4006H69.4908ZM64.4283 6.18182V16H62.9197V6.18182H64.4283ZM70.6413 6.18182V16H69.1328V6.18182H70.6413Z" fill="#818698"/>
<g clip-path="url(#clip0_91_71)">
<path d="M83.6 5.871H107V12.129H83.6V5.871Z" fill="#0052B4"/>
<path d="M83.6 0H107V5.871H83.6V0Z" fill="#EEEEEE"/>
<path d="M83.6 12.129H107V18H83.6V12.129Z" fill="#D80027"/>
</g>
<rect x="83.5" y="0.5" width="23" height="17" rx="1.5" stroke="#818698" stroke-opacity="0.5"/>
<defs>
<clipPath id="clip0_91_71">
<rect x="83" width="24" height="18" rx="2" fill="white"/>
</clipPath>
</defs>
</svg>
