<svg width="4331" height="2376" viewBox="0 0 4331 2376" fill="none" xmlns="http://www.w3.org/2000/svg">
<g filter="url(#filter0_d_466_198)">
<path d="M4330.09 1977.09C4330.09 885.17 3362.49 0 2168.89 0C975.29 0 7.67969 885.17 7.67969 1977.09H4330.09Z" fill="#C7E1E9"/>
<path d="M3698.43 942C3698.43 942.974 3698.06 943.911 3697.4 944.628C3696.74 945.344 3695.84 945.787 3694.87 945.87L3502.23 962.12L3484.57 985.59C3480.42 991.105 3475.04 995.58 3468.86 998.663C3462.68 1001.74 3455.87 1003.35 3448.97 1003.35H3087C3065.81 1003.35 3056 977.04 3072 963.18L2853.74 944.85C2852.9 944.775 2852.12 944.389 2851.55 943.767C2850.98 943.146 2850.66 942.333 2850.66 941.49C2850.66 941.048 2850.75 940.61 2850.92 940.202C2851.09 939.794 2851.33 939.423 2851.65 939.111C2851.96 938.798 2852.33 938.551 2852.74 938.383C2853.15 938.215 2853.59 938.129 2854.03 938.13H3455.53C3470.64 938.153 3485.43 933.687 3498 925.3L3532.68 902.17C3535.42 900.338 3538.65 899.36 3541.95 899.36H3549.52L3520.33 938.15H3694.6C3695.62 938.163 3696.58 938.574 3697.3 939.293C3698.02 940.013 3698.42 940.985 3698.43 942Z" fill="white"/>
<path d="M2850.69 941.51C2850.69 942.354 2851.01 943.168 2851.58 943.79C2852.15 944.412 2852.93 944.797 2853.77 944.87L3072 963.2L3086.64 950.67L2850.69 941.51Z" fill="#D8E9F1"/>
<path d="M3698.43 942C3698.43 942.972 3698.06 943.908 3697.41 944.624C3696.75 945.341 3695.85 945.785 3694.88 945.87L3327.01 976.87L3306.61 959L3698.43 942Z" fill="#D8E9F1"/>
<path d="M2996.22 968.56C2996.22 983.56 2986.1 991.09 2969.95 991.09C2962.95 991.09 2957.25 989.57 2953.01 986.86C2954.65 987.729 2956.48 988.185 2958.34 988.19C2966.43 988.19 2973 979.39 2973 968.55C2973 957.71 2966.43 948.91 2958.34 948.91C2956.48 948.92 2954.65 949.376 2953.01 950.24V950.18C2957.23 947.5 2962.87 946.01 2969.95 946.01C2986.67 946 2996.22 954.3 2996.22 968.56Z" fill="white"/>
<path d="M2958.33 988.19C2966.43 988.19 2973 979.397 2973 968.55C2973 957.703 2966.43 948.91 2958.33 948.91C2950.23 948.91 2943.66 957.703 2943.66 968.55C2943.66 979.397 2950.23 988.19 2958.33 988.19Z" fill="#98C8DB"/>
<path d="M3350 968.56C3350 983.56 3339.87 991.09 3323.72 991.09C3316.72 991.09 3311.02 989.57 3306.79 986.86C3308.43 987.727 3310.25 988.184 3312.1 988.19C3320.21 988.19 3326.78 979.39 3326.78 968.55C3326.78 957.71 3320.21 948.91 3312.1 948.91C3310.25 948.921 3308.43 949.377 3306.79 950.24V950.18C3311 947.5 3316.65 946.01 3323.72 946.01C3340.45 946 3350 954.3 3350 968.56Z" fill="white"/>
<path d="M3312.11 988.19C3320.21 988.19 3326.78 979.397 3326.78 968.55C3326.78 957.703 3320.21 948.91 3312.11 948.91C3304.01 948.91 3297.44 957.703 3297.44 968.55C3297.44 979.397 3304.01 988.19 3312.11 988.19Z" fill="#98C8DB"/>
<path d="M3124.71 961.57H3073.71L3086.71 950.67H3118.88C3120.18 950.671 3121.46 951.075 3122.52 951.827C3123.59 952.579 3124.39 953.642 3124.83 954.87L3126.39 959.24C3126.48 959.506 3126.51 959.791 3126.47 960.07C3126.43 960.349 3126.32 960.615 3126.16 960.844C3125.99 961.073 3125.78 961.258 3125.52 961.385C3125.27 961.511 3124.99 961.575 3124.71 961.57Z" fill="#98C8DB"/>
<path d="M3170.55 950.67H3169.46C3167.8 950.67 3166.46 952.013 3166.46 953.67V958.57C3166.46 960.227 3167.8 961.57 3169.46 961.57H3170.55C3172.21 961.57 3173.55 960.227 3173.55 958.57V953.67C3173.55 952.013 3172.21 950.67 3170.55 950.67Z" fill="#98C8DB"/>
<path d="M3190.35 950.67H3189.26C3187.6 950.67 3186.26 952.013 3186.26 953.67V958.57C3186.26 960.227 3187.6 961.57 3189.26 961.57H3190.35C3192.01 961.57 3193.35 960.227 3193.35 958.57V953.67C3193.35 952.013 3192.01 950.67 3190.35 950.67Z" fill="#98C8DB"/>
<path d="M3210.14 950.67H3209.05C3207.39 950.67 3206.05 952.013 3206.05 953.67V958.57C3206.05 960.227 3207.39 961.57 3209.05 961.57H3210.14C3211.8 961.57 3213.14 960.227 3213.14 958.57V953.67C3213.14 952.013 3211.8 950.67 3210.14 950.67Z" fill="#98C8DB"/>
<path d="M3229.94 950.67H3228.85C3227.19 950.67 3225.85 952.013 3225.85 953.67V958.57C3225.85 960.227 3227.19 961.57 3228.85 961.57H3229.94C3231.6 961.57 3232.94 960.227 3232.94 958.57V953.67C3232.94 952.013 3231.6 950.67 3229.94 950.67Z" fill="#98C8DB"/>
<path d="M3249.74 950.67H3248.65C3246.99 950.67 3245.65 952.013 3245.65 953.67V958.57C3245.65 960.227 3246.99 961.57 3248.65 961.57H3249.74C3251.4 961.57 3252.74 960.227 3252.74 958.57V953.67C3252.74 952.013 3251.4 950.67 3249.74 950.67Z" fill="#98C8DB"/>
<path d="M3269.54 950.67H3268.45C3266.79 950.67 3265.45 952.013 3265.45 953.67V958.57C3265.45 960.227 3266.79 961.57 3268.45 961.57H3269.54C3271.2 961.57 3272.54 960.227 3272.54 958.57V953.67C3272.54 952.013 3271.2 950.67 3269.54 950.67Z" fill="#98C8DB"/>
<path d="M3289.07 1501L3204.57 1595.2C3197.02 1603.61 3186.52 1608.76 3175.25 1609.59L1320.3 1745.82C1342.66 1694.13 1355.66 1638.88 1358.69 1582.65H3158.15C3170.64 1582.65 3182.73 1578.22 3192.27 1570.16L3274.12 1500.97L3289.07 1501Z" fill="white"/>
<path d="M3185.72 1608.27L1320.3 1745.81C1333.89 1714.47 1344.03 1681.75 1350.54 1648.22L3185.72 1608.27Z" fill="#E2EFF4"/>
<path d="M1602.17 1945.7C1682.34 1945.7 1747.33 1880.71 1747.33 1800.54C1747.33 1720.37 1682.34 1655.38 1602.17 1655.38C1522 1655.38 1457.01 1720.37 1457.01 1800.54C1457.01 1880.71 1522 1945.7 1602.17 1945.7Z" fill="white"/>
<path d="M1602.43 1912.98C1664.39 1912.98 1714.61 1862.76 1714.61 1800.8C1714.61 1738.84 1664.39 1688.62 1602.43 1688.62C1540.47 1688.62 1490.25 1738.84 1490.25 1800.8C1490.25 1862.76 1540.47 1912.98 1602.43 1912.98Z" fill="#98C8DB"/>
<path d="M1602.43 1818.53C1612.22 1818.53 1620.16 1810.59 1620.16 1800.8C1620.16 1791.01 1612.22 1783.07 1602.43 1783.07C1592.64 1783.07 1584.7 1791.01 1584.7 1800.8C1584.7 1810.59 1592.64 1818.53 1602.43 1818.53Z" stroke="white" stroke-width="5" stroke-miterlimit="10"/>
<path d="M549.19 1745.67L28.1001 1707.39C31.5201 1684.06 35.3868 1660.85 39.7001 1637.78C43.1201 1619.31 46.8334 1600.93 50.8401 1582.65H510.84C513.877 1638.83 526.862 1694.03 549.19 1745.67Z" fill="white"/>
<path d="M549.19 1745.67L28.1001 1707.39C31.5201 1684.06 35.3868 1660.85 39.7001 1637.78L519 1648.18C525.498 1681.68 535.621 1714.36 549.19 1745.67Z" fill="#E2EFF4"/>
<path d="M269.33 1945.7C349.5 1945.7 414.49 1880.71 414.49 1800.54C414.49 1720.37 349.5 1655.38 269.33 1655.38C189.16 1655.38 124.17 1720.37 124.17 1800.54C124.17 1880.71 189.16 1945.7 269.33 1945.7Z" fill="white"/>
<path d="M269.07 1912.98C331.025 1912.98 381.25 1862.76 381.25 1800.8C381.25 1738.84 331.025 1688.62 269.07 1688.62C207.115 1688.62 156.89 1738.84 156.89 1800.8C156.89 1862.76 207.115 1912.98 269.07 1912.98Z" fill="#98C8DB"/>
<path d="M269.07 1818.53C278.862 1818.53 286.8 1810.59 286.8 1800.8C286.8 1791.01 278.862 1783.07 269.07 1783.07C259.278 1783.07 251.34 1791.01 251.34 1800.8C251.34 1810.59 259.278 1818.53 269.07 1818.53Z" stroke="white" stroke-width="5" stroke-miterlimit="10"/>
<path d="M980.69 1106.22H888.87L926 561.92C926.279 559.795 927.321 557.844 928.932 556.431C930.542 555.018 932.612 554.239 934.755 554.239C936.898 554.239 938.968 555.018 940.579 556.431C942.19 557.844 943.231 559.795 943.51 561.92L980.69 1106.22Z" fill="white"/>
<path d="M1773.66 1212.15L1773.5 1225.28L1286.17 1300.76C1276.77 1285.99 1266.52 1271.78 1255.47 1258.21L1773.66 1212.15Z" fill="white"/>
<path d="M614.44 1257.73C603.456 1271.23 593.253 1285.34 583.88 1300L101.64 1225.31L101.48 1212.18L614.44 1257.73Z" fill="white"/>
<path d="M934.78 1102V554.23C936.927 554.223 939.003 555 940.616 556.417C942.229 557.833 943.269 559.79 943.54 561.92L980.69 1106.22L934.78 1102Z" fill="#E2EFF4"/>
<path d="M934.78 2008.89C1169.32 2008.89 1359.45 1805.87 1359.45 1555.44C1359.45 1305.01 1169.32 1101.99 934.78 1101.99C700.241 1101.99 510.11 1305.01 510.11 1555.44C510.11 1805.87 700.241 2008.89 934.78 2008.89Z" fill="#E2EFF4"/>
<path d="M1319.57 1363.38C1299.19 1574.62 1028.04 1765.58 934.77 1765.58C835.64 1765.58 569.99 1574.66 549.95 1363.47C617.63 1209 764.51 1102 934.77 1102C1105.03 1102 1251.87 1209 1319.57 1363.38Z" fill="white"/>
<path d="M750.08 1358.61L750.03 1434.27L667.3 1461L723.63 1373.1C726.474 1368.67 730.386 1365.02 735.008 1362.49C739.63 1359.96 744.813 1358.64 750.08 1358.64V1358.61Z" fill="#98C8DB"/>
<path d="M935.63 1358.61H761.78V1434.25H935.63V1358.61Z" fill="#98C8DB"/>
<path d="M1121.16 1358.61H948.5V1434.25H1121.16V1358.61Z" fill="#98C8DB"/>
<path d="M1133.68 1358.61V1434.22L1216.81 1461.08L1160.98 1373.18C1158.14 1368.71 1154.23 1365.04 1149.59 1362.49C1144.95 1359.94 1139.75 1358.61 1134.46 1358.61H1133.68Z" fill="#98C8DB"/>
<path d="M2173 0V1977H2164.73V0H2173Z" fill="white"/>
<path d="M4086.4 1064.19H251.4C252.97 1061.42 254.56 1058.67 256.14 1055.91H4081.66C4083.24 1058.67 4084.83 1061.42 4086.4 1064.19Z" fill="white"/>
<path d="M552.12 665.06V1977.06H543.85V673.64C546.59 670.78 549.36 667.92 552.12 665.06Z" fill="white"/>
<path d="M1092.43 262.32V1977.09H1084.15V266.71C1086.91 265.23 1089.66 263.78 1092.43 262.32Z" fill="white"/>
<path d="M1092.43 1134.42V1694.18C1089.66 1695.92 1086.91 1697.61 1084.15 1699.28V1131.12C1086.92 1132.18 1089.68 1133.29 1092.43 1134.42Z" fill="#D8E9F1"/>
<path d="M1632.72 61.33V1977.09H1624.45V63.28C1627.2 62.62 1630 62 1632.72 61.33Z" fill="white"/>
<path d="M3793.92 673.64V1976.79H3785.65V665.06C3788.41 667.92 3791.18 670.78 3793.92 673.64Z" fill="white"/>
<path d="M3253.62 266.71V1976.79H3245.35V262.32C3248.11 263.78 3250.86 265.23 3253.62 266.71Z" fill="white"/>
<path d="M2713.33 63.28V1976.79H2705.05V61.33C2707.82 62 2710.57 62.62 2713.33 63.28Z" fill="white"/>
<path d="M3253.62 938.14H3245.35V1004.55H3253.62V938.14Z" fill="#D8E9F1"/>
<path d="M4330.09 1977.09H7.67969V2133.74H4330.09V1977.09Z" fill="white"/>
<path d="M2.94971 2136.7H4306.45" stroke="#D8E9F1" stroke-width="5" stroke-miterlimit="10" stroke-linecap="round"/>
<path d="M4309.41 2136.7C4309.41 2137.5 4309.09 2138.26 4308.53 2138.82C4307.97 2139.38 4307.21 2139.7 4306.41 2139.7H2.99992C2.30462 2139.58 1.67455 2139.22 1.22052 2138.67C0.766485 2138.13 0.517578 2137.45 0.517578 2136.75C0.517578 2136.04 0.766485 2135.36 1.22052 2134.82C1.67455 2134.27 2.30462 2133.91 2.99992 2133.79H4306.5C4307.26 2133.81 4307.99 2134.13 4308.53 2134.67C4309.07 2135.21 4309.39 2135.94 4309.41 2136.7Z" fill="#D8E9F1"/>
<path d="M2174.13 1977.09L1824.94 2133.74L1811.78 2139.65H1797.35L1810.51 2133.74L2159.68 1977.09H2174.13Z" fill="#D8E9F1"/>
<path d="M552.63 1977.09L205 2133.74L191.89 2139.65H177.51L190.62 2133.74L538.25 1977.09H552.63Z" fill="#D8E9F1"/>
<path d="M1093.75 1977.09L744.46 2133.74L731.29 2139.65H716.84L730.01 2133.74L1079.28 1977.09H1093.75Z" fill="#D8E9F1"/>
<path d="M1633.87 1977.09L1282.11 2133.74L1268.84 2139.65H1254.31L1267.57 2133.74L1619.34 1977.09H1633.87Z" fill="#D8E9F1"/>
<path d="M3811.3 1977.09L3461.14 2133.74L3447.93 2139.65H3433.45L3446.66 2133.74L3796.81 1977.09H3811.3Z" fill="#D8E9F1"/>
<path d="M4327.99 1977.09L3972.97 2133.74L3959.58 2139.65H3944.95L3958.35 2133.74L4313.35 1977.09H4327.99Z" fill="#D8E9F1"/>
<path d="M3253.7 1977.09L2903.43 2133.74L2890.22 2139.65H2875.74L2888.96 2133.74L3239.2 1977.09H3253.7Z" fill="#D8E9F1"/>
<path d="M3433.46 2139.65H3447.93L3260.35 2223.57C3259.97 2223.74 3259.56 2223.83 3259.15 2223.83C3258.49 2223.79 3257.87 2223.54 3257.37 2223.11C3256.87 2222.69 3256.52 2222.11 3256.38 2221.46C3256.25 2220.82 3256.32 2220.15 3256.61 2219.55C3256.89 2218.96 3257.36 2218.47 3257.94 2218.17L3433.46 2139.65Z" fill="#D8E9F1"/>
<path d="M2714.15 1977.09L2364.06 2133.74L2350.85 2139.65H2336.37L2349.57 2133.74L2699.66 1977.09H2714.15Z" fill="#D8E9F1"/>
<path d="M4162.38 1212.15L3656.55 1757.54H3562C3547.58 1757.54 3533.3 1760.38 3519.98 1765.89C3506.66 1771.41 3494.56 1779.5 3484.36 1789.69C3474.16 1799.89 3466.08 1811.99 3460.56 1825.31C3455.04 1838.63 3452.2 1852.91 3452.2 1867.33C3452.2 1897.64 3464.49 1926.33 3484.35 1946.15C3499.34 1961.16 3518.36 1971.5 3539.11 1975.91C3541.27 1976.37 3543.46 1976.77 3545.67 1977.09H3545.9H3343.42C3342.42 1977.09 3341.42 1977.09 3340.49 1977.09C3312.39 1976.37 3285.65 1964.87 3265.79 1944.97C3245.92 1925.09 3233.63 1896.46 3233.63 1866.14C3233.63 1837.02 3245.2 1809.1 3265.79 1788.51C3286.38 1767.92 3314.3 1756.35 3343.42 1756.35H3438L4083.91 1059.83C4112.34 1109.4 4138.5 1160.18 4162.38 1212.15Z" fill="#98C8DB"/>
<path d="M3795.28 1977.09L3794.16 1978.31H3562C3556.53 1978.32 3551.08 1977.91 3545.67 1977.09C3543.46 1976.77 3541.27 1976.37 3539.11 1975.91C3518.36 1971.5 3499.34 1961.16 3484.35 1946.15C3464.49 1926.28 3452.2 1897.64 3452.2 1867.33C3452.2 1852.91 3455.04 1838.63 3460.56 1825.31C3466.08 1811.99 3474.16 1799.89 3484.36 1789.69C3494.56 1779.5 3506.66 1771.41 3519.98 1765.89C3533.3 1760.38 3547.58 1757.54 3562 1757.54H3656.56L4163.39 1211.15C4202.03 1295.25 4234.31 1382.14 4259.94 1471.07L3795.28 1977.09Z" fill="white"/>
<path d="M4154 1194.21L3644.7 1743.35H3557.12C3524.55 1743.35 3493.32 1756.29 3470.29 1779.32C3447.26 1802.35 3434.32 1833.58 3434.32 1866.15C3434.32 1916.15 3464.2 1960.15 3507.07 1979.31" stroke="white" stroke-width="4" stroke-miterlimit="10" stroke-linecap="round"/>
<path d="M4040.65 1397.42C4040.65 1397.42 3961.79 1563.96 4029.11 1782.48H4080.65C4080.65 1782.48 4120.65 1541.72 4040.65 1397.42Z" fill="#A74602"/>
<path d="M4052.67 1606.5C4055.52 1667.4 4058.52 1730.68 4060.97 1780C4061 1780.63 4060.78 1781.24 4060.36 1781.71C4059.94 1782.17 4059.35 1782.45 4058.72 1782.48H4058.6C4058 1782.48 4057.41 1782.25 4056.98 1781.83C4056.54 1781.41 4056.28 1780.84 4056.25 1780.24C4052.4 1702.78 4047.2 1590.91 4043.38 1507.9L4017.31 1469.57C4017.81 1467.47 4018.31 1465.41 4018.81 1463.39L4042.97 1498.89C4040.82 1452.18 4039.17 1415.89 4038.56 1402.21C4039.88 1399.05 4040.65 1397.42 4040.65 1397.42C4041.55 1399.04 4042.42 1400.67 4043.3 1402.32C4044.3 1425.2 4048.1 1508.2 4052.3 1598.1L4084.69 1545.1C4085.02 1547.61 4085.33 1550.12 4085.63 1552.64L4052.84 1606.31C4052.79 1606.38 4052.74 1606.44 4052.67 1606.5Z" fill="#FFC200"/>
<path d="M3997.69 1782.48C3997.69 1782.48 3953.28 1723.95 3974.21 1601.21C3974.21 1601.21 4046.28 1675.85 4035.52 1782.48H3997.69Z" stroke="#FFC200" stroke-width="4" stroke-miterlimit="10" stroke-linecap="round"/>
<path d="M4143.64 1528.15C4143.64 1528.15 4158.94 1668.53 4099.35 1782.48H4056C4056 1782.48 4058.93 1634.26 4143.64 1528.15Z" fill="#F5BBBB"/>
<path d="M4102.09 1782.48C4102.09 1782.48 4147.94 1735.48 4152.64 1694.67C4152.64 1694.67 4080.64 1727.35 4080.64 1782.48H4102.09Z" fill="#A74602"/>
<path d="M4091.65 1977.77H4006.67L3993.85 1780.12H4104.48L4091.65 1977.77Z" fill="white"/>
<path d="M4107.34 1543.83C4111.67 1543.83 4115.18 1540.32 4115.18 1535.99C4115.18 1531.66 4111.67 1528.15 4107.34 1528.15C4103.01 1528.15 4099.5 1531.66 4099.5 1535.99C4099.5 1540.32 4103.01 1543.83 4107.34 1543.83Z" stroke="#FFC200" stroke-width="4" stroke-miterlimit="10" stroke-linecap="round"/>
<path d="M3960.76 1767.34C3965.09 1767.34 3968.6 1763.83 3968.6 1759.5C3968.6 1755.17 3965.09 1751.66 3960.76 1751.66C3956.43 1751.66 3952.92 1755.17 3952.92 1759.5C3952.92 1763.83 3956.43 1767.34 3960.76 1767.34Z" stroke="#FFC200" stroke-width="4" stroke-miterlimit="10" stroke-linecap="round"/>
<path d="M2457.33 2373.01H3515.61" stroke="#D8E9F1" stroke-width="5" stroke-miterlimit="10" stroke-linecap="round"/>
<path d="M3407.35 2327.91H3187.11L3071.56 1854.23H3319.85C3332.73 1854.23 3345.25 1858.56 3355.38 1866.52C3365.51 1874.47 3372.68 1885.6 3375.73 1898.12L3463.22 2256.76C3465.29 2265.22 3465.41 2274.05 3463.56 2282.57C3461.72 2291.08 3457.97 2299.07 3452.59 2305.92C3447.21 2312.78 3440.34 2318.32 3432.5 2322.12C3424.66 2325.93 3416.06 2327.91 3407.35 2327.91Z" fill="#1924B1"/>
<path d="M3075.48 1854.23H3323.78C3336.66 1854.23 3349.17 1858.56 3359.3 1866.52C3369.43 1874.48 3376.6 1885.6 3379.65 1898.12L3467.15 2256.76" stroke="white" stroke-width="5" stroke-miterlimit="10" stroke-linecap="round"/>
<path d="M3127.58 1854.76C3140.62 1854.76 3153.28 1859.13 3163.54 1867.19C3173.79 1875.24 3181.05 1886.5 3184.14 1899.17L3271.4 2259.61C3273.49 2268.18 3273.6 2277.11 3271.74 2285.73C3269.87 2294.34 3266.07 2302.42 3260.62 2309.36C3255.17 2316.29 3248.22 2321.9 3240.29 2325.75C3232.36 2329.61 3223.66 2331.61 3214.84 2331.61" stroke="white" stroke-width="5" stroke-miterlimit="10" stroke-linecap="round"/>
<path d="M3223.37 1899.17L3310.63 2259.61" stroke="white" stroke-width="5" stroke-miterlimit="10" stroke-linecap="round"/>
<path d="M3254.1 1899.17L3341.36 2259.61" stroke="white" stroke-width="5" stroke-miterlimit="10" stroke-linecap="round"/>
<path d="M3284.83 1899.17L3372.09 2259.61" stroke="white" stroke-width="5" stroke-miterlimit="10" stroke-linecap="round"/>
<path d="M3315.56 1899.17L3402.82 2259.61" stroke="white" stroke-width="5" stroke-miterlimit="10" stroke-linecap="round"/>
<path d="M3346.29 1899.17L3433.55 2259.61" stroke="white" stroke-width="5" stroke-miterlimit="10" stroke-linecap="round"/>
<path d="M3216.46 2366.39C3223.76 2366.39 3229.68 2360.47 3229.68 2353.17C3229.68 2345.87 3223.76 2339.95 3216.46 2339.95C3209.16 2339.95 3203.24 2345.87 3203.24 2353.17C3203.24 2360.47 3209.16 2366.39 3216.46 2366.39Z" stroke="#59221D" stroke-width="5" stroke-linecap="round" stroke-linejoin="round"/>
<path d="M3390.08 2366.39C3397.38 2366.39 3403.3 2360.47 3403.3 2353.17C3403.3 2345.87 3397.38 2339.95 3390.08 2339.95C3382.78 2339.95 3376.86 2345.87 3376.86 2353.17C3376.86 2360.47 3382.78 2366.39 3390.08 2366.39Z" stroke="#59221D" stroke-width="5" stroke-linecap="round" stroke-linejoin="round"/>
<path d="M3185.68 2325L3046.26 1750.8C3045.3 1746.87 3045.25 1742.78 3046.11 1738.83C3046.96 1734.88 3048.71 1731.17 3051.2 1728C3053.7 1724.82 3056.89 1722.25 3060.52 1720.48C3064.16 1718.72 3068.15 1717.8 3072.19 1717.8H3114.47C3121.79 1717.8 3128.9 1720.27 3134.65 1724.8C3140.39 1729.34 3144.45 1735.68 3146.15 1742.8L3171 1847.34" stroke="#59221D" stroke-width="5" stroke-linecap="round" stroke-linejoin="round"/>
<path d="M3044.24 2369.12H2865.44L2911.86 2306.25C2911.86 2306.25 2958.05 2332.47 3057.47 2328.82H3057.79L3062.08 2346.44C3062.73 2349.14 3062.77 2351.95 3062.17 2354.67C3061.58 2357.38 3060.38 2359.93 3058.67 2362.11C3056.95 2364.29 3054.76 2366.06 3052.26 2367.27C3049.76 2368.49 3047.02 2369.12 3044.24 2369.12Z" fill="#59221D"/>
<path d="M2624.4 2306.33C2627.71 2308.12 2675.84 2333.53 2782.79 2328.88V2354.07C2782.79 2361.53 2776.48 2367.57 2768.69 2367.57H2584.4L2624.4 2306.33Z" fill="#59221D"/>
<path d="M3054.67 2329.12H3054.36C2959.54 2332.6 2915.49 2307.58 2915.49 2307.58L2779.79 1817.33V2328.86C2677.38 2333.51 2630.13 2308.1 2626.97 2306.31V1529.17H2859.78L3049.42 2307.6L3054.67 2329.12Z" fill="white" stroke="#59221D" stroke-width="5" stroke-linejoin="round"/>
<path d="M2779.8 1817.35V1658.03L2809.07 1649.38" stroke="#59221D" stroke-width="5" stroke-linecap="round" stroke-linejoin="round"/>
<path d="M3120.07 1752.67L3070.46 1754.05C3068.3 1754.11 3066.18 1753.51 3064.37 1752.34C3062.56 1751.16 3061.16 1749.46 3060.34 1747.46L3056.94 1739.18L3030.75 1738.83C3027.67 1738.79 3024.65 1737.91 3022.03 1736.29C3019.4 1734.67 3017.26 1732.37 3015.84 1729.64L2939.84 1571.81L2938.39 1568.81C2933.85 1555.22 2952.39 1537.17 2977.32 1528.81C3002.25 1520.45 3026.2 1524.65 3030.77 1538.25L3081.47 1682.32L3093.68 1682.59C3098.86 1682.65 3103.9 1684.28 3108.13 1687.27C3112.36 1690.26 3115.58 1694.47 3117.37 1699.33L3130.95 1736.48C3131.59 1738.27 3131.81 1740.18 3131.57 1742.06C3131.34 1743.95 3130.67 1745.75 3129.61 1747.33C3128.55 1748.91 3127.13 1750.21 3125.48 1751.14C3123.82 1752.07 3121.97 1752.59 3120.07 1752.67Z" fill="#A74602"/>
<path d="M3068.7 1682.28L3093.73 1682.55" stroke="#59221D" stroke-width="4" stroke-miterlimit="10" stroke-linecap="round"/>
<path d="M3105.31 1750.51C3107.22 1750.44 3109.08 1749.92 3110.75 1749C3112.42 1748.07 3113.84 1746.76 3114.91 1745.18C3115.98 1743.6 3116.65 1741.78 3116.88 1739.89C3117.12 1738 3116.89 1736.07 3116.24 1734.28L3108.73 1713.74" stroke="#59221D" stroke-width="4" stroke-miterlimit="10" stroke-linecap="round"/>
<path d="M3088.92 1750.82C3090.83 1750.75 3092.69 1750.23 3094.36 1749.31C3096.03 1748.38 3097.46 1747.07 3098.52 1745.49C3099.59 1743.91 3100.26 1742.09 3100.49 1740.2C3100.73 1738.31 3100.5 1736.38 3099.85 1734.59L3092.34 1714.05" stroke="#59221D" stroke-width="4" stroke-miterlimit="10" stroke-linecap="round"/>
<path d="M3073.14 1751.33C3075.05 1751.26 3076.91 1750.75 3078.58 1749.82C3080.25 1748.9 3081.68 1747.59 3082.75 1746C3083.81 1744.42 3084.49 1742.61 3084.72 1740.71C3084.95 1738.82 3084.73 1736.89 3084.07 1735.1L3076.56 1714.56" stroke="#59221D" stroke-width="4" stroke-miterlimit="10" stroke-linecap="round"/>
<path d="M3058.24 1737.37V1732.37C3058.24 1723.87 3050.04 1716.97 3041.54 1716.97L3037.02 1704.97" stroke="#59221D" stroke-width="4" stroke-miterlimit="10" stroke-linecap="round"/>
<path d="M2570.04 1711.96L2432 1691.05C2428.58 1690.53 2425.38 1692.88 2424.87 1696.3L2417.79 1743.01C2417.27 1746.43 2419.62 1749.63 2423.05 1750.15L2561.08 1771.06C2564.51 1771.58 2567.7 1769.23 2568.22 1765.8L2575.3 1719.1C2575.82 1715.67 2573.46 1712.48 2570.04 1711.96Z" fill="white"/>
<path d="M2434.45 1684.86L2438.76 1685.51L2429.92 1744.51L2425.61 1743.86C2424.56 1743.68 2423.55 1743.29 2422.65 1742.71C2421.75 1742.14 2420.97 1741.4 2420.35 1740.52C2419.74 1739.64 2419.31 1738.66 2419.08 1737.61C2418.85 1736.57 2418.82 1735.49 2419.01 1734.44L2425.38 1691.89C2425.66 1689.76 2426.77 1687.82 2428.47 1686.5C2430.16 1685.19 2432.32 1684.6 2434.45 1684.86Z" fill="#1924B1"/>
<path d="M2575.64 1714.44L2569.27 1756.99C2569.14 1758.05 2568.8 1759.08 2568.27 1760.01C2567.74 1760.93 2567.04 1761.75 2566.2 1762.41C2565.35 1763.06 2564.39 1763.55 2563.36 1763.83C2562.33 1764.12 2561.25 1764.19 2560.19 1764.06L2556.47 1763.5L2565.31 1704.5L2569.03 1705.06C2571.15 1705.43 2573.03 1706.63 2574.27 1708.39C2575.51 1710.14 2576 1712.32 2575.64 1714.44Z" fill="#1924B1"/>
<path d="M2607.45 1548.58L2540.45 1758.93C2537.96 1766.73 2529.85 1771.93 2520.95 1771.38L2472.95 1768.56C2471.4 1768.49 2469.88 1768.05 2468.54 1767.27C2467.19 1766.49 2466.05 1765.39 2465.22 1764.08L2450 1740.82C2448.01 1737.58 2447 1733.83 2447.08 1730.03C2447.17 1726.23 2448.34 1722.53 2450.47 1719.38L2474.91 1683.16L2511.6 1528.93C2519.12 1518.63 2540.99 1513.4 2564.18 1517.32C2591.15 1521.88 2610.1 1534.73 2607.45 1548.58Z" fill="#A74602"/>
<path d="M2467.21 1764.85L2469.34 1732.72" stroke="#59221D" stroke-width="4" stroke-miterlimit="10" stroke-linecap="round"/>
<path d="M2485.59 1767.56L2487.72 1734.21" stroke="#59221D" stroke-width="4" stroke-miterlimit="10" stroke-linecap="round"/>
<path d="M2504.65 1769.11L2506.78 1735.77" stroke="#59221D" stroke-width="4" stroke-miterlimit="10" stroke-linecap="round"/>
<path d="M2521.42 1769.54L2523.55 1736.19" stroke="#59221D" stroke-width="4" stroke-miterlimit="10" stroke-linecap="round"/>
<path d="M2705.14 1226.85V1172.06L2766.03 1168.79L2794.93 1226.85H2705.14Z" fill="#A74602"/>
<path d="M2694.92 1156L2689.21 1152.89C2688.77 1152.65 2688.39 1152.33 2688.07 1151.94C2687.76 1151.56 2687.53 1151.11 2687.39 1150.63C2687.24 1150.16 2687.2 1149.66 2687.25 1149.16C2687.3 1148.67 2687.45 1148.19 2687.69 1147.75L2703.19 1119.41C2704.19 1117.56 2705.62 1115.99 2707.36 1114.82C2709.1 1113.65 2711.1 1112.93 2713.19 1112.71C2719.29 1112.03 2722.29 1115.09 2722.29 1115.09L2737.17 1126.94C2739.57 1128.85 2741.29 1131.49 2742.07 1134.46C2742.84 1137.44 2742.63 1140.58 2741.46 1143.42L2735.88 1157.05C2734.7 1159.8 2732.55 1162.02 2729.84 1163.28C2727.13 1164.55 2724.04 1164.77 2721.18 1163.91L2694.92 1156Z" fill="#A74602"/>
<path d="M2720.18 1131.56L2711.01 1127.74" stroke="#59221D" stroke-width="4" stroke-miterlimit="10" stroke-linecap="round"/>
<path d="M2713.75 1142.04C2714.83 1139.52 2714.47 1136.93 2712.94 1136.27C2711.4 1135.61 2709.27 1137.12 2708.18 1139.64C2707.09 1142.17 2707.45 1144.75 2708.99 1145.41C2710.53 1146.08 2712.66 1144.57 2713.75 1142.04Z" fill="#59221D"/>
<path d="M2767.71 1177.35C2765.65 1178.68 2763.29 1179.47 2760.85 1179.67C2758.41 1179.87 2755.96 1179.46 2753.71 1178.49L2745.91 1175.13" stroke="#59221D" stroke-width="4" stroke-miterlimit="10" stroke-linecap="round"/>
<path d="M2754.91 1176.13L2747.12 1172.77L2754.03 1151.86C2754.39 1150.75 2754.99 1149.74 2755.78 1148.88C2756.57 1148.03 2757.54 1147.36 2758.62 1146.92C2759.69 1146.48 2760.86 1146.28 2762.02 1146.34C2763.18 1146.39 2764.32 1146.7 2765.35 1147.24L2767.01 1148.09C2768.81 1148.87 2770.44 1149.99 2771.81 1151.4C2773.17 1152.81 2774.25 1154.47 2774.97 1156.3C2775.7 1158.12 2776.05 1160.07 2776.02 1162.03C2775.99 1163.99 2775.58 1165.93 2774.8 1167.73L2774.55 1168.33C2772.97 1171.96 2770.02 1174.81 2766.34 1176.28C2762.66 1177.74 2758.55 1177.68 2754.91 1176.13Z" fill="#A74602"/>
<path d="M2756.37 1160.31C2757.39 1158.03 2759.26 1156.24 2761.59 1155.33C2763.92 1154.42 2766.51 1154.47 2768.8 1155.46" stroke="#59221D" stroke-width="4" stroke-miterlimit="10" stroke-linecap="round"/>
<path d="M2765.35 1147.24C2764.32 1146.7 2763.18 1146.39 2762.02 1146.34C2760.86 1146.28 2759.69 1146.48 2758.62 1146.92C2757.54 1147.36 2756.57 1148.03 2755.78 1148.88C2754.99 1149.74 2754.39 1150.75 2754.03 1151.86L2744.86 1179.74C2740.58 1185.19 2731.7 1186.88 2724.46 1186.58L2703.13 1186.03C2700.82 1185.97 2698.55 1185.34 2696.54 1184.2C2694.52 1183.06 2692.82 1181.45 2691.57 1179.5C2690.32 1177.55 2689.57 1175.33 2689.39 1173.02C2689.2 1170.71 2689.58 1168.4 2690.49 1166.27L2694.93 1155.97L2721.15 1163.88C2724.02 1164.74 2727.1 1164.52 2729.81 1163.25C2732.52 1161.98 2734.67 1159.76 2735.85 1157.01L2741.43 1143.39C2742.6 1140.55 2742.81 1137.41 2742.04 1134.43C2741.26 1131.46 2739.54 1128.82 2737.14 1126.91L2722.26 1115.06C2719.99 1113.42 2717.26 1112.55 2714.46 1112.58C2711.66 1112.62 2708.94 1113.56 2706.72 1115.26C2699.05 1099.38 2715.18 1094.91 2721.72 1098.18C2726.47 1100.56 2767.07 1124.82 2769.51 1131.93C2770.96 1136.12 2770.08 1142.39 2768.36 1148.78L2765.35 1147.24Z" fill="#FFC200"/>
<path d="M2608.75 1547.86C2610.61 1534.28 2590.68 1521.8 2564.16 1517.32C2540.96 1513.4 2517.91 1518.63 2510.38 1528.92L2559.98 1299.31C2564.58 1278.75 2576.04 1260.37 2592.49 1247.2C2608.93 1234.03 2629.36 1226.85 2650.43 1226.85H2853C2869.11 1226.85 2884.85 1231.64 2898.23 1240.61C2911.6 1249.57 2922.02 1262.31 2928.14 1277.21L3030.36 1536.9C3024.73 1524.35 3001.55 1520.66 2977.42 1528.77C2952.64 1537.1 2934.19 1554.96 2938.42 1568.53L2854.89 1385.87L2852.16 1448.61L2874.23 1568.41C2874.23 1568.41 2876.87 1628.41 2794.51 1630.87C2707.1 1633.47 2662 1571 2662 1571L2623 1622V1477.59L2608.75 1547.86Z" fill="#1924B1"/>
<path d="M2707.39 1199.54H2781.56C2783.33 1199.54 2785.07 1200.04 2786.57 1200.98C2788.08 1201.91 2789.29 1203.25 2790.08 1204.84L2800.91 1226.84H2686.31L2699.14 1204.33C2699.97 1202.87 2701.17 1201.66 2702.62 1200.82C2704.07 1199.98 2705.71 1199.54 2707.39 1199.54Z" fill="#1924B1"/>
<path d="M2936.36 1569.79C2931.88 1555.42 2950.12 1536.49 2976.36 1527.67C3001.94 1519.08 3026.49 1522.98 3032.46 1536.29L3018.08 1500.71C3011.95 1487.05 2988.08 1481.71 2961.79 1490.55C2934.79 1499.61 2914.79 1519.04 2919.35 1533.8L2936.36 1569.79Z" stroke="white" stroke-width="4" stroke-linejoin="round"/>
<path d="M2599.26 1244C2599.26 1244 2646.44 1250.22 2655.55 1310.41H2859.43" stroke="white" stroke-width="4" stroke-linecap="round" stroke-linejoin="round"/>
<path d="M2611.11 1544.06L2655.69 1310.36" stroke="white" stroke-width="4" stroke-linecap="round" stroke-linejoin="round"/>
<path d="M2854.92 1392.48L2864 1298.14" stroke="white" stroke-width="4" stroke-linecap="round" stroke-linejoin="round"/>
<path d="M2616.43 1520.76L2609.89 1548.59C2612.55 1534.75 2591.15 1521.87 2564.16 1517.31C2538.07 1512.9 2512.48 1520.08 2508.26 1533L2514.97 1503.17C2517.8 1489.28 2544.48 1481.73 2571.58 1486.31C2598.68 1490.89 2619.26 1506.88 2616.43 1520.76Z" stroke="white" stroke-width="4" stroke-linejoin="round"/>
<path d="M2799.61 1225.54H2686.31" stroke="white" stroke-width="4" stroke-miterlimit="10" stroke-linecap="round"/>
<path d="M1522.28 1815.21H1237.19C1252.38 1815.21 1267.19 1810.54 1279.64 1801.84C1292.08 1793.13 1301.55 1780.82 1306.76 1766.55L1371.52 1586.44L1439.1 1762.44C1444.31 1776.7 1453.78 1789.02 1466.22 1797.72C1478.66 1806.43 1493.48 1811.1 1508.66 1811.1H1519.54L1522.28 1815.21Z" fill="#A74602" stroke="#A74602" stroke-width="7" stroke-linecap="round" stroke-linejoin="round"/>
<path d="M2269.24 1811.05H1508.67C1493.48 1811.05 1478.66 1806.38 1466.22 1797.68C1453.78 1788.97 1444.31 1776.65 1439.1 1762.39L1373.62 1583.17H2017.62C2024.78 1583.17 2031.76 1585.37 2037.63 1589.48C2043.49 1593.58 2047.96 1599.39 2050.41 1606.11L2107.51 1762.39C2111.22 1772.57 2117.12 1781.81 2124.8 1789.46C2134.52 1794.72 2145.41 1797.47 2156.46 1797.46H2255.46C2259.08 1797.46 2262.55 1798.88 2265.13 1801.43C2267.7 1803.97 2269.17 1807.43 2269.21 1811.05H2269.24Z" fill="#1924B1"/>
<path d="M1369.77 1583L1302.42 1767.35C1297.74 1780.16 1289.24 1791.23 1278.06 1799.04C1266.88 1806.86 1253.57 1811.05 1239.93 1811.05H1148.18C1148.22 1807.43 1149.69 1803.97 1152.26 1801.43C1154.84 1798.89 1158.31 1797.46 1161.93 1797.46H1226.34C1239.98 1797.46 1253.29 1793.27 1264.47 1785.45C1275.65 1777.64 1284.15 1766.57 1288.83 1753.76L1344.83 1600.43C1346.69 1595.32 1350.09 1590.91 1354.54 1587.79C1359 1584.67 1364.31 1583 1369.75 1583H1369.77Z" fill="#1924B1"/>
<path d="M2267.18 1815.21H1496.86" stroke="#A74602" stroke-width="7" stroke-miterlimit="10" stroke-linecap="round"/>
<path d="M1845.9 1815.21C1830.71 1815.21 1815.9 1810.54 1803.45 1801.84C1791.01 1793.14 1781.54 1780.82 1776.33 1766.56L1710.85 1587.33" stroke="#A74602" stroke-width="7" stroke-miterlimit="10" stroke-linecap="round"/>
<path d="M2014.52 1815.21C1999.33 1815.21 1984.51 1810.54 1972.07 1801.84C1959.62 1793.14 1950.15 1780.82 1944.94 1766.56L1879.47 1587.33" stroke="#A74602" stroke-width="7" stroke-miterlimit="10" stroke-linecap="round"/>
<path d="M1677.29 1815.21C1662.1 1815.21 1647.28 1810.54 1634.84 1801.84C1622.39 1793.14 1612.92 1780.82 1607.71 1766.56L1542.24 1587.33" stroke="#A74602" stroke-width="7" stroke-miterlimit="10" stroke-linecap="round"/>
<path d="M1222 2009.29C1222 1905.76 1288.32 1821.83 1370.14 1821.83C1451.96 1821.83 1518.29 1905.76 1518.29 2009.29" stroke="#A74602" stroke-width="7" stroke-miterlimit="10"/>
<path d="M1944.56 2009.29C1944.56 1905.76 2010.89 1821.83 2092.71 1821.83C2174.53 1821.83 2240.86 1905.76 2240.86 2009.29" stroke="#A74602" stroke-width="7" stroke-miterlimit="10"/>
<path d="M1689.79 1669.4L1643.14 1680.13L1636.84 1650.76L1646.05 1641.34C1649.62 1637.68 1651.96 1632.99 1652.73 1627.94C1653.5 1622.88 1652.67 1617.71 1650.35 1613.15L1635.12 1583.28L1660.7 1583.13L1689.79 1669.4Z" fill="#A74602"/>
<path d="M1616 1527.73C1623.49 1527.73 1630.81 1530.01 1636.98 1534.26C1643.15 1538.51 1647.89 1544.53 1650.56 1551.53L1661.09 1583.13L1635.16 1583.28L1650.39 1613.15C1652.71 1617.71 1653.54 1622.88 1652.77 1627.94C1652 1632.99 1649.66 1637.68 1646.09 1641.34L1636.88 1650.76L1643.18 1680.13L1502.86 1711L1448 1583.56H1446.72L1444.96 1570.33C1444.27 1565.06 1444.7 1559.7 1446.22 1554.61C1447.74 1549.52 1450.32 1544.81 1453.8 1540.78C1457.27 1536.76 1461.55 1533.52 1466.37 1531.27C1471.18 1529.01 1476.42 1527.81 1481.73 1527.72L1616 1527.73Z" fill="#0F1569"/>
<path d="M1646.05 1641.34C1649.62 1637.68 1651.96 1633 1652.73 1627.94C1653.51 1622.89 1652.67 1617.72 1650.35 1613.16L1626.09 1565.56" stroke="white" stroke-width="4" stroke-miterlimit="10" stroke-linecap="round"/>
<path d="M1872.06 1955.11H1774.39L1765.56 1928.3L1684.91 1683.17C1682.05 1674.4 1691.13 1665.4 1700.34 1665.4L1739.18 1664.12C1750.17 1664.12 1760.88 1667.58 1769.8 1674C1778.71 1680.43 1785.38 1689.49 1788.86 1699.92L1863.31 1928.3L1872.06 1955.11Z" fill="#59221D"/>
<path d="M1747.87 1730.35L1675.87 1928.35L1666.11 1955.16H1568.21L1577.41 1928.35L1619.61 1805.51H1566.28C1532.79 1805.51 1479.28 1781.09 1502.95 1709.76L1701.07 1664.36C1708.99 1664.36 1716.79 1666.27 1723.83 1669.9C1730.87 1673.54 1736.93 1678.81 1741.51 1685.27C1746.09 1691.73 1749.06 1699.2 1750.17 1707.04C1751.27 1714.88 1750.49 1722.87 1747.87 1730.35Z" fill="#59221D"/>
<path d="M1628.21 1772.56L1612.44 1818.89" stroke="white" stroke-width="4" stroke-miterlimit="10" stroke-linecap="round"/>
<path d="M1666.89 1961L1749.29 1727.51C1751.91 1720.03 1752.7 1712.04 1751.59 1704.19C1750.48 1696.35 1747.51 1688.88 1742.93 1682.42C1738.35 1675.96 1732.28 1670.69 1725.25 1667.05C1718.21 1663.41 1710.4 1661.51 1702.48 1661.51" stroke="white" stroke-width="4" stroke-miterlimit="10" stroke-linecap="round"/>
<path d="M1675.86 1928.3L1666.1 1955.11H1568.2L1577.4 1928.3H1675.86Z" fill="#A74602"/>
<path d="M1872.06 1955.11H1774.38L1765.56 1928.3H1863.31L1872.06 1955.11Z" fill="#A74602"/>
<path d="M1707.44 2012H1623.44C1621.7 2012 1620.02 2011.39 1618.69 2010.28L1605.39 1999.16C1605.03 1998.86 1604.6 1998.65 1604.13 1998.56C1603.67 1998.46 1603.19 1998.49 1602.74 1998.63C1602.29 1998.78 1601.89 1999.03 1601.56 1999.37C1601.23 1999.71 1601 2000.13 1600.88 2000.59L1598.72 2009.35C1598.52 2010.11 1598.08 2010.79 1597.45 2011.27C1596.83 2011.75 1596.06 2012.01 1595.27 2012H1561.38C1560.87 2012.01 1560.36 2011.9 1559.89 2011.69C1559.42 2011.47 1559 2011.16 1558.67 2010.77C1558.34 2010.37 1558.1 2009.91 1557.96 2009.41C1557.83 2008.92 1557.81 2008.4 1557.9 2007.89L1568.23 1955.09H1666.53L1707.44 2012Z" fill="#F5BBBB"/>
<path d="M1915.55 2012H1831.55C1829.81 2012 1828.13 2011.39 1826.8 2010.28L1813.5 1999.16C1813.14 1998.86 1812.7 1998.65 1812.24 1998.56C1811.78 1998.47 1811.3 1998.49 1810.85 1998.63C1810.4 1998.78 1809.99 1999.03 1809.66 1999.37C1809.34 1999.71 1809.1 2000.13 1808.98 2000.59L1806.83 2009.35C1806.63 2010.11 1806.19 2010.79 1805.56 2011.27C1804.94 2011.75 1804.17 2012.01 1803.38 2012H1766.94C1766.42 2012.01 1765.91 2011.9 1765.44 2011.69C1764.97 2011.48 1764.56 2011.16 1764.22 2010.77C1763.89 2010.38 1763.65 2009.91 1763.51 2009.42C1763.38 2008.92 1763.36 2008.4 1763.45 2007.89L1773.78 1955.09H1872.08L1915.55 2012Z" fill="#F5BBBB"/>
<path d="M1587.79 1524.78C1576.13 1530.78 1561.89 1528.4 1549.86 1519.78L1549.64 1519.9C1521.25 1534.61 1489.23 1527.9 1478.11 1506.47C1466.99 1485.04 1481 1455.73 1509.37 1441C1517.55 1436.69 1526.48 1433.98 1535.67 1433C1535.03 1431 1534.83 1428.88 1535.09 1426.8C1535.35 1424.71 1536.05 1422.71 1537.16 1420.92C1538.26 1419.13 1539.74 1417.61 1541.49 1416.45C1543.24 1415.29 1545.22 1414.52 1547.3 1414.19C1549.37 1413.87 1551.5 1414 1553.52 1414.58C1555.54 1415.15 1557.41 1416.16 1559 1417.53C1560.6 1418.9 1561.88 1420.59 1562.75 1422.5C1563.63 1424.41 1564.08 1426.49 1564.08 1428.59C1564.08 1430.89 1563.54 1433.16 1562.48 1435.2C1576.48 1437.41 1590.55 1447.96 1598.88 1464.1C1611.24 1488.09 1606.28 1515.23 1587.79 1524.78Z" fill="#59221D"/>
<path d="M1512.45 1527.74L1531.86 1484.63H1567.76V1556.1L1512.45 1527.74Z" fill="#A74602"/>
<path d="M1567.76 1484.63V1512.13C1561.44 1512.97 1555.03 1511.53 1549.68 1508.07C1544.33 1504.61 1540.38 1499.36 1538.54 1493.26L1535.94 1484.63H1567.76Z" fill="#59221D"/>
<path d="M1582.16 1460.6V1482.94C1582.16 1485.21 1581.71 1487.46 1580.85 1489.56C1579.98 1491.66 1578.7 1493.57 1577.1 1495.18C1575.49 1496.78 1573.58 1498.06 1571.48 1498.93C1569.38 1499.79 1567.13 1500.24 1564.86 1500.24H1556.38C1551.83 1500.24 1547.38 1498.86 1543.62 1496.3C1539.86 1493.73 1536.96 1490.1 1535.3 1485.86H1527.3C1524.32 1485.77 1521.5 1484.53 1519.42 1482.39C1517.35 1480.25 1516.19 1477.39 1516.19 1474.42C1516.19 1471.44 1517.35 1468.58 1519.42 1466.44C1521.5 1464.3 1524.32 1463.06 1527.3 1462.97H1528.37C1530.26 1462.97 1532.12 1463.47 1533.76 1464.42V1464.37L1563.32 1441.64C1568.33 1441.68 1573.13 1443.7 1576.66 1447.25C1580.2 1450.81 1582.18 1455.63 1582.18 1460.64L1582.16 1460.6Z" fill="#A74602"/>
<path d="M1532.31 1476.12C1532.31 1474.53 1531.68 1473 1530.55 1471.88C1529.43 1470.75 1527.9 1470.12 1526.31 1470.12" stroke="#59221D" stroke-width="3" stroke-miterlimit="10" stroke-linecap="round"/>
<path d="M1582.7 1460.71C1582.7 1460.71 1576.13 1458.18 1570.87 1463.05C1567.25 1466.41 1566.28 1475.59 1569.04 1479.44" stroke="#59221D" stroke-width="3" stroke-miterlimit="10" stroke-linecap="round"/>
<path d="M1555.86 1474.01C1557 1474.01 1557.92 1472.75 1557.92 1471.2C1557.92 1469.65 1557 1468.39 1555.86 1468.39C1554.72 1468.39 1553.8 1469.65 1553.8 1471.2C1553.8 1472.75 1554.72 1474.01 1555.86 1474.01Z" fill="#59221D"/>
<path d="M1575.06 1474.01C1576.2 1474.01 1577.12 1472.75 1577.12 1471.2C1577.12 1469.65 1576.2 1468.39 1575.06 1468.39C1573.92 1468.39 1573 1469.65 1573 1471.2C1573 1472.75 1573.92 1474.01 1575.06 1474.01Z" fill="#59221D"/>
<path d="M1569.55 1488.69C1569.55 1488.69 1562.99 1490.42 1560.94 1485.16" stroke="#59221D" stroke-width="3" stroke-miterlimit="10" stroke-linecap="round"/>
<path d="M1546.36 1462.82C1546.36 1462.82 1552.17 1458.32 1559.52 1459.74" stroke="#59221D" stroke-width="3" stroke-miterlimit="10" stroke-linecap="round"/>
<path d="M1742.72 1667.53C1742.72 1669.18 1742.06 1670.75 1740.9 1671.91C1739.73 1673.08 1738.16 1673.73 1736.51 1673.73H1660.75L1536.23 1711.07C1530.33 1712.93 1524.12 1713.6 1517.96 1713.06C1511.79 1712.51 1505.8 1710.75 1500.32 1707.88C1494.84 1705.01 1489.97 1701.09 1486.01 1696.34C1482.05 1691.59 1479.07 1686.1 1477.23 1680.19L1447.11 1583.57L1526.42 1583.13L1544.25 1636.02L1667.16 1634.53C1680.41 1634.53 1693.47 1638.92 1705.3 1644.87L1739.3 1661.99C1740.33 1662.51 1741.19 1663.3 1741.79 1664.28C1742.39 1665.26 1742.71 1666.38 1742.71 1667.53H1742.72Z" fill="#A74602"/>
<path d="M1534 1637.37L1569.13 1637.83" stroke="#59221D" stroke-width="3" stroke-miterlimit="10" stroke-linecap="round"/>
<path d="M1650.9 1663.75C1650.9 1667 1652.19 1670.13 1654.49 1672.43C1656.79 1674.73 1659.92 1676.02 1663.17 1676.02" stroke="#59221D" stroke-width="3" stroke-miterlimit="10" stroke-linecap="round"/>
<path d="M1700.88 1656.28L1726.25 1666.67C1727.63 1667.23 1728.81 1668.2 1729.64 1669.43C1730.47 1670.67 1730.92 1672.13 1730.92 1673.62" stroke="#59221D" stroke-width="3" stroke-miterlimit="10" stroke-linecap="round"/>
<path d="M1682.88 1658.54L1702.72 1666.67C1704.1 1667.24 1705.28 1668.2 1706.11 1669.44C1706.94 1670.67 1707.38 1672.13 1707.38 1673.62" stroke="#59221D" stroke-width="3" stroke-miterlimit="10" stroke-linecap="round"/>
<path d="M1930.88 845.49H1283.88C1279.57 845.49 1275.36 844.195 1271.79 841.771C1268.22 839.348 1265.47 835.909 1263.88 831.9L1127.24 486.75C1125.95 483.489 1125.48 479.961 1125.86 476.475C1126.25 472.989 1127.48 469.65 1129.45 466.75C1131.43 463.85 1134.08 461.476 1137.18 459.836C1140.28 458.196 1143.73 457.339 1147.24 457.34H1794.24C1798.55 457.341 1802.76 458.637 1806.33 461.06C1809.9 463.484 1812.65 466.922 1814.24 470.93L1950.85 816.08C1952.14 819.339 1952.61 822.864 1952.23 826.348C1951.84 829.831 1950.61 833.168 1948.64 836.068C1946.68 838.967 1944.03 841.342 1940.93 842.984C1937.84 844.626 1934.38 845.486 1930.88 845.49Z" fill="white"/>
<path d="M1429.05 841.8L1277.98 460.13" stroke="#D8E9F1" stroke-width="5" stroke-miterlimit="10" stroke-linecap="round"/>
<path d="M1134.51 437.25H1810.78C1814.4 437.25 1817.94 438.337 1820.93 440.372C1823.93 442.406 1826.25 445.294 1827.58 448.66L1976.7 825.4" stroke="#A74602" stroke-width="5" stroke-miterlimit="10" stroke-linecap="round"/>
<path d="M1483.38 437.25V107.41" stroke="#A74602" stroke-width="5" stroke-miterlimit="10" stroke-linecap="round"/>
<path d="M1168.35 586.07H1857.51" stroke="#D8E9F1" stroke-width="5" stroke-miterlimit="10" stroke-linecap="round"/>
<path d="M1219.17 715.29H1909.51" stroke="#D8E9F1" stroke-width="5" stroke-miterlimit="10" stroke-linecap="round"/>
<path d="M1258 525.78H1194.76" stroke="#1924B1" stroke-width="5" stroke-miterlimit="10" stroke-linecap="round"/>
<path d="M1603.15 505.32H1344.08" stroke="#1924B1" stroke-width="5" stroke-miterlimit="10" stroke-linecap="round"/>
<path d="M1650.14 625.84H1391.07" stroke="#1924B1" stroke-width="5" stroke-miterlimit="10" stroke-linecap="round"/>
<path d="M1660.78 656.57H1401.71" stroke="#1924B1" stroke-width="5" stroke-miterlimit="10" stroke-linecap="round"/>
<path d="M1754.14 753.58H1435.98" stroke="#1924B1" stroke-width="5" stroke-miterlimit="10" stroke-linecap="round"/>
<path d="M1703.33 784.31H1446.62" stroke="#1924B1" stroke-width="5" stroke-miterlimit="10" stroke-linecap="round"/>
<path d="M1700.74 536.04H1355.9" stroke="#1924B1" stroke-width="5" stroke-miterlimit="10" stroke-linecap="round"/>
<path d="M1225.02 550.56L1189.03 524.98L1216 499.41" stroke="#1924B1" stroke-width="5" stroke-linecap="round" stroke-linejoin="round"/>
<path d="M1305.23 652.21H1241.98" stroke="#1924B1" stroke-width="5" stroke-miterlimit="10" stroke-linecap="round"/>
<path d="M1272.24 676.99L1236.25 651.41L1263.23 625.84" stroke="#1924B1" stroke-width="5" stroke-linecap="round" stroke-linejoin="round"/>
<path d="M1352.7 779.95H1289.45" stroke="#1924B1" stroke-width="5" stroke-miterlimit="10" stroke-linecap="round"/>
<path d="M1319.72 804.73L1283.72 779.16L1310.7 753.58" stroke="#1924B1" stroke-width="5" stroke-linecap="round" stroke-linejoin="round"/>
<path d="M1746.79 505.32H1780.88" stroke="#1924B1" stroke-width="5" stroke-miterlimit="10" stroke-linecap="round"/>
<path d="M1758.6 536.04H1792.7" stroke="#1924B1" stroke-width="5" stroke-miterlimit="10" stroke-linecap="round"/>
<path d="M1785.61 625.84H1819.7" stroke="#1924B1" stroke-width="5" stroke-miterlimit="10" stroke-linecap="round"/>
<path d="M1797.42 656.57H1831.52" stroke="#1924B1" stroke-width="5" stroke-miterlimit="10" stroke-linecap="round"/>
<path d="M1829.16 753.58H1863.25" stroke="#1924B1" stroke-width="5" stroke-miterlimit="10" stroke-linecap="round"/>
<path d="M1840.98 784.31H1875.07" stroke="#1924B1" stroke-width="5" stroke-miterlimit="10" stroke-linecap="round"/>
<path d="M2396 846.67H3043C3047.31 846.67 3051.52 845.375 3055.09 842.951C3058.66 840.528 3061.41 837.089 3063 833.08L3199.62 487.93C3200.91 484.669 3201.38 481.141 3201 477.655C3200.61 474.169 3199.38 470.83 3197.41 467.93C3195.43 465.03 3192.78 462.656 3189.68 461.016C3186.58 459.376 3183.13 458.519 3179.62 458.52H2532.62C2528.31 458.518 2524.1 459.813 2520.53 462.237C2516.96 464.66 2514.21 468.1 2512.62 472.11L2376 817.26C2374.71 820.521 2374.24 824.049 2374.62 827.535C2375.01 831.021 2376.24 834.36 2378.21 837.26C2380.19 840.161 2382.84 842.534 2385.94 844.174C2389.04 845.815 2392.49 846.671 2396 846.67Z" fill="white"/>
<path d="M2897.83 842.98L3048.9 461.31" stroke="#D8E9F1" stroke-width="5" stroke-miterlimit="10" stroke-linecap="round"/>
<path d="M3192.36 438.43H2516.09C2512.47 438.43 2508.93 439.518 2505.94 441.553C2502.95 443.587 2500.63 446.474 2499.3 449.84L2350.18 826.58" stroke="#A74602" stroke-width="5" stroke-miterlimit="10" stroke-linecap="round"/>
<path d="M2843.49 438.43V99.14" stroke="#A74602" stroke-width="5" stroke-miterlimit="10" stroke-linecap="round"/>
<path d="M3158.52 587.25H2469.37" stroke="#D8E9F1" stroke-width="5" stroke-miterlimit="10" stroke-linecap="round"/>
<path d="M3107.71 716.47H2417.37" stroke="#D8E9F1" stroke-width="5" stroke-miterlimit="10" stroke-linecap="round"/>
<path d="M3068.87 526.96H3132.12" stroke="#1924B1" stroke-width="5" stroke-miterlimit="10" stroke-linecap="round"/>
<path d="M2945.92 506.5H2982.79" stroke="#1924B1" stroke-width="5" stroke-miterlimit="10" stroke-linecap="round"/>
<path d="M2499.46 627.02H2830.56" stroke="#1924B1" stroke-width="5" stroke-miterlimit="10" stroke-linecap="round"/>
<path d="M2488.82 657.75H2637.51" stroke="#1924B1" stroke-width="5" stroke-miterlimit="10" stroke-linecap="round"/>
<path d="M2445.09 754.76H2763.25" stroke="#1924B1" stroke-width="5" stroke-miterlimit="10" stroke-linecap="round"/>
<path d="M2436.82 785.49H2693.53" stroke="#1924B1" stroke-width="5" stroke-miterlimit="10" stroke-linecap="round"/>
<path d="M2532.99 537.22H2830.56" stroke="#1924B1" stroke-width="5" stroke-miterlimit="10" stroke-linecap="round"/>
<path d="M3101.85 551.74L3137.84 526.16L3110.87 500.59" stroke="#1924B1" stroke-width="5" stroke-linecap="round" stroke-linejoin="round"/>
<path d="M3021.65 653.39H3084.89" stroke="#1924B1" stroke-width="5" stroke-miterlimit="10" stroke-linecap="round"/>
<path d="M3054.63 678.17L3090.62 652.6L3063.65 627.02" stroke="#1924B1" stroke-width="5" stroke-linecap="round" stroke-linejoin="round"/>
<path d="M2974.17 781.13H3037.42" stroke="#1924B1" stroke-width="5" stroke-miterlimit="10" stroke-linecap="round"/>
<path d="M3007.15 805.91L3043.15 780.34L3016.17 754.76" stroke="#1924B1" stroke-width="5" stroke-linecap="round" stroke-linejoin="round"/>
<path d="M2884.55 506.5H2545.99" stroke="#1924B1" stroke-width="5" stroke-miterlimit="10" stroke-linecap="round"/>
<path d="M2969.79 537.22H2936.88" stroke="#1924B1" stroke-width="5" stroke-miterlimit="10" stroke-linecap="round"/>
<path d="M2935.8 627.02H2901.71" stroke="#1924B1" stroke-width="5" stroke-miterlimit="10" stroke-linecap="round"/>
<path d="M2923.98 657.75H2889.89" stroke="#1924B1" stroke-width="5" stroke-miterlimit="10" stroke-linecap="round"/>
<path d="M2890.89 754.76H2856.8" stroke="#1924B1" stroke-width="5" stroke-miterlimit="10" stroke-linecap="round"/>
<path d="M2879.07 785.49H2844.98" stroke="#1924B1" stroke-width="5" stroke-miterlimit="10" stroke-linecap="round"/>
</g>
<defs>
<filter id="filter0_d_466_198" x="-3.55029" y="0" width="4337.64" height="2383.51" filterUnits="userSpaceOnUse" color-interpolation-filters="sRGB">
<feFlood flood-opacity="0" result="BackgroundImageFix"/>
<feColorMatrix in="SourceAlpha" type="matrix" values="0 0 0 0 0 0 0 0 0 0 0 0 0 0 0 0 0 0 127 0" result="hardAlpha"/>
<feOffset dy="4"/>
<feGaussianBlur stdDeviation="2"/>
<feComposite in2="hardAlpha" operator="out"/>
<feColorMatrix type="matrix" values="0 0 0 0 0 0 0 0 0 0 0 0 0 0 0 0 0 0 0.25 0"/>
<feBlend mode="normal" in2="BackgroundImageFix" result="effect1_dropShadow_466_198"/>
<feBlend mode="normal" in="SourceGraphic" in2="effect1_dropShadow_466_198" result="shape"/>
</filter>
</defs>
</svg>
